<svg width="721" height="663" viewBox="0 0 721 663" fill="none" xmlns="http://www.w3.org/2000/svg">
<path fill-rule="evenodd" clip-rule="evenodd" d="M209.042 446.853C111.917 471.124 56.3471 437.236 42.3331 345.188C21.3122 207.116 92.5216 62.0623 190.228 48.1571C287.935 34.2519 329.009 73.9167 397.681 123.726C466.354 173.536 665.392 290.733 688.005 310.624C710.618 330.514 759.002 408.24 662.225 457.472C597.708 490.294 517.446 484.112 421.441 438.928C387.691 423.11 356.958 414.739 329.24 413.815C301.521 412.891 261.455 423.904 209.042 446.853Z" fill="#FFF1F1"/>
<path d="M319.751 271.561C328.481 277.669 331.991 285.571 330.282 295.266C322.106 308.404 318.017 319.78 318.017 329.396C318.017 339.011 317.402 351.519 316.172 366.919L248.219 368.458L248.075 368.365C246.259 368.402 244.474 368.433 242.719 368.458C227.595 368.669 214.178 370.816 213.545 370.921C208.593 371.745 199.669 361.896 197.192 358.559C193.212 353.198 191.321 346.853 190.48 339.947C189.687 333.433 190.806 327.377 193.002 321.571C195.569 314.788 199.587 308.917 204.681 303.746C210.267 298.257 216.282 293.775 223.026 290.471C223.287 290.342 228.127 287.788 228.359 287.822C228.514 287.845 236.252 290.502 247.013 295.891C259.226 286.585 272.435 276.737 286.643 266.349C299.986 263.716 311.022 265.453 319.751 271.561Z" fill="#FFC7C8"/>
<path fill-rule="evenodd" clip-rule="evenodd" d="M231.825 430.098C242.51 432.457 248.951 427.963 251.149 416.615C254.446 399.593 234.526 402.635 228.43 393.875C222.334 385.114 235.856 383.358 251.149 388.617C266.456 387.897 270.874 388.837 271.753 384.312C272.632 379.786 264.657 376.935 243.357 377.681C222.056 378.428 225.189 378.459 226.809 397.537C227.89 410.255 229.562 421.109 231.825 430.098Z" fill="white"/>
<path d="M497.37 466.452C489.158 459.17 483.374 454.589 480.274 451.66C472.87 444.665 465.287 437.891 457.818 430.975C456.282 429.553 454.791 428.023 453.527 426.329C451.941 424.204 452.303 422.737 454.806 421.702C456.782 420.885 458.941 420.51 461.05 420.149C467.338 419.071 473.637 418.064 479.941 417.096C482.71 416.67 485.503 416.421 488.28 416.051C488.777 415.985 489.25 415.719 489.734 415.545C489.494 415.127 489.31 414.652 489.004 414.298C486.572 411.482 484.117 408.689 481.668 405.89C481.452 405.644 481.223 405.411 481.001 405.172C481.349 405.081 481.693 404.961 482.046 404.905C488.5 403.884 494.953 402.857 501.41 401.861C505.65 401.207 509.889 400.53 514.143 399.994C518.495 399.446 522.861 399.001 527.229 398.614C531.135 398.269 535.057 398.123 538.963 397.774C541.465 397.551 543.944 397.022 546.446 396.805C549.575 396.534 552.72 396.491 555.853 396.261C559.766 395.974 563.67 395.552 567.584 395.272C570.873 395.037 574.173 394.973 577.463 394.734C580.116 394.542 582.756 394.123 585.41 393.951C588.004 393.783 590.607 393.801 593.206 393.736C599.935 393.567 606.664 393.361 613.394 393.242C617.511 393.169 621.664 392.895 625.736 393.365C627.859 393.611 630.286 394.786 631.8 396.388C635.624 400.435 639.014 404.957 642.568 409.298C644.748 411.959 646.931 414.618 649.076 417.311C653.596 422.987 658.083 428.695 662.607 434.368C664.012 436.13 665.516 437.802 666.927 439.559C667.331 440.062 667.568 440.721 667.882 441.309C667.437 440.919 666.111 439.702 666.552 440.132C710.195 482.696 526.402 491.745 497.37 466.452Z" fill="white"/>
<path d="M0.226448 309.177C0.37523 304.794 0.501716 300.411 0.660451 296.029C0.711736 294.613 0.861113 293.202 0.942651 291.787C1.61972 280.038 2.92187 268.363 5.72669 256.972C7.96493 247.883 10.9204 239.042 14.5125 230.406C18.6099 220.555 23.5915 211.292 29.3314 202.484C32.2558 197.997 35.4499 193.672 38.8484 189.582C42.9374 184.661 47.1386 179.789 51.7211 175.406C56.9527 170.402 62.5748 165.842 68.2206 161.366C69.4777 160.369 71.6998 159.883 73.1999 160.299C75.834 161.03 76.215 163.485 74.2001 165.359C69.6249 169.616 67.4478 175.05 67.1125 181.361C66.9274 184.847 67.2319 188.362 67.0514 191.848C66.4564 203.341 69.587 213.92 74.2231 224.011C78.6555 233.659 85.1095 241.605 94.3703 246.247C99.684 248.91 105.366 250.779 110.962 252.749C115.823 254.461 120.804 255.782 125.716 257.331C130.535 258.849 135.283 260.227 140.389 258.402C143.009 257.465 144.974 259.977 143.971 262.699C140.178 272.99 136.945 283.672 130.282 292.35C126.285 297.555 121.661 302.373 116.714 306.553C109.451 312.688 101.101 317.063 92.7595 321.372C84.6236 325.575 76.6712 330.185 68.4994 334.304C59.2935 338.944 49.9644 343.312 40.629 347.652C33.0976 351.153 25.4945 354.483 17.8838 357.785C16.0639 358.575 14.1146 359.128 12.1751 359.473C10.2318 359.818 5.96259 356.552 5.19992 354.393C3.26448 348.914 1.94887 343.28 1.40555 337.44C1.0749 333.886 0.629856 330.345 0.118099 326.798C2.39166e-08 326.546 -3.18888e-08 326.294 0.118098 325.917C0.314927 321.057 0.39748 316.322 0.452319 311.588C0.453827 311.458 0.157463 311.323 0 311.191C0 310.604 0 310.016 0 309.303C0.0787153 309.177 0.226345 309.18 0.226448 309.177Z" fill="white"/>
<path fill-rule="evenodd" clip-rule="evenodd" d="M315.358 366.764L458.365 362.858H464.231C472.782 369.686 482.165 372.629 492.378 371.686C507.697 370.271 521.224 352.145 524.383 326.875C524.849 324.905 525.978 324.431 527.771 325.454C529.744 329.58 533.246 331.379 538.277 330.853C540.462 330.6 541.677 331.148 542.91 333.689C544.143 336.231 550.662 339.428 554.748 336.862C558.835 334.297 577.673 301.585 577.673 296.081C577.673 290.577 578.73 278.556 579.562 277.779C580.393 277.003 581.957 277.633 584.993 276.602C588.03 275.57 590.628 276.596 600.363 249.203C610.097 221.809 624.991 180.859 626.578 152.184C628.164 123.509 609.27 133.644 600.363 145.61C591.455 157.575 566.624 188.386 543.642 205.117C540.83 207.368 538.534 208.427 536.756 208.292C535.689 201.171 531.321 198.518 523.652 200.332C520.671 200.907 518.231 198.38 516.333 192.754C511.416 163.545 500.207 142.409 482.705 129.347C456.453 109.753 411.72 98.5562 400.957 139.523C393.782 166.834 398.096 200.016 413.899 239.067L407.319 245.172C381.43 254.772 360.28 266.624 343.87 280.727C319.255 301.881 318.785 322.516 317.479 339.537C316.608 350.884 315.901 359.959 315.358 366.764Z" fill="#EBF0F7"/>
<path d="M262.441 248.813C262.66 246.594 262.76 244.361 262.999 242.145C263.012 242.026 264.063 241.771 264.365 241.994C267.18 244.067 269.964 246.191 272.692 248.394C273.431 248.991 273.489 249.584 273.824 248.022C274.349 245.581 277.589 244.899 279.53 246.634C283.98 250.613 286.226 255.964 287.855 261.781C289.268 266.828 288.708 271.957 288.846 277.056C288.934 280.328 291.793 282.796 294.794 282.928C297.012 283.026 299.346 284.069 301.342 285.25C306.172 288.105 309.277 292.611 310.803 298.287C312.447 304.399 310.918 309.841 307.613 314.919C304.607 319.538 301.87 324.376 297.508 327.763C295.095 329.637 292.315 331.192 290.426 333.558C288.397 336.099 286.068 337.756 283.306 338.899C276.501 341.714 269.066 338.063 265.733 331.98C262.214 323.955 249.651 330.495 244.783 318.657C242.327 314.749 241.37 311.473 241.9 311.146C242.547 310.746 241.652 309.735 240.508 308.446C235.509 302.817 231.068 296.721 228.031 289.583C227.551 288.456 227.056 287.294 226.847 286.093C226.718 285.355 226.91 284.301 227.356 283.791C227.637 283.471 228.755 283.701 229.32 284.032C230.167 284.528 230.838 285.359 231.62 285.996C232.954 287.082 233.694 286.62 233.333 284.926C232.306 280.111 233.25 275.54 234.829 271.122C235.681 268.74 237.068 266.567 238.354 264.396C238.476 264.189 239.714 264.501 240.252 264.875C241.251 265.567 242.116 266.482 243.037 267.304C243.099 265.988 243.118 264.668 243.238 263.358C243.31 262.58 243.488 261.801 243.709 261.052C244.812 257.302 245.403 257.113 248.323 259.464C248.715 259.779 249.183 259.985 249.616 260.241C249.676 259.764 249.754 259.288 249.791 258.809C250.114 254.688 249.344 250.948 246.533 247.888C246.5 247.852 247.11 246.776 247.461 246.747C251.509 246.406 255.558 246.226 259.261 248.545C260.018 249.019 260.774 249.496 261.647 250.098C261.999 249.755 262.393 249.304 262.441 248.813Z" fill="white"/>
<path fill-rule="evenodd" clip-rule="evenodd" d="M322.473 97.2183C310.518 107.84 305.097 123.218 306.209 143.351C307.877 173.552 340.651 195.067 356.503 185.96C372.356 176.853 389.86 163.587 391.95 135.347C392.838 162.219 395.466 175.297 361.669 194.785C327.873 214.273 292.541 184.035 287.43 171.571C282.32 159.108 270.017 131.594 294.987 99.674C298.404 95.4524 307.566 94.6338 322.473 97.2183Z" fill="white"/>
<path fill-rule="evenodd" clip-rule="evenodd" d="M607.323 450.569C610.215 450.229 612.879 449.956 615.523 449.536C621.53 448.58 627.524 447.529 633.529 446.56C637.102 445.984 640.729 445.704 644.252 444.889C646.724 444.318 648.963 444.689 651.24 445.493C651.606 445.622 651.886 446.03 652.206 446.31C651.822 446.54 651.455 446.923 651.051 446.978C645.771 447.692 640.477 448.287 635.205 449.06C629.904 449.837 624.629 450.82 619.332 451.632C615.641 452.198 611.929 452.6 608.233 453.129C606.306 453.404 604.4 453.849 602.473 454.124C599.745 454.513 597.001 454.773 594.274 455.167C591.075 455.629 587.889 456.202 584.691 456.677C582.12 457.058 579.536 457.336 576.964 457.712C573.688 458.191 570.42 458.737 567.145 459.229C564.729 459.592 562.309 459.92 559.889 460.251C557.341 460.6 554.782 460.872 552.244 461.295C550.708 461.551 549.295 461.539 548.839 459.644C548.423 457.917 549.246 456.563 550.816 456.19C552.965 455.68 555.172 455.4 557.367 455.178C559.974 454.914 562.594 454.801 565.21 454.65C568.429 454.464 571.655 454.368 574.87 454.12C578.292 453.855 581.702 453.434 585.121 453.123C589.142 452.758 593.17 452.491 597.186 452.076C599.273 451.86 601.339 451.408 603.417 451.082C604.638 450.891 605.863 450.739 607.323 450.569Z" fill="#A89CE3"/>
<path fill-rule="evenodd" clip-rule="evenodd" d="M544.589 426.695C547.482 426.527 550.143 426.409 552.795 426.178C555.612 425.933 558.417 425.527 561.235 425.292C564.398 425.03 567.572 424.923 570.736 424.671C574.325 424.384 577.906 423.981 581.495 423.685C584.148 423.467 586.812 423.388 589.464 423.16C592.791 422.875 596.109 422.463 599.436 422.178C602.089 421.95 604.753 421.878 607.406 421.651C610.911 421.351 614.406 420.791 617.915 420.665C621.918 420.522 625.939 419.186 629.939 420.666C630.415 420.842 630.848 421.153 631.301 421.401C630.871 421.488 630.443 421.608 630.008 421.657C626.973 422.003 623.933 422.297 620.901 422.678C617.219 423.142 613.552 423.749 609.865 424.152C607.169 424.447 604.443 424.428 601.744 424.703C598.042 425.08 594.359 425.651 590.659 426.05C587.974 426.339 585.274 426.462 582.583 426.701C579.075 427.012 575.568 427.354 572.062 427.705C568.868 428.024 565.673 428.344 562.483 428.715C558.41 429.189 554.348 429.77 550.271 430.202C546.403 430.611 542.519 430.84 538.65 431.241C535.959 431.52 533.289 432.05 530.595 432.276C529.544 432.364 528.372 432.12 527.408 431.662C526.719 431.333 526.284 430.395 525.736 429.729C526.432 429.221 527.095 428.341 527.83 428.266C532.294 427.808 536.777 427.55 541.251 427.186C542.29 427.101 543.319 426.863 544.589 426.695Z" fill="#A89CE3"/>
<path fill-rule="evenodd" clip-rule="evenodd" d="M298.551 490.166C298.308 490.375 298.182 490.534 298.06 490.53C296.955 490.496 295.851 490.433 294.746 490.378C295.801 489.598 296.765 488.398 297.927 488.112C302.501 486.99 306.62 485.01 310.437 482.09C315.423 478.275 318.502 473.272 319.622 466.879C319.795 465.894 319.536 465.453 318.428 465.459C316.846 465.468 315.26 465.19 313.679 464.999C310.586 464.623 308.124 462.279 307.852 459.484C307.678 457.692 310.189 453.938 312.043 452.969C316.357 450.716 321.15 455.164 322.376 459.017C322.869 460.568 323.104 460.005 323.755 459.367C326.834 456.351 327.843 452.477 327.598 448.223C327.336 443.677 325.468 440.02 321.788 437.462C320.513 436.575 320.024 435.313 321.012 433.702C322.09 431.945 325.081 431.826 326.25 433.38C327.829 435.48 329.215 437.901 330.087 440.418C332.202 446.522 331.66 452.457 328.103 457.918C327.849 458.309 327.639 458.76 327.311 459.065C324.519 461.664 323.015 464.898 321.88 468.708C318.513 480.009 310.786 486.68 300.312 490.021C299.807 490.181 299.218 490.041 298.551 490.166ZM312.798 455.989C310.776 457.272 310.224 460.956 312.138 461.597C314.348 462.337 316.903 461.929 319.308 461.954C319.411 461.955 319.584 461.306 319.617 460.949C319.931 457.485 316.9 455.093 312.798 455.989Z" fill="#333333"/>
<path fill-rule="evenodd" clip-rule="evenodd" d="M580.719 437.743C587.393 437.064 593.826 436.332 600.269 435.723C604.835 435.292 609.418 435.072 613.986 434.67C616.805 434.422 619.614 434.023 622.424 433.665C626.303 433.17 630.183 432.248 634.055 432.296C636.263 432.323 638.831 433.091 640.335 435.489C640.452 435.674 640.583 435.849 640.707 436.03C640.416 436.091 640.103 436.26 639.836 436.199C634.787 435.053 629.821 436.162 624.811 436.658C621.318 437.003 617.768 436.592 614.253 436.761C610.724 436.932 607.209 437.417 603.686 437.739C599.797 438.095 595.9 438.37 592.016 438.782C589.929 439.004 587.868 439.501 585.784 439.766C582.687 440.16 579.575 440.412 576.479 440.811C572.937 441.267 569.392 441.724 565.875 442.351C561.694 443.097 557.55 444.088 553.372 444.855C549.233 445.616 545.087 446.428 540.911 446.822C539.009 447.001 536.996 446.367 535.094 445.842C533.633 445.439 533.964 444.335 534.896 443.611C535.647 443.027 536.569 442.52 537.471 442.369C540.188 441.913 542.932 441.64 545.666 441.31C548.556 440.961 551.444 440.576 554.34 440.302C558.464 439.913 562.598 439.657 566.72 439.253C569.225 439.008 571.712 438.548 574.214 438.266C576.298 438.03 578.393 437.913 580.719 437.743Z" fill="#A89CE3"/>
<path fill-rule="evenodd" clip-rule="evenodd" d="M536.46 416.691C541.966 416.017 547.232 415.307 552.506 414.683C555.934 414.277 559.379 414.044 562.806 413.641C564.809 413.405 566.79 412.963 568.787 412.657C570.158 412.447 571.541 412.329 572.916 412.14C577.12 411.563 581.315 410.904 585.526 410.403C589.81 409.894 594.114 409.582 598.4 409.099C602.326 408.656 606.232 407.967 610.165 407.668C611.578 407.56 613.07 408.185 614.473 408.655C614.94 408.811 615.244 409.526 615.623 409.986C615.086 410.176 614.558 410.492 614.011 410.534C610.95 410.771 607.88 410.888 604.821 411.147C601.591 411.421 598.366 411.777 595.144 412.153C592.675 412.442 590.218 412.843 587.75 413.147C584.791 413.512 581.817 413.762 578.865 414.18C574.531 414.794 570.213 415.534 565.884 416.18C561.195 416.879 556.489 417.46 551.81 418.229C547.769 418.892 543.761 419.784 539.728 420.508C534.426 421.459 529.111 422.318 523.81 423.273C521.874 423.622 520.699 422.439 520.524 420.79C520.365 419.297 521.592 418.753 523.16 418.641C527.277 418.346 531.373 417.709 535.474 417.179C535.738 417.144 535.975 416.859 536.46 416.691Z" fill="#A89CE3"/>
<path fill-rule="evenodd" clip-rule="evenodd" d="M597.961 469.628C592.825 470.317 587.923 470.99 583.026 471.7C580.94 472.003 578.866 472.583 576.782 472.611C576.105 472.621 574.758 471.128 574.863 470.585C575.077 469.483 575.958 467.838 576.764 467.688C580.195 467.049 583.701 466.888 587.177 466.526C590.313 466.2 593.445 465.827 596.582 465.501C600.058 465.14 603.535 464.793 607.015 464.469C610.911 464.106 614.808 463.753 618.708 463.44C621.379 463.226 624.06 463.143 626.729 462.902C629.868 462.618 632.996 462.187 636.135 461.895C638.646 461.661 641.172 461.604 643.682 461.349C646.27 461.085 648.846 460.674 651.429 460.339C651.741 460.299 652.083 460.253 652.372 460.349C653.37 460.677 654.351 461.067 655.338 461.433C654.468 461.755 653.618 462.246 652.725 462.372C647.437 463.116 642.136 463.755 636.845 464.472C633.325 464.949 629.818 465.548 626.294 465.999C623.061 466.413 619.809 466.652 616.576 467.067C614.874 467.285 613.205 467.824 611.502 468.026C607.878 468.454 604.239 468.741 600.61 469.125C599.799 469.211 599.002 469.456 597.961 469.628Z" fill="#A89CE3"/>
<path fill-rule="evenodd" clip-rule="evenodd" d="M204.681 303.746C210.267 298.257 216.282 293.776 223.026 290.471C223.287 290.342 223.555 290.031 223.788 290.065C224.801 290.214 225.802 290.459 226.807 290.67C226.079 291.202 225.402 291.851 224.616 292.25C216.814 296.214 209.547 301.024 203.636 307.914C197.89 314.611 193.771 322.126 192.863 331.508C192.027 340.133 193.048 348.2 197.599 355.474C200.042 359.379 203.34 362.292 207.347 364.226C207.666 364.38 207.965 364.578 208.274 364.756C207.916 364.834 207.56 364.927 207.199 364.987C202.248 365.811 199.669 361.896 197.192 358.559C193.212 353.198 191.321 346.853 190.48 339.947C189.687 333.433 190.806 327.377 193.002 321.571C195.569 314.788 199.587 308.917 204.681 303.746Z" fill="#F8F9FA"/>
<path fill-rule="evenodd" clip-rule="evenodd" d="M514.507 415.178C513.665 413.194 514.884 410.996 516.82 411.015C520.127 411.049 523.433 411.286 526.738 411.465C529.267 411.601 531.794 411.78 534.322 411.939C534.627 411.959 535.01 411.857 535.221 412.01C535.924 412.518 536.566 413.117 537.231 413.681C536.59 414.019 535.967 414.598 535.304 414.651C533.255 414.814 531.173 414.973 529.136 414.775C525.531 414.425 522.123 415.293 518.794 416.386C516.981 416.981 515.838 416.361 514.507 415.178Z" fill="#E7EAEE"/>
<path fill-rule="evenodd" clip-rule="evenodd" d="M36.9494 251.682C36.4779 254.75 35.9558 257.558 35.5531 260.386C35.2979 262.178 35.2408 264.001 35.0587 265.806C34.7614 268.751 34.2389 271.687 34.1591 274.638C33.9659 281.784 34.0267 288.936 33.8844 296.084C33.7472 302.977 34.9864 309.649 36.4854 316.289C36.7766 317.579 36.8647 319.099 37.5784 320.061C38.6738 321.538 37.6568 322.253 36.8878 322.48C36.1531 322.696 34.7198 322.31 34.4252 321.716C33.6181 320.09 33.0713 318.252 32.7404 316.432C31.9021 311.821 30.8859 307.199 30.591 302.534C30.192 296.222 30.4686 289.865 30.3305 283.53C30.1631 275.851 31.2183 268.312 32.2024 260.742C33.8266 248.247 36.1489 235.929 39.8321 223.938C40.2767 222.49 41.2751 221.092 42.3379 220.044C43.6363 218.763 45.6365 219.934 45.9227 221.866C46.2612 224.152 45.2892 225.903 44.1171 227.631C40.5888 232.836 38.8248 238.77 37.8928 245.04C37.5763 247.169 37.2637 249.3 36.9494 251.682Z" fill="#8B5177"/>
<path fill-rule="evenodd" clip-rule="evenodd" d="M60.7408 306.167C60.5746 307.736 63.2085 309.618 60.272 310.211C59.4779 310.371 57.7404 308.67 57.3751 307.517C56.2684 304.024 55.1972 300.416 54.8997 296.787C54.4889 291.774 54.7967 286.701 54.7967 281.653C54.7967 281.068 54.7967 280.482 54.7967 279.897C54.7967 271.95 54.8305 264.003 54.774 256.056C54.759 253.95 54.2994 251.84 54.3568 249.741C54.399 248.197 54.6979 246.54 55.3607 245.172C55.8345 244.195 57.0585 243.112 58.0288 243.027C58.6957 242.968 60.0334 244.475 60.1421 245.394C60.4267 247.802 60.3121 250.28 60.1441 252.715C60.0137 254.605 59.3944 256.464 59.288 258.353C59.0221 263.075 58.9061 267.805 58.764 272.533C58.5801 278.653 58.0598 284.795 58.3789 290.889C58.6427 295.926 59.9152 300.909 60.7408 306.167Z" fill="#8B5177"/>
<path fill-rule="evenodd" clip-rule="evenodd" d="M83.2147 295.97C78.7527 288.575 75.4269 280.764 73.3458 272.38C72.9261 270.689 73.2908 268.546 73.8823 266.861C74.1664 266.053 76.14 265.145 76.779 265.505C77.6458 265.994 78.3358 267.613 78.4554 268.825C78.9173 273.502 79.2145 278.131 80.6534 282.682C82.4019 288.212 85.4007 292.827 88.3053 297.568C88.9097 298.555 90.7181 299.53 89.4426 300.781C88.1718 302.029 86.8804 300.583 85.9221 299.438C85.0212 298.361 84.1907 297.213 83.2147 295.97Z" fill="#8B5177"/>
<path fill-rule="evenodd" clip-rule="evenodd" d="M103.692 280.124C101.008 277.324 98.3214 274.773 95.9188 271.929C94.6691 270.449 94.9034 268.569 96.4054 267.157C97.9033 265.749 98.8404 267.063 99.7033 268.134C102.968 272.188 106.187 276.287 109.409 280.383C109.591 280.615 109.785 281.2 109.738 281.234C109.212 281.626 108.531 282.346 108.099 282.205C106.623 281.721 105.231 280.927 103.692 280.124Z" fill="#8B5177"/>
<path fill-rule="evenodd" clip-rule="evenodd" d="M245.064 620.414C251.133 622.042 256.99 623.582 262.771 625.38C263.831 625.709 264.585 627.083 265.481 627.974C264.224 628.06 262.889 628.474 261.726 628.175C255.721 626.634 249.706 625.087 243.799 623.198C238.003 621.345 232.33 619.081 226.607 616.987C226.335 616.887 226.108 616.661 225.846 616.521C224.445 615.77 222.952 615.007 224.056 612.991C225.074 611.132 226.658 611.177 228.226 612.127C230.525 613.521 232.642 615.279 235.037 616.447C238.199 617.989 241.555 619.111 245.064 620.414Z" fill="#B3C8E1"/>
<path fill-rule="evenodd" clip-rule="evenodd" d="M252.991 601.258C255.457 602.784 257.823 604.142 260.134 605.603C260.625 605.914 260.916 606.599 261.3 607.112C260.481 607.461 259.485 608.329 258.872 608.079C253.967 606.073 249.12 603.893 244.285 601.69C241.629 600.479 239.003 599.179 236.414 597.806C234.966 597.038 233.315 596.233 234.569 593.855C235.352 592.371 237.209 592.003 238.936 593.014C243.575 595.73 248.225 598.424 252.991 601.258Z" fill="#B3C8E1"/>
<path fill-rule="evenodd" clip-rule="evenodd" d="M239.354 573.071C239.258 569.42 241.441 567.878 244.275 569.68C249.095 572.745 253.791 576.037 258.499 579.3C259.903 580.273 261.23 581.399 262.48 582.591C262.947 583.037 263.096 583.871 263.39 584.528C262.575 584.511 261.646 584.764 260.961 584.433C256.93 582.481 252.941 580.424 248.966 578.342C245.782 576.673 242.636 574.917 239.354 573.071Z" fill="#B3C8E1"/>
<path fill-rule="evenodd" clip-rule="evenodd" d="M255.692 547.647C259.833 547.705 262.028 550.658 264.393 553.271C265.073 554.022 265.623 554.96 266.03 555.908C266.435 556.848 266.981 558.132 265.858 558.769C265.352 559.055 264.233 558.488 263.556 558.036C261.615 556.738 259.785 555.256 257.851 553.943C257.157 553.471 256.186 553.427 255.532 552.918C254.577 552.174 253.794 551.186 252.938 550.302C253.779 549.417 254.621 548.532 255.692 547.647Z" fill="#B3C8E1"/>
<path fill-rule="evenodd" clip-rule="evenodd" d="M268.933 475.541C272.349 483.14 275.088 490.979 276.002 499.432C276.491 503.965 277.052 508.494 277.387 513.041C277.691 517.17 277.925 521.325 277.839 525.461C277.736 530.408 277.238 535.345 276.955 540.289C276.757 543.728 276.726 547.179 276.454 550.61C276.071 555.435 275.459 560.24 275.088 565.066C274.807 568.719 274.619 572.393 274.627 576.058C274.635 580.228 274.915 584.397 275.061 588.568C275.228 593.327 274.853 598.191 275.657 602.822C276.86 609.751 278.511 616.654 280.653 623.316C283.802 633.112 289.252 641.625 295.263 649.641C298.976 654.592 303.26 658.987 309.295 660.694C309.373 660.716 309.441 661.495 309.286 661.64C307.059 663.727 304.29 662.878 301.943 662.542C296.694 661.791 291.501 660.462 286.345 659.11C273.243 655.675 260.159 652.159 247.097 648.553C240.733 646.797 234.438 644.75 228.101 642.883C227.168 642.608 225.966 642.152 225.234 642.537C221.538 644.478 218.684 642.345 215.968 640.371C210.015 636.045 206.638 629.763 204.887 622.381C202.472 612.198 204.414 602.479 207.919 593.061C210.23 586.85 212.986 580.819 215.755 574.819C218.564 568.73 222.09 563.102 226.365 558.07C227.809 556.37 229.565 554.977 231.134 553.394C233.287 551.222 233.399 548.243 233.577 545.404C233.782 542.115 233.317 538.748 233.758 535.51C235.254 524.509 239.782 514.633 244.544 504.963C246.918 500.142 249.933 495.561 253.282 491.456C255.765 488.411 259.032 485.947 262.88 484.778C264.059 484.42 264.393 484.13 263.513 482.553C262.24 480.269 260.449 477.616 262.7 474.56C265.394 471.669 267.339 471.994 268.933 475.541ZM272.514 498.481C272.422 498.579 272.268 498.665 272.247 498.778C272.073 499.744 272.052 500.765 271.744 501.676C270.383 505.699 269.33 509.918 267.446 513.647C263.667 521.126 258.843 527.862 253.145 533.824C248.177 539.023 243.137 544.143 238.211 549.386C235.402 552.375 232.513 555.337 230.093 558.673C226.213 564.025 222.135 569.356 219.165 575.286C215.714 582.174 213.127 589.606 210.629 596.982C209.06 601.616 207.997 606.527 207.339 611.412C206.633 616.661 207.577 621.898 209.792 626.682C211.424 630.21 213.723 633.133 217.488 634.404C221.991 635.925 226.413 637.721 230.905 639.279C240.874 642.738 250.809 646.331 260.867 649.468C268.397 651.817 276.077 653.632 283.728 655.506C288.061 656.567 292.469 657.284 296.853 658.092C297.2 658.156 297.628 657.71 298.018 657.501C297.822 657.203 297.652 656.88 297.426 656.611C295.824 654.709 294.04 652.952 292.635 650.896C288.767 645.238 284.529 639.767 281.399 633.654C275.844 622.807 272.121 611.177 271.287 598.668C271.03 594.816 270.667 590.973 270.354 586.621C270.354 581.791 270.172 576.951 270.409 572.135C270.612 568.006 271.305 563.905 271.763 559.789C272.094 556.815 272.205 553.797 272.749 550.87C273.789 545.275 273.299 543.017 268.861 539.827C266.798 538.343 264.205 536.913 264.105 533.807C264.063 532.492 265.045 530.933 265.972 529.916C266.252 529.609 268.231 530.465 268.876 531.289C270.337 533.156 271.441 535.343 272.72 537.379C272.925 537.707 273.28 537.928 273.566 538.198C273.751 537.859 274.07 537.534 274.1 537.18C274.298 534.812 274.571 532.437 274.558 530.066C274.541 527.019 274.258 523.975 274.126 520.928C273.949 516.844 273.824 512.757 273.645 508.673C273.517 505.765 273.364 502.858 273.153 499.956C273.116 499.45 272.736 498.972 272.514 498.481ZM262.818 488.078C257.771 489.944 254.298 493.918 251.567 498.514C246.115 507.686 241.775 517.494 238.941 527.95C237.621 532.821 237.058 537.941 238.827 542.944C238.93 543.237 239.657 543.604 239.709 543.546C246.468 535.889 253.257 528.26 259.897 520.485C266.672 512.55 269.231 503.084 267.965 492.476C267.391 487.663 267.074 487.541 262.818 488.078ZM625.736 393.365C627.859 393.611 630.286 394.786 631.799 396.388C635.624 400.435 639.013 404.957 642.568 409.298C644.747 411.959 646.93 414.618 649.076 417.311C653.596 422.987 658.083 428.695 662.607 434.368C664.012 436.13 665.516 437.802 666.927 439.559C667.331 440.062 667.568 440.721 667.882 441.309C667.437 440.919 666.957 440.566 666.552 440.132C655.862 428.659 645.215 417.139 634.478 405.717C630.962 401.977 626.967 398.812 622.144 397.337C617.062 395.783 611.883 395.255 606.557 396.191C603.875 396.663 601.058 396.176 598.308 396.293C592.188 396.556 586.074 396.988 579.954 397.229C576.368 397.37 572.768 397.146 569.185 397.324C565.351 397.514 561.528 397.979 557.701 398.331C554.18 398.655 550.659 398.96 547.142 399.328C544.357 399.62 541.582 400.03 538.797 400.325C535.257 400.699 531.702 400.925 528.171 401.375C525.178 401.756 522.214 402.386 519.231 402.865C515.914 403.398 512.587 403.863 509.27 404.399C504.164 405.224 499.061 406.075 493.965 406.972C493.776 407.005 493.463 407.795 493.571 407.961C494.514 409.419 495.485 410.865 496.551 412.222C501.872 418.995 507.264 425.705 512.556 432.505C518.555 440.215 524.363 448.1 530.464 455.715C534.746 461.058 538.966 466.57 545.011 469.864C545.204 469.969 545.377 470.119 545.559 470.248C545.338 470.288 545.093 470.416 544.9 470.355C541.209 469.194 537.357 468.718 534.661 464.976C529.685 458.066 524.325 451.477 519.206 444.684C512.872 436.28 506.85 427.587 499.325 420.309C498.712 419.717 498.072 419.102 497.344 418.713C495.732 417.851 494.251 417.562 492.994 419.606C490.491 423.675 487.76 427.582 485.26 431.653C483.592 434.368 484.134 435.699 487.149 437.899C495.09 443.69 503.715 447.813 512.942 450.623C516.785 451.793 520.595 453.277 523.326 456.744C523.519 456.99 523.726 457.223 523.927 457.462C523.603 457.429 523.255 457.465 522.957 457.352C510.531 452.641 498.09 447.973 485.705 443.138C483.67 442.343 481.797 440.937 480.019 439.559C478.885 438.679 478.939 437.361 479.679 435.946C482.224 431.086 484.658 426.159 487.11 421.244C487.277 420.911 487.349 420.14 487.292 420.119C486.667 419.889 485.977 419.555 485.362 419.656C482.791 420.075 480.2 420.471 477.689 421.174C472.02 422.761 466.392 424.513 460.759 426.246C460.43 426.347 460.215 426.876 459.946 427.206C461.371 428.398 462.796 429.591 464.338 430.91C470.307 436.478 476.162 441.914 482.005 447.363C485.135 450.282 488.245 453.226 491.365 456.158C491.492 456.278 491.626 456.392 491.756 456.509C491.462 456.562 491.142 456.722 490.876 456.65C487.087 455.623 483.374 454.589 480.274 451.66C472.87 444.665 465.287 437.891 457.818 430.975C456.282 429.553 454.791 428.023 453.527 426.329C451.941 424.204 452.303 422.737 454.806 421.702C456.782 420.885 458.941 420.51 461.05 420.149C467.338 419.071 473.637 418.064 479.941 417.096C482.71 416.67 485.503 416.421 488.28 416.051C488.777 415.985 489.25 415.719 489.734 415.545C489.494 415.127 489.31 414.652 489.004 414.298C486.572 411.482 484.117 408.689 481.667 405.89C481.452 405.644 481.223 405.411 481.001 405.172C481.349 405.081 481.693 404.961 482.046 404.905C488.5 403.884 494.953 402.857 501.41 401.861C505.65 401.207 509.889 400.53 514.142 399.994C518.495 399.446 522.861 399.001 527.229 398.614C531.135 398.269 535.057 398.123 538.963 397.774C541.465 397.551 543.944 397.022 546.446 396.805C549.575 396.534 552.72 396.491 555.853 396.261C559.766 395.974 563.67 395.552 567.584 395.272C570.873 395.036 574.173 394.973 577.463 394.734C580.116 394.542 582.756 394.123 585.41 393.951C588.004 393.783 590.607 393.801 593.206 393.736C599.935 393.567 606.664 393.361 613.394 393.242C617.511 393.169 621.664 392.895 625.736 393.365ZM234.322 376.337C236.117 376.538 237.952 376.277 239.76 376.392C244.17 376.672 248.571 377.106 252.98 377.371C257.085 377.618 261.208 377.567 265.301 377.939C269.491 378.32 272.001 380.197 271.732 385.58C271.49 390.436 271.407 395.301 271.246 400.162C271.096 404.685 270.932 409.207 270.785 413.73C270.764 414.399 270.786 415.072 270.826 415.74C270.861 416.32 270.95 416.895 271.015 417.472C270.86 417.473 270.587 417.522 270.567 417.466C270.346 416.842 270.059 416.214 269.989 415.562C269.743 413.28 269.584 410.988 269.379 408.7C269.074 405.288 268.765 401.876 268.444 398.465C268.282 396.74 268.097 395.018 267.908 393.296C267.79 392.226 267.677 391.153 267.5 390.094C267.424 389.642 267.192 389.222 267.031 388.787C266.701 388.988 266.305 389.119 266.052 389.401C262.958 392.847 260.844 396.865 260.033 401.647C259.944 402.171 259.648 402.654 259.449 403.156C259.284 402.712 259.149 402.252 258.95 401.827C255.337 394.076 249.646 388.926 241.874 387.165C238.321 386.361 234.487 387.046 230.781 387.021C228.915 387.009 228.606 388.158 228.768 389.866C229.122 393.582 229.387 397.308 229.719 401.027C230.169 406.088 230.654 411.145 231.113 416.204C231.434 419.755 231.697 423.313 232.074 426.857C232.18 427.853 232.603 428.808 232.868 429.786C232.992 430.244 233.087 430.711 233.195 431.174C232.721 430.821 231.95 430.563 231.824 430.098C231.184 427.752 230.714 425.352 230.181 422.972C229.561 420.208 228.937 417.446 228.315 414.429C227.692 409.723 226.836 405.291 226.504 400.812C226.035 394.483 225.132 388.083 226.447 381.782C227.191 378.214 230.989 375.966 234.322 376.337ZM221.666 388.773C222.637 389.141 223.37 390.251 224.206 391.037C223.629 391.756 223.148 392.621 222.454 393.164C220.934 394.354 219.122 395.163 217.758 396.517C214.517 399.735 216.05 406.13 219.414 407.819C220.965 408.598 222.515 409.392 224.013 410.282C224.555 410.604 224.946 411.227 225.405 411.713C224.846 411.729 224.287 411.745 223.728 411.761C220.137 411.861 217.444 410.082 215.433 406.987C212.402 402.324 214.011 397.764 217.579 394.116C217.915 393.772 218.22 393.392 218.564 393.057C219.006 392.627 219.474 392.226 219.931 391.812C219.042 391.691 218.063 391.246 217.283 391.505C214.37 392.475 212.716 395.084 211.832 397.939C208.794 407.745 215.974 415.688 224.121 414.665C224.982 414.557 225.911 415.099 226.808 415.339C226.592 415.485 226.393 415.685 226.158 415.767C219.337 418.151 213.526 415.449 210.231 408.385C210.004 407.898 209.693 407.457 209.421 406.743C207.844 398.081 211.211 391.621 218.599 389.039C219.567 388.7 220.774 388.435 221.666 388.773ZM229.972 378.942C228.526 379.298 228.018 380.972 228.784 382.458C229.831 384.492 231.446 384.568 233.393 384.362C236.464 384.036 239.594 383.782 242.655 384.062C246.537 384.417 250.357 385.554 254.238 385.947C257.47 386.274 260.753 386.014 264.247 385.76C265.613 385.676 266.977 385.566 268.343 385.513C269.985 385.449 270.923 384.039 270.039 382.531C269.496 381.606 268.377 380.643 267.424 380.515C263.434 379.981 259.413 379.667 255.395 379.448C252.554 379.292 249.696 379.54 246.855 379.389C242.553 379.16 238.264 378.678 233.963 378.44C232.641 378.367 231.274 378.622 229.972 378.942ZM442.847 360.627C447.598 360.728 452.336 361.552 457.078 362.079C457.432 362.119 457.814 362.238 458.109 362.444C458.728 362.878 459.298 363.394 459.888 363.876C459.134 363.955 458.382 364.056 457.627 364.112C452.897 364.459 448.168 364.828 443.435 365.107C442.649 365.154 441.833 364.612 441.046 364.657C436.157 364.938 431.273 365.353 426.383 365.616C425.282 365.675 424.153 365.112 423.053 365.172C418.319 365.433 413.593 365.855 408.86 366.13C407.995 366.18 407.101 365.632 406.236 365.681C401.346 365.957 396.462 366.372 391.572 366.64C390.55 366.696 389.5 366.137 388.478 366.195C383.744 366.46 379.018 366.882 374.284 367.152C373.341 367.206 372.369 366.652 371.425 366.705C366.535 366.977 361.652 367.388 356.762 367.665C355.896 367.714 355.003 367.167 354.138 367.216C349.248 367.492 344.364 367.896 339.474 368.177C338.687 368.222 337.872 367.681 337.085 367.726C332.195 368.007 327.312 368.422 322.421 368.685C321.321 368.745 320.192 368.181 319.092 368.242C314.358 368.503 309.632 368.924 304.898 369.199C304.034 369.249 303.14 368.701 302.274 368.75C297.384 369.027 292.501 369.438 287.611 369.71C286.667 369.763 285.695 369.21 284.751 369.263C279.94 369.534 275.135 369.95 270.323 370.222C269.38 370.275 268.407 369.722 267.464 369.774C262.574 370.047 257.69 370.461 252.8 370.733C251.856 370.786 250.884 370.232 249.941 370.286C245.207 370.557 240.481 370.971 235.747 371.246C234.883 371.296 233.989 370.748 233.123 370.797C228.234 371.073 223.35 371.474 218.46 371.759C217.751 371.801 217.013 371.261 216.306 371.308C212.273 371.573 208.248 371.978 204.216 372.248C201.471 372.432 198.708 372.352 195.971 372.607C192.059 372.97 188.139 373.371 184.269 374.06C181.241 374.598 178.307 375.769 175.277 376.283C174.423 376.428 173.165 375.436 172.524 374.583C172.253 374.222 172.864 372.562 173.472 372.026C175.964 369.827 178.964 369.454 182.303 369.742C184.382 369.572 186.226 369.412 188.068 369.228C191.415 368.895 194.755 368.443 198.108 368.234C202.532 367.957 206.967 367.708 211.396 367.732C218.832 367.772 226.267 368.149 233.703 368.171C239.23 368.187 244.758 367.877 250.285 367.693C254.951 367.538 259.615 367.352 264.281 367.185C269.181 367.011 274.081 366.847 278.981 366.672C283.647 366.506 288.314 366.385 292.976 366.147C298.52 365.865 304.057 365.438 309.601 365.171C310.781 365.114 311.984 365.666 313.166 365.619C320.198 365.34 327.227 364.958 334.258 364.635C335.537 364.576 336.825 364.705 338.1 364.612C342.284 364.309 346.461 363.9 350.647 363.637C351.589 363.578 352.563 364.14 353.506 364.081C357.769 363.817 362.025 363.398 366.288 363.123C367.074 363.073 367.892 363.623 368.677 363.572C372.862 363.298 377.039 362.877 381.225 362.614C382.166 362.555 383.141 363.117 384.083 363.058C388.347 362.794 392.602 362.367 396.866 362.102C397.808 362.044 398.783 362.606 399.725 362.546C403.832 362.284 407.93 361.849 412.037 361.592C413.057 361.528 414.111 362.097 415.131 362.034C419.239 361.777 423.337 361.354 427.444 361.076C428.15 361.029 428.89 361.572 429.597 361.527C434.017 361.246 438.438 360.533 442.847 360.627ZM442.767 109.91C453.124 110.937 462.882 114.494 471.864 119.991C477.144 123.221 482.052 127.216 486.86 131.232C494.318 137.462 500.177 145.267 505.235 153.778C509.007 160.126 512.306 166.755 514.264 173.973C516.045 180.535 517.638 187.206 518.632 193.944C519.35 198.81 518.925 203.864 519.058 208.834C519.195 213.912 518.698 218.921 518.194 223.973C516.962 236.304 514.804 248.385 511.572 260.3C510.17 265.471 511.182 270.821 512.101 276.057C512.906 280.643 514.391 284.929 516.668 288.914C516.943 289.395 516.921 290.068 517.036 290.652C516.453 290.611 515.838 290.684 515.291 290.512C511.341 289.275 510.061 285.823 509.119 282.043C508.443 279.331 507.832 276.562 506.801 273.999C505.621 271.067 505.163 271.345 502.573 272.727C497.241 275.573 491.821 278.275 486.287 280.635C478.791 283.831 470.908 285.488 462.934 286.827C458.605 287.554 454.233 288.968 450.973 292.355C449.458 293.93 448.284 296.165 447.638 298.333C446.829 301.047 446.645 303.908 448.15 306.718C449.042 308.383 449.98 308.665 451.464 308.228C458.667 306.104 465.819 303.746 473.091 301.935C478.676 300.544 484.433 299.962 490.074 298.801C495.928 297.597 501.823 297.303 507.753 297.331C508.199 297.333 508.645 297.458 509.091 297.527C508.687 297.626 508.285 297.736 507.879 297.825C502.367 299.034 496.85 300.22 491.342 301.453C486.351 302.57 481.373 303.757 476.383 304.878C470.805 306.131 465.207 307.286 459.642 308.6C456.927 309.242 454.211 309.982 451.593 310.971C447.94 312.352 446.792 314.781 446.592 319.222C446.365 324.219 447.171 328.898 448.292 333.536C450.306 341.862 453.757 349.454 459.338 355.875C464.028 361.272 469.317 365.643 476.041 367.505C479.667 368.509 483.458 369.142 487.198 369.294C491.861 369.484 496.393 368.548 500.816 366.555C506.356 364.059 510.637 360.135 513.812 354.884C517.301 349.116 519.596 342.737 520.424 335.905C521.111 330.234 521.827 324.506 521.785 318.81C521.726 310.596 520.139 302.58 517.175 294.933C516.99 294.457 516.271 293.787 517.684 293.743C521.422 293.627 525.131 297.278 525.18 301.442C525.225 305.25 525.344 309.069 525.156 312.867C524.815 319.75 531.674 328.748 537.327 330.3C538.562 330.639 538.674 330.17 538.372 329.485C534.926 321.671 537.04 314.03 539.087 306.479C543.039 291.901 548.456 277.89 553.88 263.88C559.185 250.18 564.278 236.386 569.428 222.618C573.797 210.94 578.096 199.232 582.461 187.552C586.664 176.306 590.913 165.079 595.147 153.845C595.283 153.486 595.505 153.163 595.638 152.802C595.889 152.119 596.105 151.42 596.336 150.728C595.677 151.205 594.863 151.547 594.385 152.179C588.727 159.659 583.461 167.513 577.407 174.604C570.937 182.182 563.912 189.255 556.797 196.157C551.714 201.088 546.086 205.379 540.691 209.941C540.186 210.368 539.602 210.689 539.055 211.06C539.107 210.378 539.223 209.693 539.202 209.013C539.037 203.8 543.554 203.331 546.271 201.054C550.362 197.625 554.614 194.403 558.568 190.806C565.936 184.104 571.801 175.924 577.775 167.865C579.39 165.686 581.12 163.605 582.915 161.352C588.153 155.257 593.081 149.083 598.449 143.38C603.157 138.38 608.388 134.008 614.998 131.95C617.945 131.032 623.301 133.138 625.283 136.468C627.351 139.943 628.175 143.753 628.165 147.896C628.143 156.495 626.509 164.826 624.813 173.154C622.963 182.241 621.169 191.345 619.108 200.378C617.899 205.677 616.478 210.956 614.698 216.063C610.463 228.213 606.163 240.347 601.481 252.305C598.817 259.11 595.522 265.658 592.172 272.121C590.314 275.705 587.57 278.436 583.156 278.22C581.347 278.132 580.185 280.388 579.936 283.141C579.573 287.144 579.266 291.182 578.495 295.107C576.935 303.054 573.611 310.279 569.625 317.125C566.613 322.298 563.265 327.246 560.157 332.356C558.004 335.895 555.153 338.751 551.247 338.972C548.801 339.11 546.256 337.448 543.774 336.536C543.37 336.388 543.014 335.985 542.718 335.623C541.502 334.13 540.566 331.926 539.048 331.294C537.629 330.703 535.564 332.192 533.855 332.007C530.934 331.692 528.492 330.069 526.706 327.454C526.358 326.944 525.962 325.758 525.583 327.708C524.554 332.999 523.251 338.238 521.861 343.438C519.328 352.915 514.637 361.063 507.47 367.267C503.028 371.112 497.908 373.659 491.911 374.011C485.829 374.369 480.376 372.602 474.934 370.01C467.231 366.341 460.462 361.34 454.137 355.404C445.064 346.891 438.186 336.69 433.464 324.983C430.823 318.434 429.273 311.361 427.484 304.449C425.682 297.484 423.414 290.804 419.686 284.696C416.308 279.162 413.844 273.111 412.91 266.559C412.598 264.375 413.292 261.946 413.847 259.721C414.953 255.291 415.563 250.821 414.629 246.336C414.163 244.101 412.888 242.074 412.149 239.887C409.184 231.114 406.066 222.39 403.44 213.501C401.628 207.372 400.375 201.036 399.17 194.728C398.399 190.688 398.159 186.532 397.701 182.426C397.368 179.43 396.959 176.438 396.779 173.431C396.52 169.11 396.575 164.765 396.247 160.452C395.824 154.889 396.594 149.38 397.871 144.152C399.12 139.038 401.559 134.19 403.897 129.462C406.605 123.984 410.314 119.281 415.33 115.951C419.81 112.978 424.592 110.768 429.907 110.35C434.186 110.014 438.528 109.489 442.767 109.91ZM408.673 244.145C408.375 244.671 408.196 245.428 407.761 245.686C405.214 247.195 402.666 248.728 400.009 249.988C395.501 252.125 390.911 254.066 386.12 256.089C378.633 259.663 371.232 262.931 364.171 266.897C357.138 270.848 350.598 275.697 344.493 281.245C335.558 289.367 328.347 298.897 323.689 310.402C321.786 315.104 320.482 320.255 319.846 325.337C319.005 332.06 319.108 338.917 318.769 345.715C318.484 351.421 318.168 357.124 317.822 362.826C317.691 364.977 316.13 363.381 315.311 363.771C315.246 363.802 314.566 362.937 314.607 362.54C315.001 358.747 315.71 354.978 315.893 351.178C316.125 346.388 315.913 341.574 315.957 336.772C316.04 327.568 317.676 318.731 321.248 310.309C324.574 302.465 329.06 295.518 334.385 289.089C342.421 279.385 352.042 271.958 362.532 265.701C372.453 259.783 382.738 254.729 393.386 250.494C398.005 248.657 402.502 246.468 407.066 244.47C407.561 244.254 408.136 244.248 408.673 244.145ZM534.63 355.535C538.709 356.15 542.769 356.914 546.844 357.568C549.329 357.968 551.819 358.467 554.32 358.586C557.985 358.759 561.663 358.564 565.333 358.652C568.022 358.716 570.709 358.962 573.395 359.163C575.298 359.305 577.196 359.626 579.099 359.659C583.502 359.734 587.907 359.734 592.311 359.672C602.627 359.529 612.943 359.218 623.259 359.235C625.895 359.239 628.53 360.211 631.167 360.731C631.319 360.762 631.542 360.66 631.628 360.747C632.231 361.363 632.806 362.012 633.391 362.65C632.628 362.714 631.865 362.83 631.102 362.832C625.884 362.848 620.666 362.889 615.45 362.816C613.39 362.788 611.335 362.392 609.274 362.332C601.712 362.112 594.148 361.947 586.584 361.796C583.884 361.743 581.182 361.788 578.246 361.788C574.864 361.788 571.717 361.851 568.573 361.773C563.761 361.654 558.951 361.353 554.139 361.283C548.058 361.195 541.971 361.386 535.893 361.207C533.047 361.123 530.203 360.531 527.38 360.021C525.803 359.736 525.435 358.168 525.958 356.894C526.32 356.014 527.529 355.091 528.397 355.044C530.463 354.93 532.565 355.223 534.63 355.535ZM413.899 249.947C413.731 250.046 413.513 250.103 413.404 250.252C409.969 254.903 406.149 259.297 403.217 264.288C399.278 270.994 396.025 278.174 394.079 285.894C393.026 290.067 392.267 294.325 391.352 298.538C390.752 301.302 389.392 303.584 387.165 305.115C384.207 307.148 381.073 308.896 378.158 310.995C370.901 316.22 366.305 323.618 363.626 332.394C362.127 337.304 361.183 342.331 362.05 347.59C362.577 350.787 362.797 354.043 363.126 357.276C363.178 357.79 363.079 358.323 363.05 358.847C362.413 358.785 361.471 358.981 361.198 358.612C360.45 357.599 359.641 356.403 359.471 355.182C358.962 351.537 358.76 347.843 358.406 344.172C358.332 343.406 358.118 342.656 357.968 341.899C357.333 342.655 356.607 343.344 356.079 344.178C352.556 349.742 349.088 355.346 345.557 360.905C345.299 361.312 344.694 361.466 344.251 361.738C344.136 360.889 343.669 359.842 343.97 359.225C345.088 356.932 346.31 354.661 347.763 352.601C351.164 347.779 355.019 343.294 358.109 338.264C360.146 334.948 361.249 330.953 362.631 327.203C364.045 323.365 366.277 320.223 369.164 317.55C372.806 314.179 376.43 310.786 380.18 307.277C382.728 304.382 385.454 301.842 387.516 298.788C390.236 294.759 391.203 289.85 392.304 285.07C394.632 274.957 398.777 265.789 404.896 257.67C406.42 255.648 407.865 253.524 409.603 251.733C410.547 250.759 412.025 250.371 413.28 249.761C413.43 249.689 413.69 249.879 413.899 249.947ZM73.1999 160.3C75.834 161.03 76.215 163.485 74.2001 165.359C69.6249 169.616 67.4478 175.05 67.1125 181.361C66.9274 184.847 67.2319 188.362 67.0514 191.848C66.4564 203.341 69.587 213.92 74.2231 224.011C78.6555 233.659 85.1095 241.605 94.3703 246.247C99.684 248.91 105.366 250.779 110.962 252.749C115.823 254.461 120.804 255.782 125.716 257.331C130.535 258.849 135.283 260.227 140.389 258.402C143.009 257.465 144.974 259.977 143.971 262.699C140.178 272.99 136.945 283.672 130.282 292.35C126.285 297.556 121.661 302.373 116.714 306.553C109.451 312.688 101.101 317.063 92.7595 321.372C84.6236 325.575 76.6712 330.186 68.4994 334.304C59.2935 338.944 49.9644 343.312 40.629 347.652C33.0976 351.153 25.4945 354.483 17.8838 357.785C16.0639 358.575 14.1146 359.128 12.1751 359.473C10.2318 359.818 5.96259 356.552 5.19992 354.393C3.26448 348.914 1.94887 343.28 1.40555 337.44C1.0749 333.887 0.629856 330.345 0.118099 326.798C2.91258e-08 326.546 -3.64072e-08 326.294 0.118098 325.917C0.314927 321.057 0.39748 316.322 0.452319 311.588C0.453827 311.458 0.157463 311.323 0 311.191V309.303C0.0787153 309.177 0.226345 309.18 0.226448 309.177C0.37523 304.794 0.501716 300.411 0.660451 296.029C0.711736 294.613 0.861113 293.202 0.942651 291.787C1.61972 280.038 2.92187 268.363 5.72669 256.972C7.96493 247.883 10.9204 239.042 14.5125 230.406C18.6099 220.555 23.5915 211.292 29.3314 202.484C32.2558 197.997 35.4499 193.672 38.8484 189.582C42.9374 184.661 47.1386 179.789 51.7211 175.406C56.9527 170.402 62.5748 165.842 68.2206 161.366C69.4777 160.369 71.6998 159.883 73.1999 160.3ZM66.3347 167.205C66.0695 167.333 65.7695 167.412 65.544 167.595C58.4455 173.364 51.3898 179.19 45.5118 186.427C41.8603 190.923 38.1275 195.356 34.68 200.026C26.3012 211.376 19.8172 223.885 14.8803 237.688C14.7127 238.202 14.5182 238.708 14.3815 239.232C12.2601 247.357 10.0155 255.449 8.09047 263.626C7.23648 267.254 6.99131 271.049 6.54327 274.779C6.05023 278.883 5.50109 282.989 5.24005 287.113C5.02499 290.51 5.31473 293.942 5.16386 297.347C4.97645 301.577 4.43081 305.791 4.29857 310.021C4.20923 312.879 4.63951 315.751 4.70512 318.62C4.78438 322.087 4.66351 325.558 4.74275 329.024C4.80773 331.867 4.87134 334.731 5.23907 337.54C5.68937 340.98 6.49156 344.366 7.07738 347.787C7.92324 352.728 9.8168 354.641 14.3297 354.991C17.4926 355.236 19.8964 353.232 20.3392 350.056C20.393 349.67 20.96 348.998 21.0338 349.035C25.0211 351.041 28.4822 349.021 31.9767 347.431C39.402 344.054 46.8606 340.752 54.2115 337.198C65.1489 331.91 76.041 326.512 86.8795 320.999C91.9505 318.419 96.9304 315.607 101.812 312.639C111.338 306.848 120.047 299.979 127.1 290.845C132.566 283.766 135.945 275.719 137.904 266.913C138.275 265.241 137.728 263.789 135.863 263.36C130.807 262.196 125.763 260.972 120.699 259.848C110.407 257.564 100.459 254.382 91.2097 248.813C79.3334 241.661 71.7256 230.861 67.1568 217.519C64.9894 211.19 63.2486 204.631 63.2936 197.738C63.3273 192.564 62.9023 187.343 63.4167 182.227C63.8922 177.498 65.3499 172.883 66.3574 168.213C66.4258 167.896 66.3457 167.542 66.3347 167.205ZM264.366 241.994C267.181 244.067 269.965 246.191 272.693 248.394C273.432 248.991 273.49 249.584 273.825 248.022C274.35 245.581 277.59 244.899 279.531 246.634C283.981 250.613 286.227 255.964 287.856 261.781C289.269 266.828 288.709 271.957 288.846 277.056C288.935 280.328 291.794 282.796 294.795 282.928C297.013 283.026 299.347 284.069 301.343 285.25C306.173 288.105 309.278 292.611 310.804 298.287C312.448 304.399 310.918 309.841 307.614 314.919C304.608 319.538 301.871 324.376 297.509 327.763C295.095 329.637 292.316 331.192 290.427 333.558C288.398 336.099 286.069 337.756 283.307 338.899C276.502 341.714 269.066 338.063 265.734 331.98C262.732 326.5 255.503 327.704 252.702 332.146C251.48 334.083 251.144 336.642 250.231 338.835C249.671 340.18 250.214 339.975 251.054 339.841C255.212 339.179 259.375 338.545 263.538 337.915C263.752 337.882 263.982 337.971 264.204 338.004C264.039 338.139 263.886 338.298 263.707 338.407C259.579 340.907 255.11 342.32 250.437 342.917C246.897 343.37 243.278 344.094 239.788 343.711C237.037 343.409 234.239 341.945 231.809 340.377C228.945 338.528 228.084 335.388 228.14 331.718C228.247 324.594 230.797 318.581 235.006 313.37C236.219 311.869 238.36 311.237 240.063 310.185C240.71 309.786 241.653 309.735 240.508 308.446C235.51 302.817 231.069 296.721 228.031 289.583C227.552 288.456 227.057 287.294 226.848 286.093C226.719 285.355 226.911 284.301 227.357 283.791C227.638 283.471 228.755 283.701 229.321 284.032C230.168 284.528 230.839 285.359 231.621 285.996C232.955 287.082 233.695 286.62 233.333 284.926C232.307 280.111 233.25 275.54 234.83 271.122C235.682 268.74 237.068 266.567 238.355 264.396C238.477 264.189 239.715 264.501 240.253 264.875C241.252 265.567 242.117 266.482 243.038 267.304C243.1 265.988 243.119 264.668 243.239 263.358C243.311 262.58 243.489 261.801 243.709 261.052C244.813 257.302 245.404 257.113 248.324 259.464C248.715 259.779 249.184 259.985 249.617 260.241L249.743 259.287C249.763 259.128 249.78 258.969 249.792 258.809C250.114 254.688 249.345 250.948 246.534 247.888C246.501 247.852 247.111 246.776 247.462 246.747C251.51 246.406 255.559 246.226 259.262 248.545C260.019 249.019 260.775 249.496 261.648 250.098C262 249.755 262.394 249.304 262.442 248.813C262.661 246.594 262.76 244.361 263 242.145C263.013 242.026 264.064 241.771 264.366 241.994ZM237.394 313.759C237.303 313.943 237.245 314.16 237.116 314.306C232.51 319.518 230.362 325.71 230.533 332.89C230.625 336.789 232.564 339.661 236.202 340.373C238.514 340.825 240.913 340.805 243.276 340.874C243.561 340.882 244.027 340.168 244.136 339.713C244.832 336.812 244.783 333.579 247.683 331.355C248.492 331.019 249.302 330.686 250.11 330.346C250.477 330.192 251.128 330.051 251.144 329.856C251.177 329.443 250.993 328.801 250.696 328.604C249.903 328.078 249.034 327.498 248.141 327.365C244.02 326.751 241.097 324.423 239.42 320.416C238.622 318.511 238.189 316.43 237.59 314.428C237.524 314.206 237.46 313.982 237.394 313.759ZM248.387 333.119C248.074 334.389 247.716 335.65 247.493 336.938C247.455 337.153 248.087 337.773 248.271 337.713C249.019 337.47 249.259 333.617 248.387 333.119ZM265.469 244.736C265.721 245.661 266.077 246.571 266.204 247.515C266.491 249.659 266.319 251.708 264.355 252.97C262.785 253.979 261.61 252.767 260.542 251.881C258.118 249.871 255.254 249.609 252.408 249.226C250.855 249.018 250.783 249.703 251.291 251.137C252.038 253.246 252.968 255.486 252.91 257.642C252.873 258.994 251.26 260.389 250.185 261.59C249.183 262.711 248.222 262.181 247.428 261.075C247.306 260.905 246.914 260.959 246.647 260.91C246.666 261.364 246.611 261.84 246.715 262.27C247.337 264.832 246.445 267.307 243.94 268.78C242.206 269.799 240.984 268.244 239.929 267.04C239.136 266.134 239.064 266.684 238.728 267.374C235.8 273.379 235.465 279.659 237.019 286.113C237.405 287.718 236.717 288.516 235.481 288.455C234.042 288.384 232.63 287.777 231.195 287.468C230.53 287.325 229.836 287.337 229.156 287.278C229.341 287.98 229.426 288.736 229.726 289.376C232.21 294.674 235.403 299.466 239.548 303.36C241.993 305.657 243.494 307.672 243.42 311.635C243.325 316.812 245.895 321.044 250.352 323.859C253.902 326.101 257.677 325.633 261.422 325.771C263.339 325.842 264.733 326.552 265.873 328.18L266.326 328.831C268.665 332.195 270.978 335.544 275.164 336.72C279.885 338.046 284.2 337.516 287.839 333.949C288.597 333.207 288.604 331.431 288.638 330.122C288.644 329.885 287.107 329.465 286.259 329.363C282.869 328.957 279.461 329.879 276.038 328.887C271.203 327.484 266.76 325.418 263.096 321.679C262.405 320.974 261.824 320.145 261.192 319.373C262.306 319.654 263.422 319.926 264.532 320.224C264.81 320.298 265.127 320.386 265.327 320.584C270.508 325.701 276.587 327.931 283.615 327.337C290.746 326.734 294.42 322.72 294.788 316.01C295.168 309.081 293.919 302.37 290.945 296.088C290.515 295.18 290.519 293.919 290.623 292.854C291.026 288.723 291.994 284.551 287.856 281.612C287.161 281.118 286.968 279.466 286.92 278.33C286.779 274.963 285.79 273.706 282.724 273.401C280.854 273.215 279.806 272.015 279.379 270.133C279.256 269.588 279.261 269.008 279.208 268.444C278.71 268.926 278.079 269.317 277.737 269.903C276.002 272.879 273.416 274.72 270.695 276.501C269.318 277.403 268.873 277.299 268.531 275.628C268.37 274.842 267.775 274.158 267.376 273.428C266.992 274.013 266.595 274.588 266.228 275.186C265.745 275.975 265.404 276.908 264.795 277.557C262.625 279.872 260.431 282.175 258.091 284.284C257.582 284.743 256.053 284.751 255.665 284.301C255.154 283.707 255.223 282.458 255.198 281.486C255.174 280.52 255.397 279.547 255.402 278.577C255.404 278.197 255.124 277.51 254.943 277.498C254.555 277.474 253.956 277.676 253.779 277.999L252.859 279.661C251.939 281.325 251.035 283.003 250.295 284.757C248.312 289.458 247.499 294.451 247.39 299.61C247.375 300.336 246.652 301.118 246.108 301.719C245.922 301.925 244.962 301.771 244.904 301.585C244.649 300.771 244.451 299.874 244.505 299.027C244.589 297.684 244.913 296.36 245.097 295.022C246.21 286.942 249.472 280.072 255.104 274.544C255.31 274.342 256.031 274.327 256.043 274.372C256.555 276.245 257.032 278.13 257.462 280.027C257.56 280.455 257.47 280.932 257.466 281.387C257.844 281.203 258.266 281.083 258.592 280.824C262.154 277.999 265.004 274.519 267.048 270.278C267.541 269.256 268.23 268.344 268.829 267.381L269.879 269.432C270.228 270.116 270.572 270.804 270.901 271.499C271.027 271.766 270.828 272.208 270.949 272.481C271.039 272.685 271.566 272.914 271.626 272.848C273.445 270.834 275.193 268.744 277.041 266.761C277.748 266.001 279.083 264.749 279.42 264.97C280.519 265.691 281.326 266.958 282.157 268.089C282.347 268.347 282.041 269.002 282.217 269.303C282.538 269.854 283.225 270.765 283.451 270.671C284.593 270.197 285.741 269.578 286.662 268.73C287.031 268.391 286.824 267.332 286.645 266.349C285.697 259.924 283.331 254.244 279.011 249.59C278.74 249.297 278.459 249.013 278.183 248.725C278.108 249.112 278.035 249.499 277.96 249.886C277.548 252.018 275.407 253.303 273.862 252.012C271.913 250.382 270.367 248.209 268.504 246.445C267.672 245.657 266.491 245.293 265.469 244.736ZM430.477 297.362C430.31 297.54 430.028 297.699 429.997 297.9C429.888 298.622 429.724 299.383 429.83 300.086C430.411 303.932 431.141 307.754 431.679 311.606C432.617 318.326 434.187 324.849 437.425 330.732C438.573 332.817 440.438 334.456 442.001 336.273C442.179 336.48 442.526 336.519 442.795 336.635C442.783 336.457 442.789 336.276 442.758 336.101C442.379 334.002 442.23 331.814 441.565 329.822C439.979 325.072 438.149 320.415 436.181 315.468C435.001 312.042 433.753 308.64 432.663 305.181C431.913 302.8 431.383 300.34 430.746 297.919C430.694 297.722 430.569 297.547 430.477 297.362ZM556.796 286.076C556.787 286.306 556.339 286.496 556.131 286.741C555.565 287.406 554.905 288.017 554.483 288.777C549.834 297.142 547.39 306.352 545.498 315.766C544.996 318.265 544.549 320.776 544.077 323.785C543.92 325.226 543.603 326.673 543.647 328.107C543.698 329.774 543.683 331.641 544.367 333.05C546.287 336.998 551.434 336.886 554.593 334.806C557.516 332.882 558.92 329.78 560.503 326.851C563.201 321.859 565.454 316.586 568.257 311.667C572.07 304.977 575.83 298.313 577.548 290.587C578.065 288.263 576.961 286.678 574.647 286.75C569.201 286.918 563.908 285.767 558.607 284.702C556.825 284.344 556.867 284.244 556.796 286.076ZM293.386 285.029C292.445 289.374 293.048 293.522 294.215 297.622C295.914 303.596 297.767 309.524 297.199 315.907C296.801 320.374 294.929 323.901 291.349 326.367C290.799 326.746 290.552 327.632 290.165 328.284C290.89 328.445 291.62 328.746 292.339 328.717C292.781 328.699 293.259 328.238 293.629 327.87C296.277 325.231 299.245 322.852 301.437 319.827C303.64 316.786 305.064 313.094 307.064 309.435C307.523 307.095 308.064 304.769 308.423 302.412C309.227 297.123 306.757 292.033 302.255 290.236C299.307 289.059 296.08 288.621 294.827 284.784C294.623 284.157 293.86 282.841 293.386 285.029ZM150.8 170.298C156.554 171.031 162.347 172.174 167.867 174.027C173.783 176.013 178.967 179.792 183.162 184.77C188.881 191.556 192.612 199.443 194.27 208.501C194.972 212.337 195.193 216.145 195.125 220C195.082 222.447 194.847 224.891 194.674 227.335C194.305 232.56 195.529 237.532 196.738 242.511C197.977 247.61 197.526 252.722 197.09 257.901C196.445 265.553 193.76 272.476 190.846 279.284C188.971 283.667 186.431 287.735 184.065 291.862C182.063 295.353 179.881 298.726 177.662 302.278C174.669 307.329 171.747 312.224 168.937 317.193C167.699 319.383 166.691 321.723 165.573 323.992C165.436 324.269 165.3 324.564 165.1 324.784C164.405 325.545 163.683 326.277 162.971 327.02C162.904 325.935 162.504 324.72 162.823 323.785C165.368 316.305 169.292 309.63 173.547 303.151C178.698 295.306 184.171 287.672 187.824 278.817C190.224 272.998 192.117 267.013 192.786 260.658C193.173 256.977 193.608 253.285 193.687 249.589C193.765 245.919 193.43 242.239 193.255 238.564C193.246 238.382 192.95 238.048 192.934 238.058C192.551 238.293 192.11 238.495 191.834 238.843C190.369 240.694 188.97 242.605 187.502 244.455C183.773 249.154 179.233 252.315 173.503 253.683C167.843 255.034 163.084 253.268 159.063 249.314C153.966 244.302 154.043 238.173 157.549 232.371C160.757 227.064 165.405 224.249 171.383 223.348C177.228 222.467 182.534 224.207 187.84 226.064C189.801 226.75 191.008 227.487 191.102 224.513C191.207 221.146 191.013 217.735 191.462 214.423C192.039 210.164 190.654 206.446 189.534 202.581C187.318 194.931 183.036 188.944 177.307 183.879C172.911 179.993 167.98 177.322 162.603 175.756C157.053 174.139 151.419 173.399 145.514 174.041C135.947 175.082 127.635 179.007 120.081 185.011C114.731 189.264 110.567 194.77 106.877 200.695C106.327 201.578 105.419 202.205 104.68 202.953C103.756 203.889 102.525 204.158 101.865 203.064C101.364 202.234 101.183 200.463 101.672 199.787L102.811 198.213C105.092 195.061 107.419 191.913 110.13 189.231C113.45 185.946 117.255 183.181 121.025 180.471C127.327 175.94 134.231 172.891 141.779 171.653C144.793 171.158 147.884 169.927 150.8 170.298ZM241.455 317.38C241.418 317.7 241.321 318.027 241.355 318.337C241.674 321.227 243.44 323.141 245.439 324.742C246.107 325.278 247.279 325.091 248.22 325.235C247.724 324.415 247.259 323.569 246.719 322.784C246.397 322.317 245.957 321.944 245.57 321.025C244.42 319.957 243.272 318.885 242.114 317.827C241.918 317.648 241.676 317.528 241.455 317.38ZM612.586 138.268C610.066 140.516 607.56 142.792 605.168 145.192C601.244 149.13 598.758 154.168 596.703 159.33C592.382 170.184 588.387 181.186 584.297 192.144C578.27 208.294 572.278 224.458 566.27 241.12C565.956 241.653 565.551 242.15 565.339 242.727C561.519 253.133 557.735 263.554 553.915 273.96C550.971 281.981 547.847 289.93 545.063 298.013C542.488 305.488 540.822 313.245 539.851 321.153C539.758 321.915 539.999 322.724 540.085 323.511C540.156 322.842 540.131 322.136 540.334 321.516C540.47 321.099 541.094 320.86 541.22 320.444C543.614 312.512 545.811 304.509 548.38 296.643C550.149 291.229 552.37 285.979 554.487 280.701C555.476 278.236 556.358 277.997 558.58 279.176C560.08 279.973 561.608 280.718 563.074 281.58C565.393 282.943 567.849 283.46 570.47 283.211C572.338 283.033 574.673 280.723 574.719 278.571C574.763 276.468 573.892 274.782 571.618 274.559C570.195 274.42 568.741 274.495 567.35 274.205C566.323 273.991 565.376 273.343 564.394 272.888C565.034 272.364 565.629 271.749 566.332 271.349C566.766 271.101 567.363 271.176 567.888 271.111C571.405 270.676 574.388 272.479 577.479 273.77C583.044 276.094 586.182 275.651 589.01 271.671C590.529 269.532 591.548 266.939 592.553 264.441C597.113 253.104 601.953 241.873 605.992 230.324C610.171 218.378 614.065 206.257 617.125 193.941C620.417 180.692 624.025 167.423 624.662 153.576C624.837 149.763 624.532 146.072 623.514 142.306C621.876 136.245 616.539 134.742 612.586 138.268ZM419.077 259.63C418.876 260.044 418.62 260.439 418.482 260.877C416.714 266.492 416.991 272.115 419.438 277.315C422 282.76 425.138 287.895 428.053 293.148C428.176 293.371 428.589 293.411 428.867 293.537C428.956 293.132 429.205 292.677 429.11 292.329C428.275 289.263 427.326 286.231 426.545 283.15C426.384 282.515 426.559 281.454 426.973 281.059C427.586 280.474 428.613 279.909 429.354 280.041C431.491 280.424 433.266 283.147 433.477 285.865C433.825 290.355 433.948 294.882 434.581 299.325C435.599 306.472 438.229 313.091 441.15 319.569C441.308 319.919 441.616 320.192 441.855 320.501C442.088 320.101 442.432 319.731 442.536 319.295C442.902 317.77 442.97 316.123 443.539 314.701C445.547 309.688 445.514 304.869 443.057 300.014C441.713 297.357 440.667 294.529 439.251 291.525C438.251 288.442 437.777 284.983 436.13 282.363C433.591 278.324 430.17 274.928 427.271 271.131C424.712 267.779 422.357 264.25 419.911 260.8L419.077 259.63ZM285.049 307.476C285.587 308.463 286.003 309.377 286.686 309.912C289.249 311.921 288.962 317.331 286.438 318.998C285.873 319.371 284.898 319.057 284.112 319.059C284.112 318.375 283.917 317.607 284.144 317.021C285.742 312.901 284.083 309.525 279.897 308.443C279.242 308.274 278.646 307.847 278.023 307.539C278.596 307.161 279.157 306.762 279.745 306.412C280.372 306.039 281.024 305.709 281.668 305.365C284.09 304.07 284.477 304.284 285.049 307.476ZM289.288 285.93C289.668 288.275 289.551 290.808 289.158 293.166C288.852 295.006 284.35 296.018 281.903 295.677C279.317 295.317 277.725 293.663 276.118 291.899C274.718 290.362 273.123 289.154 271.147 290.008C269.142 290.876 269.066 293.011 269.16 295.284C268.598 299.282 267.514 302.516 264.258 304.883C259.948 308.016 254.981 305.72 253.044 301.923C252.826 301.494 252.437 301.162 252.128 300.786C251.893 301.154 251.585 301.493 251.436 301.897C250.272 305.049 249.009 308.171 248.045 311.392C247.444 313.4 248.3 314.313 250.214 314.292C251.494 314.279 252.775 314.267 254.053 314.305C254.389 314.315 254.719 314.513 255.051 314.625C254.866 314.96 254.753 315.479 254.484 315.598C253.277 316.131 251.846 317.201 250.824 316.883C248.141 316.05 245.79 314.475 245.637 310.91C245.388 305.105 248.294 300.724 251.387 296.453C254.908 291.59 260.106 289.873 265.347 288.281C271.93 286.283 278.51 284.275 285.095 282.284C286.467 281.869 288.913 283.614 289.288 285.93ZM264.113 290.446C261.765 291.445 259.444 292.544 257.2 293.783C253.326 295.921 252.919 299.702 256.145 302.699C259.499 305.816 263.806 304.759 265.072 300.305C265.782 297.807 265.935 295.13 266.338 292.033C266.447 290.158 265.345 289.922 264.113 290.446ZM273.842 292.302C274.048 292.39 274.249 292.505 274.462 292.563C277.648 293.434 280.126 298.996 278.612 302.008C278.313 302.603 277.7 303.009 277.232 303.502C277.115 303.011 276.985 302.523 276.884 302.029C276.585 300.564 276.297 299.096 275.895 297.509C275.169 295.91 274.546 294.434 273.941 292.949C273.863 292.756 273.873 292.519 273.842 292.302ZM283.745 283.83C281.103 284.819 278.562 286.114 275.509 287.282C275.43 287.661 275.179 288.124 275.3 288.408C276.822 291.988 282.542 294.512 285.968 293.163C287.989 292.368 289.108 289.621 288.442 287.09C287.98 285.336 285.269 283.26 283.745 283.83ZM526.558 197.133C531.11 197.609 534.742 199.74 537.512 203.939C539.034 206.246 537.878 208.159 537.52 210.096C536.229 217.082 534.671 224.01 533.192 230.953C531.974 236.671 530.733 242.383 529.486 248.093C527.825 255.702 526.156 263.31 524.475 270.914C523.266 276.385 522.041 281.852 520.793 287.313C520.662 287.884 520.331 288.401 520.093 288.943C519.872 288.373 519.423 287.782 519.467 287.239C519.812 282.928 520.161 278.613 520.685 274.325C521.236 269.813 521.909 265.314 522.661 260.835C523.559 255.491 524.502 250.151 525.593 244.851C528.063 232.85 531.254 221.078 534.902 209.435C536.352 204.809 532.234 201.756 528.902 201.836C526.773 201.887 524.936 202.408 522.981 202.921C522.658 203.005 522.148 202.238 521.725 201.613C521.725 201.195 521.676 201.003 521.733 200.864C522.186 199.759 520.541 197.734 522.965 197.492C524.165 197.372 525.382 197.01 526.558 197.133ZM293.093 264.305C295.949 264.351 298.804 264.758 301.656 264.729C305.737 264.687 309.631 265.619 313.276 267.341C316.481 268.855 319.442 270.949 322.629 272.912C326.346 276.46 329.176 280.43 330.264 285.514C330.407 286.182 329.721 287.048 329.418 287.823C328.931 287.356 328.137 286.973 328.002 286.412C325.411 275.648 318.117 270.409 308.592 267.781C303.388 266.346 298.123 266.7 292.841 267.205C292.157 267.27 290.624 268.24 290.567 266.307C290.514 264.531 291.915 264.286 293.093 264.305ZM428.865 113.471C419.587 114.882 412.725 120.59 407.525 128.785C401.857 137.716 399.961 147.867 399.713 158.297C399.535 165.745 400.366 173.241 401.057 180.683C401.574 186.243 402.308 191.816 403.447 197.264C404.883 204.13 406.862 210.866 408.551 217.674C411.376 229.057 414.934 240.173 419.444 250.914C424.251 262.362 430.57 272.734 439.45 281.122C442.316 283.83 445.639 285.786 449.504 286.197C454.317 286.71 458.992 285.738 463.595 284.228C473.442 280.998 483.392 278.097 493.14 274.561C502.042 271.332 507.586 264.407 509.563 254.575C511.046 247.202 512.296 239.764 513.333 232.304C514.215 225.957 514.931 219.551 515.18 213.147C515.372 208.25 514.774 203.311 514.426 198.398C514.161 194.654 513.738 190.922 513.385 186.681C512.237 179.229 510.155 172.097 507.414 165.123C503.248 154.527 497.51 145.204 489.751 137.159C481.294 128.389 471.186 122.81 460.194 118.973C453.991 116.807 447.57 115.214 441.145 113.959C437.145 113.177 432.867 112.862 428.865 113.471ZM152.599 181.666C152.323 182.129 152.077 182.616 151.767 183.049C145.994 191.097 139.883 198.893 134.522 207.244C128.196 217.098 122.911 227.651 118.807 239.013C117.209 242.574 115.747 246.019 114.24 249.442C113.442 251.254 111.783 251.026 110.652 250.443C109.427 249.81 109.579 248.473 110.312 247.066C116.353 235.474 122.152 223.733 128.334 212.229C132.125 205.173 136.222 198.27 140.646 191.656C143.013 188.118 146.352 185.324 149.292 182.238C149.683 181.828 150.293 181.538 150.837 181.451C151.401 181.359 152.01 181.581 152.599 181.666ZM168.087 227.935C161.615 229.776 158.397 234.855 158.958 241.535C159.311 245.745 160.866 248.44 164.588 249.575C168.856 250.877 173.116 250.28 177.135 248.548C182.899 246.063 187.614 242.306 189.044 234.766C189.194 232.735 188.649 231.25 186.96 229.927C180.977 225.238 174.662 226.066 168.087 227.935ZM303.018 95.6871C302.861 95.897 302.703 95.981 302.545 96.191C302.04 96.4357 301.413 96.39 301.046 96.6971C291.894 104.362 286.155 114.375 283.139 126.272C281.706 131.921 281.057 137.683 281.295 143.495C281.712 153.724 284.707 163.071 290.133 171.578C296.062 180.872 303.939 187.711 313.344 192.51C318.733 195.26 324.454 197.24 330.513 197.585C333.239 197.741 336.029 197.26 338.703 197.687C343.841 198.506 348.623 197.024 353.368 195.544C362.926 192.564 371.337 187.415 378.542 179.974C383.857 174.483 388.454 168.515 391.49 161.275C391.55 161.133 391.624 160.998 391.691 160.86C391.782 161.047 391.969 161.249 391.948 161.421C391.495 165.096 391.715 168.818 389.277 172.098C381.73 182.251 372.977 190.804 361.637 195.771C356.786 197.896 351.607 199.261 346.484 200.554C343.402 201.332 340.132 201.663 336.963 201.574C328.944 201.348 321.208 199.533 313.805 196.119C305.902 192.473 298.982 187.353 293.085 180.703C286.227 172.97 281.44 163.968 279.418 153.502C278.612 149.333 277.972 145.024 278.026 140.791C278.197 127.564 281.824 115.37 289.008 104.543C290.966 101.592 293.599 99.1411 295.988 96.529C297.114 95.298 302.114 94.7044 303.018 95.6871ZM313.102 95.8147C313.22 95.8295 313.324 95.9852 313.435 96.0752C313.23 96.1533 313.028 96.2404 312.821 96.3083C304.768 98.9437 299.033 104.611 295.201 112.458C292.852 117.266 291.58 122.492 290.863 127.942C289.406 139.022 291.791 149.223 296.753 158.73C302.883 170.475 311.552 179.414 323.552 184.042C327.378 185.518 331.334 187.102 335.326 187.489C344.913 188.417 354.122 186.575 362.657 181.425C369.02 177.586 374.249 172.449 378.938 166.485C384.377 159.567 387.47 151.505 389.393 142.888C390.068 139.867 389.778 136.6 389.955 133.447C389.988 132.856 390.141 132.273 390.239 131.687C390.884 132.043 391.878 132.231 392.11 132.787C392.937 134.767 394.211 136.952 394.021 138.914C393.63 142.948 392.686 146.992 391.464 150.847C388.291 160.85 382.686 169.195 375.41 176.221C368.641 182.758 360.837 187.326 351.957 189.617C348.95 190.393 345.909 191.285 342.849 191.474C340.015 191.65 337.11 191.118 334.282 190.607C330.514 189.927 326.666 189.36 323.071 188.049C313.142 184.429 304.813 178.277 298.098 169.457C292.733 162.409 289.634 154.403 288.148 145.623C286.399 135.291 287.966 125.281 291.532 115.617C293.945 109.077 297.463 103.282 302.283 98.452C302.648 98.0865 302.85 97.5326 303.127 96.8141C303.283 96.4778 303.44 96.3937 303.596 96.3096C306.686 94.4194 309.909 95.4168 313.102 95.8147ZM666.98 185.909C670.21 185.946 673.433 186.416 676.661 186.688C680.589 187.018 684.516 187.433 688.452 187.595C692.217 187.751 695.998 187.53 699.764 187.671C701.62 187.74 703.511 188.092 705.276 188.655C705.876 188.846 706.138 190.074 706.555 190.828C705.982 191.011 705.419 191.245 704.833 191.363C704.152 191.499 703.45 191.532 702.639 191.493C694.807 191.22 687.094 191.002 679.381 190.938C676.257 190.912 673.129 191.343 670.005 191.324C668.473 191.314 666.938 190.778 665.416 190.432C663.829 190.071 663.355 188.659 663.947 187.629C664.455 186.743 665.938 185.897 666.98 185.909ZM336.353 102.797C338.118 111.821 339.753 120.876 341.484 129.909C342.372 134.546 341.317 136.471 337.597 138.722C332.682 141.697 327.927 145.011 323.229 148.391C320.876 150.084 318.946 150.673 317.657 149.335C316.44 148.072 316.241 146.96 317.864 145.775C322.945 142.067 328.049 138.385 332.962 134.42C334.031 133.556 334.994 131.495 334.884 130.092C334.481 124.968 333.63 119.885 332.894 114.796C332.586 112.672 332.145 110.572 331.765 108.207C331.584 106.121 331.062 104.222 331.344 102.48C331.521 101.389 332.804 99.8982 333.771 99.7113C335.486 99.3798 336.065 101.327 336.353 102.797ZM660.233 81.7109C660.519 82.0319 660.677 82.9063 660.475 83.2254C659.507 84.7561 658.395 86.1839 657.216 87.7743C653.414 93.3318 649.777 98.8008 645.989 104.149C645.493 104.85 643.888 105.517 643.383 105.187C642.096 104.346 643.255 103.449 643.788 102.496C647.328 96.1733 650.754 89.7785 654.262 83.4356C655.878 80.515 658.504 79.7735 660.233 81.7109ZM552.359 0.00200024C552.979 0.0576156 553.675 0.859373 554.093 1.52075C555.627 3.94723 554.82 6.67477 554.515 9.19563C553.983 13.594 553.018 17.9296 552.267 22.298C551.916 24.3382 551.641 26.3938 551.331 28.6951C550.712 32.119 550.038 35.2791 549.485 38.4639C548.481 44.2489 547.583 50.0559 546.574 55.8399C545.732 60.6651 544.822 65.4768 543.893 70.2832C542.368 78.1744 540.853 86.069 539.222 93.9345C538.774 96.0925 537.206 96.9009 535.921 95.8683C535.487 95.52 535.054 94.6277 535.157 94.1109C537.562 82.0795 540.14 70.0882 542.473 58.0408C544.189 49.1833 545.416 40.2118 547.205 31.3737C548.909 22.9538 549.787 14.5127 549.535 5.89654C549.492 4.4062 550.143 2.83219 550.709 1.40738C550.965 0.761918 551.83 -0.0454813 552.359 0.00200024ZM424.966 59.7522C425.418 60.5718 425.883 61.3833 426.342 62.456C427.107 66.8149 427.896 70.9109 428.626 75.0199C428.995 77.091 429.279 79.1823 429.555 81.272C429.623 81.7911 429.514 82.3399 429.486 82.875C428.812 82.7537 427.723 82.8768 427.532 82.4699C426.549 80.3741 425.665 78.1917 425 75.945C424.237 73.3714 423.918 70.6224 423.058 68.0992C422.588 66.7184 421.306 65.7126 420.56 64.4147C419.915 63.2922 419.156 62.0072 419.125 60.7727C419.105 59.9804 420.211 58.6495 420.995 58.4466C422.366 58.0917 423.995 57.9935 424.966 59.7522Z" fill="#333333"/>
<path d="M268.634 311.265C271.422 310.464 273.44 308.846 273.141 307.651C272.843 306.456 270.341 306.137 267.553 306.938C264.765 307.739 262.747 309.356 263.046 310.551C263.344 311.746 265.847 312.066 268.634 311.265Z" fill="#F8F9FA"/>
<path fill-rule="evenodd" clip-rule="evenodd" d="M287.823 301.55C289.814 300.75 290.961 299.132 290.551 297.937C290.166 296.742 288.693 296.423 287.097 297.223C285.344 298.023 283.781 299.641 283.772 300.836C283.789 302.031 285.676 302.35 287.823 301.55Z" fill="#F8F9FA"/>
</svg>
