<svg width="101" height="100" viewBox="0 0 101 100" fill="none" xmlns="http://www.w3.org/2000/svg">
<path d="M60.32 29.6399C61.8889 29.8605 63.4848 29.7945 65.03 29.4449C65.4642 28.5406 65.7463 27.5709 65.865 26.5749C66.025 23.9499 65.785 23.6399 64.81 20.8199C64.8024 20.8004 64.7895 20.7834 64.7727 20.771C64.7559 20.7587 64.7358 20.7513 64.715 20.7499C63.2159 20.6704 61.7155 20.8792 60.295 21.3649C60.2602 21.3753 60.2308 21.3989 60.2131 21.4306C60.1954 21.4624 60.1907 21.4997 60.2 21.5349C61.2903 24.1186 61.3333 27.025 60.32 29.6399ZM64.67 20.9599C65.81 24.1549 66.465 25.7699 64.985 29.3699C63.485 29.7399 60.745 29.6499 60.355 29.6299C61.4547 27.0881 61.5175 24.2173 60.53 21.6299C61.8588 21.1608 63.261 20.9339 64.67 20.9599ZM62 34.8449C60.39 36.3999 63.315 37.9149 64.56 35.5199C65.41 33.8599 63.215 33.6549 62 34.8449ZM64.53 34.7199C64.855 35.7599 62.945 37.2199 61.96 36.3799C62.84 36.6349 64.34 35.5949 64.5 34.7199H64.53ZM64.135 35.2199C63.57 35.9999 62.215 36.5949 61.775 36.1449C60.76 34.5449 65.585 33.2199 64.115 35.2299L64.135 35.2199ZM73.865 38.2499C76.41 36.7499 79.81 37.1549 81.645 38.6149C81.695 38.6549 81.795 38.6149 81.765 38.5449C81.08 36.4849 82.365 34.5449 83.445 32.9149C83.4526 32.9031 83.4573 32.8898 83.4588 32.8759C83.4603 32.862 83.4586 32.848 83.4537 32.8349C83.4489 32.8218 83.441 32.81 83.4309 32.8004C83.4207 32.7909 83.4084 32.7838 83.395 32.7799C79.62 31.9149 75.96 32.7099 73.92 34.1649C73.31 34.6049 73.28 36.1249 73.38 36.9299C73.4463 37.3993 73.6116 37.8492 73.865 38.2499ZM74.02 34.3549C75.995 32.8549 79.98 32.0349 83.22 32.9249C82.145 34.4999 81.02 36.4249 81.56 38.3799C79.34 36.7699 75.79 36.7549 73.865 38.1599C73.25 37.1599 73.39 34.7849 74 34.3549H74.02Z" fill="#333333"/>
<path d="M78.14 35.7198C79.475 35.2198 79.08 34.0048 78.425 33.9098C77.7752 33.7956 77.1066 33.943 76.565 34.3198C75.415 35.1748 76.135 36.4998 78.14 35.7198ZM10.885 72.6648C12.42 72.5148 12.68 70.1648 11.225 70.0248C9.76999 69.8848 9.49999 72.7948 10.885 72.6648ZM11.605 70.3748C12.69 71.0998 11.4 73.1398 10.485 72.2948C9.79999 71.6598 10.54 69.6598 11.605 70.3748ZM18.635 78.8348C18.635 78.8679 18.6482 78.8997 18.6716 78.9231C18.695 78.9466 18.7268 78.9598 18.76 78.9598C18.7931 78.9598 18.8249 78.9466 18.8484 78.9231C18.8718 78.8997 18.885 78.8679 18.885 78.8348C18.9037 78.3635 19.0263 77.9021 19.2442 77.4837C19.462 77.0654 19.7696 76.7003 20.145 76.4148C20.1637 76.4018 20.1778 76.3833 20.1856 76.3619C20.1933 76.3405 20.1942 76.3173 20.1882 76.2953C20.1822 76.2734 20.1695 76.2539 20.1519 76.2394C20.1343 76.225 20.1127 76.2164 20.09 76.2148C19.645 76.2148 18.67 75.7598 18.425 74.4448C18.425 74.3198 18.23 74.2848 18.205 74.4098C18.035 75.3298 17.705 76.3498 16.64 76.5348C16.6152 76.5421 16.5935 76.5573 16.5781 76.578C16.5626 76.5988 16.5543 76.6239 16.5543 76.6498C16.5543 76.6756 16.5626 76.7008 16.5781 76.7215C16.5935 76.7422 16.6152 76.7574 16.64 76.7648C17.595 76.8948 18.65 77.8148 18.635 78.8348ZM18.28 75.0698C18.435 75.7548 19.43 76.3248 19.825 76.3948C19.2919 76.8422 18.9125 77.4455 18.74 78.1198C18.5866 77.7699 18.362 77.4558 18.0805 77.1975C17.799 76.9393 17.4668 76.7425 17.105 76.6198C17.4001 76.4603 17.6577 76.2394 17.8604 75.972C18.0631 75.7047 18.2061 75.397 18.28 75.0698ZM8.12999 78.6548C9.05499 77.0648 6.66999 75.9698 6.08999 78.3498C5.76999 79.6398 7.41499 79.8848 8.12999 78.6548ZM6.49999 77.8648C7.20999 76.5248 8.52999 77.3648 8.02999 78.4798C7.49999 79.6998 5.61999 79.5548 6.49999 77.8648ZM9.56499 89.7548C9.30794 89.3489 8.97927 88.9931 8.59499 88.7048C8.96499 83.8048 6.49999 83.6548 5.62999 85.0948C5.22499 85.7648 5.31499 86.5948 5.38999 87.3398H5.43499C5.34366 86.6885 5.41055 86.0247 5.62999 85.4048C5.83999 84.9398 6.82499 83.8748 7.26999 85.1348C7.58959 86.1387 7.67847 87.2017 7.52999 88.2448C5.72999 87.9398 4.85499 89.6548 5.64999 90.6448C4.48999 89.0598 7.52499 86.8148 9.43999 89.9898C9.59499 90.2448 9.93999 89.2598 11.05 89.4298C11.3092 89.4766 11.5543 89.582 11.7666 89.738C11.9789 89.894 12.1528 90.0964 12.275 90.3298C12.315 90.4048 12.44 90.3298 12.405 90.2748C12.2939 90.0106 12.1188 89.7784 11.8954 89.5989C11.672 89.4194 11.4075 89.2984 11.1256 89.2468C10.8438 89.1952 10.5535 89.2146 10.281 89.3033C10.0085 89.392 9.76247 89.5471 9.56499 89.7548ZM27.125 87.4998C25.6195 87.0684 24.245 86.2694 23.125 85.1748C20.515 86.1748 18.865 88.8448 18.33 91.4898C18.1753 92.2438 18.0883 93.0102 18.07 93.7798C19.4684 94.038 20.8347 94.4471 22.145 94.9998C22.1628 95.009 22.1826 95.0136 22.2027 95.0132C22.2227 95.0128 22.2423 95.0073 22.2597 94.9974C22.2771 94.9874 22.2917 94.9733 22.3023 94.9563C22.3128 94.9392 22.3189 94.9198 22.32 94.8998C22.5109 93.4143 23.0472 91.9942 23.886 90.7533C24.7248 89.5125 25.8427 88.4855 27.15 87.7548C27.1667 87.7531 27.183 87.7482 27.1978 87.7403C27.2127 87.7323 27.2258 87.7216 27.2365 87.7086C27.2472 87.6956 27.2552 87.6806 27.2601 87.6645C27.265 87.6484 27.2666 87.6315 27.265 87.6148C27.2634 87.598 27.2584 87.5818 27.2505 87.5669C27.2426 87.5521 27.2318 87.5389 27.2188 87.5283C27.2058 87.5176 27.1908 87.5096 27.1747 87.5047C27.1586 87.4998 27.1417 87.4981 27.125 87.4998ZM22.125 94.6998C20.8953 94.1546 19.5878 93.8054 18.25 93.6648C18.25 90.3148 20.06 86.5948 23.105 85.4398C24.1328 86.4771 25.4052 87.2388 26.805 87.6548C25.5439 88.4063 24.4674 89.4312 23.6548 90.6539C22.8423 91.8766 22.3144 93.266 22.11 94.7198L22.125 94.6998Z" fill="#333333"/>
<path d="M22.045 88.2446C21.285 88.2446 20.245 89.1996 20.545 89.9696C20.955 90.9696 22.5 90.9146 22.95 89.6996C23.0285 89.546 23.0659 89.3748 23.0587 89.2025C23.0514 89.0302 22.9998 88.8627 22.9087 88.7163C22.8176 88.5699 22.6902 88.4495 22.5389 88.3668C22.3876 88.2842 22.2174 88.2421 22.045 88.2446ZM15.645 79.9346C14.84 80.1998 14.0519 80.5138 13.285 80.8746C13.26 80.8746 11.52 84.1696 11.525 84.2996C11.45 84.3646 17.35 87.6596 17.525 87.7996C17.5369 87.8116 17.5519 87.8203 17.5683 87.8246C17.5847 87.8289 17.6019 87.8288 17.6183 87.8242C17.6346 87.8196 17.6494 87.8107 17.6611 87.7985C17.6729 87.7862 17.6811 87.7711 17.685 87.7546C17.905 86.5646 18.745 81.8246 18.895 80.6396C18.92 80.5496 16.615 80.3646 15.645 79.9346ZM15.495 80.1046C15.815 80.5646 17.495 82.6946 17.585 82.7846C17.35 82.8796 14.585 84.1496 14.49 84.2146C14.49 84.2146 13.295 81.0296 13.29 81.0196C13.285 81.0096 15.315 80.1996 15.5 80.1046H15.495ZM14.35 84.2246H11.71C11.7304 84.1839 11.7488 84.1421 11.765 84.0996C13.765 84.1446 14.22 83.6946 14.35 84.2146V84.2246ZM17.54 87.5746C17.505 87.5496 15.04 85.0046 14.475 84.3746C14.475 84.3746 17.425 83.0646 17.665 82.9296C17.65 83.0596 17.565 87.4196 17.54 87.5746ZM15.66 80.1546C16.6567 80.4291 17.6684 80.6461 18.69 80.8046C18.615 80.9296 17.72 82.7446 17.72 82.7446C17.66 82.6446 16 80.5496 15.66 80.1546ZM17.875 85.5646C17.875 85.4696 17.875 82.9846 17.82 82.8346C17.82 82.8346 18.52 81.5046 18.595 81.3346C18.53 81.6996 17.955 85.0996 17.875 85.5646ZM30.935 90.4046C27.835 91.0246 29.875 93.9346 31.935 92.4846C32.2511 92.2653 32.4851 91.9468 32.6 91.5796C32.69 91.2696 33.17 89.9646 30.935 90.4046ZM31.865 92.2796C31.6223 92.4661 31.3357 92.587 31.0327 92.6308C30.7297 92.6746 30.4206 92.6397 30.135 92.5296C29.17 92.0596 29.44 90.8296 30.85 90.5796C33.405 90.1196 32.34 91.9196 31.865 92.2796ZM53.935 89.9396C54.01 87.5246 50.435 87.4396 50.405 89.8396C50.405 89.8495 50.409 89.8591 50.416 89.8661C50.423 89.8731 50.4326 89.8771 50.4425 89.8771C50.4524 89.8771 50.462 89.8731 50.469 89.8661C50.476 89.8591 50.48 89.8495 50.48 89.8396C50.4901 89.6171 50.5447 89.3988 50.6404 89.1977C50.7361 88.9966 50.8712 88.8166 51.0375 88.6685C51.2038 88.5203 51.3981 88.4069 51.6089 88.335C51.8197 88.263 52.0428 88.234 52.265 88.2496C52.4834 88.2716 52.6951 88.3376 52.8874 88.4435C53.0796 88.5494 53.2486 88.693 53.384 88.8658C53.5194 89.0386 53.6185 89.2369 53.6754 89.4489C53.7323 89.6609 53.7457 89.8822 53.715 90.0996C53.715 90.1846 53.785 90.2746 53.87 90.2196C54.199 90.0197 54.5907 89.9494 54.9687 90.0224C55.3468 90.0954 55.6841 90.3065 55.915 90.6146C55.97 90.6896 56.095 90.6146 56.045 90.5396C55.8287 90.1975 55.4939 89.9472 55.1046 89.8365C54.7153 89.7258 54.2989 89.7625 53.935 89.9396ZM61.29 71.7296C59.445 71.0496 58.105 72.4296 59.47 73.1546C61.28 74.1146 63.11 72.3946 61.29 71.7296ZM61.715 72.8496C61.15 73.5446 59.525 73.2646 59.15 72.6746C58.91 72.2896 59.31 71.9396 59.65 71.7946C60.56 71.3796 62.375 72.0346 61.715 72.8496ZM61.305 77.0346C60.5025 77.2845 59.7202 77.5954 58.965 77.9646C58.965 77.9646 56.185 81.8146 56.285 81.8396C56.42 82.5746 56.69 84.1596 56.75 84.1846C56.915 84.2646 58.665 85.1846 58.7 85.1846C59.66 85.0695 60.5992 84.8204 61.49 84.4446C61.65 84.4446 64.49 80.5646 64.62 80.3496C64.3835 79.5399 64.0859 78.7493 63.73 77.9846C63.345 77.7846 61.325 77.0296 61.305 77.0346ZM63.525 78.1196C63.0025 78.7479 62.5119 79.4021 62.055 80.0796C61.555 79.7946 60.61 79.2546 60.615 79.2446C60.73 79.0796 61.52 77.3946 61.56 77.2446C61.665 77.3096 63.17 77.9996 63.525 78.1196ZM61.39 77.1746C61.39 77.2146 60.495 79.0596 60.49 79.0596C60.25 78.8896 59.265 78.0896 59.165 78.0296L61.39 77.1746ZM59.075 78.1096C59.15 78.1996 60.15 78.9696 60.35 79.1446C60.32 79.1446 58.64 81.3096 58.635 81.3196C58.25 81.4096 56.715 81.5746 56.59 81.5946C56.65 81.4996 59 78.2496 59.075 78.1096ZM56.5 81.8296C56.65 81.8296 58.17 81.6546 58.5 81.5896C58.24 81.9546 56.855 83.7296 56.82 83.7846C56.71 83.1296 56.595 82.4996 56.5 81.8296ZM58.74 84.9896C58.74 84.9896 56.825 83.9896 56.82 83.9896C56.815 83.9896 58.485 81.9146 58.82 81.4896C59.26 81.7446 59.635 82.0996 60.08 82.3446C60.035 82.3796 59.135 84.1296 58.735 84.9996L58.74 84.9896ZM58.835 81.3196C59.3404 80.616 59.8934 79.9477 60.49 79.3196C60.945 79.6296 61.405 79.9296 61.875 80.2146C61.1985 80.7837 60.6193 81.4592 60.16 82.2146C59.685 81.9496 59.295 81.5746 58.83 81.3196H58.835ZM61.465 84.2246C61.09 83.6196 60.31 82.3546 60.285 82.3296C60.8654 81.619 61.4811 80.9382 62.13 80.2896C62.24 80.2896 63.955 80.3646 64.36 80.3796C64.125 80.6496 61.5 84.1646 61.46 84.2246H61.465ZM53.81 75.7296C53.5122 75.2235 53.3258 74.6597 53.2634 74.0758C53.201 73.492 53.264 72.9015 53.4481 72.3439C53.6322 71.7863 53.9333 71.2745 54.3311 70.8426C54.7289 70.4107 55.2144 70.0688 55.755 69.8396C55.7726 69.8289 55.7871 69.8138 55.7972 69.7959C55.8073 69.7779 55.8126 69.7577 55.8126 69.7371C55.8126 69.7165 55.8073 69.6962 55.7972 69.6783C55.7871 69.6603 55.7726 69.6453 55.755 69.6346C54.5776 68.9502 53.4603 68.1674 52.415 67.2946C52.3913 67.2789 52.3634 67.2705 52.335 67.2705C52.3065 67.2705 52.2787 67.2789 52.255 67.2946C48.96 68.7096 47.845 71.2596 48.375 73.4596C48.5896 74.1331 48.9776 74.7384 49.5 75.2146C50.88 75.5296 52.3 75.6246 53.695 75.8996C53.7161 75.9023 53.7375 75.899 53.7569 75.8903C53.7763 75.8815 53.7928 75.8675 53.8048 75.8499C53.8167 75.8323 53.8235 75.8117 53.8244 75.7905C53.8253 75.7692 53.8203 75.7482 53.81 75.7296ZM49.525 75.0796C47.59 73.1996 48.025 69.3846 52.315 67.5396C53.2943 68.3626 54.347 69.094 55.46 69.7246C54.9411 69.9816 54.4784 70.339 54.0985 70.776C53.7187 71.213 53.4292 71.721 53.2469 72.2706C53.0647 72.8202 52.9932 73.4005 53.0366 73.9779C53.0801 74.5554 53.2376 75.1184 53.5 75.6346C52.185 75.3946 50.845 75.2946 49.525 75.0796Z" fill="#333333"/>
<path d="M51.5499 70.29C51.3397 70.2413 51.1203 70.2491 50.914 70.3125C50.7077 70.3759 50.5218 70.4927 50.3751 70.651C50.2285 70.8093 50.1262 71.0036 50.0788 71.2142C50.0314 71.4247 50.0404 71.644 50.1049 71.85C50.2174 72.1774 50.4396 72.4559 50.734 72.6382C51.0283 72.8205 51.3767 72.8953 51.7199 72.85C52.7399 72.67 52.8349 70.64 51.5499 70.29ZM62.4999 66.055C62.598 65.8158 62.6446 65.5586 62.6368 65.3002C62.6291 65.0418 62.5671 64.7879 62.4549 64.555C62.3875 64.4217 62.2884 64.3071 62.1662 64.2212C62.044 64.1353 61.9025 64.0808 61.7543 64.0625C61.606 64.0442 61.4556 64.0627 61.3162 64.1163C61.1768 64.17 61.0527 64.2571 60.9549 64.37C59.8549 59.82 55.8549 62.53 57.5999 64.195C57.6349 64.23 57.6999 64.195 57.6699 64.14C56.4699 62.32 59.6349 60.395 60.7399 64.555C60.7399 64.62 60.9449 64.7 60.9849 64.525C62.8349 63.535 62.2049 66.415 62.4999 66.055ZM78.6149 90.13C78.8999 87.425 75.2099 86.97 74.9999 89.285C74.9999 89.35 75.0899 89.345 75.0999 89.285C75.1328 89.0575 75.216 88.8402 75.3436 88.6489C75.4711 88.4576 75.6396 88.2972 75.837 88.1794C76.0344 88.0615 76.2556 87.9892 76.4844 87.9677C76.7133 87.9462 76.9441 87.976 77.1599 88.055C77.6105 88.2237 77.9817 88.5547 78.2009 88.9829C78.4201 89.4112 78.4715 89.9058 78.3449 90.37C78.3199 90.475 78.4549 90.57 78.5349 90.48C78.6662 90.3347 78.8435 90.2392 79.037 90.2095C79.2305 90.1799 79.4284 90.2179 79.5971 90.3173C79.7658 90.4166 79.895 90.5711 79.9629 90.7547C80.0309 90.9383 80.0333 91.1398 79.9699 91.325C79.9699 91.41 80.0799 91.475 80.1199 91.39C80.2028 91.1878 80.2191 90.9644 80.1666 90.7523C80.1141 90.5402 79.9955 90.3502 79.8279 90.2099C79.6604 90.0697 79.4526 89.9863 79.2345 89.9719C79.0164 89.9576 78.7995 90.0129 78.6149 90.13ZM94.7549 85.95C94.2549 85.985 94.0749 86.515 94.0999 86.95C94.1549 88.135 96.1699 89.54 96.6849 88.495C97.2899 87.255 95.4999 85.895 94.7549 85.95ZM96.5399 88.185C96.3899 88.88 95.8499 88.685 95.2549 88.315C94.0099 87.495 94.0999 86.25 94.7149 86.115C95.3299 85.98 96.7599 87.18 96.5399 88.185ZM89.6099 82.5C89.6967 82.2092 89.7001 81.8999 89.6196 81.6073C89.5392 81.3147 89.3782 81.0505 89.1549 80.845C89.0511 80.7601 88.9286 80.701 88.7975 80.6726C88.6665 80.6441 88.5305 80.647 88.4008 80.6812C88.2711 80.7153 88.1513 80.7797 88.0512 80.869C87.9511 80.9583 87.8736 81.07 87.8249 81.195C87.8241 81.2066 87.8274 81.2181 87.8342 81.2276C87.841 81.237 87.8508 81.2438 87.8621 81.2468C87.8734 81.2498 87.8853 81.2487 87.8958 81.2438C87.9064 81.2389 87.9149 81.2305 87.9199 81.22C87.9632 81.1003 88.0409 80.9961 88.1432 80.9205C88.2455 80.8449 88.3679 80.8012 88.4949 80.795C88.6204 80.7889 88.7455 80.8124 88.8602 80.8637C88.9748 80.9149 89.0758 80.9925 89.1549 81.09C89.3162 81.34 89.4133 81.6259 89.4378 81.9225C89.4622 82.219 89.4131 82.5169 89.2949 82.79C89.2649 82.9 89.4199 83 89.4999 82.91C89.673 82.7091 89.9188 82.5852 90.1832 82.5656C90.4476 82.5459 90.709 82.632 90.9099 82.805C91.094 83.0009 91.2021 83.2561 91.2149 83.5246C91.2277 83.7931 91.1444 84.0574 90.9799 84.27C90.9746 84.2812 90.9729 84.2938 90.975 84.306C90.977 84.3182 90.9829 84.3295 90.9917 84.3383C91.0004 84.347 91.0117 84.3529 91.0239 84.355C91.0362 84.3571 91.0487 84.3553 91.0599 84.35C91.1802 84.2408 91.2763 84.1076 91.3421 83.9591C91.4078 83.8106 91.4418 83.6499 91.4418 83.4875C91.4418 83.325 91.4078 83.1644 91.3421 83.0159C91.2763 82.8673 91.1802 82.7342 91.0599 82.625C90.8605 82.4574 90.6142 82.3554 90.3547 82.3331C90.0952 82.3107 89.8351 82.369 89.6099 82.5ZM92.1649 68.83C93.3699 69.18 93.7849 70.665 93.7699 70.855C93.7683 70.8782 93.7749 70.9013 93.7884 70.9202C93.802 70.9391 93.8217 70.9527 93.8443 70.9586C93.8668 70.9645 93.8906 70.9624 93.9118 70.9526C93.9329 70.9428 93.9499 70.926 93.9599 70.905C94.0672 70.5165 94.2524 70.1539 94.5043 69.8393C94.7561 69.5247 95.0694 69.2647 95.4249 69.075C95.4414 69.0642 95.4553 69.05 95.4657 69.0333C95.4761 69.0166 95.4827 68.9978 95.4851 68.9783C95.4875 68.9588 95.4856 68.939 95.4795 68.9202C95.4734 68.9015 95.4633 68.8844 95.4499 68.87C94.7479 68.2538 94.2449 67.4428 94.0049 66.54C93.9955 66.5123 93.9777 66.4883 93.9539 66.4713C93.9301 66.4543 93.9017 66.4452 93.8724 66.4452C93.8432 66.4452 93.8147 66.4543 93.791 66.4713C93.7672 66.4883 93.7494 66.5123 93.7399 66.54C93.4992 67.4048 92.9353 68.1441 92.1649 68.605C92.0749 68.65 92.0749 68.805 92.1649 68.83ZM93.8599 66.995C94.1128 67.7424 94.5535 68.4122 95.1399 68.94C94.5933 69.3026 94.1737 69.8271 93.9399 70.44C93.6977 69.7035 93.1823 69.088 92.4999 68.72C93.1213 68.3023 93.5968 67.701 93.8599 67V66.995ZM83.5749 81.545C83.8399 82.425 85.5749 81.68 85.4099 80.75C85.2199 79.69 83.2699 80.555 83.5749 81.545ZM85.1799 81.185C84.4149 82.185 83.1799 81.685 83.9799 80.835C84.7799 79.985 85.6249 80.595 85.1799 81.185ZM76.2949 77.425C75.7599 78.425 76.9649 79.095 77.8449 78.79C77.9731 78.7456 78.0943 78.6833 78.2049 78.605C78.352 78.5205 78.4761 78.4013 78.5665 78.2579C78.657 78.1144 78.711 77.951 78.7238 77.7819C78.7366 77.6128 78.7079 77.4431 78.6401 77.2877C78.5723 77.1322 78.4676 76.9957 78.3349 76.89C77.6849 76.33 76.6649 76.735 76.2949 77.425Z" fill="#333333"/>
<path d="M98 85.3097C97.9 85.1597 96.215 83.4397 95.58 81.4797C96.92 80.1147 95.55 78.1697 94.08 78.6097C92.08 74.0847 91.91 71.2147 89.66 71.9447C88.16 72.4447 86.66 74.9447 85.99 76.3347C85.78 76.1773 85.5214 76.0987 85.2594 76.1125C84.9973 76.1263 84.7484 76.2317 84.5561 76.4103C84.3639 76.5889 84.2404 76.8293 84.2073 77.0896C84.1742 77.35 84.2335 77.6136 84.375 77.8347C83.685 78.3947 79.76 81.4297 79.61 81.5897C79.435 81.3697 78.61 80.1947 78.315 79.6897C79.7535 79.2565 81.0454 78.4367 82.05 77.3197C82.0627 77.3089 82.0728 77.2955 82.0798 77.2804C82.0868 77.2653 82.0904 77.2488 82.0904 77.2322C82.0904 77.2155 82.0868 77.1991 82.0798 77.184C82.0728 77.1689 82.0627 77.1555 82.05 77.1447C81.1433 76.4178 80.4276 75.4807 79.965 74.4147C79.9566 74.4033 79.9457 74.3941 79.9331 74.3877C79.9205 74.3813 79.9066 74.378 79.8925 74.378C79.8784 74.378 79.8645 74.3813 79.8519 74.3877C79.8393 74.3941 79.8284 74.4033 79.82 74.4147C78.7295 75.4568 77.297 76.0664 75.79 76.1297C73 73.4797 72.63 72.7847 70.79 69.5247C71.355 68.1347 70.71 66.3747 68.985 66.8047C68.565 66.1647 65.205 61.1647 64.775 60.4747C64.9276 60.4542 65.0712 60.3906 65.189 60.2915C65.3068 60.1923 65.3938 60.0616 65.44 59.9147C65.815 58.7797 64.4 57.6547 63.215 58.1347C62.98 57.7447 61.89 55.9647 61.005 54.5247C61.298 54.1265 61.5461 53.6972 61.745 53.2447C61.745 53.2447 68.945 62.1747 72.305 63.4997C72.5555 63.4399 72.7986 63.3527 73.03 63.2397C75.21 64.9097 75 65.8547 75.555 65.8397C76.11 65.8247 78.78 63.2147 78.52 62.7697C78.26 62.3247 76.715 62.8647 76.245 63.0097C76.15 62.8197 75.605 61.6797 75.43 61.2997C75.6235 61.0454 75.791 60.7724 75.93 60.4847C75.93 60.4847 71.55 44.6647 63.485 44.9547C59.44 45.0997 53.55 46.6697 53.55 46.6697C53.55 46.6697 53.19 46.7147 53.55 46.4347C53.91 46.1547 59.865 44.6597 64.15 44.6547C65.2845 44.6758 66.3981 44.9639 67.4005 45.4955C68.4029 46.0271 69.2661 46.7874 69.92 47.7147C69.92 47.7147 74.735 48.9297 77.465 49.3497C80.195 49.7697 81 49.6047 81 49.6047C81.1849 49.3779 81.3521 49.1372 81.5 48.8847C84.07 49.1847 83.805 50.0147 84.29 49.7447C84.775 49.4747 85.965 45.9397 85.53 45.6647C85.095 45.3897 83.53 46.9897 83.53 47.0147C83.415 46.9447 82.685 46.4447 82.455 46.2447C82.4844 46.0427 82.4961 45.8386 82.49 45.6347C82.49 45.6347 72.63 37.4347 66.815 38.7847C63.1229 39.6936 59.5514 41.0362 56.175 42.7847C55.885 41.9444 55.5513 41.12 55.175 40.3147C56.2908 39.7592 57.259 38.947 58 37.9447C58.235 37.5597 58.21 34.5347 58.14 34.3647C58.07 34.1947 55.14 34.2597 54.79 34.3647C54.58 34.4297 54.185 35.6347 52.96 36.5047C52.385 35.6047 49.505 31.4447 49.51 31.4297C50.825 26.5097 49.885 16.3547 45.32 8.36967C45.285 8.22467 44.185 8.19467 43.945 8.19967C43.39 5.92967 41.61 3.73967 42.115 5.90467C42.015 5.75967 41.545 4.99467 41.325 5.11967C41.105 5.24467 41.325 5.87967 41.375 5.93967C41.14 5.65967 40.635 5.25967 40.515 5.57467C40.425 5.80967 40.625 6.18967 41.075 7.11467C40.685 7.06467 39.98 7.11467 40.01 7.52467C40.04 7.93467 40.62 7.78467 40.895 7.94467C41.1993 8.16628 41.4852 8.41208 41.75 8.67967C41.35 8.84467 40.88 9.04967 40.825 9.44967C40.825 9.59967 41.7 14.2147 41.89 14.9497C42.74 18.2297 43.315 18.7797 40.64 26.7047C40.6344 26.7164 40.6314 26.7291 40.6312 26.7421C40.631 26.7551 40.6336 26.7679 40.6388 26.7798C40.644 26.7917 40.6517 26.8023 40.6614 26.8109C40.6711 26.8195 40.6826 26.8259 40.695 26.8297C39.27 26.1747 39.535 26.2097 39.405 26.7097C38.926 26.3471 38.5756 25.8407 38.405 25.2647C40.095 24.1247 38.73 20.8097 37.49 19.1897C37.6735 19.0297 37.8 18.8144 37.8502 18.5762C37.9004 18.3379 37.8716 18.0899 37.7682 17.8695C37.6648 17.6491 37.4923 17.4684 37.2771 17.3547C37.0618 17.2411 36.8153 17.2007 36.575 17.2397C36.6203 16.8862 36.5383 16.5281 36.3436 16.2296C36.1489 15.9311 35.8543 15.7117 35.5126 15.6106C35.1709 15.5095 34.8043 15.5334 34.4786 15.678C34.1529 15.8226 33.8893 16.0784 33.735 16.3997C33.6509 16.7743 33.502 17.1313 33.295 17.4547C33.0514 17.6471 32.7754 17.7944 32.48 17.8897C32.1194 18.0794 31.8283 18.3786 31.6486 18.7443C31.4689 19.11 31.4099 19.5233 31.48 19.9247C31.3359 19.8228 31.225 19.6808 31.1609 19.5163C31.0969 19.3518 31.0827 19.1722 31.12 18.9997C30.9815 19.1339 30.8965 19.3139 30.8808 19.5062C30.8652 19.6984 30.92 19.8898 31.035 20.0447C30.8795 19.9629 30.7052 19.9236 30.5296 19.9306C30.3541 19.9376 30.1835 19.9907 30.035 20.0847C30.1888 20.063 30.3456 20.0789 30.4919 20.1312C30.6383 20.1834 30.7697 20.2704 30.875 20.3847C30.5409 20.387 30.2187 20.5088 29.9665 20.7279C29.7144 20.9471 29.5489 21.2492 29.5 21.5797C29.245 23.0797 30.845 24.1147 31.62 24.7947C32.08 25.1997 32.49 25.6697 32.92 26.1047C33.0061 26.1578 33.1036 26.1897 33.2045 26.1975C33.3054 26.2053 33.4067 26.1889 33.5 26.1497C33.67 26.3247 34.76 27.6497 35.13 28.1197C34.68 28.1197 34.66 27.9747 34.42 28.8747C34.3326 29.117 34.3326 29.3823 34.42 29.6247C32.345 29.5247 28.96 27.3197 28.29 26.2097C24.525 20.0297 21.68 16.5297 21.625 16.4997C21.2519 16.4294 20.868 16.4413 20.5 16.5347C20.7072 15.8809 20.8644 15.2123 20.97 14.5347C20.95 14.4969 20.9228 14.4634 20.8898 14.4361C20.8569 14.4089 20.8189 14.3884 20.778 14.3759C20.7371 14.3633 20.6942 14.359 20.6516 14.3631C20.6091 14.3671 20.5677 14.3796 20.53 14.3997C20.295 14.4997 20.175 14.9997 19.905 14.9997C19.8313 14.3744 19.6956 13.7581 19.5 13.1597C19.24 12.7297 18.66 12.8747 18.92 14.3147C18.695 13.9447 18.535 13.0947 18.12 13.3847C17.805 13.6047 18.17 14.3847 18.32 14.7497C17.195 13.4147 17.29 15.2097 18.94 17.5047C18.77 17.6447 17.985 18.3047 17.99 18.5447C17.995 18.7847 20.705 27.7647 23.2 32.3197C26.255 37.8947 29.11 39.7597 31.2 41.6047C28.315 41.8847 25.75 48.0197 25.645 48.3447C25.2889 48.2908 24.9251 48.3615 24.615 48.5447C22.92 49.4697 23.87 51.3697 23.965 51.4797C22.75 51.7747 21.77 53.4797 22.725 55.1497C22.095 56.0397 19.285 60.0697 18.975 60.6147C18.7601 60.6654 18.559 60.763 18.3861 60.9004C18.2133 61.0378 18.0729 61.2117 17.975 61.4097C17.8239 61.6634 17.7588 61.9592 17.7894 62.2529C17.82 62.5466 17.9448 62.8226 18.145 63.0397C17.68 63.5397 14.91 67.1697 14.875 67.2097C13.205 66.1697 11.6 64.7097 9.68499 66.7097C9.2557 67.2215 8.87254 67.7703 8.53999 68.3497C8.20971 68.3211 7.87749 68.375 7.57322 68.5066C7.26896 68.6383 7.00218 68.8435 6.7969 69.1038C6.59162 69.3641 6.45427 69.6714 6.39721 69.998C6.34014 70.3245 6.36515 70.6602 6.46999 70.9747C6.46999 70.9747 3.52499 74.7347 2.99999 75.5397C2.96999 75.5847 3.04499 75.6247 3.07499 75.5847C6.07499 71.5847 6.99499 70.8547 6.57499 70.9047C6.33499 69.5597 7.04499 68.7247 8.01999 68.5547C8.38128 68.5066 8.74876 68.5408 9.09499 68.6547C9.24999 68.6547 9.19999 68.4047 8.63499 68.3397C9.18499 67.6247 9.74999 66.4547 11 66.0397C12.25 65.6247 13.07 66.3147 16.24 68.3397C16.04 69.2297 16.975 70.5347 17.7 70.0147C17.05 70.3097 16.275 69.1697 16.455 68.4147C16.635 67.6597 17.735 68.0447 18.215 68.5947C18.4973 68.9388 18.6526 69.3696 18.655 69.8147C18.655 69.9147 18.825 69.9597 18.85 69.8147C18.8552 69.7732 18.8552 69.7312 18.85 69.6897C19.76 70.4947 23.62 73.9497 24.105 74.5197C24.59 75.0897 26.42 77.5197 27.435 77.9547C26.87 78.4097 26.395 78.8547 26.46 79.6447C26.5254 80.223 26.7758 80.7647 27.1741 81.189C27.5723 81.6134 28.097 81.8977 28.67 81.9997C29.0039 82.0126 29.3347 81.9307 29.6241 81.7634C29.9134 81.5962 30.1495 81.3505 30.305 81.0547C31.02 81.6397 36.68 86.5847 37.565 87.1097C36.9685 87.2796 36.3906 87.5091 35.84 87.7947C33.62 88.9397 35.135 90.2197 35.515 90.4597C36.55 91.0947 38.445 90.7497 39.575 90.2097C42.045 89.1347 41.68 87.2097 40.315 87.0097C39.4917 86.8271 38.6383 86.8271 37.815 87.0097C36.62 86.3897 31.19 81.4147 30.35 80.8947C30.85 79.5747 28.78 77.2597 27.605 77.8247C26.305 76.9847 25.38 75.6697 24.4 74.4947C23.42 73.3197 19.695 70.1347 18.855 69.5197C18.825 68.0197 16.8 67.1897 16.31 68.0697L15.015 67.2647C15.04 67.2247 17.78 63.7047 18.205 63.0797C19.045 63.7947 20.705 63.2297 21.04 62.0147C21.04 61.9447 20.955 61.8997 20.925 61.9647C19.925 63.9297 17.535 63.3747 17.99 61.7497C18.1739 61.2756 18.5315 60.8895 18.99 60.6697C19.105 60.7697 22.875 55.2697 22.945 55.1697C22.9547 55.1539 22.9599 55.1357 22.9599 55.1172C22.9599 55.0986 22.9547 55.0805 22.945 55.0647C22.7218 54.7575 22.5796 54.399 22.5316 54.0224C22.4835 53.6457 22.5311 53.2631 22.67 52.9097C23.17 51.6597 24.265 51.6647 24.17 51.4597C24.075 51.2547 23.17 49.7947 24.67 48.6497C25.135 48.2997 25.715 48.5647 25.76 48.4647C26.025 47.8897 29.035 42.0997 31.33 41.7147C32.2882 42.585 33.1287 43.5767 33.83 44.6647C34.575 45.8097 40.115 53.8047 41.13 54.8047C41.69 55.3547 42.385 56.0997 43.185 56.3647C43.2784 56.749 43.4838 57.097 43.775 57.3647C45.005 58.5097 48.54 63.1197 54.47 59.8647C58.02 57.9147 59.9 55.9097 60.845 54.6047C61.695 56.0347 62.745 57.7447 63.06 58.1047C62.8994 58.1714 62.7707 58.2976 62.7008 58.4569C62.631 58.6162 62.6253 58.7963 62.685 58.9597C62.6931 58.9738 62.7056 58.9849 62.7207 58.9913C62.7357 58.9977 62.7524 58.999 62.7682 58.9951C62.7841 58.9911 62.7982 58.9821 62.8084 58.9694C62.8187 58.9567 62.8245 58.941 62.825 58.9247C62.795 57.6997 65.325 58.0197 65.245 59.5547C65.185 60.6197 63.425 60.3247 63.19 59.6097C63.192 59.6051 63.1928 59.6001 63.1924 59.5952C63.192 59.5902 63.1903 59.5854 63.1876 59.5812C63.1849 59.5771 63.1811 59.5737 63.1768 59.5713C63.1724 59.5689 63.1675 59.5677 63.1625 59.5677C63.1575 59.5677 63.1526 59.5689 63.1482 59.5713C63.1438 59.5737 63.1401 59.5771 63.1374 59.5812C63.1347 59.5854 63.133 59.5902 63.1326 59.5952C63.1322 59.6001 63.133 59.6051 63.135 59.6097C63.25 60.1847 63.97 60.4197 64.505 60.4047C64.545 60.6947 68.29 66.0797 68.85 66.7347C65.245 67.7347 64.245 72.4197 67.59 71.9847C68.725 71.8447 70.125 70.6997 70.65 69.6297C72.15 72.6297 74.185 75.0097 75.505 76.0497C74.7731 76.0566 74.0461 75.9295 73.36 75.6747C73.3475 75.6709 73.3344 75.6698 73.3215 75.6713C73.3085 75.6728 73.296 75.677 73.2848 75.6836C73.2735 75.6902 73.2637 75.699 73.256 75.7095C73.2483 75.72 73.2429 75.732 73.24 75.7447C72.9884 76.4054 72.9024 77.1177 72.9896 77.8193C73.0767 78.521 73.3344 79.1906 73.74 79.7697C75.2111 80.116 76.7475 80.0695 78.195 79.6347C78.95 82.0797 82.57 84.5647 82.805 84.6647C82.865 84.6897 82.935 84.6197 82.88 84.5697C82.55 84.2697 80.04 82.0697 79.69 81.6397C79.895 81.5747 83.73 78.5447 84.425 77.8697C84.7 78.2097 84.84 78.0097 84.775 77.9197C84.6587 77.8033 84.5693 77.6629 84.5131 77.5083C84.457 77.3536 84.4354 77.1885 84.45 77.0247C84.59 76.0247 86.275 75.8947 86.11 77.4247C86.03 78.1497 85.145 78.1797 85.28 78.3097C85.78 78.7847 86.82 77.3097 86.125 76.4347C87.42 73.6247 90.125 70.3747 91.52 72.9347C91.75 73.3547 93.44 77.7997 93.9 78.6097C92.76 79.1097 92.255 81.0697 93.165 81.7947C93.63 82.1647 94.735 82.1447 95.435 81.5397C95.9049 82.9988 96.7518 84.3079 97.89 85.3347C97.96 85.4197 98.025 85.3597 98 85.3097ZM75.355 61.3697C75.5 61.7297 76.005 62.8697 76.105 63.0497C76.0415 63.3941 75.8814 63.7133 75.6432 63.9701C75.405 64.2269 75.0987 64.4106 74.76 64.4997C74.73 64.4747 73.405 63.3847 73.135 63.1697C73.9278 62.642 74.6678 62.0393 75.345 61.3697H75.355ZM82.435 46.3297C82.8027 46.6397 83.1866 46.9301 83.585 47.1997C83.6797 47.533 83.6648 47.8879 83.5423 48.212C83.4199 48.5361 83.1964 48.8123 82.905 48.9997L81.55 48.8047C81.9031 48.0027 82.1956 47.1754 82.425 46.3297H82.435ZM39.745 87.0497C43.115 87.4347 37.97 90.6697 35.46 89.7597C35.2761 89.7072 35.1204 89.5843 35.0268 89.4176C34.9332 89.2509 34.9091 89.054 34.96 88.8697C35.265 88.0897 37.61 86.8097 39.745 87.0497ZM29.745 81.3947C29.4713 81.4895 29.1737 81.4895 28.9 81.3947C28.535 81.2397 26.4 79.4747 27.465 78.2497C28.575 76.8997 31.365 80.5447 29.725 81.3947H29.745ZM40.805 7.79467C40.635 7.73467 40.445 7.79467 40.305 7.70967C39.805 7.49967 40.475 7.11467 41.235 7.28967C41.62 7.38467 40.435 5.64967 40.735 5.60467C41.035 5.55967 41.58 6.37467 41.735 6.56967C41.78 6.63467 41.885 6.56967 41.845 6.50467C41.705 6.27467 41.195 4.78967 41.615 5.33467C41.65 5.38467 42.225 6.19967 42.36 6.38467C42.41 6.45467 42.525 6.38467 42.475 6.31967C42.3502 6.05549 42.2482 5.78117 42.17 5.49967C42.09 5.06467 42.095 4.99967 42.49 5.39467C43.1226 6.22574 43.5755 7.17925 43.82 8.19467C43.1537 8.27755 42.495 8.41297 41.85 8.59967C41.5431 8.28146 41.191 8.01022 40.805 7.79467ZM39.615 26.4997C41.195 27.1647 41.115 27.1497 41.06 27.3097C41.005 27.4697 40.83 28.1447 40.76 28.3747C40.525 28.2197 39.54 27.6147 39.26 27.4847C39.3977 27.1637 39.5163 26.8347 39.615 26.4997ZM33.5 25.9497C33.4491 25.7349 33.4545 25.5107 33.5159 25.2986C33.5772 25.0866 33.6923 24.8941 33.85 24.7397C33.6845 24.7665 33.5147 24.7432 33.3626 24.6727C33.2104 24.6022 33.0829 24.4878 32.9963 24.3442C32.9097 24.2007 32.8681 24.0344 32.8768 23.867C32.8854 23.6996 32.944 23.5385 33.045 23.4047C33.3 23.1397 33.77 23.2847 34.09 23.1897C33.8134 22.598 33.4127 22.0727 32.915 21.6497C33.09 21.7997 36.56 21.3397 36.325 18.0997C36.9469 18.8041 37.5279 19.5436 38.065 20.3147C38.3308 20.7804 38.5501 21.2711 38.72 21.7797C39.72 24.6847 38.22 24.9947 38.255 25.2297C38.4289 25.878 38.8299 26.4422 39.385 26.8197C39.295 27.1597 39.18 27.4947 39.18 27.4997C38.6228 27.5843 38.0954 27.806 37.645 28.1447C37.395 28.1047 36 28.1097 35.235 28.1447C34.6954 27.3832 34.1163 26.6505 33.5 25.9497ZM34.79 28.2947C35.6 28.2547 37.385 28.2247 37.505 28.2247C37.4158 28.9176 37.379 29.6162 37.395 30.3147C36.4362 30.138 35.488 29.9076 34.555 29.6247C34.365 29.4347 34.72 28.4647 34.79 28.2947ZM17.715 14.5247C17.835 14.3097 18.215 14.8547 18.61 15.3397C18.665 15.3997 18.765 15.3397 18.725 15.2497C18.685 15.1597 17.93 13.7497 18.17 13.5197C18.41 13.2897 18.45 13.8197 19.1 14.9197C19.145 15.0047 19.27 14.9197 19.225 14.8497C19.095 14.6147 18.79 13.0047 19.225 13.1147C19.575 13.1997 19.65 15.1147 19.81 15.1447C20.24 15.2247 20.38 14.6947 20.535 14.5747C20.69 14.4547 20.865 14.5147 20.825 14.7247C20.695 15.3497 20.515 15.9597 20.385 16.5847C19.895 16.7874 19.4409 17.0676 19.04 17.4147C18.75 16.9997 17.5 14.9547 17.715 14.5247ZM47.65 48.6797C44.04 52.2847 43 54.6797 43.15 56.1297C42.7434 55.9374 42.3717 55.6789 42.05 55.3647C41.05 54.4347 33.31 43.3297 32.405 42.3647C29.905 39.6897 24.955 37.7297 20.655 25.9297C20.155 24.5697 18.27 18.9297 18.23 18.7547C18.23 18.6897 19.73 16.6647 21.515 16.6797C23.9263 19.7016 26.117 22.8932 28.07 26.2297C28.845 27.5547 32.49 29.6797 34.395 29.6697C34.54 29.8597 34.805 29.8697 35.04 29.9247C37.39 30.4847 37.54 30.5847 37.54 30.4247C37.54 30.0547 37.57 28.9947 37.58 28.8347C37.795 28.9997 38.81 29.7897 39.26 29.8047C39.71 29.8197 39.87 29.5997 39.94 29.3397C40.0003 28.893 39.9799 28.4392 39.88 27.9997C40.765 28.4997 40.825 28.6147 40.88 28.4997C41.295 26.9997 41.43 27.1597 40.76 26.8497C41.075 26.9097 42.985 20.5097 42.76 18.1497C42.625 16.6947 42.12 15.3147 41.805 13.8997C41.62 13.1597 41 9.70467 41 9.49967C41.03 8.85467 43.275 8.05467 45.205 8.45467C49.97 17.7247 50.32 23.9547 49.41 31.3347C48.5516 30.1417 47.6286 28.9967 46.645 27.9047C46.639 27.8987 46.6309 27.8954 46.6225 27.8954C46.6141 27.8954 46.606 27.8987 46.6 27.9047C46.594 27.9106 46.5907 27.9187 46.5907 27.9272C46.5907 27.9356 46.594 27.9437 46.6 27.9497C48.71 30.2797 52.435 36.0797 52.765 36.6247C46.935 40.3247 40.33 29.9147 40.18 29.9147C39.962 30.0202 39.7573 30.1511 39.57 30.3047C39.35 30.4447 41.28 36.5697 47.605 39.8997C50.66 41.5047 53.135 41.1947 54.905 40.3997C54.905 40.4447 55.555 41.9347 55.945 42.8647C52.9064 44.38 50.1107 46.3399 47.65 48.6797ZM67.74 71.3197C64.915 72.5847 65.2 68.3847 68.595 67.0197C68.99 66.8597 69.86 66.7097 70.095 67.0197C71.295 68.8097 68.235 71.0947 67.74 71.3197ZM73.93 79.7597C73.5471 79.2161 73.3015 78.5878 73.2145 77.9287C73.1274 77.2695 73.2013 76.599 73.43 75.9747C74.5192 76.3514 75.6905 76.4243 76.8181 76.1856C77.9456 75.9468 78.9869 75.4055 79.83 74.6197C80.302 75.6193 80.9702 76.5137 81.795 77.2497C78.81 80.3347 74.54 79.8647 73.93 79.7597ZM95.065 81.6497C94.8283 81.7854 94.5656 81.8693 94.2941 81.896C94.0226 81.9228 93.7486 81.8916 93.49 81.8047C93.2571 81.641 93.0829 81.407 92.9929 81.137C92.9029 80.867 92.9019 80.5753 92.99 80.3047C93.365 78.5697 94.99 78.3897 95.645 79.5097C95.8361 79.8738 95.8825 80.2966 95.7749 80.6935C95.6673 81.0903 95.4138 81.4319 95.065 81.6497Z" fill="#333333"/>
<path d="M41.595 66.7945C41.55 67.4845 43.3 69.2945 45.975 67.4195C46.5512 66.9725 47.0642 66.4494 47.5 65.8645C48.1513 65.9862 48.8124 66.0482 49.475 66.0495C49.9877 65.6501 50.3832 65.1198 50.62 64.5145C50.627 64.2328 50.533 63.9579 50.355 63.7395C50.03 63.1745 48.775 62.6245 48.355 62.4095C46.205 61.3295 43.855 61.4395 44.51 63.7695C44.5781 63.9747 44.685 64.1648 44.825 64.3295C44 64.1645 41.675 65.5245 41.595 66.7945ZM48.315 62.5545C48.735 62.7545 49.865 63.3595 50.1 63.7545C50.225 63.9695 50.46 64.2045 50.425 64.4695C50.28 65.5295 45.96 64.9395 44.965 62.9145C44.42 61.7895 46.415 61.6595 48.315 62.5545ZM44.9 64.3995C45.4224 64.9667 46.0792 65.3932 46.81 65.6395C44.495 68.1645 40.55 67.8945 42.07 65.9845C43.15 64.6195 44.695 64.4995 44.9 64.3995Z" fill="#333333"/>
<path d="M43.875 70.0748C43.8688 69.7066 43.774 69.3453 43.5985 69.0215C43.423 68.6978 43.172 68.4211 42.8668 68.215C42.5616 68.0089 42.2112 67.8795 41.8453 67.8377C41.4794 67.7959 41.1088 67.8429 40.765 67.9748C40.3669 68.0961 40.0249 68.3548 39.8 68.7048C39.8 68.7348 39.8 68.7598 39.85 68.7398C42.85 66.8348 43.685 70.0198 43.755 70.0898C43.7635 70.0975 43.7736 70.1032 43.7845 70.1067C43.7954 70.1101 43.807 70.1112 43.8184 70.1097C43.8298 70.1083 43.8407 70.1045 43.8505 70.0984C43.8602 70.0924 43.8686 70.0844 43.875 70.0748ZM36.58 54.8898C34.58 53.0248 35.96 53.1798 34.385 55.5948C34.02 56.1548 32.94 57.1748 32.99 57.2498C35.055 60.2498 40.295 61.2498 40.295 60.7498C40.3172 59.527 40.7868 58.3548 41.615 57.4548C42.14 56.9598 39.415 57.4998 36.58 54.8898ZM40.125 60.6698C39.6322 60.6348 39.1416 60.5747 38.655 60.4898C36.81 60.1298 34.34 58.8198 33.25 57.2448C34.2284 56.3713 34.98 55.2732 35.44 54.0448C36.8851 55.885 38.9667 57.1175 41.275 57.4998C40.5692 58.41 40.1669 59.5188 40.125 60.6698Z" fill="#333333"/>
<path d="M36.09 57.9692C36.5 59.6542 39.45 59.6792 38.45 57.5792C37.885 56.3992 35.72 56.4592 36.09 57.9692ZM31.305 67.1642C31.4301 66.8445 31.4491 66.4929 31.359 66.1616C31.269 65.8303 31.0747 65.5367 30.805 65.3242C30.5456 65.1239 30.2322 65.0059 29.9051 64.9854C29.5781 64.9649 29.2523 65.0428 28.97 65.2092C28.7824 64.7874 28.4939 64.4182 28.13 64.1342C27.9471 63.9846 27.7339 63.8767 27.505 63.818C27.2762 63.7593 27.0373 63.7512 26.805 63.7942C26.5927 63.8424 26.3978 63.9482 26.2417 64.0999C26.0856 64.2516 25.9743 64.4434 25.92 64.6542C25.8658 64.9244 25.868 65.2029 25.9265 65.4722C25.985 65.7415 26.0986 65.9959 26.26 66.2192C26.295 66.2692 26.37 66.2192 26.34 66.1742C26.1765 65.9345 26.0734 65.6588 26.0394 65.3706C26.0055 65.0825 26.0417 64.7904 26.145 64.5192C26.2717 64.2856 26.4791 64.1061 26.7284 64.0141C26.9777 63.9221 27.2519 63.9239 27.5 64.0192C28.0014 64.2192 28.4134 64.594 28.66 65.0742C28.7821 65.2991 28.873 65.5397 28.93 65.7892C28.9775 66.0582 28.9976 66.3312 28.99 66.6042C28.99 66.7142 29.17 66.7492 29.19 66.6342C29.257 66.1907 29.1998 65.7373 29.025 65.3242C29.2907 65.2 29.5849 65.1493 29.8769 65.1775C30.1688 65.2056 30.4479 65.3115 30.685 65.4842C30.9082 65.6849 31.075 65.9404 31.1689 66.2255C31.2627 66.5105 31.2803 66.8152 31.22 67.1092C31.19 67.1792 31.275 67.2292 31.305 67.1642ZM19.5 40.0492C19.37 40.0842 19.42 40.2692 19.555 40.2542C20.78 40.0692 21.625 42.1942 21.71 42.7942C21.71 42.8542 21.8 42.8342 21.8 42.7942C21.935 40.9792 23.245 39.9742 23.375 40.0292C23.505 40.0842 23.61 39.8492 23.475 39.7892C22.8621 39.4908 22.3529 39.0153 22.0133 38.4243C21.6737 37.8333 21.5192 37.154 21.57 36.4742C21.57 36.3142 21.315 36.3192 21.32 36.4742C21.435 38.9992 20.155 39.8642 19.5 40.0492ZM21.5 37.8242C21.7619 38.6765 22.3325 39.4004 23.1 39.8542C22.7286 40.1369 22.4181 40.4916 22.187 40.8971C21.9559 41.3026 21.8089 41.7506 21.755 42.2142C21.64 41.7442 21.085 40.3692 20.08 40.0542C20.4728 39.8174 20.8054 39.4928 21.0518 39.1059C21.2982 38.719 21.4516 38.2803 21.5 37.8242ZM19.075 43.8592C18.965 44.5492 18.765 45.5842 18.01 45.7242C17.905 45.7242 17.93 45.9142 18.01 45.9092C18.3864 45.9232 18.7449 46.0734 19.019 46.3318C19.293 46.5902 19.4639 46.9393 19.5 47.3142C19.5 47.4392 19.705 47.4442 19.7 47.3142C19.6825 46.9549 19.7672 46.5979 19.9442 46.2847C20.1211 45.9714 20.3832 45.7147 20.7 45.5442C20.79 45.4992 20.74 45.3792 20.655 45.3692C20.2951 45.283 19.9672 45.0962 19.7096 44.8306C19.452 44.565 19.2752 44.2315 19.2 43.8692C19.19 43.7942 19.085 43.7892 19.075 43.8592ZM20.4 45.4992C19.9623 45.7924 19.6557 46.2442 19.545 46.7592C19.4405 46.5205 19.2853 46.3074 19.0902 46.1347C18.895 45.962 18.6646 45.8339 18.415 45.7592C18.6299 45.5967 18.8098 45.3925 18.9438 45.1588C19.0778 44.9251 19.1633 44.6667 19.195 44.3992C19.2957 44.6641 19.4572 44.9016 19.6665 45.0927C19.8758 45.2837 20.1271 45.423 20.4 45.4992ZM32 46.1592C31.905 45.6592 31.29 45.4592 31.04 45.7192C31.0234 45.7373 31.013 45.7601 31.0103 45.7845C31.0077 45.8089 31.0129 45.8334 31.0251 45.8547C31.0374 45.8759 31.0562 45.8926 31.0786 45.9024C31.1011 45.9122 31.1261 45.9146 31.15 45.9092C32.105 45.6742 31.95 47.2092 30.41 47.4492C29.34 47.6192 29.305 46.6592 30.075 46.2342C30.115 46.2342 30.075 46.1542 30.04 46.1742C29.8529 46.2384 29.6909 46.3599 29.5769 46.5215C29.4629 46.683 29.4027 46.8765 29.405 47.0742C29.53 48.2442 32.25 47.4992 32 46.1592ZM46.805 80.3142C45.37 80.5392 43.665 82.1042 43.305 82.7742C42.865 83.5942 43.585 84.6392 44.03 84.8492C45.085 85.3492 48.96 83.7142 48.785 81.8492C48.755 81.5392 48.84 79.9992 46.805 80.3142ZM44.19 83.9992C41.75 83.7292 45.045 80.7292 46.515 80.4992C50.45 79.8192 47 83.9992 44.19 83.9992ZM37.43 24.6642C37.43 24.6292 37.4 24.5542 37.37 24.5792C37.14 24.702 36.8843 24.7687 36.6236 24.7739C36.3629 24.7792 36.1047 24.7227 35.87 24.6092C35.535 24.4342 36.845 25.5592 37.43 24.6642ZM37.63 22.8292C37.575 22.9042 37.23 23.1692 37.41 23.1692C37.5791 23.0928 37.7255 22.974 37.835 22.8242C37.97 22.5942 37.23 22.7592 36.59 21.9392C36.43 21.7342 36.755 22.4992 37.63 22.8292ZM35.115 22.6342C34.9 22.9492 35.19 23.2242 35.17 23.0592C35.1569 22.9925 35.1612 22.9235 35.1825 22.859C35.2038 22.7944 35.2414 22.7365 35.2917 22.6907C35.342 22.645 35.4032 22.613 35.4695 22.5978C35.5358 22.5826 35.6048 22.5849 35.67 22.6042C35.715 22.6042 35.755 22.5342 35.71 22.5142C35.6134 22.4575 35.4993 22.4384 35.3896 22.4605C35.2798 22.4826 35.182 22.5445 35.115 22.6342ZM36.92 21.6492C36.9079 21.5829 36.9129 21.5145 36.9347 21.4507C36.9564 21.3869 36.9942 21.3297 37.0443 21.2846C37.0944 21.2394 37.1553 21.2079 37.221 21.193C37.2868 21.178 37.3553 21.1802 37.42 21.1992C37.465 21.1992 37.505 21.1292 37.46 21.1092C36.96 20.8892 36.67 21.3742 36.845 21.6742C36.8509 21.6797 36.8582 21.6836 36.8661 21.6853C36.874 21.687 36.8822 21.6866 36.8899 21.684C36.8976 21.6814 36.9044 21.6769 36.9097 21.6707C36.915 21.6646 36.9186 21.6572 36.92 21.6492ZM39.13 34.5392C38.575 34.9242 35.42 36.7042 34.425 37.1592C34.315 37.2092 35.515 38.3792 37.425 41.0642C37.525 41.2092 38.745 40.7492 40.8 40.9142C41.065 40.9142 40.675 39.7542 41.91 37.9492C41.955 37.8792 39.675 35.1642 39.28 34.5692C39.273 34.5564 39.2633 34.5454 39.2515 34.5367C39.2398 34.5281 39.2263 34.5222 39.212 34.5193C39.1977 34.5165 39.1829 34.5168 39.1688 34.5202C39.1546 34.5236 39.1414 34.5301 39.13 34.5392ZM41.67 37.9542C41.1216 38.7845 40.7882 39.7381 40.7 40.7292C39.6461 40.6296 38.5834 40.6835 37.545 40.8892C36.8783 39.9692 36.1667 39.0759 35.41 38.2092C36.25 38.0442 39.245 36.3342 39.825 35.7092C40.3994 36.49 41.0152 37.2394 41.67 37.9542ZM35.345 38.1342C35.075 37.8192 34.795 37.5142 34.515 37.2092C35.11 36.9942 38.905 34.9142 39.15 34.7492C39.355 35.0592 39.565 35.3592 39.785 35.6592C38.3912 36.6302 36.9038 37.4593 35.345 38.1342Z" fill="#333333"/>
</svg>
