<svg width="101" height="100" viewBox="0 0 101 100" fill="none" xmlns="http://www.w3.org/2000/svg">
<path d="M52.8185 24.9437C53.4213 24.2662 53.5859 24.3177 53.6612 24.2427C53.9488 23.9567 53.6361 23.5727 53.3204 23.7217C52.8596 23.9507 52.6393 24.2127 52.4214 24.6032C51.4502 23.9137 49.8942 23.8172 48.6624 24.7132C47.8659 25.2927 47.6054 26.3882 48.0998 27.2502C48.5912 28.2287 49.5388 28.7472 50.2024 29.5292C50.8042 30.2372 51.5621 31.3092 51.2047 32.4367C50.2621 35.4232 44.8547 35.6282 43.9337 32.1412C43.632 31.0592 43.8945 29.9052 44.6319 29.0572C44.8813 28.8087 44.4773 28.4037 44.2263 28.6532C42.8344 30.0397 43.0066 32.3802 44.0436 33.7002C44.2027 33.8802 44.3769 34.0492 44.5616 34.2037C44.2906 34.4837 43.9623 34.9912 43.8313 35.3412C43.5803 36.0142 44.2133 36.3687 44.4517 35.6537C44.5877 35.2477 44.912 34.8942 45.1097 34.5987C48.6153 36.7577 53.1488 33.5757 51.5185 30.3327C49.7627 27.7092 48.9621 28.0437 48.4797 26.6067C48.3603 26.0102 48.6153 25.4067 49.1072 25.1337C50.0889 24.4437 51.4286 24.4922 52.3612 25.2467C53.211 26.0367 53.5197 27.2602 53.1473 28.3637C53.0594 28.6237 53.3224 28.7207 53.4454 28.5012C54.0854 27.3617 53.6919 25.8422 52.818 24.9437H52.8185Z" fill="#333333"/>
<path d="M57.0177 5.65236C56.7567 5.74686 56.59 5.94486 56.4686 6.18236C55.0646 5.68886 55.1936 5.51536 54.0276 4.81835C52.5339 4.32235 52.1032 6.07486 51.4562 6.90336C51.0381 7.59786 50.2566 7.33736 49.6623 7.79686C49.0048 8.33286 50.1407 9.04786 50.4398 9.34586C53.4891 11.8774 55.5219 11.7034 55.6424 11.5499C56.6904 10.2169 57.4363 8.69036 57.6757 7.02236C57.7355 6.60536 57.8549 5.35436 57.0177 5.65236ZM51.3378 7.50586C52.043 7.03736 51.9707 6.18336 53.0112 5.29486C53.609 4.87785 54.0879 5.29486 54.5662 5.65236C55.1239 5.99936 55.6439 6.32436 56.318 6.55186C56.0986 7.20136 55.9641 8.05036 55.2835 7.85636C54.9246 7.67786 54.5657 7.67786 54.1471 7.73736C53.7882 7.85636 53.4891 8.15436 53.0705 8.27336C52.0661 8.39836 51.5606 7.99386 50.7706 7.74936C50.9387 7.68786 51.0793 7.65236 51.3373 7.50586H51.3378ZM57.2667 6.99036C57.0985 8.41036 56.2763 9.65986 55.4878 10.8519C55.3492 11.0614 55.0948 11.1639 54.8488 11.1094C52.5073 10.5909 51.3654 9.29786 50.6787 8.75036C50.4996 8.63136 50.3796 8.51186 50.2004 8.33336C50.1407 8.27386 49.961 8.15486 50.0212 8.03536C50.0815 7.91586 50.2607 8.03536 50.2607 8.03536C50.8614 8.13536 50.9071 8.28986 52.294 8.75036C52.8918 8.86936 53.5548 8.69986 54.0879 8.39286C54.39 8.21936 54.7459 8.21436 55.0446 8.33336C55.284 8.45236 55.5826 8.45236 55.8221 8.39286C56.3004 8.15436 56.5996 7.73736 56.6593 7.26086C56.719 6.96286 56.8385 6.72486 56.9585 6.42686C57.2707 6.11586 57.3234 6.51636 57.2672 6.99036H57.2667Z" fill="#333333"/>
<path d="M56.4199 10.537C56.2909 10.28 56.061 10.438 56.061 10.537C56.0123 10.6335 55.4738 11.22 55.4477 11.2435C55.024 11.3185 54.8052 11.1735 54.8052 11.371C54.8649 11.6095 54.9844 11.8475 55.1043 12.0265C55.8296 12.749 57.0549 12.1185 56.4199 10.537Z" fill="#333333"/>
<path fill-rule="evenodd" clip-rule="evenodd" d="M52.8651 45.6013C52.6548 45.6327 52.444 45.6603 52.2332 45.6841C49.3551 46.0026 45.2061 45.7071 42.1267 44.6116C36.9262 42.8506 34.3156 38.3591 36.0272 33.0551C36.5055 31.3871 37.2233 29.7791 38.0605 28.2896C40.2417 24.4453 43.5601 23.4514 46.8001 22.4811C48.9418 21.8397 51.0491 21.2085 52.7713 19.7711C55.2418 17.7201 56.0344 14.4016 55.3201 11.3456C55.2243 10.9346 55.7277 10.8106 55.8813 11.0141C57.7701 13.5222 60.217 17.5364 61.9778 21.2939C61.8378 21.4356 61.6917 21.5875 61.5406 21.7505C60.0022 18.4037 57.9488 15.2024 56.0269 12.3141C56.6181 15.4751 55.1314 18.8366 52.5012 20.7616C50.9543 21.8564 49.0962 22.3703 47.1973 22.8955C43.808 23.8328 40.2892 24.8059 38.1805 29.1821C36.6255 32.1606 35.2502 35.9136 36.5658 39.1901C38.6422 44.5676 46.8299 45.9552 52.8596 45.1067C52.8591 45.2799 52.8611 45.4447 52.8651 45.6013Z" fill="#333333"/>
<path fill-rule="evenodd" clip-rule="evenodd" d="M61.5607 50.8358C61.2882 51.9548 61.0232 53.1113 60.7712 54.2893C60.9539 54.2993 61.1346 54.3093 61.3148 54.3183C61.5693 53.1183 61.8268 51.9898 62.0772 50.9488C61.9026 50.9108 61.7304 50.8733 61.5607 50.8358ZM90.1581 50.6288C91.7342 56.7123 94.0768 62.7988 96.4188 68.5438C89.5127 69.2673 83.9587 69.2283 73.3784 69.1543H73.3779H73.3769C72.5567 69.1483 71.7064 69.1423 70.823 69.1368L71.0032 69.6593L71.7501 69.6683H71.7506C81.6915 69.7863 89.7315 69.8818 96.845 69.0943C97.0242 69.0943 97.2038 68.9158 97.1441 68.7368C94.7775 62.8703 92.2387 56.5218 90.5968 50.0088C90.4538 50.2123 90.3067 50.4198 90.1581 50.6288ZM66.5555 55.3088L66.4657 55.3018C66.4707 55.4628 66.4817 55.6238 66.4978 55.7848C68.619 55.9538 70.9158 56.0343 73.2945 56.1038C73.3181 56.4098 73.3643 57.0198 73.4506 58.1928C70.0651 58.1928 68.1682 58.1648 67.0359 58.1338C67.0665 58.2268 67.0971 58.3193 67.1287 58.4118C69.5556 58.4483 72.8679 58.4903 73.4727 58.4903L73.7041 61.6778C72.9226 61.6838 72.2149 61.6898 71.5709 61.6953H71.5679H71.5674C70.2252 61.7073 69.1576 61.7163 68.2701 61.7173L68.377 62.0283L73.7322 62.0648C73.8647 63.9033 73.8793 64.5733 73.8863 64.9098C73.8918 65.1518 73.8933 65.2213 73.932 65.4288L69.5611 65.4698L69.6997 65.8718C78.472 65.8563 91.403 65.8183 91.403 65.8183C91.4617 65.8183 91.7021 65.8158 91.7021 65.4608C91.2895 63.8168 90.7173 62.2168 90.1431 60.6098C89.5513 58.9558 88.9575 57.2948 88.5329 55.5723V55.5718C88.4736 55.4538 88.2829 55.3773 88.1378 55.4738C86.0945 55.6498 77.5194 55.9683 69.6229 55.5253C68.5844 55.4668 67.5724 55.3883 66.5555 55.3088ZM82.728 61.6023C85.0339 61.5738 87.5345 61.5143 89.857 61.4518H89.8575C89.7596 61.1758 89.6612 60.9003 89.5629 60.6248C89.3159 59.9358 89.0699 59.2478 88.8365 58.5568C88.4581 58.5773 88.4521 58.5773 87.7253 58.5703C86.9849 58.5633 85.4977 58.5488 82.1096 58.5418C82.1096 58.5418 82.6697 61.2998 82.728 61.6023ZM88.7091 58.1773C88.4556 57.4093 88.2207 56.6368 88.0214 55.8553V55.8558C86.8534 55.9943 84.5103 56.1083 81.6207 56.1563C81.7778 56.8353 81.9324 57.5143 82.0453 58.1933C84.2945 58.1933 85.5468 58.1693 86.4006 58.1533C87.3965 58.1343 87.8497 58.1258 88.7091 58.1773ZM81.69 58.1928C81.5088 57.3048 81.3506 56.5678 81.2462 56.1618H81.2457C78.9358 56.1948 76.3042 56.1863 73.6569 56.1143C73.7387 56.5428 73.7563 56.8388 73.8296 58.0448L73.8386 58.1928H81.69ZM81.7612 58.5398L73.8577 58.4908C73.9029 59.2288 73.9666 60.2423 74.0655 61.6758L74.8019 61.6708C77.3246 61.6533 79.8423 61.6363 82.363 61.6068C82.1658 60.5798 81.9535 59.4918 81.7612 58.5398ZM74.0921 62.0643C74.0961 62.1163 74.3074 65.0028 74.2738 65.4253L83.0708 65.3513C82.997 64.9543 82.744 63.5988 82.4439 62.0298C79.6651 62.0643 74.0921 62.0643 74.0921 62.0643ZM82.8098 62.0253L83.4512 65.3483L91.0737 65.2843C90.774 64.1358 90.4041 63.0133 90.0146 61.8998C88.2884 61.9518 83.9843 62.0093 82.9875 62.0228H82.987H82.9865L82.8098 62.0253Z" fill="#333333"/>
<path d="M28.0745 43.3002C28.0719 43.2502 27.9374 40.5217 27.8777 40.1642C27.8777 40.0767 27.8185 39.9037 27.6247 39.8982C22.4196 39.7487 21.5237 39.5262 19.2243 39.7257C17.7365 39.9952 16.9465 40.6012 15.2775 41.1552C15.0602 41.2417 15.0642 41.5172 15.1972 41.6152C15.135 42.6227 15.1802 43.0302 15.397 45.6227C15.397 45.7417 15.4567 45.8012 15.5762 45.8012C18.5216 46.3192 21.4674 46.6147 24.4128 46.8487C24.8299 46.8817 24.9594 46.9377 25.503 46.3967C26.656 45.5357 26.2178 45.8462 27.3567 44.9672C27.5931 44.7847 27.9545 44.6097 28.0745 44.3117C28.1342 43.9542 28.1342 43.6562 28.0745 43.2992V43.3002ZM19.3437 40.1432C20.7191 40.0837 22.0326 40.1132 23.4104 40.2027C24.5348 40.2757 25.7018 40.2602 26.8417 40.2947C25.5939 41.0427 26.019 40.7942 24.9649 41.3942C24.6658 41.6327 24.3671 41.7517 24.0082 41.8707C23.5369 41.9377 23.2568 41.8432 21.616 41.6922C20.6071 41.5992 17.5619 41.3397 16.2543 41.2977C17.9228 40.6187 18.4618 40.3827 19.3432 40.1432H19.3437ZM15.5456 41.6147C20.3506 41.7967 23.3783 42.4627 24.0012 42.2717C24.2657 43.6307 24.4113 44.9762 24.4756 46.3832C21.5648 46.2032 18.7073 45.8627 15.8508 45.4667C15.7007 44.4167 15.6414 42.5107 15.5456 41.6147ZM27.5364 44.0152C27.4872 44.4337 27.058 44.6107 26.7589 44.8492C26.7589 44.8492 25.0227 46.1882 24.9609 46.2332C24.9348 44.8087 24.7732 43.4902 24.5082 42.1002C25.1205 41.8707 25.0774 41.8677 27.5098 40.4422C27.5384 40.9707 27.6307 43.2097 27.5364 44.0152Z" fill="#333333"/>
<path d="M25.129 16.9109C25.129 16.3159 24.605 15.7939 24.0077 15.7939C23.4104 15.7939 22.8864 16.3159 22.8874 16.8924C22.2735 24.3364 22.408 34.9219 22.8869 40.2024C22.8869 40.7974 23.4109 41.3194 24.0082 41.3194C24.4459 41.3194 25.0573 40.914 25.1285 40.22C25.1331 40.175 25.4884 35.5994 25.5477 28.2359C25.6596 24.7244 25.5221 21.0129 25.129 16.9109Z" fill="#333333"/>
<path d="M20.4796 40.7984C20.4796 40.2354 18.7454 40.5294 18.7454 40.9174C18.7454 41.1944 19.2449 41.2749 19.5229 41.2749C19.8246 41.2749 20.4796 41.0989 20.4796 40.7984Z" fill="#333333"/>
<path d="M30.5962 38.7456C30.2328 37.8406 29.2741 37.2981 28.9177 36.4136C28.6416 35.9186 28.6728 35.3391 29.0291 34.8896C29.382 34.4446 29.6922 33.8351 29.7027 33.7851C30.3598 30.7311 26.2635 29.8046 26.7694 27.7791C26.9737 27.2361 27.1509 26.8476 27.3677 26.4666C28.215 24.0556 25.3926 22.8001 24.99 20.8291C25.0784 20.7206 24.842 20.6461 24.8294 20.7756C24.6467 22.7176 27.1017 23.6836 27.1017 25.5481C27.1017 26.0111 26.9024 26.4066 26.6911 26.8246C25.9854 28.2216 26.1114 28.7386 27.1368 29.8256C27.9645 30.7011 28.8851 31.3606 29.2008 32.4281C29.3624 32.8041 29.3825 33.2516 29.2605 33.6796C29.0894 34.0776 28.7932 34.4766 28.5478 34.8621C27.3878 36.6831 30.1354 37.9021 30.3317 39.3766C30.4014 39.9006 30.1515 40.3991 29.7037 40.6786C29.4347 40.8796 29.2555 41.2036 29.1958 41.4451C29.1345 41.9926 29.6621 42.4301 29.6139 42.8761C29.5542 43.4321 28.4323 43.0621 27.9886 42.9991C27.5976 42.9206 27.5002 43.4791 27.836 43.5626C28.3174 43.6826 28.7149 43.6731 29.2103 43.6731C30.1369 43.6726 30.3151 42.6551 29.8086 42.0041C29.637 41.7831 29.6556 41.4481 29.7514 41.2566C29.8669 41.0836 30.0476 40.9651 30.1545 40.8566C30.7784 40.3596 30.9706 39.4286 30.5957 38.7451L30.5962 38.7456Z" fill="#333333"/>
<path d="M19.4782 51.8184C17.4208 53.2604 17.2421 56.0219 17.1753 58.3829C17.1362 59.7564 17.096 61.1764 16.5826 62.5144C15.152 66.1954 11.2896 68.3549 7.39759 67.6504C5.93394 67.3684 3.45989 66.5534 3.3324 64.2664C3.26564 62.1434 4.93509 60.4444 5.93645 59.6204C7.33184 58.4714 9.11071 57.3579 10.0794 55.6689C10.8464 54.3759 11.3112 52.4864 10.3118 51.0554C10.0157 50.7014 9.70952 50.3354 9.35013 50.0379C8.20622 48.8978 9.2653 46.9413 10.3691 45.7928C11.6786 44.4298 13.5197 43.6393 15.4878 43.6988C15.6038 43.6943 15.7393 43.4173 15.4763 43.3468L15.4617 43.3443C13.6186 43.2183 11.9005 43.7528 10.6246 44.8503C9.2382 45.9808 8.08625 47.7218 8.32668 49.5138C8.57514 50.5054 9.52832 50.8989 9.94694 51.7334C10.3334 52.5034 10.3585 53.4754 10.0619 54.4189C8.8758 58.1874 3.7199 59.0959 2.82494 63.3584C2.42791 65.2499 3.45889 66.8959 5.26035 67.6139C9.71103 69.5304 14.9171 67.5384 16.8421 63.1049L17.204 62.2014C17.5277 60.9129 17.6682 59.7179 17.6848 58.5514C17.7174 56.2384 17.8133 53.6349 19.7443 52.2974C19.9992 52.1209 19.7458 51.6299 19.4782 51.8174V51.8184Z" fill="#333333"/>
<path fill-rule="evenodd" clip-rule="evenodd" d="M77.4099 88.5257L19.8793 87.9896C19.6941 87.9876 19.5741 87.7931 19.6574 87.6276C20.703 85.5446 20.9007 85.1372 23.9277 76.1897C24.0388 76.4052 24.1424 76.6227 24.2389 76.8402C21.4757 85.0027 21.2315 85.5496 20.2834 87.4926V87.4931L77.0571 88.0221L67.0665 58.9901C66.548 57.5546 66.0952 56.0281 66.2388 54.5356C63.1459 54.7791 60.0047 54.5137 56.1227 54.1857C50.4217 53.7042 43.1223 53.0877 32.0307 53.7497C31.5424 55.1942 31.0774 56.5706 30.6343 57.8831C30.4594 57.8966 30.2764 57.9147 30.0862 57.9372C30.5675 56.5127 31.0747 55.0122 31.6096 53.4307C31.6422 53.3342 31.7301 53.2672 31.8319 53.2612C43.1628 52.5722 50.4396 53.1982 56.1152 53.6862C60.081 54.0272 63.2648 54.3007 66.5038 54.0122C66.6705 53.9987 66.7985 54.1416 66.7744 54.2991C66.5455 55.7801 67.0073 57.3486 67.5398 58.8231L77.6473 88.1946C77.7031 88.3571 77.5816 88.5257 77.4099 88.5257ZM39.3098 56.7786C39.7722 56.8616 40.0302 56.8672 40.9081 56.8867C41.4416 56.8982 42.2039 56.9152 43.38 56.9572C43.5673 56.9637 55.5149 57.1401 55.7021 57.1356C55.8637 57.1321 55.9566 57.0431 55.9566 56.8821C55.9566 56.7211 55.8637 56.6286 55.7086 56.6286L55.6991 56.6276C55.5576 56.6156 55.4446 56.6056 55.3322 56.5976C54.898 56.5671 54.4618 56.5641 52.3462 56.5491H52.3457C50.4382 56.5356 47.1651 56.5122 41.297 56.4502C40.5526 56.3832 39.9006 56.4021 39.3168 56.5096C39.1477 56.5096 39.1226 56.7751 39.3098 56.7786ZM49.8064 59.0441C57.754 59.2806 57.7927 59.2816 58.7594 59.3691V59.3696C58.91 59.3696 59.0069 59.5172 59.0069 59.6232C59.0069 59.7802 58.8588 59.8746 58.7524 59.8766C58.4688 59.8821 40.5109 59.2212 40.5109 59.2212C39.9131 59.2212 39.3042 59.1607 38.7044 59.0412C38.6216 59.0262 38.4655 58.7736 38.6593 58.7736C39.3118 58.7141 40.0401 58.7141 40.7589 58.7736C44.5684 58.8881 47.512 58.9756 49.8004 59.0441H49.8057H49.8064ZM38.9534 61.4847C39.9066 61.6032 50.0623 62.0386 50.6792 61.9611C50.8474 61.9611 50.874 61.6471 50.6913 61.6326C50.2204 61.4996 40.9266 61.1556 38.9585 61.1556C38.7376 61.1556 38.6834 61.4807 38.9534 61.4842V61.4847ZM37.8241 64.3636C38.8318 64.3326 55.6609 65.0622 57.6767 65.1927H57.6772C58.2535 65.2297 58.0115 65.7491 57.7681 65.7491C57.1176 65.8001 39.1863 64.9592 37.9185 64.8307C37.9072 64.6667 37.8775 64.5086 37.8241 64.3636ZM33.4214 72.6176C32.7568 74.2756 32.14 75.9607 31.5618 77.6537C30.7659 77.8692 30.0078 78.2817 29.4502 78.9232C28.3966 80.1347 28.3489 81.8636 29.3905 83.0336C30.8919 84.7201 33.596 84.2941 35.0881 82.7986C35.3491 82.7556 35.6071 82.7172 35.8479 82.7357C36.0873 82.7357 36.2665 82.8546 36.4457 83.0336C36.5652 83.2121 36.8046 83.2722 36.9838 83.2722C37.1174 83.2387 37.2231 83.2127 37.3099 83.1917L37.3104 83.1911C37.4911 83.1471 37.5895 83.1226 37.6869 83.0951C37.8032 83.0616 37.9179 83.0232 38.1698 82.9387C38.2894 82.8987 38.4399 82.8482 38.6362 82.7832C38.9755 82.6707 39.2164 82.8157 39.0171 82.9147C38.9373 82.9542 38.3621 83.7487 40.2133 83.7487C41.7085 83.6297 43.1436 83.4506 44.5786 83.1531C44.7688 82.9636 44.7031 82.7956 44.5786 82.7956L44.5791 82.7952C42.6321 82.9637 41.5161 83.1552 40.792 83.2792C40.1578 83.3882 39.8241 83.4451 39.496 83.3906C39.0209 83.3906 39.1968 83.0397 39.2833 82.8672C39.2987 82.8367 39.3113 82.8117 39.3168 82.7952C39.4895 82.1067 38.7315 82.2546 38.1804 82.4376C38.0321 82.4866 37.9002 82.5312 37.7826 82.5702L37.7815 82.5707C36.8914 82.8687 36.8205 82.8922 36.6254 82.7952C36.5657 82.7357 36.5059 82.6762 36.4462 82.5567C36.1663 82.2777 35.8397 82.2647 35.4971 82.3187C35.9136 81.7417 36.1622 81.0526 36.1481 80.2936L36.1476 80.2932C36.1476 80.2672 36.1472 80.2411 36.1465 80.2146C46.3194 80.3571 60.1543 80.8532 66.8251 81.3067C66.9099 81.3067 67.0645 81.2432 67.0645 81.0087C66.286 78.6222 64.4659 74.2071 63.5961 72.3711V72.3707C63.581 72.3392 63.566 72.3066 63.5509 72.2741C63.3903 71.9291 63.2006 71.5211 62.8186 71.3581C61.3866 71.0411 43.7106 70.2576 35.7064 70.4346C35.6029 70.5666 35.4962 70.6967 35.3866 70.8242C37.0323 70.8567 38.705 70.8752 40.3849 70.8922C40.2328 71.3322 40.0034 72.1322 39.7459 73.0847C37.0531 73.0192 34.7602 72.9862 33.7915 73.0227C33.9242 72.6852 34.0584 72.3487 34.1942 72.0137C34.0511 72.1367 33.9046 72.2556 33.7549 72.3711C33.6435 72.4571 33.5323 72.5391 33.4214 72.6176ZM37.171 67.9437C37.7831 67.9762 38.4281 67.9681 39.0181 67.9186C39.3798 67.9186 39.7269 67.9182 40.061 67.9182C42.2263 67.9167 43.8465 67.9157 45.3541 67.9782C45.3541 67.9782 51.3327 68.2461 51.6836 68.2751C52.4074 68.3951 53.205 68.3952 53.9087 68.3952C54.0266 68.3952 54.116 68.2236 54.0407 68.1116C54.0271 68.0431 53.9599 68.0086 53.9268 68.0091C53.0745 67.7971 52.4305 67.7806 51.9993 67.7696C51.8693 67.7666 51.7589 67.7637 51.668 67.7562L51.4778 67.7402C51.2354 67.7202 51.0793 67.7071 50.9227 67.6966C50.6366 67.6771 50.3494 67.6667 49.5385 67.6357H49.5382H49.5379H49.5372H49.5359C48.7655 67.6067 47.5226 67.5597 45.3601 67.4707C43.5263 67.3952 39.2941 67.4757 37.3042 67.6107C37.2617 67.7227 37.2172 67.8337 37.171 67.9437ZM35.5544 81.1022C35.4107 81.5992 35.1424 82.0762 34.7594 82.4652C34.4809 82.5062 34.206 82.5016 33.9501 82.3516C34.0754 82.2551 34.2075 82.1546 34.3434 82.0511L34.3436 82.0507C34.7408 81.7487 35.1699 81.4222 35.5544 81.1022ZM35.6764 80.2087C35.6773 80.2647 35.6766 80.3211 35.6742 80.3776C35.5606 80.3056 35.4114 80.2537 35.2501 80.2337C34.9495 80.2472 34.6521 80.2857 34.3614 80.3477C34.3667 80.2962 34.3702 80.2446 34.3719 80.1931C34.7987 80.1976 35.2338 80.2027 35.6764 80.2087ZM31.8685 81.6387C32.4152 81.1212 33.0851 80.7311 33.8156 80.4936C33.8385 80.3926 33.8527 80.2907 33.8573 80.1882C32.8521 80.1792 31.8969 80.1747 31.0042 80.1747C30.8847 80.1747 30.7653 79.9956 30.825 79.8766C30.8923 79.6676 30.9601 79.4587 31.0285 79.2497C30.3258 79.8417 29.9455 80.8331 30.5264 81.7826C30.9324 82.4461 31.8419 82.5572 32.5 82.1402C32.9866 81.8792 33.4284 81.4286 33.6688 80.9161C33.1001 81.1246 32.5365 81.4277 32.0588 81.8242C31.858 81.9907 31.6331 81.8617 31.8685 81.6387ZM34.8686 80.6126C34.6815 80.6381 34.488 80.6756 34.2915 80.7246C34.0659 81.5706 33.3935 82.3722 32.5597 82.7357C31.6627 83.1527 30.5861 82.8547 30.1077 81.9612C29.6294 81.0677 29.8086 79.9361 30.5264 79.2211C30.7398 79.0086 30.9694 78.8407 31.2054 78.7122C31.2851 78.4722 31.3655 78.2322 31.4467 77.9922C30.7466 78.2452 30.0789 78.7152 29.5697 79.4592C28.7922 80.5907 29.0908 82.1396 30.1675 82.9736C31.3039 83.7481 32.7986 83.7482 33.9947 83.0332C34.0824 82.9872 34.1668 82.9377 34.2479 82.8847C33.9605 82.8722 33.6893 82.7897 33.4557 82.5572C33.3959 82.4972 33.3959 82.3782 33.4557 82.3187L34.7115 81.3656C35.4614 80.7681 35.3324 80.5486 34.8686 80.6126ZM38.074 79.7376C37.4125 79.7261 36.7509 79.7176 36.0894 79.7116C35.9633 79.0851 35.6349 78.4997 35.1311 78.0892C34.4651 77.5732 33.3093 77.3552 32.1498 77.5302C32.2848 77.1277 32.4225 76.7262 32.5627 76.3262C32.9403 76.3577 32.9916 76.3587 33.4716 76.3697C34.0771 76.3837 35.3647 76.4137 38.85 76.5397C38.5082 77.9022 38.212 79.1271 38.074 79.7376ZM34.7125 78.3272C34.0839 77.8577 33.071 77.6342 32.0507 77.8272C31.9809 78.0377 31.912 78.2482 31.8437 78.4597C32.7449 78.2242 33.6143 78.4762 33.935 78.9232C34.1379 79.1587 34.2648 79.4231 34.327 79.7006C34.7586 79.7026 35.1902 79.7047 35.6218 79.7077C35.5067 79.1527 35.2088 78.6567 34.7125 78.3272ZM33.8003 79.6992C33.7465 79.5142 33.6541 79.3332 33.5164 79.1617C33.0122 78.6592 32.3318 78.6086 31.7218 78.8396C31.6311 79.1246 31.5417 79.4101 31.4539 79.6966C32.2361 79.6966 33.0182 79.6972 33.8003 79.6992ZM65.253 77.3337C64.9026 76.4232 64.5372 75.5212 64.1517 74.6257C63.0856 74.5672 62.3699 74.5106 61.507 74.4421H61.5065C60.4223 74.3566 59.1068 74.2526 56.5755 74.1036C56.6222 74.8611 56.6713 75.8656 56.7145 76.8581C59.5575 77.0026 62.4025 77.1617 65.253 77.3337ZM56.1669 74.0797C53.1779 73.9102 50.1622 73.7742 47.1716 73.6722H47.1711C47.0496 74.5357 46.9116 75.4996 46.7791 76.4161C49.9278 76.5351 53.073 76.6751 56.2201 76.8331C56.2116 76.4061 56.204 75.9837 56.1965 75.5882V75.5866V75.5847V75.5791C56.186 74.9931 56.1759 74.4682 56.1669 74.0797ZM39.9722 76.1911H39.974C41.2819 76.2316 44.5585 76.3331 46.3349 76.3991V76.3987L46.7907 73.6592C46.3921 73.6462 42.4072 73.5756 40.0697 73.5466C39.8689 74.3751 39.64 75.2916 39.4142 76.1736C39.428 76.1741 39.6341 76.1806 39.9722 76.1911ZM62.938 71.9537C62.7589 71.7152 62.4 71.7152 62.1008 71.7152H62.1013C58.2033 71.4562 57.7445 71.4301 57.3098 71.4056H57.3093C57.0935 71.3936 56.8832 71.3817 56.2593 71.3417C56.5649 72.0382 56.5554 72.7662 56.5484 73.3037C56.5464 73.4752 56.5444 73.6271 56.5529 73.7526C57.9613 73.8371 59.042 73.8972 59.9164 73.9457C61.8368 74.0522 62.7629 74.1031 63.9841 74.2386C63.8762 73.9926 63.7672 73.7472 63.6558 73.5022C63.4761 72.9662 63.2372 72.4302 62.938 71.9537ZM55.9144 71.7067C55.8733 71.6127 55.8341 71.5237 55.803 71.3132C54.0317 71.2047 51.785 71.0927 47.527 70.9922C47.4949 71.3192 47.3759 72.2061 47.2223 73.3076C51.6038 73.4576 52.0771 73.4862 54.6746 73.6412C55.1023 73.6667 55.5877 73.6957 56.1574 73.7292C56.1062 72.1422 56.0048 71.9122 55.9144 71.7067ZM47.2398 70.9861C47.1775 71.3451 47.0305 72.2207 46.8514 73.2952C44.7106 73.2222 42.3349 73.1497 40.1781 73.0957C40.413 72.1137 40.5952 71.3022 40.666 70.8952L41.1083 70.8997H41.1088C43.1581 70.9202 45.2141 70.9401 47.2398 70.9861ZM39.6235 73.5407C37.1986 73.5087 34.7592 73.4642 33.6509 73.3827C33.3171 74.2427 32.9944 75.1101 32.6837 75.9851C33.3369 75.9696 33.939 76.0101 34.5567 76.0521C34.9917 76.0816 35.4346 76.1117 35.9081 76.1227C36.3792 76.1337 36.8418 76.1347 37.3023 76.1357H37.3027C37.8501 76.1367 38.3946 76.1376 38.9469 76.1556C39.1677 75.2811 39.4026 74.3697 39.6235 73.5407ZM39.3163 76.5521C38.9715 77.8876 38.6447 79.0997 38.4479 79.7442C40.9677 79.7932 43.266 79.8462 45.7516 79.9177L46.2656 76.8126C45.6748 76.7881 45.246 76.7672 44.8263 76.7467H44.826C43.7616 76.6947 42.7557 76.6451 39.3163 76.5521ZM56.2286 77.2542C53.0589 77.0947 49.8886 76.9611 46.7189 76.8311C46.5186 78.2091 46.3394 79.4211 46.2601 79.9326C49.6236 80.0321 52.9821 80.1572 56.3371 80.3102C56.2894 79.7137 56.2552 78.5002 56.2286 77.2542ZM56.7321 77.2796C56.7873 78.5791 56.8315 79.7952 56.848 80.3342L56.8475 80.3347C60.0785 80.4847 63.307 80.6607 66.5349 80.8662C66.175 79.8232 65.8051 78.7897 65.4171 77.7652C63.9073 77.6872 60.8691 77.5142 58.8051 77.3967H58.8021H58.8016C57.738 77.3357 56.9339 77.2901 56.7321 77.2796Z" fill="#333333"/>
<path fill-rule="evenodd" clip-rule="evenodd" d="M94.3513 11.8531C94.5581 11.8531 94.6354 12.0816 94.6354 12.1326L94.6349 12.1321C94.6349 12.4923 94.5837 13.0185 94.5165 13.7104C94.3644 15.2711 94.13 17.6748 94.2168 20.9173C93.9799 21.003 93.7862 21.0966 93.7862 21.0966C93.7721 21.0947 93.758 21.0928 93.7435 21.0909C93.7314 18.1479 93.8966 15.0569 94.2208 12.4457C93.7415 12.7486 92.9374 13.2172 92.2111 13.5665C92.2929 15.2095 92.4038 17.4567 92.4018 17.5522C92.3958 17.8572 92.2181 18.0012 92.1539 17.5792C92.0505 16.8999 91.8703 15.2563 91.8703 13.7236C91.5862 13.8487 91.3257 13.9458 91.1179 13.9951C91.2539 16.3262 91.6062 18.6295 92.1192 20.8866C91.94 20.8653 91.7603 20.8442 91.5796 20.8234C91.0822 18.5752 90.757 16.3094 90.5868 14.0431C84.2574 13.8244 79.5171 13.6587 75.9513 13.5341H75.9508C65.8463 13.1809 65.1747 13.1574 64.5061 13.1898C64.4584 13.1921 64.4112 13.1947 64.36 13.1974L64.2822 13.2016C64.5839 14.1631 64.9062 15.1265 65.2294 16.0926C65.5948 17.1856 65.9612 18.2822 66.3005 19.3831C66.0817 19.3938 65.8714 19.4065 65.6691 19.4237C65.0296 17.2614 64.3726 15.12 63.6558 12.9786C63.6558 12.8631 63.7125 12.7471 63.826 12.6861C63.8646 12.6346 65.9216 11.5721 66.7603 11.3836C68.9337 10.8953 70.3055 10.9512 77.567 11.2473C81.301 11.3995 86.5929 11.6153 94.3513 11.8531ZM79.2264 19.8131C79.502 19.2402 79.4528 18.5302 78.9654 17.9472L78.9649 17.9477C78.4685 17.371 77.9355 17.3341 77.4917 17.3034C77.1936 17.2828 76.9356 17.265 76.7564 17.0877C76.403 16.8357 76.4613 16.2907 76.8473 16.0927C77.2006 15.8293 77.5314 15.9952 77.7909 16.1256C77.9736 16.2172 78.1207 16.2912 78.2165 16.1862C78.3089 16.0852 78.2436 15.8837 78.2226 15.8472C78.0795 15.6022 77.7457 15.4327 77.4757 15.3842L77.4159 14.4457C77.4069 14.3082 77.2854 14.2037 77.1494 14.2122C77.0114 14.2212 76.906 14.3397 76.915 14.4777L76.9737 15.3977C75.9719 15.6047 75.7927 16.6132 76.2565 17.2462C76.271 17.2611 76.2856 17.2797 76.3006 17.2997C76.3363 17.3464 76.3779 17.4006 76.4447 17.4332C76.7705 17.6647 77.1449 17.7627 77.5194 17.7147C77.945 17.7147 78.3596 17.9322 78.6261 18.2677C79.0237 18.7686 78.9534 19.3617 78.6477 19.7809C78.8394 19.7914 79.0327 19.8021 79.2264 19.8131ZM76.516 19.6719C76.2966 19.6614 76.0803 19.6512 75.8655 19.6414C75.8625 19.6102 75.8609 19.5788 75.862 19.5472C75.8695 19.2537 76.2168 19.1172 76.3323 19.3467C76.4141 19.4527 76.4557 19.5429 76.4944 19.6264C76.5014 19.6418 76.5084 19.6569 76.516 19.6719ZM93.0152 20.9965C93.1397 21.0122 93.2636 21.0281 93.3876 21.0442C93.3128 20.0817 93.2441 18.796 93.225 17.1292C93.221 16.7797 92.9354 16.9002 92.9339 17.1567C92.9293 17.929 92.9329 19.5471 93.0152 20.9965ZM91.014 13.4022C91.6946 13.1302 92.7276 12.7171 93.5457 12.2411C88.7562 12.0692 84.8863 11.9198 81.7407 11.7983C70.312 11.3572 68.4463 11.2852 66.7934 11.8408C66.4712 11.9492 66.1565 12.0815 65.781 12.2395C65.4979 12.3587 65.1802 12.4924 64.7977 12.6416C65.0698 12.6361 68.8659 12.7602 73.6153 12.9156H73.6158C79.5602 13.11 86.9974 13.3532 90.8895 13.4521L91.014 13.4022Z" fill="#333333"/>
<path fill-rule="evenodd" clip-rule="evenodd" d="M97.895 24.5372C98.0556 24.5512 98.157 24.6667 98.1605 24.8337L98.1595 24.8327C98.1952 26.5967 97.7198 36.2007 96.605 39.6062C95.6764 42.2498 95.0099 43.3659 93.9493 45.1415C93.7023 45.5548 93.4343 46.0038 93.1366 46.5162C91.4316 49.4502 91.0556 50.0646 89.1302 53.0686C88.8983 53.4311 88.5921 53.8431 88.2929 54.1411C88.2774 54.1566 88.2618 54.1721 88.2468 54.1876C88.0294 54.4066 87.8658 54.5716 87.5536 54.4016C80.4632 54.9741 59.1108 51.0296 54.386 49.3162C54.3338 49.3046 54.2811 49.2937 54.2284 49.2827C53.7355 49.18 53.227 49.0742 53.0107 48.4822C51.528 44.0508 53.9197 36.1591 55.9671 31.0091C56.0264 31.2676 56.0861 31.5291 56.1463 31.7929C55.6153 33.1629 55.1189 34.6259 54.6802 36.1508C54.5677 36.1411 54.4949 36.1361 54.4653 36.1361C54.498 36.2772 54.5306 36.4192 54.5637 36.5621C53.9308 38.832 53.4283 41.2309 53.1312 43.6582C53.0112 44.9687 53.0709 46.2792 53.3104 47.5897C53.4604 48.4867 53.5608 48.5607 54.4468 48.7812C54.7921 48.9187 57.9232 49.7222 57.9749 49.7342C64.4147 51.2406 70.0334 52.2966 80.6991 53.5466L80.6981 53.5461C82.0779 53.7116 85.5227 54.0586 87.1816 53.9521C87.0697 53.6991 87.0215 53.4026 86.9854 53.1776C86.9824 53.1611 86.9799 53.1446 86.9774 53.1291C86.4774 50.0606 87.1937 46.7075 87.6274 44.6782C87.6735 44.4612 87.7167 44.2594 87.7549 44.0747C88.4485 40.1027 89.4213 36.1857 90.6731 32.3787C90.4779 32.3737 88.9184 32.1547 88.0796 31.9222C87.0115 34.8932 86.246 37.9767 85.6016 41.0367C85.0037 43.5387 84.5254 46.1002 84.2262 48.6617C84.0932 50.1171 84.1881 50.9831 84.2428 51.4851C84.2975 51.9861 84.3126 52.1241 84.0219 52.1231C82.3861 52.1176 80.7644 51.9291 79.1275 51.7396C79.0136 51.7261 78.8992 51.7126 78.7847 51.6996C72.1652 50.9351 61.0894 49.5017 54.7449 47.4702C54.5507 47.3732 54.4759 47.0637 54.7133 46.9642C54.5742 45.9542 54.6681 44.9007 54.8649 43.8367C54.9 43.6478 54.9382 43.4159 54.9838 43.1417C55.0882 42.512 55.2293 41.6591 55.4501 40.5916C55.5455 41.0483 55.6399 41.5061 55.7322 41.963C55.3844 43.6229 55.1801 45.346 55.2217 47.0297C61.5843 48.7192 66.8471 49.5802 73.4632 50.5086C74.1664 50.5911 74.8621 50.6806 75.5558 50.7701C76.8683 50.9391 78.1729 51.1066 79.503 51.2236H79.5035C80.9129 51.3316 82.3229 51.4396 83.7328 51.5921C83.6038 50.6641 83.5802 49.723 83.6892 48.7817C84.2639 44.1997 85.8781 36.1722 87.6735 31.4172C86.5462 31.2975 85.5047 31.195 84.5113 31.1023C84.5028 30.9246 84.4953 30.7469 84.4887 30.5691C86.0166 30.7051 87.156 30.8066 87.7047 30.8657C87.7012 30.8305 87.6906 30.7679 87.6771 30.6876C87.6249 30.3727 87.5275 29.7861 87.6143 29.5212C87.6309 29.453 87.6751 29.32 87.7142 29.2016C87.7388 29.1271 87.7619 29.0584 87.7744 29.0152C87.4622 28.9931 86.2199 28.8897 84.4601 28.7408C84.4611 28.5737 84.4631 28.4067 84.4662 28.2396C86.3364 28.409 87.655 28.53 87.9255 28.5587C88.2242 27.7377 88.6589 26.9196 89.0463 26.1905L89.0704 26.1452C90 24.2922 91.5134 22.3572 93.2606 21.1972C92.3657 21.1336 90.7374 20.9946 88.7241 20.8226C82.8268 20.319 73.6203 19.5327 69.8146 19.5327C69.0235 19.5327 68.2335 19.5648 67.4424 19.597C66.9179 19.6183 66.3929 19.6397 65.8679 19.6517C64.4499 19.6837 63.8215 19.8837 62.7583 20.9027C61.9101 21.7162 61.3946 22.2307 60.845 23.1067V23.1072C60.7641 23.2199 60.6879 23.3261 60.6161 23.4264C59.7663 24.6107 59.5133 24.963 59.2453 25.4597C58.9968 25.4337 58.774 25.4107 58.5797 25.3911C59.8973 23.0778 61.2927 21.4181 62.9375 20.1272C63.2964 19.8292 63.7743 19.5312 64.3128 19.4122C64.8514 19.2932 65.3895 19.2452 65.9276 19.2337C69.8738 19.1487 72.5848 19.1082 78.1869 19.4722C85.8821 19.972 87.8874 20.1949 90.2299 20.4553C91.2283 20.5663 92.2884 20.6842 93.8765 20.8332C94.1782 20.7107 94.5044 20.6382 94.8116 20.6042C95.4691 20.6042 96.1272 20.7827 96.725 21.0212C96.845 21.0212 96.9644 21.1407 96.9644 21.2597C96.9167 22.0203 96.9208 22.2951 96.9228 22.4492C96.9253 22.6039 96.9258 22.6372 96.8706 22.9182C97.1376 23.4442 97.5221 24.0782 97.895 24.5372ZM57.9573 26.5433C57.5613 27.3152 57.1698 28.1523 56.7783 29.0627C56.5554 29.5725 56.319 30.1333 56.0771 30.7345C56.189 30.7439 56.3491 30.7588 56.5524 30.7788C57.0634 29.5441 57.5994 28.3975 58.1415 27.3645C58.0803 27.0887 58.0185 26.8148 57.9573 26.5433ZM58.7087 29.9985C58.5777 30.3253 58.4517 30.647 58.3297 30.9634C58.5175 30.9834 58.7142 31.0045 58.9195 31.0266C58.8503 30.684 58.78 30.341 58.7087 29.9985ZM56.8751 35.1286C56.7451 35.5442 56.6237 35.9466 56.5107 36.3356C56.708 36.3565 56.9173 36.3788 57.1376 36.4024C57.0518 35.9778 56.964 35.5526 56.8751 35.1286ZM96.3666 22.7487C96.3721 22.7487 96.3822 22.7472 96.3822 22.7472C96.3741 22.5681 96.3982 22.4026 96.4248 22.221C96.4474 22.0679 96.4715 21.9034 96.4795 21.7097C94.6123 22.8357 93.1587 24.3137 91.7021 27.2162C91.4928 27.6034 91.3372 28.0525 91.1816 28.5016C91.0456 28.8949 90.9095 29.2883 90.7369 29.6402C90.8011 29.8882 90.9698 30.6212 91.0907 31.2077C92.2653 28.1107 93.883 24.9472 96.3666 22.7487ZM96.1924 21.3237C95.7106 21.1557 95.2016 21.0947 94.6921 21.1407L94.6927 21.1402C94.1541 21.2597 93.616 21.4977 93.1974 21.8552C91.3984 23.1357 90.3509 24.6177 89.3104 26.5612C89.0709 27.008 88.8958 27.481 88.7201 27.954C88.5645 28.3738 88.4089 28.7936 88.2086 29.1952C88.2739 29.1969 88.2894 29.1988 88.3732 29.2089C88.5098 29.2256 88.829 29.2645 89.8484 29.3612C90.0276 29.3612 90.2073 29.3612 90.3639 29.4057C90.8332 27.7357 91.8075 25.8737 92.7788 24.4762C93.7003 23.2342 94.8683 22.1387 96.1924 21.3237ZM88.1639 31.3537C88.8857 31.5207 90.3925 31.8037 90.6129 31.8037C90.5532 31.3672 90.3097 29.8807 90.2666 29.8377C90.2129 29.7842 88.1213 29.6562 88.0194 29.6562C88.0194 30.109 88.0716 30.5467 88.1163 30.9165C88.1353 31.0763 88.1529 31.2235 88.1639 31.3537ZM91.412 37.0589C92.6021 34.2005 94.7288 29.0913 96.3069 26.5022C96.4098 26.3335 96.5031 26.1431 96.5985 25.948C96.8219 25.4932 97.0573 25.0126 97.4548 24.7212C97.0874 24.3287 96.7782 23.9052 96.5046 23.4517C92.4751 27.6232 90.9226 32.9102 89.4896 38.7142C88.964 41.0032 87.7524 46.9247 87.6911 47.2607C87.7343 47.1341 87.7779 47.0066 87.8216 46.8783C88.8812 43.7784 90.1004 40.2101 91.3432 37.2247L91.412 37.0589Z" fill="#333333"/>
<path d="M86.2149 27.7048L61.0031 25.6078C60.8194 25.6078 60.6979 25.4173 60.7757 25.2518C61.6481 23.3978 62.5315 22.2643 64.0353 21.0688C64.7786 20.4778 66.0395 20.2633 66.7051 20.2633C71.9533 19.9393 86.5045 21.0578 89.6482 21.3838C89.9067 21.4103 89.9579 21.7653 89.7179 21.8638C88.5595 22.3388 86.3871 25.8098 86.4654 27.4428C86.4724 27.5853 86.358 27.7048 86.2144 27.7048H86.2149ZM61.3946 25.1248C64.5312 25.3093 83.3564 26.9538 85.9685 27.1823C86.0794 25.5953 87.5752 22.9148 88.8867 21.8123C84.696 21.4233 71.6311 20.4603 66.7211 20.7628C66.0912 20.7628 64.9533 20.9793 64.349 21.4598C63.0053 22.5273 62.1796 23.5453 61.3946 25.1248Z" fill="#333333"/>
<path fill-rule="evenodd" clip-rule="evenodd" d="M58.6585 30.9989C58.2294 28.8816 57.7846 26.8915 57.4313 25.367C57.3946 25.2095 57.5156 25.0605 57.6757 25.0605C58.0497 25.0605 64.8685 25.8164 72.0065 26.6077C76.5722 27.1138 81.2688 27.6344 84.4933 27.981C84.6223 27.995 84.7196 28.1045 84.7171 28.234C84.6589 31.586 84.9992 35.0345 85.7285 38.484C85.7612 38.64 85.6417 38.7855 85.4831 38.7855V38.785C85.3993 38.785 84.4145 38.6486 82.871 38.4276C82.8554 38.2578 82.8409 38.088 82.8273 37.918C83.7961 38.0555 84.5967 38.1666 85.1659 38.2415C84.4948 34.949 84.174 31.659 84.2127 28.4535C83.0437 28.3277 79.5416 27.9419 75.4594 27.492C68.1406 26.6857 58.9557 25.6736 57.997 25.585C58.3463 27.1036 58.7724 29.0249 59.182 31.0552C59.0013 31.0357 58.8267 31.0169 58.6585 30.9989ZM72.8734 32.5649C72.7093 32.5467 72.5446 32.5285 72.3795 32.5102C72.3644 32.2798 72.2801 32.0449 72.1074 31.8275C71.8409 31.492 71.4263 31.2745 71.0007 31.2745C70.6262 31.3225 70.2518 31.2245 69.926 30.993C69.8593 30.9604 69.8176 30.9062 69.782 30.8595C69.7669 30.8395 69.7523 30.8209 69.7378 30.806C69.274 30.173 69.4532 29.1645 70.4551 28.9575L70.3963 28.0375C70.3873 27.8995 70.4927 27.781 70.6307 27.772C70.7668 27.7635 70.8882 27.868 70.8973 28.0055L70.957 28.944C71.227 28.9925 71.5608 29.162 71.7039 29.407C71.725 29.4435 71.7902 29.645 71.6979 29.746C71.602 29.851 71.4544 29.777 71.2722 29.6854C71.0127 29.555 70.6819 29.3891 70.3286 29.6525C69.9426 29.8505 69.8844 30.3955 70.2377 30.6475C70.4169 30.8248 70.6749 30.8426 70.9731 30.8632C71.4168 30.8939 71.9498 30.9308 72.4462 31.5075L72.4467 31.507C72.7208 31.8351 72.8563 32.2034 72.8734 32.5649Z" fill="#333333"/>
<path fill-rule="evenodd" clip-rule="evenodd" d="M56.8761 36.374C56.449 34.2705 56.0078 32.2947 55.6564 30.7792C55.6198 30.6217 55.7408 30.4727 55.9009 30.4727C56.2748 30.4727 63.0931 31.2285 70.2312 32.0198L70.2317 32.0199C74.7973 32.526 79.494 33.0466 82.7184 33.3932C82.8474 33.4072 82.9448 33.5167 82.9423 33.6462C82.8841 36.9982 83.2244 40.4467 83.9537 43.8962C83.9863 44.0522 83.8669 44.1977 83.7082 44.1977V44.1972C83.6304 44.1972 82.7852 44.0808 81.44 43.8889C81.4244 43.719 81.4094 43.5489 81.3958 43.3788C82.211 43.494 82.8906 43.5878 83.391 43.6537C82.7199 40.3612 82.3992 37.0712 82.4378 33.8657C81.2688 33.7398 77.7673 33.354 73.685 32.9043L73.6845 32.9042C66.3658 32.0978 57.1808 31.0858 56.2221 30.9972C56.5695 32.5065 56.9921 34.4136 57.3997 36.43C57.218 36.4105 57.0433 36.3918 56.8761 36.374ZM71.0965 37.9393C70.9314 37.921 70.7668 37.9027 70.6016 37.8844C70.5801 37.6663 70.4957 37.4453 70.3326 37.2397C70.0661 36.9042 69.6515 36.6867 69.2258 36.6867C68.8514 36.7347 68.4769 36.6367 68.1512 36.4052C68.0844 36.3727 68.0428 36.3185 68.0071 36.2718C67.9921 36.2518 67.9775 36.2332 67.9629 36.2182C67.4992 35.5852 67.6783 34.5767 68.6802 34.3697L68.6215 33.4497C68.6125 33.3117 68.7179 33.1932 68.8559 33.1842C68.9919 33.1757 69.1134 33.2802 69.1224 33.4177L69.1822 34.3562C69.4522 34.4047 69.786 34.5742 69.929 34.8192C69.9501 34.8557 70.0154 35.0572 69.923 35.1582C69.8271 35.2633 69.6796 35.1893 69.4974 35.0976C69.2379 34.9673 68.9071 34.8014 68.5537 35.0647C68.1677 35.2627 68.1095 35.8077 68.4629 36.0597C68.6421 36.2371 68.9001 36.2549 69.1982 36.2755C69.6419 36.3062 70.175 36.343 70.6714 36.9197L70.6719 36.9192C70.9364 37.2359 71.0719 37.59 71.0965 37.9393Z" fill="#333333"/>
<path d="M67.0273 41.4736C67.473 41.9146 68.4056 41.3691 69.2358 42.3336L69.2363 42.3331C70.1403 43.4146 69.5365 44.9331 68.1496 45.2026L67.6487 45.2361C66.9831 45.1971 66.1163 44.6001 66.1329 43.9331C66.1404 43.6396 66.4877 43.5031 66.6032 43.7326C66.8712 44.0811 66.7101 44.2576 67.4203 44.5916C68.5412 45.1181 69.7187 43.6891 68.897 42.6536C68.6305 42.3181 68.2159 42.1006 67.7903 42.1006C67.4158 42.1486 67.0414 42.0506 66.7156 41.8191C66.6202 41.7726 66.5766 41.6821 66.5274 41.6321C66.0636 40.9991 66.2428 39.9906 67.2447 39.7836L67.1859 38.8636C67.1769 38.7256 67.2823 38.6071 67.4203 38.5981C67.5564 38.5896 67.6778 38.6941 67.6869 38.8316L67.7466 39.7701C68.0166 39.8186 68.3504 39.9881 68.4935 40.2331C68.5146 40.2696 68.5798 40.4711 68.4875 40.5721C68.2556 40.8266 67.72 40.0301 67.1182 40.4786C66.7322 40.6766 66.674 41.2216 67.0273 41.4736Z" fill="#333333"/>
<path fill-rule="evenodd" clip-rule="evenodd" d="M79.0608 49.1677C80.9461 49.4389 82.1783 49.6112 82.2727 49.6112V49.6117C82.4313 49.6117 82.5508 49.4662 82.5181 49.3102C81.7888 45.8607 81.4485 42.4122 81.5067 39.0602C81.5092 38.9307 81.4119 38.8212 81.2829 38.8072C78.0584 38.4606 73.3618 37.94 68.7962 37.4339C61.6581 36.6426 54.8393 35.8867 54.4653 35.8867C54.3052 35.8867 54.1842 36.0357 54.2209 36.1932C54.7851 38.6282 55.5826 42.2512 56.1779 45.6832C56.1965 45.7907 56.2833 45.8737 56.3923 45.8882C56.6849 45.9268 57.089 45.9823 57.5859 46.0519C57.5532 45.8786 57.5216 45.7054 57.491 45.5322C57.1673 45.4875 56.8827 45.4487 56.6407 45.4167V45.4162C56.074 42.1802 55.3357 38.7982 54.7866 36.4112C55.7453 36.4998 64.9307 37.5119 72.2495 38.3183C76.3317 38.7681 79.8333 39.1539 81.0023 39.2797C80.9636 42.4852 81.2844 45.7752 81.9555 49.0677C81.2623 48.9765 80.2268 48.8317 78.9614 48.6509L79.0608 49.1677Z" fill="#333333"/>
<path d="M79.3233 45.087C79.2636 44.4315 79.0839 43.717 78.9047 43.0615C78.7852 42.585 78.4263 42.2275 77.948 41.989C77.3502 41.87 76.6921 41.9295 76.0943 42.1675C72.4277 43.662 71.3334 44.9095 68.2606 44.848C66.7648 44.818 65.3303 44.3715 64.0744 43.597C62.8186 42.9415 61.6822 42.1075 60.6658 41.1545C60.0077 40.559 58.8121 39.427 57.7952 39.844C56.9951 40.2425 56.5333 40.945 56.7185 41.8695C56.9886 43.7545 57.2767 45.4435 57.867 48.247C57.8795 48.3075 57.9267 48.356 57.9869 48.3705C59.958 48.843 64.2175 49.648 66.1068 49.971C71.8585 50.953 80.0155 51.8445 80.3292 51.874C80.5149 51.8915 80.6655 51.726 80.6298 51.544C80.6198 51.4915 79.4694 45.719 79.3223 45.0865L79.3233 45.087ZM73.4627 50.5075C65.388 49.3745 62.1013 48.6745 58.3669 47.83C58.0105 46.066 57.4082 42.6545 57.3043 41.9825C57.2445 41.387 57.1371 40.738 57.9146 40.9765C58.9913 41.215 59.7186 42.2745 60.4861 42.8825C61.5165 43.6995 62.5791 44.4315 63.7155 45.027C65.9281 46.1585 68.5592 46.3375 70.8917 45.5035C72.8533 44.82 74.069 43.7305 76.0943 43.1805C76.7519 43.002 77.3502 43.002 77.6488 43.657C77.8883 44.3125 78.0674 44.9675 78.1272 45.6825C78.3862 46.8 79.1622 50.891 79.2254 51.197C77.2899 51.0165 75.4032 50.735 73.4627 50.5075Z" fill="#333333"/>
<path d="M38.4796 60.6941C37.8717 58.6186 35.7536 56.9441 33.1068 57.7041C31.6879 57.4831 29.9567 57.5436 28.493 57.8351C24.1688 58.6966 20.8892 61.6681 19.7026 66.1751C19.5922 66.5946 19.5234 67.0091 19.4034 67.4261C19.1098 68.2056 18.8096 68.4711 18.4232 68.9041L18.9376 69.0361C20.5785 67.3971 19.6178 66.3356 21.2571 63.6136C21.9151 62.3626 22.8718 61.2906 23.948 60.3966C26.8246 58.3371 29.3403 57.9271 32.0648 58.1106C31.4008 58.4376 30.7799 58.8561 30.287 59.3241C30.1033 59.4986 30.3467 59.8006 30.5861 59.6816C31.9017 58.7286 33.5164 57.7156 35.1909 58.0731C37.2373 58.6441 38.4174 60.5331 38.1212 62.3026C38.0615 62.5411 37.7026 63.5536 37.284 63.1961C37.2242 63.0771 37.1048 62.9576 37.1048 62.8386C37.0451 62.7196 36.9256 62.5406 36.8654 62.4216C35.8289 60.7011 33.8387 60.8846 32.7987 62.3621C31.8841 63.6616 31.076 65.6601 31.5528 67.3736C31.6628 67.7681 31.9358 67.5071 31.9213 67.2536C31.8209 65.5186 32.1436 63.4956 33.4562 62.1241C34.0982 61.4536 35.1307 61.4091 35.8484 62.0051C36.1476 62.2436 36.3865 62.6006 36.5662 62.9581C36.7454 63.1966 36.8056 63.5536 37.1043 63.7326C37.9475 64.3206 39.1306 62.4781 38.4796 60.6946V60.6941Z" fill="#333333"/>
<path fill-rule="evenodd" clip-rule="evenodd" d="M39.7355 65.7579L40.6922 67.0684H40.6927C40.8122 67.1879 40.6325 67.4259 40.4533 67.3664C39.6449 67.0084 39.1564 66.8684 38.6932 66.7354C38.3759 66.6449 38.0704 66.5569 37.6821 66.4054C37.7353 66.1914 37.7819 65.9754 37.8216 65.7579C38.0013 65.0429 38.0013 64.1494 37.3432 63.7919C36.4056 63.3769 35.6205 64.1549 35.0874 65.0769C34.6183 64.8029 34.0802 64.4774 33.4568 64.0899C28.2274 60.8384 24.2283 57.1719 19.5739 52.9044C19.4181 52.7614 19.2616 52.6179 19.1044 52.4739C18.3871 51.8189 17.729 51.1039 17.191 50.2699C16.7779 49.7214 17.1202 48.7634 18.2787 49.0639C19.3664 49.3461 20.3865 49.9347 21.3673 50.5004C21.5108 50.5834 21.6534 50.6659 21.7952 50.7464C23.41 51.6994 25.0242 52.7119 26.5195 53.8439C29.9879 56.4054 33.3368 59.1454 36.506 62.0644C37.0311 62.5434 38.7251 64.3489 39.7355 65.7579ZM38.9967 65.5229C38.9836 65.8674 38.688 66.1169 38.3773 66.2524C38.5454 66.2949 39.6422 66.6644 39.9845 66.7954C39.7952 66.5374 39.1216 65.6729 38.9967 65.5229Z" fill="#333333"/>
<path d="M38.0013 64.2086C37.7021 63.5531 36.9246 63.2556 36.3268 63.5531C35.3701 63.9106 35.0524 64.9106 34.5329 65.6976C33.9125 66.6366 32.8584 67.1271 31.722 67.0676C31.4229 67.0676 31.4229 67.5441 31.722 67.6036C33.4728 67.7281 34.7045 66.6061 35.4896 65.0421C35.6688 64.6846 35.9679 64.3866 36.3268 64.1486C36.6857 63.8506 37.2238 63.9701 37.5229 64.3271C37.8818 64.9826 37.5827 65.9356 37.4035 66.5906C36.2721 70.5351 33.6414 73.0686 30.1078 73.9771C29.6294 74.0961 29.0914 74.0961 28.6125 74.2751C28.1337 74.4541 28.0147 74.8706 27.7156 75.1686C27.5655 75.3806 27.4149 75.5901 27.2653 75.7981C27.3 75.9721 27.3276 76.1551 27.3496 76.3361C27.5324 76.0831 27.7136 75.8321 27.8953 75.5856C28.2712 75.0861 28.4599 74.5731 29.0914 74.5731C33.0732 74.0771 36.6109 71.1221 37.8823 66.5316C38.1815 65.8166 38.2412 64.9826 38.0018 64.2086H38.0013Z" fill="#333333"/>
<path d="M13.4234 71.4167C14.0814 70.9402 14.6792 70.4042 15.2173 69.8677C15.4567 69.5697 15.7554 69.3317 16.1142 69.0932C16.5329 68.9742 16.9515 68.9147 17.3701 69.0337C22.1094 69.2152 26.5144 72.0972 26.9978 76.3012C27.1443 77.5772 26.1139 78.6807 24.9644 81.5432C24.9047 81.7817 25.2038 81.9007 25.3233 81.7217C25.5627 81.3047 25.8017 80.8877 25.9813 80.4707C26.2208 79.9942 26.398 79.5167 26.6394 79.1007C27.055 78.3842 27.3572 77.5517 27.5363 76.7177C27.329 71.5567 21.8228 68.6162 16.5329 68.6162C16.174 68.6757 15.8748 68.9142 15.6359 69.1522C14.8584 69.8077 14.0809 70.5222 13.3636 71.2967C13.1844 71.2967 13.2442 71.4752 13.4234 71.4157V71.4167Z" fill="#333333"/>
<path d="M27.4214 75.766C26.1665 70.626 21.243 68.6671 17.0443 68.5466C16.6187 68.4516 15.9908 68.5655 15.5285 69.0265L14.0317 70.3646C11.7363 70.6151 11.5215 71.157 4.64046 77.6085C4.5481 77.695 4.53505 77.8366 4.60984 77.9381L17.3475 95.2725C17.4509 95.4135 17.6657 95.4076 17.7611 95.2601C19.7267 92.2166 24.5041 85.097 25.6219 81.3025L27.1393 78.0525C27.3511 77.529 27.5905 76.9355 27.4214 75.765V75.766ZM25.76 79.8216C25.4227 76.8371 23.9003 74.2435 21.4267 72.4675C19.4546 71.0515 17.0328 70.2846 14.8373 70.3161L15.8738 69.389C16.2392 69.025 16.7181 68.9795 16.951 69.0375C17.0027 69.0505 25.247 68.9765 26.929 75.8595C27.1278 77.2435 26.7513 77.6991 25.76 79.8206V79.8216Z" fill="#333333"/>
</svg>
