<svg width="101" height="100" viewBox="0 0 101 100" fill="none" xmlns="http://www.w3.org/2000/svg">
<path fill-rule="evenodd" clip-rule="evenodd" d="M18.2496 74.1084C13.2343 74.2649 8.25562 74.4649 3.33097 74.7114V74.7109C2.87797 74.7339 2.90047 75.4154 3.35397 75.4079C8.52127 75.3214 13.4154 75.2429 18.2726 75.1769C18.2669 74.9324 18.259 74.5714 18.2496 74.1084ZM82.222 75.1794C87.038 75.2334 92.172 75.2984 97.681 75.3754C98.092 75.3814 98.1085 74.7629 97.698 74.7459C92.5935 74.5324 87.4315 74.3459 82.231 74.1909C82.228 74.5264 82.225 74.8559 82.222 75.1794Z" fill="#333333"/>
<path d="M87.3174 85.3132C87.2839 85.2672 84.4549 82.5297 83.1894 81.5562C81.5439 80.2897 58.7179 80.8897 48.1419 80.5092C42.2859 80.2987 23.9984 80.1382 18.9749 80.6647C18.2369 80.7412 15.8919 83.7477 15.5174 84.4617C14.5064 86.3907 21.0024 84.3892 63.9939 85.5402C64.0064 85.5402 81.9094 85.8747 86.8614 85.8127C87.1399 85.8097 87.5134 85.5802 87.3179 85.3132H87.3174ZM77.8934 81.5482C78.0669 81.5517 77.9774 81.4912 78.9719 83.1092C79.0664 83.2627 78.8614 83.2322 78.7764 83.2322C78.7774 83.1857 73.9544 83.1042 73.8149 82.7867C73.4984 82.0667 73.2419 81.5482 73.2284 81.4777C73.1929 81.2982 77.8834 81.5482 77.8939 81.5482H77.8934ZM65.9454 81.2997C66.0799 81.2872 66.0599 81.2642 66.3794 82.5802C65.1799 82.6687 62.4109 82.5257 60.1319 82.4452C59.9124 82.4367 60.0059 82.5062 59.6379 81.4427C59.5609 81.2197 65.6434 81.3282 65.9449 81.2997H65.9454ZM41.3309 80.9822C43.6899 81.0882 46.6624 80.9572 46.6309 81.2532C46.5109 82.3682 46.5709 82.3467 46.3889 82.3412C41.3054 82.1882 41.3529 82.5397 41.3309 81.9032C41.3034 81.1222 41.0809 80.9707 41.3309 80.9822ZM35.6459 81.0842C35.6784 80.9442 35.6909 80.9772 36.3649 80.9772C39.9439 81.2092 40.9509 80.7532 40.7954 81.1262C40.5644 81.6802 40.8334 82.2512 40.5764 82.2342C34.6039 81.8527 35.2399 82.8102 35.6454 81.0842H35.6459ZM29.3114 82.1332C29.6439 80.9327 29.5634 80.9812 29.7664 80.9812C33.6979 80.9822 33.0399 81.0202 33.7219 81.0202C35.3754 81.0202 35.1819 80.7867 34.9634 81.4157C34.7199 82.1137 34.7629 82.1782 34.5849 82.1852C34.2184 82.2002 29.2154 82.4792 29.3114 82.1337V82.1332ZM16.1739 84.6517C16.1109 84.6557 16.0804 84.6137 16.1264 84.5552C17.1979 83.1842 18.7364 81.1737 19.0014 81.1327C19.0014 81.1327 20.2944 81.1337 23.3469 80.9867C23.8494 80.9627 23.4604 81.1032 22.8999 82.2967C22.8274 82.4502 22.8139 82.3747 21.7709 82.4457C21.2684 82.4792 20.1314 82.5877 19.7394 82.5982C17.6454 82.6527 17.5414 83.0567 18.2349 83.0722C18.5684 83.0807 18.9004 83.0762 19.2339 83.0762C22.3979 83.0762 22.6089 82.8347 22.5059 83.0877C22.2484 83.7237 22.0519 84.1212 22.1349 84.4732C22.1684 84.6172 16.1844 84.6517 16.1739 84.6517ZM28.0814 84.3587C28.0574 84.5677 28.1194 84.5512 27.4289 84.5512C26.8044 84.5512 22.6194 84.5657 22.4964 84.5607C22.2979 84.5522 22.5509 84.5122 23.2029 83.1467C23.3289 82.8817 23.2859 82.9332 28.1479 82.9252C28.6579 82.9252 28.2404 82.9357 28.0814 84.3592V84.3587ZM23.7104 82.1492C24.2444 81.0137 24.1174 80.9827 24.3349 80.9782C29.7664 80.8752 29.2544 80.8952 29.1019 81.2397C28.5719 82.4392 28.6749 82.3412 28.4144 82.3412C23.2249 82.3317 23.5289 82.5367 23.7104 82.1487V82.1492ZM32.1674 84.4617C31.6664 84.4772 28.5534 84.5007 28.5474 84.5007C28.3854 84.4977 28.4539 84.4587 28.6064 84.0537C29.0584 82.8522 28.9679 82.9227 29.1899 82.9167C35.1554 82.7497 34.5559 82.7682 34.5149 82.9892C34.2429 84.4452 34.8579 84.3367 34.8384 84.2087C34.8049 83.9742 34.9254 83.7722 34.9689 83.5557C35.1424 82.6917 35.1929 82.7642 35.3484 82.7642C35.7099 82.7652 40.3754 82.8217 40.3859 82.8222C41.0474 82.8327 40.4889 83.0952 41.0494 84.2447C41.1239 84.3962 41.3519 84.5002 41.4359 84.2602C41.5339 83.9807 41.4474 83.5757 41.4044 82.9622C41.3959 82.8457 41.5934 82.8727 41.6599 82.8727C46.5479 82.8802 46.4984 82.8682 46.5354 83.1342C46.5954 83.5717 46.5804 84.0202 46.7279 84.4462C46.8624 84.8342 36.2599 84.3382 32.1679 84.4622L32.1674 84.4617ZM52.2304 81.2997C52.4784 81.3062 52.4269 81.2377 52.5234 82.2312C52.5499 82.5022 51.1609 82.3627 47.3569 82.3427C47.1909 82.3417 47.2074 82.3782 47.1109 81.3157C47.0909 81.0877 46.7254 81.1697 52.2304 81.2997ZM52.1254 84.5512C47.2634 84.5522 47.2794 84.6677 47.2679 84.3842C47.2099 82.9622 47.1619 82.9702 47.3529 82.9702C52.4114 82.9892 49.3119 83.0772 52.4614 82.9767C52.8399 82.9652 52.5634 83.3027 52.9714 84.4462C53.0209 84.5827 52.9934 84.5512 52.1254 84.5512ZM52.9674 81.4132C52.9244 81.2642 52.9884 81.2967 53.3794 81.2967C55.9209 81.2962 55.7614 81.3367 55.9209 81.3357C59.1259 81.3117 58.9914 81.1477 59.0924 81.6522C59.2974 82.6792 59.5244 82.3492 58.1054 82.3447H53.4069C53.1074 82.3372 53.2249 82.2962 52.9674 81.4132ZM67.1594 84.8622C53.5204 84.5047 53.5284 84.6352 53.5159 84.4467C53.3939 82.6672 52.8009 82.9692 54.5944 82.9732C55.0394 82.9742 57.5964 82.9722 58.1424 82.9787C60.1094 82.9997 59.0739 82.8922 59.9234 84.4217C60.0064 84.5732 60.1579 84.7192 60.3124 84.6517C60.6414 84.5087 59.9004 83.0432 60.2039 83.0352C60.8409 83.0172 62.5594 83.1447 65.0239 83.1877C67.4224 83.2297 66.1279 82.8632 67.2104 84.7612C67.2449 84.8212 67.2369 84.8642 67.1599 84.8622H67.1594ZM66.6779 81.4332C66.6189 81.2807 66.6934 81.2937 66.9689 81.3007C73.1469 81.4612 72.3104 80.6457 73.0374 82.8587C72.5109 82.8672 73.0374 82.8482 67.2959 82.6087C67.0739 82.5992 67.1604 82.6792 66.6779 81.4332ZM80.0144 85.1282C72.4374 84.8837 67.7994 84.9347 67.7514 84.7477C67.3474 83.1887 67.2164 83.2352 67.4899 83.2362C71.4189 83.2542 71.5149 83.4412 72.9824 83.4557C73.6339 83.4622 73.3734 83.9602 74.0344 84.5922C74.2889 84.8362 74.4379 84.7707 74.4304 84.6312C74.3704 83.4582 73.6484 83.5042 74.9014 83.5947C79.2269 83.9057 79.3259 83.7017 79.4749 83.9627C80.1349 85.1147 80.2074 85.1347 80.0144 85.1282ZM86.4434 85.2787C85.7884 85.1377 80.9529 85.4177 80.7419 84.9832C80.2984 84.0707 80.1019 83.8887 80.3204 83.8952C80.4679 83.8997 83.8024 84.0052 84.3434 83.8807C84.5664 83.8292 84.2224 83.5597 83.9839 83.5097C82.3884 83.1722 79.9799 83.5347 79.7484 83.1322C78.8789 81.6197 78.6214 81.5617 78.8529 81.5577C83.3919 81.4652 82.3574 81.3487 85.0819 83.9637C85.7569 84.6112 86.8069 85.3577 86.4434 85.2787Z" fill="#333333"/>
<path fill-rule="evenodd" clip-rule="evenodd" d="M86.7234 79.7415C86.5679 79.601 86.4359 79.499 86.3249 79.4135C86.0309 79.187 85.8854 79.075 85.8519 78.665C86.9629 64.0775 87.6384 48.4883 86.4859 33.7508C86.3674 32.2328 85.1329 31.0513 83.6119 30.9923C62.7459 30.1888 37.5584 30.4888 17.3999 31.2983C15.9564 31.3563 14.7584 32.4348 14.5534 33.8643C13.3644 42.1453 13.1834 69.862 15.0904 77.802L15.093 77.8125C15.1575 78.081 15.1797 78.1735 15.1479 78.24C15.1313 78.2745 15.1 78.3025 15.0523 78.3445L15.0429 78.353C5.1563 87.107 5.17374 87.448 5.25563 89.0495C5.26269 89.1875 5.27024 89.335 5.27194 89.4985C5.27894 90.147 5.46094 91.091 5.47394 91.152C5.60294 91.7755 5.81345 91.9395 6.20545 92.075C8.2279 92.7725 16.2552 92.743 25.2102 92.7105C31.1592 92.6885 37.5177 92.6655 42.7969 92.853C46.8829 92.998 92.4239 94.254 94.8494 92.7405C95.8304 92.1285 95.8309 91.6905 95.8324 90.724C95.8329 90.5975 95.8329 90.462 95.8354 90.3165C95.8739 87.9965 95.2889 87.4685 88.3924 81.2485L88.3889 81.245C87.8699 80.777 87.3154 80.277 86.7229 79.7415H86.7234ZM19.0399 35.6723C32.1514 34.9493 62.2214 35.0878 81.5149 35.3463C82.2544 45.6793 82.3364 64.4225 82.2169 75.655C82.0434 75.762 47.1478 75.641 28.9901 75.578H28.9879C22.6217 75.5555 18.3136 75.5405 18.2819 75.5455C18.2744 75.473 17.5764 46.2478 19.0399 35.6718V35.6723ZM91.4434 90.0335C87.0654 90.192 15.0559 89.46 10.6244 89.3945C4.29675 89.3005 4.70933 88.921 9.91094 84.1365C11.3916 82.7745 13.2606 81.0555 15.4724 78.885C15.5744 78.7845 15.5962 78.7875 15.806 78.8145C15.9357 78.831 16.1374 78.857 16.4744 78.8735C23.2926 79.207 42.4202 79.243 58.8129 79.2745C73.0869 79.3015 85.2869 79.325 85.4824 79.537C88.0384 82.311 90.3614 84.3605 92.0754 85.873C95.6534 89.03 96.5804 89.848 91.4439 90.034L91.4434 90.0335ZM49.1289 33.5591C49.6641 33.5591 50.0979 33.1253 50.0979 32.5901C50.0979 32.0549 49.6641 31.6211 49.1289 31.6211C48.5938 31.6211 48.1599 32.0549 48.1599 32.5901C48.1599 33.1253 48.5938 33.5591 49.1289 33.5591ZM52.9214 32.59C52.9214 32.9156 52.6574 33.1795 52.3319 33.1795C52.0064 33.1795 51.7424 32.9156 51.7424 32.59C51.7424 32.2644 52.0064 32.0005 52.3319 32.0005C52.6574 32.0005 52.9214 32.2644 52.9214 32.59Z" fill="#333333"/>
<path d="M25.6489 27.3261C23.5969 27.3461 23.2954 26.6681 21.6584 19.6691C20.0699 12.8766 19.6914 10.8671 21.4219 9.96061C24.3534 8.42411 33.5149 6.92711 34.3534 6.75961C36.2424 6.38311 37.8474 6.23211 38.5299 8.01911C39.5444 10.6756 41.5514 20.3746 41.6794 21.7076C41.8609 23.5966 40.6679 24.2626 38.8369 24.6476C38.8264 24.6496 29.3144 27.0096 25.6489 27.3261ZM23.3329 15.5371C23.4309 16.5786 24.1109 20.0381 24.5554 20.7036C25.0399 21.4291 25.8629 21.9746 26.7449 21.8841C26.7554 21.8831 32.0839 20.8571 33.6524 20.3831C34.0664 20.2581 34.4354 19.8251 34.3409 19.3016C34.2364 18.7226 33.9789 17.3736 33.7974 16.8126C33.3199 15.3371 33.3114 12.3231 30.6469 12.8391C30.3819 12.8906 24.8579 14.0836 24.8474 14.0856C24.0659 14.2576 23.3074 14.4546 23.3324 15.5371H23.3329ZM37.4724 13.6156C37.3339 13.0976 37.2304 12.1346 36.7724 11.8726C36.2774 11.5896 35.8674 12.1436 35.3889 12.8071C33.7899 15.0241 34.2479 14.5381 34.4269 15.7671C34.4784 16.1211 34.5559 16.4661 34.6779 16.8026C34.9324 17.5011 34.5519 17.6271 36.8799 18.7306C37.5999 19.0721 38.1309 19.4136 38.3969 18.9051C38.6784 18.3666 37.6359 14.2286 37.4719 13.6156H37.4724Z" fill="#333333"/>
<path d="M69.8269 27.6991C67.6939 27.5721 59.8124 26.1321 58.8189 25.9406C52.8059 24.7816 53.3449 24.6591 54.2149 18.0871C54.5289 15.7146 55.1509 12.0431 55.7999 9.59258C55.9754 8.92908 56.2089 8.33108 56.7459 7.86008C57.2304 7.43558 58.1554 7.28208 58.7969 7.34908C59.8059 7.45508 63.8414 7.73358 68.8494 8.80908C74.9874 10.1271 75.0304 9.73408 73.9119 16.8246C72.2434 27.4036 72.1774 27.4561 69.8269 27.6991ZM62.5119 17.5216C61.5394 17.1486 60.8329 17.5791 60.6049 18.2156C60.2049 19.3336 59.8734 22.3806 59.8629 22.4266C59.4609 24.1866 61.9444 25.2586 62.6504 22.8661C62.6829 22.7556 63.2674 19.5791 63.2129 19.2881C63.2004 19.2216 63.4789 17.8931 62.5119 17.5221V17.5216ZM65.3934 18.2491C63.7954 18.2451 63.4994 20.0556 64.4684 20.7531C64.9689 21.1136 66.5284 21.2951 67.5599 21.4731C67.9574 21.5416 69.1094 21.7871 69.6129 21.6856C70.4684 21.5126 70.9729 20.7656 70.7419 19.9816C70.4519 18.9976 69.8474 18.7716 65.3934 18.2491ZM64.5914 15.9871C64.6294 16.2656 64.6364 17.0016 65.2664 17.2906C66.1599 17.7006 66.8674 17.3766 67.1629 16.8406C67.5844 16.0761 68.0184 12.4991 68.0324 12.2111C68.0899 11.0381 67.1359 10.4221 66.3539 10.6531C65.3404 10.9526 65.1249 11.4596 64.5919 15.9866L64.5914 15.9871ZM63.9384 15.1306C63.9259 15.0421 63.9224 14.9121 63.8879 14.7881C63.7599 14.3296 63.4399 14.0511 63.0019 13.9081C61.7509 13.5001 58.8674 13.1961 58.7184 13.1576C58.4124 13.0786 57.8354 13.2026 57.5349 13.4906C56.7324 14.2596 57.0684 15.3496 57.8304 15.7411C58.3244 15.9951 61.5409 16.5591 61.9699 16.5366C62.1424 16.5276 63.8639 16.9686 63.9389 15.1301L63.9384 15.1306ZM63.9424 13.2271C64.1129 13.2221 64.1209 13.2671 64.2399 12.4556C64.3714 11.5581 64.3859 11.3856 64.1189 10.9241C63.5114 9.87408 61.6569 9.97808 61.4184 11.4666C61.3079 12.1571 61.7274 12.8611 62.4999 13.0611C62.6619 13.1031 63.5384 13.2391 63.9419 13.2271H63.9424ZM69.4714 17.8651C69.6734 17.8346 70.2829 17.8366 70.6889 17.2661C71.1559 16.6091 71.0874 15.6086 70.2484 15.1186C69.7784 14.8441 68.9499 14.8546 68.4749 15.3886C68.0209 15.8996 68.1009 16.3746 68.0494 16.6396C67.9959 16.9131 67.9649 17.1881 67.9704 17.4681C67.9744 17.6656 68.0379 17.6941 69.4714 17.8656V17.8651ZM59.8804 17.4091C59.8954 17.2496 59.7879 17.1936 59.6059 17.1661C58.7979 17.0456 57.4789 16.6371 56.9739 17.9841C56.2599 19.8876 59.2079 20.7581 59.7154 18.8526C59.8659 18.2881 59.8794 17.4196 59.8804 17.4091ZM63.5299 23.0541C63.5644 23.0596 63.5514 23.0521 63.5529 23.2161C63.5689 25.0306 66.4364 25.1936 66.4584 23.1476C66.4644 22.5811 65.9614 21.9071 65.3569 21.7906C65.0679 21.7346 63.8419 21.5006 63.7579 21.7276C63.6739 21.9546 63.6959 21.9756 63.5299 23.0541Z" fill="#333333"/>
<path d="M28.7465 63.378C27.7675 59.187 27.2035 56.129 26.866 54.0045C26.581 52.21 26.1955 50.524 26.9335 49.478C28.138 47.771 37.624 46.4615 39.6675 46.174C44.855 45.4445 44.772 44.944 46.638 55.146C47.832 61.674 48.676 63.2765 44.5735 64.055C44.563 64.057 38.961 65.263 34.4065 65.945C30.3575 66.5515 29.506 66.627 28.747 63.378H28.7465ZM39.3655 62.5005C39.3645 62.429 39.7545 62.6045 39.7525 62.1935C39.7495 61.687 39.2215 59.1785 38.963 57.872C37.058 48.2454 37.279 48.759 36.905 48.9095C30.1005 51.65 29.1285 51.794 29.368 52.29C29.464 52.4885 30.4085 57.4525 30.411 57.463C31.462 62.75 31.3245 62.6835 31.869 62.684C34.413 62.688 35.645 62.5705 39.366 62.5L39.3655 62.5005ZM41.862 58.529C41.787 57.5535 41.349 55.817 41.269 55.4425C40.9265 53.8395 41.027 53.928 40.6445 53.957C40.5255 53.966 40.6405 53.9395 38.97 54.324C38.7365 54.3775 38.8125 54.4375 39.0035 55.4605C39.8575 60.03 39.8235 59.9495 40.18 59.95C41.0275 59.9515 41.9175 59.254 41.862 58.529ZM41.739 54.8585C42.275 58.2 42.33 58.3715 42.584 58.3455C45.028 58.092 44.5525 56.9255 44.207 54.9115C44.07 54.1135 44.0805 54.077 43.817 54.12C43.76 54.1295 43.24 54.224 43 54.2775C42.0455 54.4905 41.745 54.4805 41.7385 54.859L41.739 54.8585ZM41.1585 52.3565C41.085 53.045 41.8565 53.7955 42.69 53.5715C43.962 53.23 43.884 51.69 43.0115 51.2055C42.184 50.746 41.074 51.3915 41.1585 52.3565ZM40.2925 51.753C39.987 50.9165 39.0045 50.7365 38.4005 51.1885C38.1115 51.405 38.2155 51.571 38.3635 52.248C38.616 53.401 38.575 53.5745 38.9395 53.5945C39.8655 53.6455 40.6105 52.6245 40.2925 51.753Z" fill="#333333"/>
<path d="M51.635 56.07C51.721 54.142 52.397 50.5405 52.7565 48.6447C54.3625 40.1802 54.656 40.3932 58.004 40.5517C60.0465 40.6487 65.766 41.8762 67.885 42.4047C70.782 43.1277 71.7625 43.3362 72.345 44.1337C73.042 45.0882 72.625 46.5407 72.613 46.8437C72.5615 48.1527 71.158 54.9 70.8365 56.318C70.1235 59.461 70.042 60.883 67.994 61.141C66.8915 61.2795 57.918 59.3265 55.363 58.699C55.3505 58.696 53.3415 58.4185 52.2495 57.5375C51.7175 57.1085 51.6725 56.5115 51.6135 56.072L51.6345 56.07H51.635ZM66.607 44.7897C63.163 41.7972 56.6105 43.2037 55.559 49.2907C55.4825 49.7342 55.54 49.2907 55.5515 50.406C55.596 54.6715 59.815 57.6905 63.568 56.8875C65.0765 56.5645 64.94 56.3375 65.1405 56.506C65.8955 57.1385 66.8615 57.359 67.845 57.3215C68.1245 57.311 68.1845 57.17 68.1175 57.0355C68.112 57.025 67.23 56.08 67.35 55.3735C67.583 54.0025 67.786 54.686 68.541 52.977C69.696 50.3615 69.3 47.1297 66.607 44.7897Z" fill="#333333"/>
<path d="M34.6585 59.0062C34.466 59.0102 34.4715 59.0102 34.439 58.8527C33.645 55.0157 33.7145 54.9977 33.413 55.0767C32.531 55.3082 32.3685 55.4447 32.2965 55.1337C32.1855 54.6512 32.163 54.4822 32.2565 54.4472C32.4725 54.3662 33.088 54.1967 33.252 54.1537C34.9535 53.7077 35.581 53.4327 35.651 53.6082C35.7675 53.9017 35.767 54.0967 35.839 54.4427C35.874 54.6097 35.7075 54.5817 35.303 54.6927C34.7 54.8582 34.5735 54.8672 34.6125 55.0922C35.077 57.7697 34.934 56.9792 35.2675 58.6702C35.3305 58.9897 35.028 58.9582 34.659 59.0057L34.6585 59.0062Z" fill="#333333"/>
<path d="M65.3999 49.0724C65.0474 49.0624 64.5369 48.94 63.7939 48.793C60.3449 48.1105 60.5054 48.152 60.1829 47.9225C59.8969 47.719 59.9029 47.3075 60.0149 46.964C60.2114 46.3595 60.9119 46.542 61.3384 46.6255C61.3489 46.6275 65.6379 47.4915 65.7799 47.5545C66.3254 47.7975 66.3204 49.0985 65.3999 49.072V49.0724Z" fill="#333333"/>
<path d="M60.8014 49.0914C63.1294 49.5229 64.2649 49.5799 64.0099 50.4685C63.6574 51.6965 62.9914 51.0535 60.7794 50.7195C60.1949 50.6315 59.6284 50.5365 59.4499 50.1075C59.2784 49.6959 59.3804 48.8274 60.8019 49.0909L60.8014 49.0914Z" fill="#333333"/>
<path d="M60.9809 52.2112C61.0259 52.6592 60.6759 53.1777 60.1504 53.0512C59.7669 52.9587 59.1424 52.8922 59.0139 52.5332C58.9269 52.2892 58.8744 52.2507 59.1224 51.6397C59.2499 51.3257 59.6734 51.3177 59.9579 51.4192C60.2094 51.5082 61.0564 51.5967 60.9809 52.2117V52.2112Z" fill="#333333"/>
</svg>
