<svg width="101" height="100" viewBox="0 0 101 100" fill="none" xmlns="http://www.w3.org/2000/svg">
<path d="M14.517 65.0652C14.1021 65.1327 13.5776 65.2062 13.4088 65.2062C12.9929 65.2062 13.22 65.1987 11.7477 62.9022C11.0818 61.8627 8.33894 57.6842 8.34592 57.5337C8.39771 57.4232 9.83863 57.3162 11.7891 56.9182C11.7149 56.7092 11.7268 56.5252 11.8354 56.3672C11.1132 56.5327 10.6993 56.6197 9.15976 56.8272C8.82904 56.8717 8.02366 57.0447 7.9893 57.0582C7.59134 57.2132 7.59134 57.2912 7.73777 57.6117C8.10286 58.4152 9.48699 60.5357 10.5997 62.2397C12.5561 65.2362 11.7253 64.0822 12.5347 65.2997C12.9451 65.9167 13.0029 65.9857 14.8766 65.5547C14.7342 65.3647 14.6296 65.2197 14.518 65.0652H14.517Z" fill="#333333"/>
<path d="M16.8858 74.9271C17.095 74.8161 17.0721 74.8451 16.843 74.4086C15.6232 74.7176 14.1061 75.1006 12.1816 75.5846C11.8962 75.6566 11.7169 75.7806 11.5116 75.5486C10.3183 74.1966 4.973 66.2706 3.76518 64.1596C3.68798 64.0246 3.84039 64.0521 4.24183 63.7631C4.32152 63.7056 4.36186 63.7161 4.41217 63.7911C5.08755 64.7966 9.51289 71.8556 11.291 73.8451C11.6765 74.2761 12.8749 73.7956 15.3209 73.1156C16.3474 72.8306 17.0293 72.6686 17.5104 72.5636C17.4556 72.4531 17.3789 72.2911 17.3022 72.1251C16.9471 72.2196 16.4998 72.3361 15.927 72.4811C14.6091 72.8146 12.5177 73.3181 11.9734 73.4721C11.6152 73.5736 11.5739 73.3446 11.3025 73.0561C10.508 72.2131 6.11158 65.6141 5.42773 64.5636C3.71338 61.9301 3.72533 61.9186 3.85084 61.8421C4.44056 61.4831 4.5063 61.3896 4.6114 61.5416C5.36249 62.6256 4.99889 62.2271 5.83465 63.4541C9.10149 68.2521 9.60753 69.7146 11.4882 71.6901C11.9231 72.1466 11.7447 72.2336 13.9651 71.6426C15.4922 71.2366 16.8156 70.8856 17.9656 70.5831C17.9626 70.5681 17.9567 70.5506 17.9487 70.5291C17.882 70.3521 17.8217 70.1871 17.7963 70.0376C16.3633 70.3986 14.9991 70.7416 13.9532 70.9911C13.3426 71.1366 12.8584 71.3711 12.5123 71.4271C12.2154 71.4751 12.0351 71.5301 11.6636 71.1166C10.9922 70.3701 10.905 70.4366 9.02528 67.5446C8.70602 67.0536 7.89218 65.8471 7.68199 65.4831C6.98669 64.2771 6.74861 64.1771 5.95568 62.7681C4.69507 60.5281 4.76729 60.8291 4.35639 59.8851C4.22988 59.5941 4.44106 59.5516 4.85396 59.3721C5.06066 59.2821 5.02629 59.2241 5.19115 59.4896C6.87412 62.2051 6.61712 61.7606 7.33683 63.1191C7.78459 63.9641 10.8691 68.6316 11.3577 69.3116C11.5211 69.5391 11.7154 69.7416 11.9529 69.8961C12.2543 70.0921 12.0969 70.0601 15.6118 69.1371C16.2996 68.9566 16.835 68.7941 17.3694 68.6356C17.2325 68.4671 17.1134 68.3216 17.0073 68.1926C16.9486 68.2091 16.8908 68.2251 16.8335 68.2411C15.3239 68.6556 13.2967 69.1446 12.3315 69.4096C12.1681 69.4546 12.0755 69.4156 11.9893 69.2896C7.25813 62.3906 8.18205 63.6331 7.21928 62.0036C5.37095 58.8746 5.41927 59.2916 4.76281 57.7761C4.63182 57.4731 4.84101 57.4291 5.18866 57.3161C5.65734 57.1631 5.33111 57.2046 7.12316 59.8051C8.27619 61.4781 8.93314 62.8556 10.4657 65.3661C10.9389 66.1416 11.9739 67.5851 12.1835 67.8966C12.3743 68.1791 12.6453 68.2066 12.973 68.1191C14.1046 67.8171 15.168 67.5286 16.2154 67.2456C16.0999 67.1076 15.9823 66.9656 15.8349 66.7821C14.7566 67.0841 13.7589 67.3856 12.9008 67.6781C12.4669 67.8261 12.3927 67.5331 8.23485 60.6781C7.25913 59.0691 5.95817 57.1631 5.55175 56.2351C5.40482 55.8996 6.07422 55.9411 8.66219 55.5326C9.96365 55.3271 11.1481 55.1581 12.2707 55.0051C12.1731 54.8316 12.0919 54.6826 12.067 54.6301C12.0416 54.5761 12.0276 54.5251 12.0227 54.4756C8.87885 54.9046 6.06825 55.3001 5.39187 55.5801C4.83951 55.8091 4.97897 56.2131 5.16575 56.7071C5.23598 56.8931 5.13586 56.8026 4.61887 57.0316C4.38228 57.1361 4.12379 57.3536 4.24532 57.6846C4.29761 57.8281 4.68212 58.6666 4.78223 58.8476C4.87786 59.0196 4.72745 58.9741 4.33098 59.1091C3.74575 59.3086 3.61675 59.6646 3.85284 60.1686C4.26424 61.0476 4.36386 60.9681 4.10337 61.1061C3.4504 61.4526 3.18293 61.5196 3.29998 61.9501C3.40408 62.3336 3.47829 62.4456 3.94299 63.1251C4.11084 63.3711 4.00923 63.2941 3.43844 63.6356C3.26711 63.7381 3.11968 63.8926 3.15952 64.0876C3.21083 64.3376 3.28006 64.5026 3.423 64.7126C6.35713 69.0281 5.29475 67.6481 6.88608 70.0386C7.47529 70.9231 7.51713 70.9066 8.99142 73.1211C10.1823 74.9096 9.23945 73.5111 10.396 75.1096C11.0818 76.0576 11.3463 76.4626 12.0376 76.2971C14.6565 75.6721 14.638 75.5886 15.6322 75.3391C15.8434 75.2861 16.1537 75.2106 16.5088 75.1251C16.6159 75.0686 16.7419 75.0056 16.8868 74.9286L16.8858 74.9271Z" fill="#333333"/>
<path d="M28.0258 71.6151C28.1563 71.4816 28.0059 71.4066 27.9441 71.1581C27.852 70.7886 28.0791 70.5771 28.2464 70.6531C28.604 70.8146 28.4895 71.2081 28.7126 71.1406C28.873 71.0921 29.0414 71.0371 29.2002 71.0406C29.7974 71.0541 29.9448 71.5481 29.7919 71.7861C29.5872 72.1046 29.2615 71.6936 28.6723 72.0206C28.1189 72.3276 28.0472 73.1181 28.7256 72.9866C29.4363 72.8486 29.8178 72.6181 30.3682 72.6671C31.1367 72.7351 31.9097 73.5511 31.577 74.6306C31.2583 75.6636 30.8085 75.5011 30.9694 75.8401C30.9768 75.8561 31.1427 76.1511 31.2119 76.4816C31.2966 76.8876 30.9126 77.2121 30.6775 76.8636C30.2452 76.2216 30.3627 76.1066 30.1256 76.2096C29.6978 76.3956 29.3148 76.5761 28.8227 76.4091C28.4965 76.2986 28.4302 75.9056 28.5204 75.7206C28.6185 75.5191 28.7584 75.5436 28.9572 75.5431C29.8676 75.5416 30.8718 74.7426 30.6337 73.9986C30.5186 73.6381 30.0788 73.6441 29.2844 73.8636C28.8257 73.9906 28.2853 74.0621 27.8554 73.7916C27.2797 73.4296 27.2881 72.3716 28.0258 71.6151Z" fill="#333333"/>
<path d="M57.9417 82.0988C57.7614 82.1418 57.5806 82.1848 57.3988 82.2243C57.0318 82.3048 56.6607 82.3658 56.2931 82.4433C54.3885 82.8458 54.5623 82.9373 54.5867 82.6248C54.7003 82.0053 54.7416 81.7928 54.7636 81.6343C54.5987 81.5673 54.4199 81.4953 54.2241 81.4198C53.9622 81.3183 53.7096 81.1943 53.4536 81.0768C53.2669 82.3693 53.107 83.4153 53.102 83.4418C53.0726 83.6108 53.0123 83.7228 52.8365 83.7868C52.5432 83.8938 52.4386 83.8133 52.4605 83.4953C52.4829 83.1708 52.6577 82.1133 52.847 80.8303C52.7942 80.8128 52.7414 80.7963 52.6876 80.7813C52.4047 80.7028 52.1357 80.5763 51.8558 80.4843C51.551 80.3838 49.8621 79.8788 48.1741 79.2248C47.7004 79.0413 47.2462 78.8083 46.783 78.5983C46.6988 78.5598 46.6331 78.5093 46.5808 78.4498C46.5394 78.9993 46.4229 79.8348 45.9243 84.1833C45.8636 84.7138 45.8292 84.9833 45.7485 85.0118C45.6235 85.0563 45.4925 85.0928 45.3605 85.1073C45.3167 85.1123 45.2415 85.0528 45.222 85.0053C45.0283 84.5358 45.8436 79.7923 45.9099 77.5093C45.6907 77.4213 45.3545 77.2763 44.0182 76.7908C44.0556 76.8493 44.0864 76.9008 44.1093 76.9428C43.7647 77.1163 31.5107 79.5123 25.6823 81.4993C25.2485 81.6473 25.1742 81.3543 21.0169 74.4993C20.0411 72.8903 18.7402 70.9843 18.3338 70.0563C18.3014 69.9818 18.3088 69.9258 18.3686 69.8793C18.3009 69.7943 18.2242 69.6983 18.137 69.5898C18.1036 69.5483 18.0713 69.5078 18.0394 69.4678C17.6469 69.7043 17.7774 70.0788 17.9473 70.5278C18.0175 70.7138 17.9174 70.6233 17.4004 70.8523C17.1638 70.9568 16.9053 71.1743 17.0268 71.5048C17.0791 71.6483 17.4636 72.4873 17.5637 72.6683C17.6594 72.8403 17.509 72.7948 17.1125 72.9298C16.5273 73.1293 16.3983 73.4853 16.6343 73.9893C17.0457 74.8683 17.1459 74.7888 16.8849 74.9268C16.2319 75.2733 15.9644 75.3403 16.081 75.7708C16.1851 76.1543 16.2593 76.2663 16.724 76.9458C16.8918 77.1918 16.7902 77.1148 16.2194 77.4563C16.0481 77.5588 15.9007 77.7133 15.9405 77.9083C15.9918 78.1583 16.0611 78.3233 16.204 78.5333C19.1381 82.8488 18.0758 81.4688 19.6671 83.8593C20.2563 84.7438 20.2981 84.7273 21.7724 86.9418C22.9633 88.7303 22.02 87.3318 23.177 88.9303C23.8628 89.8783 24.1273 90.2833 24.8186 90.1178C27.4375 89.4928 27.419 89.4093 28.4132 89.1598C29.3077 88.9353 31.9724 88.3103 32.3449 88.2148C38.1878 86.7128 42.2481 85.9653 42.5589 85.8808C42.9877 85.7638 43.0993 85.6438 43.3637 85.9383C43.8748 86.5073 44.3977 86.2218 46.128 85.8598C46.6704 85.7463 47.1909 85.5388 47.7468 85.4783C48.0386 85.4468 48.3245 85.3653 48.6154 85.3198C48.9322 85.2703 50.6804 85.0453 52.4515 84.6738C52.9486 84.5693 53.4342 84.4133 53.9248 84.2808C54.1773 84.2128 54.3048 84.0243 54.3805 83.7923C54.5061 83.4093 54.4672 83.4333 54.6261 83.4098C55.2118 83.3228 54.7436 83.3283 59.1212 82.5498C58.5683 82.3373 58.1669 82.1858 57.9397 82.0983L57.9417 82.0988ZM43.6964 83.7093L43.676 83.7063C43.6282 84.1113 43.5789 84.5143 43.5346 84.9188C43.5236 85.0208 43.2322 85.0438 42.1729 85.2793C41.2669 85.4803 39.7766 85.8618 37.6349 86.3153C33.9004 87.1063 35.2965 86.8108 24.9646 89.4078C24.6792 89.4798 24.4999 89.6038 24.2947 89.3718C23.1013 88.0198 17.756 80.0938 16.5482 77.9828C16.471 77.8478 16.6234 77.8753 17.0248 77.5863C17.1045 77.5288 17.1449 77.5393 17.1952 77.6138C17.8705 78.6198 22.2959 85.6783 24.0745 87.6678C24.46 88.0988 25.6584 87.6183 28.1044 86.9383C30.515 86.2683 31.0261 86.2808 31.4942 86.1038C32.0675 85.8868 32.6797 85.8263 33.2649 85.6593C34.3672 85.3448 36.2339 84.9113 36.9765 84.7788C37.0114 84.7728 43.5779 83.3568 43.5904 83.3548C43.7522 83.3228 43.7194 83.4133 43.6964 83.7103V83.7093ZM43.8907 81.7888C43.7707 83.1248 43.9893 82.7283 42.8547 82.9688C42.5374 83.0358 42.8582 82.9863 36.1711 84.4568C33.1712 85.1163 34.4757 84.9108 31.7766 85.4883C31.3035 85.5898 31.1127 85.6953 28.71 86.3028C27.3921 86.6363 25.3007 87.1398 24.7564 87.2938C24.3982 87.3953 24.3569 87.1663 24.0855 86.8778C23.291 86.0348 18.8946 79.4358 18.2107 78.3853C16.4964 75.7518 16.5083 75.7403 16.6338 75.6638C17.2236 75.3048 17.2893 75.2113 17.3944 75.3633C18.1455 76.4473 17.7824 76.0488 18.6177 77.2758C21.8845 82.0738 22.3905 83.5363 24.2712 85.5118C24.7061 85.9683 24.5277 86.0553 26.7481 85.4643C41.1025 81.6443 37.4427 82.7783 41.2086 82.0258C44.1402 81.4403 43.937 81.2748 43.8907 81.7888ZM44.1621 79.7503C44.1123 80.4003 44.189 79.7703 44.0127 80.8783C43.9823 81.0688 44.0087 80.9273 41.8217 81.4353C41.3535 81.5443 38.7003 81.9948 38.2252 82.0663C36.2792 82.3608 29.9806 84.0398 26.7362 84.8123C26.126 84.9578 25.6419 85.1923 25.2953 85.2483C24.9984 85.2963 24.8181 85.3513 24.4466 84.9378C23.7757 84.1913 23.688 84.2573 21.8083 81.3658C21.489 80.8748 20.6752 79.6683 20.465 79.3043C19.7697 78.0983 19.5316 77.9983 18.7387 76.5893C17.4781 74.3493 17.5503 74.6503 17.1394 73.7063C17.0129 73.4153 17.2241 73.3728 17.637 73.1933C17.8437 73.1033 17.8093 73.0453 17.9741 73.3108C19.6571 76.0263 19.4001 75.5818 20.1193 76.9403C20.5671 77.7853 23.6516 82.4523 24.1402 83.1328C24.3036 83.3603 24.4979 83.5628 24.7354 83.7173C25.0368 83.9133 24.8794 83.8813 28.3943 82.9583C30.4622 82.4158 31.1516 82.0393 34.5698 81.4183C35.4021 81.2673 36.4739 81.2183 40.6363 80.1423C41.4023 79.9443 41.4277 80.0068 43.7692 79.5183C44.2115 79.4258 44.19 79.3893 44.1621 79.7503ZM44.2712 78.2158C44.2139 78.9608 44.2548 78.8893 44.0436 78.9298C37.9104 80.1098 38.4916 80.2583 34.4717 80.8898C32.1761 81.2503 30.7501 81.7508 29.616 82.0623C28.1064 82.4768 26.0792 82.9658 25.114 83.2308C24.9506 83.2758 24.858 83.2368 24.7718 83.1108C20.0406 76.2118 20.9646 77.4543 20.0018 75.8248C18.1535 72.6958 18.2018 73.1128 17.5453 71.5973C17.4143 71.2943 17.6235 71.2503 17.9712 71.1373C18.4398 70.9843 18.1136 71.0258 19.9057 73.6263C21.0587 75.2993 21.7151 76.6768 23.2482 79.1873C23.7219 79.9628 24.7564 81.4063 24.966 81.7178C25.1568 82.0003 25.4278 82.0278 25.7555 81.9403C31.4185 80.4293 35.3757 79.2503 44.1168 77.5103C44.3908 77.4558 44.326 77.4978 44.2707 78.2163L44.2712 78.2158Z" fill="#333333"/>
<path d="M41.4861 75.8901C37.518 76.7216 28.7619 78.6161 27.6761 78.8231C27.2975 78.8951 26.4199 79.0291 26.1923 79.0291C25.7764 79.0291 26.0036 79.0216 24.5313 76.7251C24.0656 75.9981 22.5843 73.7366 21.7381 72.3906L21.4497 72.4871C21.3371 72.5246 21.235 72.5451 21.1389 72.5496C21.7411 73.5491 22.6247 74.9031 23.3827 76.0631C25.3391 79.0596 24.5084 77.9056 25.3177 79.1231C25.7839 79.8246 25.7944 79.8181 28.5347 79.1736C34.3039 77.8161 40.0447 76.7376 42.5485 76.2651C42.2277 76.1516 41.875 76.0271 41.4861 75.8901Z" fill="#333333"/>
<path d="M75.3802 47.3212C74.3661 47.0312 73.4357 47.5287 73.3934 48.2092C73.3685 48.6122 73.5647 48.9737 73.8112 49.2777C73.8421 49.2877 73.873 49.2972 73.9049 49.3072C74.2366 49.4132 74.5608 49.5472 74.8931 49.6557C75.1137 49.7282 75.3398 49.8012 75.5709 49.8752C75.3498 49.3762 74.9693 49.1487 74.5135 48.5927C74.0747 48.0572 74.8014 47.7427 75.3338 48.0847C75.9011 48.4487 75.6969 48.9322 76.0735 48.9607C76.3549 48.9817 76.717 48.6162 76.444 48.0832C76.3713 47.9412 76.2428 47.8187 76.1238 47.7007C75.9584 47.5357 76.3574 47.4492 76.3285 47.0567C76.3145 46.8727 76.0217 46.7732 75.7423 47.0312C75.5545 47.2047 75.5605 47.3727 75.3812 47.3217L75.3802 47.3212Z" fill="#333333"/>
<path d="M71.304 44.6382C71.3209 44.6442 71.3383 44.6502 71.3558 44.6562C73.6265 45.4372 73.5024 45.4052 74.1654 45.5647C75.8837 45.9772 77.2629 46.4197 78.2391 46.8087C80.6338 47.7617 82.6141 48.1657 82.657 48.3037C82.648 48.3987 81.3246 49.9422 80.1522 51.2993C80.3653 51.3643 80.5775 51.4293 80.7877 51.4938C82.1424 49.9327 83.4374 48.3972 83.3722 48.1387C83.3493 48.0487 83.2586 47.9842 83.0758 47.8822C83.0435 47.8637 82.2695 47.5812 81.9482 47.4917C79.3836 46.7742 80.0456 46.8652 76.9202 45.7742C74.9951 45.1022 74.3357 45.1377 72.3091 44.3887C71.9265 44.4837 71.5943 44.5667 71.304 44.6382Z" fill="#333333"/>
<path d="M66.8905 45.6577C66.9687 45.7537 67.0409 45.8582 67.1067 45.9737C67.139 46.0312 67.1679 46.0887 67.1928 46.1452C67.4484 46.2182 67.6296 46.2632 67.7432 46.3032C67.7716 46.3132 67.7995 46.3232 67.8269 46.3327C67.7447 46.0437 67.5988 45.7697 67.414 45.5137C67.2436 45.5597 67.0683 45.6082 66.89 45.6577H66.8905Z" fill="#333333"/>
<path d="M74.3252 43.8832C74.3098 43.8872 74.2948 43.8907 74.2799 43.8947C76.9117 44.6627 79.4055 45.2997 82.6186 46.2762C85.1259 47.0382 85.7948 47.0897 85.603 47.4017C85.0736 48.2652 83.5231 49.9732 82.3362 51.4318C82.2166 51.5788 82.0996 51.7223 81.9855 51.8623C82.1429 51.9108 82.2983 51.9588 82.4517 52.0068C82.8004 51.5768 83.156 51.1583 83.5565 50.7208C85.6882 48.3932 85.3704 48.3067 85.8137 48.5227C86.1429 48.6827 86.3441 48.7557 86.1728 49.0372C85.3719 50.3538 85.4103 50.0873 83.5799 52.3603C83.7243 52.4058 83.8658 52.4513 84.0042 52.4958C84.2951 52.1408 84.7304 51.6193 85.5139 50.6758C85.7131 50.4358 85.6713 50.4883 85.8635 50.6058C86.2475 50.8408 86.4512 50.9123 86.2859 51.1828C85.857 51.8848 85.8431 51.8418 85.0596 52.8408C85.2474 52.9038 85.4252 52.9648 85.5926 53.0228C85.6543 52.9538 85.7245 52.8768 85.8062 52.7883C85.9312 52.6528 85.9835 52.7543 86.5185 53.1913C86.5588 53.2238 86.5857 53.2468 86.515 53.3658C86.6988 53.4403 86.8487 53.5078 86.9608 53.5668C86.9906 53.5088 87.019 53.4468 87.0499 53.3743C87.2247 52.9638 86.9687 52.8608 86.3695 52.4273C86.1305 52.2538 86.2181 52.3468 86.7461 51.5328C87.0489 51.0663 86.9702 50.6963 86.4179 50.4178C86.0438 50.2293 85.8889 50.2533 86.007 50.0963C86.131 49.9307 86.6266 49.1527 86.6983 49.0182C86.8641 48.7077 86.6375 48.4562 86.4179 48.3202C85.9367 48.0217 85.8257 48.0977 85.9203 47.9232C86.1728 47.4597 86.3666 47.0792 85.8506 46.7757C84.9371 46.2392 79.6396 44.8487 75.3134 43.5977C74.9867 43.7787 74.5897 43.8167 74.3242 43.8837L74.3252 43.8832Z" fill="#333333"/>
<path d="M94.1409 58.1016C94.1165 58.0121 94.0248 57.9491 93.8406 57.8506C93.8077 57.8326 93.0292 57.5636 92.7065 57.4791C90.1837 56.8196 90.767 56.8826 87.8418 55.9111C87.7915 55.9946 87.6705 56.1791 87.541 56.3721C88.0908 56.5386 88.574 56.7031 88.9864 56.8596C91.397 57.7716 93.3838 58.1416 93.4291 58.2791C93.4177 58.4296 90.1922 62.2446 89.4062 63.1956C87.6685 65.2971 87.8926 65.3311 87.4802 65.2811C87.2541 65.2536 86.3989 65.0141 86.0318 64.8966C85.975 64.8781 85.8963 64.8526 85.7982 64.8196C85.6518 64.9786 85.5243 65.1181 85.4127 65.2411C87.781 66.1116 87.8094 66.0966 88.3374 65.4801C88.5735 65.2036 88.6771 65.0806 89.0392 64.6056C90.2271 63.0491 94.2644 58.5551 94.1414 58.1011L94.1409 58.1016Z" fill="#333333"/>
<path d="M97.9078 63.2735C98.0756 62.86 97.8181 62.7615 97.2115 62.338C96.9694 62.169 97.0586 62.26 97.5731 61.4375C97.8679 60.966 97.7828 60.597 97.2259 60.328C96.8489 60.1455 96.694 60.1725 96.8095 60.0135C96.9306 59.846 97.4132 59.0595 97.4824 58.924C97.6428 58.6105 97.4122 58.363 97.1901 58.2305C96.7039 57.9405 96.5939 58.018 96.686 57.842C96.9306 57.374 97.1178 56.99 96.5969 56.696C95.7696 56.2285 91.4025 55.1345 87.3746 54.0645C87.3826 54.23 87.3054 54.4085 87.1993 54.6035C89.0915 55.0965 91.0369 55.59 93.3564 56.2515C95.8762 56.9705 96.5456 57.0105 96.3593 57.326C95.8443 58.198 94.3237 59.9325 93.1612 61.411C88.2089 67.712 88.1003 67.994 87.6874 67.7945C86.754 67.344 85.6418 66.8595 84.435 66.3645C84.3294 66.4885 84.2109 66.6255 84.053 66.803C85.1871 67.2615 86.3326 67.729 87.5624 68.223C87.8772 68.3495 88.1491 68.3555 88.3727 68.098C88.6183 67.8145 89.8191 66.5065 90.3825 65.7945C92.2064 63.4885 93.0237 62.2005 94.3695 60.6795C96.4614 58.3155 96.1421 58.235 96.5894 58.4435C96.9211 58.598 97.1238 58.667 96.957 58.952C96.1232 60.377 96.2213 59.9685 94.0099 62.8505C92.8583 64.3515 93.9247 63.2305 88.3981 69.5055C88.2975 69.62 88.2009 69.6475 88.044 69.583C87.1176 69.203 85.1647 68.472 83.7153 67.877C83.5659 67.8155 83.4115 67.7505 83.2506 67.681C83.1012 67.842 82.9806 67.9685 82.8666 68.0865C83.4722 68.3475 84.0435 68.606 84.8205 68.9145C88.1989 70.257 88.0385 70.2695 88.3613 70.112C88.6158 69.9875 88.8335 69.8095 89.0227 69.6035C89.5895 68.988 93.213 64.7285 93.7589 63.944C94.6365 62.683 94.3277 63.093 96.3254 60.601C96.5207 60.3575 96.4798 60.4105 96.6741 60.525C97.0626 60.7535 97.2668 60.8215 97.1059 61.0945C96.5844 61.982 96.692 61.692 95.1714 63.7625C94.2146 65.065 93.9666 65.1355 93.1308 66.2485C92.8783 66.5845 91.9255 67.683 91.5494 68.132C89.3355 70.775 89.2568 70.6985 88.5007 71.358C88.0819 71.723 87.9095 71.647 87.6212 71.5635C87.284 71.466 86.8317 71.1745 86.243 70.9565C85.7932 70.79 85.2837 70.5965 84.7343 70.387C84.686 70.5335 84.5979 70.69 84.5012 70.8575C84.4843 70.887 84.4734 70.9095 84.4699 70.9275C85.0003 71.1395 85.5606 71.3645 86.1528 71.602C88.2856 72.4575 88.1192 72.35 88.6058 71.949C90.7102 70.2165 91.3886 68.826 95.2087 64.459C96.186 63.3425 95.7775 63.694 96.6531 62.709C96.7757 62.5715 96.83 62.672 97.3724 63.0995C97.4879 63.1905 97.4984 63.2035 95.4797 65.61C94.6743 66.5695 89.5168 72.588 88.6263 73.3285C88.3214 73.5815 88.2532 73.804 87.91 73.66C87.4887 73.483 86.0941 72.9585 84.9057 72.504C84.8076 72.6495 84.7079 72.795 84.6322 72.901C86.9767 73.872 88.1083 74.4935 88.5426 74.1125C90.5473 72.353 95.7895 65.8825 96.5809 64.966C96.6397 64.898 96.681 64.8925 96.7533 64.959C97.1168 65.2945 97.2712 65.286 97.1786 65.4105C95.7257 67.36 89.4655 74.58 88.1187 75.777C87.8871 75.9825 87.7238 75.838 87.4493 75.732C86.5523 75.3865 85.7469 75.076 85.0212 74.7955C84.6746 75.2645 84.6442 75.2195 84.8429 75.371C84.8703 75.3915 84.8962 75.4115 84.9221 75.4305C85.3669 75.625 85.9531 75.8775 87.5076 76.455C88.174 76.703 88.4853 76.333 89.2802 75.475C90.621 74.0285 89.5163 75.302 90.9139 73.6715C92.6437 71.6525 92.6835 71.6735 93.3749 70.867C95.2421 68.687 94.0218 69.928 97.4535 66C97.6209 65.8085 97.7091 65.653 97.7902 65.411C97.8535 65.2225 97.726 65.051 97.5681 64.9285C97.0426 64.521 96.9326 64.5845 97.1288 64.361C97.6717 63.743 97.7589 63.6405 97.9083 63.2725L97.9078 63.2735Z" fill="#333333"/>
<path d="M73.0816 71.2523C73.0527 71.2153 73.0293 71.1792 73.0109 71.1452C72.6971 71.0132 72.3435 70.8657 71.9924 70.7188C71.9824 70.7587 71.9754 70.7998 71.9714 70.8418C71.9276 71.3493 72.2374 71.7992 72.5592 72.1512C73.116 72.7602 73.3217 73.1508 73.0542 73.4183C72.5029 73.9703 71.3369 73.4372 70.9205 72.6242C70.8294 72.4467 70.7875 72.3102 70.5639 72.3142C70.3587 72.3182 70.0409 72.5567 70.0917 72.8982C70.1679 73.4142 70.5026 73.6742 70.8627 73.9717C71.062 74.1367 70.9061 74.0842 70.5345 74.7632C70.3323 75.1322 70.795 75.3272 71.1168 75.0662C71.3782 74.8542 71.564 74.5713 71.575 74.5573C71.8021 74.2588 71.8634 74.7353 72.9242 74.5488C74.0329 74.3543 74.404 73.2917 74.1141 72.5737C73.9064 72.0597 73.5279 71.8237 73.0821 71.2517L73.0816 71.2523Z" fill="#333333"/>
<path d="M43.2547 66.0361C42.9419 66.1471 42.6351 66.2756 42.3184 66.3731C45.2948 67.3501 48.0556 68.2231 48.0865 68.1971L48.4899 67.8471C48.6025 67.7491 48.484 67.7431 43.2547 66.0361Z" fill="#333333"/>
<path d="M81.6589 70.7489C81.631 70.7324 81.0482 70.5029 80.6866 70.3789C80.5233 70.5549 80.3938 70.6944 80.2897 70.8069C80.8635 70.9904 81.2136 71.1024 81.23 71.1599C81.2121 71.3099 77.8337 74.9889 77.0089 75.9064C75.1865 77.9339 75.4091 77.9779 74.9987 77.9109C74.7741 77.8739 73.9293 77.5994 73.5672 77.4669C72.2215 76.9739 58.6127 71.5934 58.5559 71.6364C58.0409 72.0219 58.0354 72.0149 58.0539 72.0649C58.0733 72.1164 65.3845 74.6484 72.6637 77.6734C75.2647 78.7539 75.2736 78.7624 75.8469 78.1454C76.0944 77.8789 76.2025 77.7599 76.584 77.3009C77.8347 75.7944 82.0529 71.4709 81.9483 71.0124C81.9273 70.9219 81.8387 70.8554 81.6584 70.7489H81.6589Z" fill="#333333"/>
<path d="M84.843 75.3719C84.6079 75.1929 84.6936 75.2879 85.241 74.4869C85.5547 74.0279 85.485 73.6559 84.9396 73.3639C84.5701 73.1659 84.4147 73.1869 84.5367 73.0324C84.6647 72.8699 85.1787 72.1044 85.2539 71.9714C85.4267 71.6649 85.2071 71.4084 84.9899 71.2669C84.5163 70.9569 84.4032 71.0299 84.5023 70.8579C84.7658 70.4004 84.9685 70.0244 84.46 69.7089C84.1462 69.5139 83.3015 69.2024 82.1519 68.8219C82.0274 68.9514 81.883 69.1024 81.7101 69.2849C83.813 69.9639 84.3828 70.0419 84.197 70.3289C83.6471 71.1794 82.0563 72.8494 80.8345 74.2789C75.6287 80.3704 75.5082 80.6469 75.1043 80.4309C69.6723 77.5254 57.9642 73.1744 57.6519 72.9474C58.0598 72.4179 59.6033 71.0724 59.8245 70.8854C59.9211 70.8034 60.0137 70.6869 60.1243 70.6634C60.2199 70.6429 60.3345 70.7409 60.4456 70.7749C61.8611 71.2079 63.6531 71.6829 65.3904 70.8894C65.7376 70.7309 65.9921 70.4724 66.2536 70.2139C66.3283 70.1404 66.5863 69.6219 66.4936 69.0229C66.4533 68.7644 66.3601 68.5159 66.2306 68.2794C65.9263 68.1539 65.6315 68.0329 65.3461 67.9169C65.4955 68.0729 65.6295 68.2454 65.741 68.4539C66.0802 69.0869 65.9587 69.6874 65.7894 69.8979C65.2823 70.5274 64.452 70.6694 63.5934 70.7644C63.2462 70.8029 62.3347 70.8099 60.6328 70.3094C60.466 70.2604 60.5905 70.2679 61.8242 69.2404C62.6167 68.5799 63.5834 67.7474 64.0127 67.3809C63.4215 67.1459 62.8916 66.9384 62.4304 66.7599C62.3786 66.8049 62.3238 66.8514 62.267 66.8999C61.895 67.2189 62.2421 66.8704 60.8241 68.1289C56.4436 72.0149 55.9395 72.2459 55.8275 72.9274C55.4788 75.0394 55.5371 80.2724 55.2577 80.7239C55.2308 80.7674 55.1471 80.8139 55.1048 80.8019C54.9768 80.7659 54.8532 80.7089 54.7372 80.6449C54.6625 80.6034 54.6715 80.3324 54.6969 79.7989C55.0221 72.9484 54.8841 74.7609 55.1202 72.7949C55.2293 71.8839 55.9784 71.3989 60.5038 67.4584C60.9068 67.1074 61.2823 66.7789 61.6499 66.4604C60.9028 66.1749 60.4515 66.0074 60.3594 65.9649C59.955 65.7804 59.8638 65.6439 59.5555 65.8919C58.9603 66.3709 58.4896 66.0054 56.8395 65.3694C56.3221 65.1699 55.8419 64.8814 55.3025 64.7324C55.2153 64.7084 55.1297 64.6799 55.044 64.6489C53.6529 65.8409 51.7652 67.4499 49.108 69.6414C48.8704 69.8374 48.7454 70.0799 48.6981 70.3739C48.326 72.6959 48.4252 77.3224 48.3564 78.0609C48.327 78.3789 48.211 78.4409 47.9385 78.2879C47.7752 78.1959 47.7338 78.0764 47.7318 77.9044C47.7314 77.8449 47.7822 72.9244 47.9032 71.1604C47.9495 70.4824 48.0561 70.0889 48.0705 70.0119C48.1572 69.5414 48.2757 69.3989 48.7813 68.9794C48.7932 68.9694 51.2383 66.9549 51.2502 66.9459C53.2241 65.4659 52.4889 65.9634 54.3791 64.4069C54.1296 64.3284 53.5672 64.1559 52.859 63.9199C50.4593 65.8689 47.6452 68.1554 46.9041 68.9074C46.8129 68.9999 46.7511 69.0234 46.6286 68.9779C44.7554 68.2774 42.6904 67.5514 40.7136 66.8774C40.1866 67.0169 39.8838 67.0004 39.5605 66.6979C39.2716 66.4279 39.1705 66.5574 38.7536 66.7114C38.7233 66.7229 38.655 66.7439 38.5514 66.7754C41.9767 67.9274 45.8417 69.2889 46.4677 69.5589C46.6226 69.6259 46.5773 69.5669 46.538 70.6109C46.5509 70.6119 46.5494 70.6129 46.531 70.8014C46.525 70.8624 46.5101 70.9039 46.4314 70.8774C43.832 70.0119 39.5127 68.5209 36.3709 67.4304C36.0805 67.5194 35.7667 67.6164 35.4305 67.7214C35.7857 67.8464 36.1861 67.9869 36.6388 68.1434C46.528 71.5634 46.519 71.3829 46.5151 71.6009C46.5151 71.6114 46.4872 72.4674 46.4976 72.4674C46.4922 72.5304 46.4847 72.5934 46.4822 72.6569C46.4722 72.9239 46.1081 72.5564 45.2679 72.2819C44.1542 71.9189 43.9022 71.6629 41.5384 70.9134C40.7544 70.6649 37.5787 69.6839 36.3435 69.2744C35.4001 68.9619 34.3203 68.6504 33.378 68.3749C33.1031 68.4644 32.8187 68.5569 32.5268 68.6534C32.9357 68.7909 34.0892 69.1344 34.929 69.4044C35.4485 69.5714 35.959 69.7679 36.4815 69.9234C37.0986 70.1069 37.7177 70.2869 38.3213 70.5114C39.1048 70.8029 42.3303 71.6824 42.8328 71.9014C43.9854 72.4029 44.3231 72.4614 46.3099 73.2554C46.4244 73.3014 46.4712 73.3699 46.4593 73.5049C46.3407 74.8649 46.5001 74.7689 46.2162 74.6654C46.1141 74.6284 32.5238 69.8874 31.4515 69.4374C31.181 69.3239 31.7438 69.1204 32.0691 68.8049C31.5889 68.9649 31.0884 69.1334 30.5694 69.3109C30.4603 69.6414 30.9489 69.8914 31.4216 70.0499C32.2045 70.3119 31.8449 70.1299 30.5126 71.1509C30.28 71.3289 30.1017 71.7559 30.3054 71.9694C30.6281 72.3074 31.1431 72.3904 31.4599 72.4999C36.4541 74.2204 36.224 74.1164 36.6558 74.2164C37.5159 74.4154 38.8458 74.9704 40.1512 75.4249C46.2596 77.5514 45.5986 77.4239 46.2327 77.6269C46.3856 77.6759 46.3507 77.6459 46.4135 78.0439C46.4513 78.2844 46.5464 78.4914 46.785 78.5999C47.2482 78.8099 47.702 79.0429 48.1761 79.2264C49.8641 79.8804 51.5535 80.3859 51.8579 80.4859C52.1378 80.5779 52.4067 80.7044 52.6896 80.7829C53.2285 80.9324 53.7087 81.2214 54.2257 81.4214C55.8748 82.0594 56.3455 82.4259 56.9412 81.9469C57.2495 81.6994 57.3406 81.8359 57.745 82.0209C58.0379 82.1549 61.9248 83.5504 67.4494 85.9799C67.8016 86.1349 70.3313 87.1834 71.178 87.5499C72.1188 87.9569 72.0874 88.0364 74.5713 89.0779C75.2273 89.3529 75.553 88.9964 76.3823 88.1719C77.7809 86.7819 76.6254 88.0089 78.0882 86.4369C79.8992 84.4909 79.938 84.5134 80.6617 83.7364C82.6166 81.6354 81.3466 82.8244 84.9361 79.0414C85.1115 78.8569 85.2061 78.7054 85.2967 78.4669C85.368 78.2809 85.2469 78.1044 85.0945 77.9754C84.586 77.5464 84.4734 77.6059 84.6786 77.3904C85.2464 76.7954 85.3376 76.6964 85.5019 76.3349C85.6867 75.9289 85.4332 75.8199 84.8445 75.3719H84.843ZM46.412 75.4214C46.3721 75.9234 46.3771 75.7459 46.3985 76.8574C46.3721 77.1699 46.5584 77.1079 44.7439 76.4014C44.3938 76.2654 44.0372 76.1444 43.688 76.0059C43.313 75.8574 42.9444 75.6939 42.5704 75.5464C40.4157 74.6964 35.9789 73.3804 32.7624 72.2069C32.3017 72.0389 31.7398 71.9004 31.2019 71.6969C30.9623 71.6059 31.0904 71.4539 31.2532 71.3484C31.3334 71.2964 32.3853 70.6319 32.5806 70.5474C32.6553 70.5149 32.7225 70.5114 32.8087 70.5359C34.3677 70.9754 41.9816 73.8144 46.3039 75.2569C46.3866 75.2844 46.4189 75.3369 46.4125 75.4219L46.412 75.4214ZM53.6534 72.4809C52.9337 72.2459 51.8584 71.8284 49.5334 70.8279C49.2271 70.6964 49.3854 70.2444 49.8053 70.3679C50.8772 70.6819 54.009 71.8834 54.4707 72.1349C54.6978 72.2584 54.4598 72.7449 53.6539 72.4814L53.6534 72.4809ZM57.2883 74.1784C57.3496 73.4604 57.2923 73.4084 57.5538 73.5069C65.8999 76.6409 69.6155 78.4459 74.9613 80.8554C75.2706 80.9949 75.5426 81.0119 75.7761 80.7639C76.0332 80.4909 77.2863 79.2334 77.8785 78.5449C79.7951 76.3159 80.6647 75.0629 82.0717 73.5984C84.2588 71.3229 83.943 71.2294 84.3813 71.4559C84.7065 71.6239 84.9058 71.7014 84.7279 71.9789C83.8364 73.3679 83.951 72.9644 81.624 75.7524C80.4117 77.2049 81.5234 76.1284 75.7448 82.1699C75.6397 82.2799 75.5421 82.3034 75.3877 82.2324C74.4777 81.8144 72.5561 81.0034 71.1326 80.3494C70.0638 79.8584 68.7369 79.1329 66.5295 78.4049C62.664 77.1304 63.2617 77.0779 57.3984 74.9189C57.1967 74.8449 57.2251 74.9219 57.2883 74.1774V74.1784ZM57.1488 75.7099C57.1797 75.3494 57.1523 75.3819 57.5742 75.5449C59.8065 76.4064 59.8414 76.3489 60.5656 76.6689C64.5004 78.4054 65.5503 78.6279 66.3472 78.9119C69.6205 80.0784 70.2401 80.5619 72.194 81.4329C75.5147 82.9134 75.3538 82.9194 75.683 82.7754C75.9425 82.6614 76.1666 82.4929 76.3644 82.2949C76.9561 81.7029 80.7504 77.5969 81.3286 76.8359C82.2575 75.6119 81.9318 76.0089 84.0297 73.6019C84.2349 73.3664 84.1915 73.4179 84.3813 73.5404C84.7598 73.7844 84.9615 73.8614 84.7897 74.1274C84.2324 74.9924 84.3519 74.7074 82.7476 76.7134C81.7385 77.9749 81.4875 78.0354 80.6069 79.1129C80.341 79.4379 79.3438 80.4964 78.9498 80.9294C76.6298 83.4784 76.5541 83.3989 75.7717 84.0269C75.3383 84.3744 75.1695 84.2914 74.8841 84.1959C74.5514 84.0849 74.1111 83.7749 73.5323 83.5324C70.4548 82.2439 64.5088 79.5659 62.6361 78.9599C62.1788 78.8119 59.6327 77.9374 59.1884 77.7539C57.1115 76.8979 57.115 77.0419 57.1155 76.8489C57.1195 75.7264 57.0941 76.3609 57.1493 75.7114L57.1488 75.7099ZM84.6846 78.4409C83.1531 80.3289 76.6029 87.2844 75.2078 88.4249C74.9683 88.6209 74.8109 88.4689 74.5409 88.3519C64.7623 84.1139 66.0927 84.6319 62.5345 83.2459C60.4939 82.4514 59.0843 81.8334 58.2227 81.4879C57.2156 81.0844 56.9312 81.0139 56.9372 80.9114C56.9586 80.5054 56.975 80.0994 56.993 79.6924H56.972C56.9974 79.3949 56.9795 79.3004 57.1339 79.3584C57.1459 79.3629 63.3981 81.8244 63.432 81.8359C64.1432 82.0874 65.9159 82.8174 66.9533 83.3069C67.5042 83.5664 68.0984 83.7259 68.6293 84.0324C69.0632 84.2829 69.5692 84.3539 71.8404 85.4059C74.145 86.4734 75.2507 87.1419 75.7004 86.7789C77.7754 85.1034 83.2786 78.8549 84.1064 77.9719C84.1681 77.9064 84.2095 77.9024 84.2787 77.9719C84.6278 78.3224 84.7827 78.3199 84.6851 78.4404L84.6846 78.4409ZM82.9792 78.5694C82.1355 79.4954 76.7354 85.2954 75.8155 85.9984C75.5007 86.2384 75.4235 86.4579 75.0863 86.2999C74.5733 86.0599 72.5905 85.2239 71.3438 84.6809C69.0706 83.6914 68.8993 83.5564 68.4485 83.3794C65.878 82.3719 67.1327 82.7864 64.2777 81.6489C57.9149 79.1139 58.2237 79.2149 57.9214 79.0969C56.8405 78.6759 56.9925 79.1024 57.0886 77.7644C57.1259 77.2494 56.8983 77.3799 59.6975 78.4334C63.2925 79.7869 59.8638 78.0739 73.4148 84.1709C75.5107 85.1139 75.3488 84.9989 75.8519 84.6189C78.0254 82.9744 78.7601 81.6129 82.7561 77.4079C83.7781 76.3324 83.3558 76.6669 84.2712 75.7184C84.3992 75.5859 84.4495 75.6884 84.9735 76.1384C85.0856 76.2339 85.095 76.2474 82.9797 78.5684L82.9792 78.5694Z" fill="#333333"/>
<path d="M23.0326 53.7734C23.1506 53.6289 22.9948 53.5674 22.9111 53.3254C22.7871 52.9654 22.9948 52.7349 23.1681 52.7959C23.5381 52.9254 23.4585 53.3274 23.6751 53.2409C23.8305 53.1789 23.9934 53.1089 24.1523 53.0984C24.748 53.0594 24.9382 53.5389 24.8062 53.7894C24.6304 54.1249 24.2698 53.7439 23.711 54.1209C23.1865 54.4754 23.184 55.2694 23.8479 55.0789C24.5437 54.8794 24.9039 54.6159 25.4562 54.6164C26.2277 54.6169 27.069 55.3619 26.8309 56.4664C26.6033 57.5234 26.1411 57.4009 26.3308 57.7244C26.3398 57.7399 26.5305 58.0189 26.6282 58.3424C26.7477 58.7394 26.3936 59.0964 26.1291 58.7694C25.6425 58.1679 25.7496 58.0429 25.5225 58.1659C25.1125 58.3889 24.747 58.6024 24.2414 58.4789C23.9067 58.3974 23.8066 58.0119 23.8803 57.8194C23.9605 57.6099 24.102 57.6219 24.3002 57.6044C25.2072 57.5229 26.1376 56.6394 25.8362 55.9189C25.6898 55.5699 25.2525 55.6144 24.4805 55.9029C24.0347 56.0694 23.5028 56.1879 23.051 55.9564C22.4459 55.6464 22.3632 54.5914 23.0326 53.7734Z" fill="#333333"/>
<path d="M49.395 62.555C49.2585 62.493 49.1688 62.399 49.1101 62.2845C49.0717 62.9175 49.0443 63.339 49.0428 63.356C49.0279 63.527 48.9781 63.6435 48.8082 63.723C48.5253 63.8555 48.4143 63.7845 48.4083 63.465C48.4033 63.2 48.4571 62.44 48.5189 61.466C48.1627 61.323 47.4953 61.03 42.7577 59.387C42.5425 59.3125 42.3269 59.235 42.1122 59.157C42.1077 59.741 42.0614 60.8425 41.9568 64.7235C41.9424 65.2575 41.9314 65.5285 41.8537 65.564C41.7332 65.6195 41.6057 65.667 41.4757 65.6935C41.4328 65.7025 41.3526 65.6495 41.3287 65.604C41.12 65.2015 41.4154 61.337 41.3875 58.89C40.8063 58.675 40.2564 58.4725 39.7867 58.3275C39.7962 58.432 39.7867 58.617 39.7902 58.924C39.7977 59.6715 39.832 59.5965 39.6253 59.655C33.6181 61.3685 34.2098 61.4655 30.2606 62.447C28.0054 63.0075 26.6282 63.631 25.526 64.041C24.0577 64.5865 22.0813 65.251 21.1425 65.6C20.9836 65.659 20.888 65.628 20.7913 65.5105C15.4779 59.0525 16.5064 60.209 15.4057 58.67C13.2924 55.7155 13.3766 56.1265 12.5906 54.6745C12.4337 54.384 12.6384 54.322 12.9751 54.179C13.4289 53.9855 13.1071 54.0555 15.1188 56.4885C16.4133 58.054 17.1873 59.369 18.9325 61.7355C19.4719 62.4665 20.628 63.814 20.8641 64.1055C21.0787 64.3705 21.3512 64.374 21.6699 64.258C27.1686 62.26 31.0037 60.7405 39.5232 58.25C39.4321 58.2245 39.3444 58.202 39.2612 58.183C39.0695 58.139 39.0082 58.135 38.5615 57.9935C35.5596 58.942 26.3025 61.728 21.5594 63.825C21.14 64.0105 21.0409 63.725 16.3022 57.261C15.19 55.744 13.7282 53.959 13.2426 53.07C13.0668 52.748 13.7372 52.731 16.2798 52.0975C19.2075 51.3675 21.5414 50.8825 23.9197 50.332C23.7663 50.1315 23.6448 49.97 23.5432 49.832C19.1915 50.851 13.9538 51.9485 13.0259 52.432C12.4955 52.7085 12.6698 53.0985 12.8984 53.5745C12.9846 53.7535 12.877 53.672 12.3819 53.946C12.1553 54.071 11.9167 54.31 12.0661 54.629C12.1309 54.767 12.5866 55.5695 12.7022 55.7405C12.8123 55.904 12.6589 55.8715 12.2758 56.041C11.71 56.2915 11.6129 56.657 11.8918 57.1385C12.3784 57.978 12.4706 57.8895 12.223 58.0505C11.6024 58.453 11.342 58.543 11.4959 58.962C11.6328 59.3345 11.7165 59.44 12.2385 60.076C12.4272 60.306 12.3192 60.239 11.7803 60.6285C11.6184 60.7455 11.4849 60.9125 11.5422 61.1035C11.6149 61.348 11.6981 61.5065 11.859 61.7035C15.1572 65.745 13.9787 64.464 15.7723 66.7055C16.4362 67.535 16.4766 67.5155 18.1381 69.5915C19.4799 71.2685 18.419 69.958 19.71 71.4495C20.4761 72.334 20.7744 72.714 21.4488 72.4885C24.0029 71.636 23.9775 71.5545 24.9462 71.219C25.8178 70.917 28.4178 70.061 28.7809 69.933C34.4703 67.924 38.4504 66.8235 38.7522 66.712C39.1691 66.558 39.2702 66.4285 39.5591 66.6985C40.1179 67.2205 40.614 66.8905 42.3059 66.3775C42.8364 66.217 43.3369 65.965 43.8853 65.856C44.1737 65.799 44.4511 65.693 44.7365 65.622C45.0478 65.545 46.7701 65.167 48.5019 64.642C48.988 64.4945 49.4582 64.2965 49.9354 64.1215C50.1809 64.0315 50.2915 63.8325 50.3468 63.595C50.4389 63.202 50.4021 63.23 50.5579 63.1925C50.6192 63.178 50.6685 63.1655 50.7133 63.153C50.2656 62.975 49.8338 62.7555 49.394 62.5565L49.395 62.555ZM39.6398 65.666C39.6378 65.7685 39.3494 65.8175 38.3149 66.1445C37.4298 66.424 35.9785 66.9345 33.8846 67.574C30.2332 68.6895 31.5984 68.273 21.532 71.766C21.254 71.8625 21.0857 72.0015 20.8616 71.7885C19.5551 70.5465 13.5404 63.12 12.1533 61.122C12.0647 60.9945 12.2191 61.0085 12.5936 60.685C12.6678 60.621 12.7087 60.628 12.7654 60.6975C13.5255 61.6405 18.5485 68.284 20.493 70.11C20.9144 70.506 22.0664 69.922 24.4442 69.03C26.7876 68.151 27.2976 68.1185 27.7489 67.901C28.3012 67.635 28.9059 67.5205 29.4742 67.303C30.545 66.893 32.367 66.2975 33.0951 66.1C33.1295 66.0905 39.5476 64.105 39.5596 64.101C39.718 64.055 39.6931 64.148 39.6961 64.446C39.6961 64.446 39.6492 65.258 39.6403 65.665L39.6398 65.666ZM38.7931 63.783C38.4828 63.8775 38.798 63.8005 32.2644 65.8515C29.3332 66.772 30.6148 66.4525 27.9765 67.2645C27.5138 67.407 27.333 67.529 24.9925 68.345C23.709 68.793 21.6694 69.478 21.14 69.679C20.7923 69.8115 20.7311 69.5865 20.4352 69.3235C19.5701 68.5535 14.6168 62.365 13.8438 61.3785C11.9068 58.9055 11.9172 58.893 12.0358 58.8055C12.5916 58.3965 12.6494 58.2975 12.7674 58.4395C13.6097 59.4535 13.2132 59.0885 14.1526 60.2375C17.8243 64.7305 18.4559 66.1435 20.5015 67.946C20.9741 68.363 20.8043 68.465 22.9649 67.682C36.9318 62.6175 33.385 64.0685 37.0707 62.9885C39.9401 62.1475 39.7235 62 39.722 62.5165C39.719 63.858 39.9023 63.444 38.7931 63.783ZM39.7648 61.5995C39.7513 61.792 39.7648 61.6485 37.6306 62.3465C37.1738 62.496 34.5699 63.1775 34.1027 63.291C32.1897 63.7545 26.0614 65.9795 22.8967 67.034C22.301 67.232 21.8393 67.5085 21.4991 67.5945C21.2077 67.668 21.0329 67.739 20.627 67.3595C19.8933 66.675 19.8121 66.7485 17.6879 64.0325C17.3268 63.571 16.4113 62.441 16.1702 62.0965C15.3723 60.9565 15.1268 60.8775 14.2143 59.5435C12.7639 57.4225 12.8616 57.716 12.3705 56.8115C12.2191 56.533 12.4258 56.4715 12.8212 56.2565C13.0195 56.149 12.9801 56.094 13.1674 56.3445C15.0805 58.902 14.7856 58.4815 15.6204 59.7715C16.1399 60.574 19.6189 64.953 20.1648 65.5875C20.3471 65.7995 20.5587 65.9845 20.8088 66.118C21.126 66.2865 20.9662 66.2685 24.3879 65.041C26.4011 64.319 27.0551 63.884 30.4061 62.9655C31.2219 62.742 32.2853 62.599 36.3386 61.1625C37.0847 60.898 37.1151 60.9575 39.4052 60.266C39.838 60.135 39.8136 60.1005 39.8171 60.4625C39.8241 61.115 39.846 60.48 39.7663 61.5995H39.7648Z" fill="#333333"/>
<path d="M35.9427 57.1157C31.7818 58.3842 24.3013 60.7032 23.3111 60.9837C22.9401 61.0887 22.0779 61.2992 21.8508 61.3192C21.4364 61.3552 21.662 61.3282 19.9955 59.1697C19.2414 58.1927 16.1459 54.2707 16.1394 54.1202C16.1892 53.9842 18.1875 53.6817 20.627 52.8512C21.6217 52.5122 23.0213 52.1402 24.758 51.8152C24.8766 51.7932 24.9697 51.7757 25.0564 51.7582C24.9084 51.5787 24.7879 51.4332 24.6509 51.2637C23.8486 51.4327 23.1478 51.5477 21.9962 51.8852C18.82 52.8157 19.486 52.7587 16.888 53.3447C16.5628 53.4177 15.7753 53.6607 15.742 53.6777C15.5547 53.7702 15.4606 53.8302 15.4332 53.9187C15.2947 54.3682 19.1792 58.9957 20.3148 60.5917C20.6609 61.0782 20.76 61.2052 20.9871 61.4887C21.5126 62.1467 21.5226 62.1392 24.1967 61.2567C29.1291 59.6287 34.0585 58.2147 36.8536 57.4252C36.5857 57.3342 36.2839 57.2317 35.9422 57.1147L35.9427 57.1157Z" fill="#333333"/>
<path d="M76.58 53.9273C76.7579 53.9828 76.7559 53.8143 76.9476 53.6453C77.233 53.3938 77.5239 53.5003 77.5334 53.6843C77.5538 54.0773 77.1523 54.1548 77.3142 54.3233C77.4303 54.4443 77.5558 54.5693 77.6255 54.7133C77.8865 55.2523 77.5159 55.6098 77.235 55.5823C76.8595 55.5453 77.0746 55.0663 76.5158 54.6893C75.9908 54.3353 75.2577 54.6328 75.684 55.1783C76.1308 55.7498 76.5093 55.9853 76.7175 56.4993C77.0084 57.2168 76.6383 58.2798 75.5296 58.4758C74.4687 58.6633 74.407 58.1873 74.1804 58.4858C74.1694 58.4998 73.9841 58.7828 73.7226 58.9953C73.4014 59.2563 72.9387 59.0618 73.1404 58.6928C73.5114 58.0133 73.6673 58.0658 73.4681 57.9013C73.108 57.6043 72.7728 57.3448 72.6956 56.8288C72.6448 56.4868 72.9626 56.2483 73.1673 56.2443C73.3909 56.2398 73.4327 56.3763 73.5239 56.5533C73.9413 57.3658 75.1078 57.8973 75.6586 57.3448C75.9256 57.0773 75.7194 56.6873 75.162 56.0783C74.8398 55.7268 74.53 55.2768 74.5733 54.7693C74.6311 54.0898 75.5725 53.6138 76.58 53.9273Z" fill="#333333"/>
<path d="M49.6245 51.2199C48.8769 51.4464 48.5192 51.4899 48.1357 51.1239C47.8548 50.8559 47.7507 50.9764 47.3478 51.1224C49.2439 51.7309 50.663 52.1704 50.6849 52.1519L51.0878 51.8014C51.1615 51.7369 51.1366 51.7124 49.6245 51.2199Z" fill="#333333"/>
<path d="M84.5511 54.9283C84.5302 54.8378 84.441 54.7713 84.2607 54.6653C84.2289 54.6463 83.4613 54.3458 83.1421 54.2488C80.5945 53.4723 81.2544 53.5788 78.1549 52.4158C76.188 51.6778 75.547 51.7218 73.3914 50.8498C72.5382 50.5048 69.0612 49.2861 68.8126 49.1616C68.7942 49.1521 68.7718 49.1556 68.7568 49.1696C68.3489 49.5456 68.3071 49.5571 68.318 49.6071C68.3315 49.6646 68.329 49.5816 72.6174 51.1693C74.8696 52.0028 74.7466 51.9673 75.4056 52.1423C77.1139 52.5943 78.4826 53.0688 79.4494 53.4803C81.8217 54.4888 83.7921 54.9378 83.8319 55.0768C83.8145 55.2268 80.44 58.9093 79.6162 59.8278C77.7958 61.8573 78.0189 61.9013 77.6085 61.8343C77.3839 61.7978 76.5392 61.5243 76.1766 61.3923C74.8303 60.9008 61.2156 55.5358 61.1588 55.5788C60.6522 55.9588 60.6383 55.9578 60.6572 56.0078C60.6766 56.0593 67.9903 58.5833 75.2731 61.5998C77.875 62.6773 77.8845 62.6858 78.4567 62.0683C78.7038 61.8018 78.8119 61.6828 79.1929 61.2233C80.442 59.7153 84.6552 55.3873 84.5501 54.9288L84.5511 54.9283Z" fill="#333333"/>
<path d="M88.1088 60.247C88.2931 59.841 88.0396 59.732 87.4504 59.2845C87.2153 59.106 87.3004 59.2005 87.8473 58.399C88.1606 57.9395 88.0904 57.5675 87.5445 57.276C87.1749 57.0785 87.0195 57.0995 87.1411 56.945C87.2691 56.7825 87.7821 56.0165 87.8568 55.883C88.0296 55.576 87.809 55.32 87.5923 55.1785C87.1181 54.869 87.0051 54.942 87.1042 54.77C87.3672 54.3125 87.5694 53.9365 87.0609 53.6215C86.0358 52.987 79.3617 51.117 74.8925 49.6549C74.5603 49.5464 74.2361 49.4124 73.9044 49.3064C71.1814 48.4389 71.0559 48.5149 71.0669 48.2274C71.0982 47.4074 69.882 47.0569 67.7437 46.3024C67.5206 46.2234 67.039 46.1259 66.2411 45.8359C65.9686 45.9104 65.6927 45.9849 65.4182 46.0549C59.156 47.6534 59.799 47.5859 59.172 47.7299C59.0156 47.7654 59.0524 47.7384 58.9563 48.1294C58.8975 48.3669 58.786 48.5644 58.5384 48.6519C58.0593 48.8224 57.5861 49.0159 57.099 49.1584C57.0392 49.1759 56.9795 49.1934 56.9197 49.2104C55.6147 50.3275 53.9313 51.7555 51.7084 53.5935C51.4713 53.79 51.3463 54.0325 51.2995 54.3265C50.9299 56.6485 51.034 61.275 50.9668 62.014C50.9374 62.332 50.8218 62.3945 50.5489 62.2415C50.3855 62.1495 50.3441 62.03 50.3416 61.858C50.3411 61.7985 50.3865 56.878 50.5056 55.1135C50.5514 54.4355 50.6575 54.042 50.6714 53.965C50.7576 53.4945 50.8761 53.352 51.3807 52.932C51.3926 52.922 53.8351 50.9045 53.8471 50.896C54.9175 50.0915 55.1904 49.8704 55.5181 49.5874C54.4219 49.8639 53.5383 50.049 53.3231 50.1C53.0367 50.1675 52.7578 50.271 52.4694 50.3255C52.4595 50.3275 52.45 50.3295 52.4406 50.3315C51.0833 51.4515 49.9372 52.4215 49.5029 52.8625C49.4117 52.955 49.35 52.979 49.2275 52.9335C48.0709 52.5025 46.8407 52.0615 45.604 51.6295C45.3166 51.7135 44.9889 51.8105 44.6178 51.9215C46.8103 52.679 48.6517 53.336 49.0671 53.515C49.222 53.5815 49.1767 53.5225 49.1388 54.567C49.1517 54.568 49.1503 54.569 49.1323 54.7575C49.1263 54.8185 49.1114 54.86 49.0327 54.8335C47.3064 54.2605 44.8225 53.4135 42.4278 52.5905C42.1315 52.6825 41.8192 52.78 41.4904 52.8835C49.1283 55.492 49.1209 55.357 49.1174 55.5565C49.1174 55.567 49.0905 56.423 49.1009 56.423C49.0955 56.486 49.088 56.549 49.0855 56.6125C49.076 56.8795 48.7115 56.512 47.8707 56.239C46.757 55.877 46.5045 55.6215 44.1397 54.8745C43.4777 54.6655 41.1104 53.936 39.6456 53.4685C39.3423 53.5655 39.0285 53.6665 38.7042 53.7715C38.8298 53.813 38.9553 53.8525 39.0823 53.89C39.6994 54.073 40.3185 54.252 40.9231 54.476C41.7071 54.767 44.9331 55.6425 45.4362 55.861C46.5897 56.361 46.9274 56.4195 48.9147 57.211C49.0297 57.2565 49.076 57.3255 49.0646 57.4605C48.9475 58.8205 49.1069 58.7245 48.8225 58.621C48.7458 58.593 41.0511 55.9185 36.7747 54.4C36.5053 54.4885 36.2293 54.579 35.9474 54.672C38.2664 55.4245 44.9625 57.899 48.9117 59.2125C48.9944 59.24 49.0267 59.292 49.0203 59.377C48.9809 59.879 48.9854 59.7015 49.0083 60.813C48.9824 61.1255 49.1687 61.063 47.3532 60.359C47.0031 60.223 46.6465 60.103 46.2968 59.9645C45.9218 59.8165 45.5527 59.653 45.1787 59.506C43.023 58.6585 38.5847 57.3475 35.3672 56.1775C34.906 56.01 34.3446 55.8725 33.8062 55.669C33.6214 55.599 33.6553 55.493 33.7544 55.3995C33.6623 55.4305 33.5696 55.4615 33.4765 55.4925C33.2066 55.583 33.0138 55.6545 32.821 55.7285C32.8265 55.8095 32.8534 55.884 32.9092 55.9425C33.232 56.28 33.7475 56.363 34.0642 56.472C39.0604 58.187 38.8303 58.0835 39.2621 58.1825C40.1222 58.3805 41.4531 58.934 42.759 59.387C48.8698 61.5065 48.2089 61.3795 48.8429 61.582C48.9959 61.631 48.961 61.6005 49.0242 61.999C49.0621 62.2395 49.1577 62.4465 49.3963 62.5545C49.8595 62.764 50.3142 62.9965 50.788 63.1795C52.4769 63.8315 54.1664 64.335 54.4712 64.435C54.7511 64.527 55.0201 64.653 55.303 64.731C55.8419 64.88 56.3225 65.1685 56.84 65.368C58.4901 66.004 58.9608 66.37 59.556 65.8905C59.8643 65.6425 59.9554 65.779 60.3599 65.9635C60.6527 66.097 64.5416 67.488 70.0682 69.9115C70.4209 70.066 72.9511 71.1115 73.7983 71.4775C74.7396 71.8835 74.7082 71.963 77.1931 73.0015C77.8491 73.276 78.1748 72.919 79.0031 72.0935C80.4002 70.702 79.2462 71.93 80.707 70.3565C82.516 68.4085 82.5548 68.431 83.2775 67.653C85.23 65.5495 83.9614 66.7405 87.5465 62.9535C87.7213 62.769 87.8159 62.6175 87.9066 62.379C87.9773 62.193 87.8568 62.0165 87.7039 61.888C87.1948 61.4595 87.0823 61.519 87.2875 61.3035C87.8543 60.708 87.9459 60.609 88.1098 60.2475L88.1088 60.247ZM87.3951 58.0385C86.8387 58.904 86.9578 58.619 85.356 60.627C84.3484 61.89 84.0974 61.9505 83.2183 63.029C82.9528 63.3545 81.9567 64.414 81.5632 64.8475C79.2457 67.3995 79.1699 67.32 78.3885 67.9485C77.9557 68.2965 77.7863 68.2135 77.5014 68.1185C77.1682 68.0075 76.7279 67.698 76.1487 67.4565C73.0696 66.1715 67.1207 63.5 65.2469 62.8965C64.7892 62.749 62.2426 61.877 61.7978 61.6945C59.7203 60.841 59.7233 60.985 59.7238 60.792C59.7263 59.6695 59.7019 60.304 59.7562 59.6545C59.7866 59.294 59.7592 59.3265 60.1816 59.489C62.4149 60.348 62.4493 60.2905 63.174 60.6095C67.1107 62.3415 68.1611 62.563 68.9585 62.846C72.2328 64.009 72.8534 64.4915 74.8079 65.36C78.13 66.837 77.9696 66.843 78.2983 66.6985C78.5578 66.584 78.782 66.4155 78.9792 66.217C79.5699 65.6245 83.3602 61.5145 83.937 60.752C84.8644 59.527 84.5391 59.9245 86.6345 57.515C86.8392 57.2795 86.7964 57.331 86.9862 57.453C87.3647 57.6965 87.5664 57.773 87.3951 58.0395V58.0385ZM87.3313 55.8915C86.4413 57.2815 86.5558 56.878 84.2313 59.6685C83.021 61.122 84.1312 60.0445 78.3591 66.0925C78.254 66.2025 78.1564 66.2265 78.002 66.1555C77.0915 65.7385 75.169 64.9295 73.745 64.2775C72.6756 63.7875 71.3478 63.0635 69.1398 62.3385C65.2728 61.068 65.8705 61.015 60.0047 58.863C59.803 58.789 59.8319 58.866 59.8942 58.1215C59.9544 57.4035 59.8972 57.3515 60.1586 57.4495C68.5083 60.574 72.2264 62.375 77.5746 64.7785C77.8839 64.9175 78.1559 64.9345 78.389 64.686C78.646 64.4125 79.8976 63.154 80.4888 62.465C82.4029 60.234 83.2711 58.9795 84.6766 57.514C86.8611 55.236 86.5454 55.1425 86.9837 55.369C87.3089 55.5365 87.5091 55.614 87.3313 55.8915ZM70.1355 48.5839C75.2835 50.559 78.6031 51.3235 83.8408 53.0485C86.3302 53.8685 86.9976 53.935 86.7984 54.243C86.249 55.094 84.6607 56.7655 83.4404 58.1965C78.2416 64.2935 78.1215 64.571 77.7171 64.355C72.2817 61.4555 60.569 57.1175 60.2568 56.891C60.6642 56.361 62.2062 55.0135 62.4268 54.8265C62.5235 54.7445 62.6156 54.628 62.7262 54.6045C62.8218 54.584 62.9364 54.682 63.0474 54.7155C64.4635 55.147 66.256 55.6205 67.9923 54.8245C68.3394 54.6655 68.5934 54.4065 68.8544 54.148C68.9291 54.074 69.1866 53.5555 69.093 52.957C68.9536 52.0665 68.185 51.293 67.4793 50.726C67.3911 50.655 67.3453 50.6625 67.5659 50.479C69.9024 48.5414 69.8506 48.4744 70.1355 48.5839ZM64.4236 53.179C65.3859 52.3755 66.6046 51.317 66.8049 51.151C66.9135 51.061 67.0554 51.076 67.164 51.1685C67.6202 51.5575 68.054 51.856 68.3399 52.3885C68.6796 53.021 68.5586 53.622 68.3897 53.8325C67.8837 54.4625 67.0534 54.6055 66.1947 54.7015C65.8476 54.7405 64.9366 54.7485 63.2337 54.2495C63.0669 54.2005 63.1914 54.208 64.4236 53.179ZM56.2573 56.4285C55.537 56.194 54.4617 55.778 52.1352 54.78C51.8289 54.6485 51.9868 54.1965 52.4067 54.3195C53.479 54.632 56.6119 55.8305 57.0741 56.081C57.3012 56.204 57.0636 56.691 56.2573 56.4285ZM58.4308 56.8725C58.0847 58.985 58.1484 64.218 57.87 64.6695C57.8431 64.713 57.7594 64.76 57.7171 64.748C57.5891 64.712 57.4656 64.6555 57.3495 64.5915C57.2748 64.55 57.2838 64.279 57.3082 63.7455C57.6255 56.8945 57.49 58.7075 57.7236 56.741C57.8317 55.8295 58.5803 55.344 63.1012 51.398C64.5949 50.0945 65.7196 49.0894 67.4095 47.8154C67.8324 47.4964 68.0809 47.0174 68.4615 47.3059C68.4963 47.3324 68.5426 47.3409 68.583 47.3604C68.9859 47.5584 68.5028 47.8354 68.1786 48.0909C65.7853 49.9774 66.8617 49.1224 64.8639 50.838C64.4918 51.1575 64.839 50.8085 63.4225 52.0685C59.0464 55.9595 58.5429 56.191 58.4313 56.8725H58.4308ZM87.2955 62.3535C85.7659 64.243 79.2232 71.206 77.8296 72.348C77.5901 72.544 77.4327 72.3925 77.1627 72.276C67.3792 68.049 68.71 68.5655 65.1503 67.1835C63.1087 66.391 61.6987 65.775 60.8365 65.4305C59.8289 65.028 59.5445 64.958 59.55 64.8555C59.5709 64.4495 59.5869 64.043 59.6043 63.636H59.5834C59.6083 63.3385 59.5903 63.244 59.7447 63.302C59.7567 63.3065 66.012 65.7605 66.0453 65.7725C66.7571 66.023 68.5302 66.7515 69.5682 67.2395C70.119 67.4985 70.7137 67.657 71.2452 67.9635C71.679 68.2135 72.1855 68.284 74.4577 69.3335C76.7633 70.3985 77.87 71.0655 78.3187 70.702C80.3917 69.0245 85.8879 62.7695 86.7147 61.8855C86.7765 61.82 86.8178 61.816 86.887 61.8855C87.2367 62.2355 87.3916 62.233 87.294 62.354L87.2955 62.3535ZM85.5906 62.484C84.7478 63.411 79.3542 69.217 78.4353 69.921C78.121 70.1615 78.0438 70.381 77.7066 70.2235C77.1936 69.984 75.2098 69.15 73.9621 68.609C71.688 67.6225 71.5161 67.4875 71.0654 67.311C68.4938 66.3065 69.7485 66.7195 66.8925 65.585C60.5272 63.057 60.836 63.158 60.5332 63.0405C59.4519 62.621 59.6043 63.047 59.6989 61.709C59.7353 61.194 59.5082 61.325 62.3088 62.3755C65.9054 63.7245 62.4747 62.016 76.0326 68.0975C78.1295 69.038 77.9676 68.9235 78.4697 68.543C80.6417 66.896 81.3749 65.534 85.3659 61.324C86.387 60.2475 85.9646 60.5825 86.8791 59.633C87.0071 59.5 87.0574 59.603 87.5818 60.052C87.6939 60.1475 87.7034 60.1605 85.5906 62.484Z" fill="#333333"/>
<path d="M32.0656 39.8361C33.4722 39.5531 33.649 39.4881 34.0146 39.4976C35.0426 39.5241 35.9919 40.4011 35.3419 41.5041C34.933 42.1986 34.5136 42.1136 34.7074 42.3326C34.7662 42.3991 34.9056 42.6396 34.9375 42.7301C35.078 43.1321 34.6456 43.4561 34.3368 43.0961C33.9932 42.6956 34.0211 42.5461 33.8607 42.6181C33.4607 42.7971 32.9368 42.9731 32.5114 42.8566C31.9172 42.6941 31.9018 42.2721 32.225 42.0761C32.6708 41.8051 32.9632 41.9871 33.7426 41.5761C33.9867 41.4476 34.3617 41.2721 34.4987 40.9226C34.5649 40.7536 34.5146 40.6466 34.3458 40.5786C34.2656 40.5461 34.17 40.5171 34.0878 40.5286C32.8451 40.6996 32.3381 40.9186 31.4555 40.6921C30.4066 40.4231 30.3812 39.1901 31.2657 38.4271C31.3589 38.3466 31.3111 38.3301 31.0974 37.9066C30.8663 37.4481 31.5173 37.0276 31.8784 37.8291C32.0098 38.1211 31.9914 37.7896 32.8446 37.8531C33.3676 37.8921 33.6395 38.3136 33.4607 38.6021C33.2077 39.0111 32.74 38.3796 31.9486 38.9626C31.8216 39.0561 31.714 39.1866 31.6223 39.3176C31.466 39.5406 31.5725 39.7641 31.846 39.8066C31.9167 39.8176 31.9904 39.8086 32.0616 39.8086L32.0661 39.8356L32.0656 39.8361Z" fill="#333333"/>
<path d="M59.4603 31.1208C59.6033 30.9758 59.3921 30.9063 59.2576 30.6503C59.0519 30.2593 59.3119 30.0228 59.554 30.0993C60.0585 30.2588 59.9848 30.6758 60.2602 30.5958C60.4565 30.5388 60.6607 30.4738 60.8624 30.4708C61.8645 30.4553 61.9576 31.3483 61.3864 31.3243C61.341 31.3223 61.2907 31.3308 61.2519 31.3143C61.0004 31.2103 60.7727 31.3088 60.5521 31.4048C60.2039 31.5563 59.9997 31.7988 59.921 32.0658C59.8384 32.3443 60.2508 32.4633 60.5586 32.3933C61.3849 32.2063 61.8351 31.9738 62.4707 31.9773C63.3288 31.9823 64.2009 32.6308 63.9275 33.5508C63.676 34.3968 63.2073 34.3258 63.3981 34.5668C63.4065 34.5778 63.5933 34.7813 63.6845 35.0178C63.794 35.3028 63.4429 35.5883 63.1864 35.3693C62.6953 34.9498 62.8054 34.8463 62.5713 34.9553C62.1459 35.1538 61.9193 35.3773 61.2155 35.2863C60.8455 35.2388 60.7125 34.9468 60.7847 34.7878C61.0477 34.2118 62.1912 34.4178 62.9129 33.4868C63.0126 33.3583 63.0773 33.2113 62.9876 33.0623C62.6774 32.5458 61.0666 33.7023 59.6785 33.2268C58.8836 32.9543 58.6564 31.9353 59.4603 31.1208Z" fill="#333333"/>
<path d="M47.8279 41.0931L47.4982 40.7622C47.4858 40.7497 47.4668 40.7442 47.4494 40.7492C42.1141 42.2312 40.976 42.4482 35.0619 44.3082C34.2575 44.5612 31.3413 45.4967 30.4817 45.5642C30.0673 45.5967 30.2944 45.5747 28.6478 43.3957C26.3671 40.3772 26.2302 40.3136 24.855 38.3296C24.7514 38.1796 26.7073 37.9512 29.3451 37.0842C30.3298 36.7602 31.7617 36.3937 33.486 36.0917C35.1904 35.7907 40.4236 34.1391 40.717 34.0866C40.7648 34.0786 40.7733 34.0127 40.729 33.9927C40.6044 33.9337 40.5671 33.7567 40.3898 33.6267C40.316 33.5722 39.9744 33.8097 37.4497 34.4662C34.8363 35.1482 35.1008 35.2117 32.8893 35.6397C29.5707 36.2807 29.0801 36.7961 25.5971 37.5446C25.2624 37.6166 24.4759 37.8527 24.4491 37.8652C24.0606 38.0447 24.0705 38.1287 24.2399 38.4367C24.8879 39.6147 28.1173 43.6387 28.837 44.6642C29.1434 45.1037 29.2748 45.3012 29.612 45.7307C30.3567 46.6787 30.02 46.2667 38.253 43.8711C41.8013 42.8392 47.823 41.2091 47.8404 41.1416C47.8444 41.1246 47.8399 41.1067 47.8274 41.0942L47.8279 41.0931Z" fill="#333333"/>
<path d="M74.6625 39.743C74.9115 39.6545 75.2656 39.5865 75.5789 39.437C75.9231 39.273 75.7473 38.8641 75.5137 38.6781C75.0609 38.3171 74.7058 38.1881 74.2705 37.8791C74.3467 37.8531 74.4224 37.8271 74.4981 37.8016C74.5145 37.7961 74.535 37.8006 74.5514 37.7951C74.7456 37.7291 74.9474 37.675 75.1336 37.59C75.4788 37.433 75.5545 37.0465 75.2821 36.792C74.9374 36.4695 74.8104 36.4471 74.4045 36.2196C74.3547 36.1916 74.3522 36.1365 74.4199 36.117C74.4548 36.107 74.4926 36.1145 74.5275 36.105C74.7974 36.03 75.0853 36.0155 75.2845 35.7575C75.4982 35.481 75.4843 35.2305 75.174 35.0095C69.358 30.862 69.7087 31.428 67.4046 29.684C65.7894 28.461 66.0464 28.582 64.9989 27.894C64.4784 27.552 63.678 27.108 63.5465 27.01C62.911 26.5355 61.8651 26.6675 56.5766 27.951C53.7684 28.632 52.6294 28.894 49.8357 29.656C49.4408 29.7635 49.2306 29.3175 48.6309 29.29C46.7806 29.569 46.7676 29.637 45.4672 29.966C44.8879 30.1125 44.3012 30.23 43.7319 30.408C42.5525 30.776 41.888 30.8445 41.6091 30.9175C39.4161 31.492 38.1744 31.7365 38.1371 32.556C38.1241 32.8425 38.0061 32.7566 35.2194 33.3921C34.8797 33.4696 34.546 33.576 34.2063 33.6555C29.6286 34.73 22.8229 36.038 21.7491 36.5845C21.2167 36.8555 21.3855 37.2481 21.6101 37.7256C21.6948 37.9056 21.5882 37.8235 21.0897 38.0915C20.861 38.2145 20.62 38.451 20.7664 38.771C20.8302 38.9105 21.2774 39.717 21.391 39.889C21.4996 40.0535 21.3462 40.0196 20.9617 40.1851C20.3934 40.4301 20.2927 40.795 20.5667 41.278C21.0453 42.122 21.1385 42.035 20.8889 42.1935C20.2654 42.59 20.0029 42.677 20.1523 43.0975C20.2858 43.471 20.368 43.579 20.8835 44.22C21.0702 44.452 20.9626 44.383 20.4193 44.7675C20.2564 44.883 20.1209 45.0495 20.1762 45.24C20.2474 45.485 20.3281 45.644 20.4875 45.842C23.7548 49.909 22.5789 48.625 24.349 50.8845C25.004 51.7205 25.0438 51.7025 26.6845 53.795C28.0093 55.485 26.9619 54.164 28.2375 55.669C28.9935 56.5605 29.2884 56.944 29.9653 56.726C32.5283 55.9005 32.5024 55.818 33.4752 55.4925C43.6158 52.099 46.9728 51.2545 47.328 51.1285C47.7468 50.9795 47.8499 50.8505 48.1348 51.123C48.6882 51.651 49.1873 51.3265 50.8841 50.83C51.4156 50.6745 51.9191 50.4285 52.469 50.3245C52.7574 50.2705 53.0363 50.167 53.3227 50.099C53.635 50.0255 55.3608 49.667 57.0985 49.1585C57.5856 49.016 58.0588 48.8225 58.538 48.652C58.7855 48.564 58.8971 48.367 58.9558 48.1295C59.0525 47.7385 59.0156 47.7655 59.1715 47.73C59.7986 47.5865 59.1556 47.6535 65.4178 46.0555C66.7571 45.7135 68.1293 45.274 69.0034 45.1495C69.4417 45.087 69.2031 45.1705 74.3248 43.882C74.649 43.8005 75.171 43.761 75.5201 43.452C75.7403 43.257 75.5993 42.815 75.3837 42.619C74.141 41.4895 73.7684 41.639 74.5713 41.445C75.1441 41.307 75.7497 41.0415 75.3772 40.5835C75.1899 40.3535 74.4886 39.8605 74.4886 39.815C74.4891 39.7205 74.6012 39.7625 74.662 39.741L74.6625 39.743ZM74.5105 37.034C74.5688 37.081 74.5753 37.106 74.5071 37.1485C74.2974 37.279 74.0648 37.3445 73.8302 37.4055C73.751 37.4265 64.079 39.898 59.5411 40.9945C59.4594 41.014 59.4479 40.9715 59.4474 40.9105C59.4459 40.72 59.4429 40.72 59.4574 40.72C59.5072 39.676 59.4564 39.7316 59.6168 39.6781C60.7952 39.2846 73.0153 36.1935 73.3744 36.36C73.7759 36.5465 74.1629 36.756 74.51 37.034H74.5105ZM25.0045 36.2905C30.3667 35.012 33.7351 34.5185 39.0341 32.9945C39.18 32.9525 39.2398 32.9555 39.4754 33.1645C40.098 33.717 40.8894 34.5626 41.4009 35.0586C41.6485 35.2981 41.6031 35.281 41.504 35.3485C40.7549 35.856 39.9227 36.5605 39.71 37.436C39.5053 38.2785 39.8988 38.965 40.6513 39.3905C42.3602 40.3575 44.2579 39.9815 45.5887 39.7C45.7018 39.676 45.8243 39.5885 45.9174 39.616C46.0454 39.654 47.8146 41.5325 48.1851 42.1055C47.8554 42.3045 35.8221 45.644 30.1625 48.0735C29.7406 48.2545 29.6455 47.9691 24.9736 41.4556C23.8774 39.9266 22.4344 38.1271 21.9573 37.2331C21.785 36.9096 22.4554 36.899 25.004 36.291L25.0045 36.2905ZM41.7556 35.6685C41.8716 35.5855 41.8836 35.587 41.9842 35.686C42.1704 35.868 43.453 37.1665 44.3445 38.049C45.4856 39.178 45.6111 39.18 45.4398 39.215C43.701 39.569 42.7935 39.484 42.4514 39.4165C40.7933 39.0895 39.5825 38.3525 40.5064 36.932C40.8361 36.4255 41.2665 36.018 41.7546 35.669L41.7556 35.6685ZM21.2874 38.8275C21.134 38.536 21.3392 38.4755 21.6779 38.3355C22.1331 38.147 21.8114 38.213 23.7972 40.6665C25.0752 42.2455 25.8353 43.5695 27.5576 45.953C28.0895 46.6895 29.2311 48.049 29.4642 48.343C29.6759 48.6095 29.9488 48.616 30.2691 48.504C35.8016 46.5655 39.6522 45.0675 48.2349 42.6655C48.5039 42.59 48.4441 42.6395 48.4441 43.359C48.4441 44.107 48.4765 44.032 48.2693 44.0885C42.2447 45.737 42.8364 45.844 38.8762 46.7845C36.616 47.3215 35.2318 47.9305 34.1256 48.3285C32.6518 48.859 30.6695 49.5055 29.7262 49.842C29.5668 49.899 29.4712 49.867 29.3755 49.748C24.1349 43.229 25.1454 44.402 24.0611 42.8525C21.9772 39.8755 22.0549 40.289 21.2864 38.827L21.2874 38.8275ZM48.2907 48.8805L48.2693 48.8795C48.2618 49.286 48.2354 49.692 48.2225 50.098C48.219 50.2015 47.9316 50.2455 46.8941 50.562C46.0046 50.833 44.5492 51.328 42.4494 51.946C38.7866 53.0235 40.1548 52.6165 30.0539 56.0105C29.775 56.1045 29.6056 56.2415 29.3835 56.026C28.0905 54.7705 22.1505 47.283 20.7858 45.2705C20.6987 45.142 20.8531 45.156 21.2306 44.838C21.3053 44.775 21.3467 44.7825 21.4019 44.8535C22.1471 45.807 27.1068 52.4985 29.0324 54.345C29.4488 54.7445 30.6073 54.173 32.9935 53.306C35.3449 52.4515 35.8559 52.4245 36.3092 52.212C36.8645 51.9515 37.4687 51.8435 38.0405 51.6315C39.1153 51.2325 40.9422 50.6525 41.6729 50.466C41.7077 50.457 48.1458 48.538 48.1577 48.5345C48.3176 48.4895 48.2907 48.5835 48.2907 48.8805ZM47.3992 48.2075C47.0869 48.299 47.4027 48.224 40.8481 50.2075C37.9075 51.0975 39.1915 50.7905 36.5462 51.576C36.082 51.714 35.8998 51.834 33.5519 52.626C32.2633 53.0605 30.2163 53.7255 29.6863 53.9205C29.3372 54.049 29.2784 53.824 28.9856 53.558C28.1284 52.779 23.2378 46.5395 22.4758 45.545C20.5642 43.052 20.5756 43.0395 20.6947 42.9535C21.255 42.55 21.3138 42.453 21.4298 42.5955C22.2621 43.619 21.8691 43.249 22.7965 44.4075C26.4225 48.9375 27.0366 50.3595 29.0657 52.181C29.526 52.594 29.3432 52.71 31.5312 51.9415C45.5249 47.0265 41.9393 48.449 45.6848 47.3945C48.5632 46.584 48.349 46.4355 48.342 46.9515C48.3241 48.293 48.5124 47.881 47.3992 48.2075ZM48.3918 46.03C48.3769 46.2215 48.3908 46.082 46.2486 46.7575C45.7899 46.9025 43.18 47.5565 42.7118 47.6655C40.7943 48.112 34.6436 50.273 31.4674 51.2925C30.8697 51.4845 30.4055 51.7565 30.0639 51.838C29.772 51.9075 29.5967 51.977 29.1937 51.594C28.4661 50.9015 28.3844 50.9745 26.289 48.236C25.9334 47.771 25.0289 46.631 24.7923 46.2845C24.0073 45.1355 23.7618 45.0555 22.8628 43.7115C21.4343 41.576 21.528 41.8705 21.0468 40.96C20.8994 40.6805 21.1051 40.621 21.5036 40.41C21.7028 40.3045 21.6649 40.25 21.8482 40.5015C23.7304 43.081 23.4445 42.6555 24.2658 43.953C24.7774 44.761 28.2106 49.1745 28.75 49.8155C28.9303 50.0295 29.1395 50.216 29.3885 50.3525C29.7043 50.5245 29.5444 50.5045 32.9786 49.3125C34.9992 48.6115 35.6577 48.1835 39.0177 47.2995C39.8365 47.084 40.9009 46.9525 44.9691 45.5575C45.7177 45.301 45.7481 45.361 48.0442 44.693C48.478 44.567 48.4531 44.532 48.4531 44.8935C48.4531 45.5455 48.48 44.911 48.3918 46.03ZM50.5534 49.1775C50.533 49.712 50.5185 49.9825 50.4419 50.017C50.3204 50.0715 50.1924 50.1165 50.0624 50.142C50.02 50.1505 49.9398 50.0975 49.9169 50.0515C49.6798 49.5765 50.1774 44.3685 50.0091 42.2345C49.9548 41.5465 49.4702 41.2715 45.4338 37.0275C44.1269 35.653 44.4436 36.029 44.1 35.6795C42.2526 33.8005 43.2542 34.745 41.0274 32.6635C40.726 32.382 40.2673 32.0665 40.6857 31.9015C40.727 31.8855 40.7749 31.88 40.8117 31.857C41.2157 31.6025 41.4223 32.0995 41.8183 32.4535C43.3957 33.864 44.4322 34.9601 45.8118 36.3851C49.9871 40.6976 50.6924 41.2435 50.7242 42.1615C50.7925 44.141 50.8149 42.324 50.5539 49.177L50.5534 49.1775ZM56.4321 40.653C54.0314 41.4535 52.8375 41.6286 52.1014 41.8016C51.2726 41.9966 51.3922 41.464 51.6292 41.36C52.1099 41.1495 55.1287 40.4205 56.2214 40.1955C56.7773 40.081 56.6279 40.5875 56.4316 40.653H56.4321ZM58.0538 41.1485C58.0284 42.696 57.6564 47.825 57.6514 47.883C57.636 48.054 57.5842 48.17 57.4138 48.248C57.1294 48.378 57.0193 48.3055 57.0169 47.9865C57.0114 47.335 57.5104 42.7675 57.3281 40.2985C57.3062 40.0025 57.2016 39.7495 56.982 39.534C50.3976 33.0645 48.9422 31.259 47.6771 30.441C47.2607 30.172 47.9017 29.852 48.2648 30.0905C48.6986 30.3755 48.6643 30.2915 50.9708 32.582C51.3155 32.924 51.4176 33.134 51.8992 33.602C53.9971 35.6415 53.1618 34.9225 55.0759 36.665C55.0868 36.675 57.3535 38.8905 57.3645 38.9015C57.8292 39.367 57.9368 39.5146 57.9836 39.9906C57.9916 40.0691 58.0643 40.4696 58.0533 41.1491L58.0538 41.1485ZM54.9648 34.7425C54.2092 34.027 51.0739 30.9075 50.5469 30.461C50.2456 30.206 50.1699 30.158 50.3044 30.1215C60.7444 27.2845 61.1439 27.607 62.2755 27.293C62.4632 27.241 62.9937 27.272 63.2482 27.4345C67.4614 30.1165 65.5792 29.118 69.6778 31.9725C74.5887 35.393 74.2451 35.063 74.6067 35.3695C74.5937 35.373 65.9567 37.2615 59.5062 39.0835C59.3802 39.119 59.3209 39.0901 59.2382 38.9896C58.39 37.9651 55.0261 34.8005 54.9648 34.7425ZM74.6251 42.7565C74.779 42.874 74.8931 43.0375 74.647 43.107C74.0937 43.2645 73.5224 43.3545 73.0492 43.4825C69.746 44.3785 65.2121 45.3085 62.9947 45.9735C62.6107 46.0885 62.2287 46.22 61.8426 46.3365C61.4825 46.4445 61.117 46.5345 60.7569 46.64C58.8891 47.1875 59.0679 47.266 59.0679 46.9525C59.184 45.8475 59.175 46.024 59.1765 45.5205C59.1765 45.313 59.1516 45.4295 62.4463 44.5765C65.7545 43.72 71.8972 42.0495 73.1419 41.8145C73.2295 41.7975 73.2963 41.808 73.3685 41.846C73.4008 41.863 73.4367 41.874 73.4651 41.895C74.1579 42.4055 74.4707 42.6385 74.6246 42.756L74.6251 42.7565ZM74.5902 40.838C73.484 41.1945 59.5396 44.76 59.4355 44.7885C59.1436 44.868 59.291 44.9765 59.291 43.6115C59.291 43.4755 59.3408 43.4115 59.4604 43.375C61.5069 42.7555 61.8486 42.7241 63.04 42.3226C63.5595 42.1471 66.8482 41.5455 67.6531 41.322C68.2747 41.1495 68.9048 41.0241 69.5358 40.8931C70.0698 40.7821 70.5957 40.6305 71.1272 40.5085C72.0536 40.296 73.3486 40.0295 73.6673 39.9445C73.7769 39.915 73.87 39.924 73.9288 40.022C74.1739 40.4315 74.904 40.737 74.5902 40.838ZM69.7301 40.2555C68.4655 40.5575 65.2171 41.266 64.4152 41.4465C61.9966 41.9925 61.7231 42.225 60.583 42.493C59.7229 42.6955 59.3299 43.03 59.3413 42.763C59.3498 42.5605 59.3986 41.714 59.3986 41.708C59.4041 41.49 59.3897 41.6685 69.5323 39.1035C73.6529 38.0615 73.5901 37.958 73.7301 38.1465C73.8885 38.36 74.137 38.437 74.3427 38.5775C75.049 39.0595 74.9578 38.949 75.04 39.074C74.3402 39.3505 71.7408 39.7745 69.7301 40.2555Z" fill="#333333"/>
<path d="M71.571 34.5852C71.4425 34.3142 71.3708 34.3782 70.1346 33.5127C68.6782 32.4922 64.7698 29.5757 63.2069 28.6427C62.6919 28.3352 62.663 28.3087 61.8053 28.4637C58.3433 29.0892 54.3358 29.9032 50.9718 30.9372C50.94 30.9472 50.926 30.9857 50.9454 31.0132C51.2318 31.4212 51.2248 31.4432 51.2752 31.4247C51.8071 31.2237 52.1433 31.1457 53.2082 30.8422C57.3247 29.6682 59.171 29.5697 62.153 28.9477C62.6585 28.8427 62.8373 29.0072 64.0815 29.8922C65.4412 30.8597 65.6215 30.8577 67.5321 32.3497C69.2824 33.7172 70.3965 34.3357 70.7198 34.6402C57.6719 37.7237 57.7162 37.6412 57.8223 37.7562C58.1719 38.1427 58.2197 38.1902 58.2506 38.1902C61.2888 37.4882 70.2038 35.4747 71.4375 34.9552C71.5969 34.8882 71.6542 34.7612 71.571 34.5852Z" fill="#333333"/>
<path d="M70.0518 16.6636C70.273 14.8311 70.2456 15.1601 70.2884 14.7581C70.3133 14.5251 70.3517 14.5926 68.8784 15.0271C68.5193 15.1331 68.334 14.9191 68.4107 14.6996C68.5352 14.3446 68.8759 14.2161 69.3969 14.0246C69.875 13.8486 70.0961 13.8741 69.9901 13.7526C69.9806 13.7416 69.5413 13.2786 68.9197 12.5656C68.7519 12.3726 68.7334 12.0946 68.986 12.0571C69.1095 12.0386 69.2215 12.0721 69.3157 12.1476C69.5273 12.3161 69.738 12.4851 69.9383 12.6661C70.3377 13.0271 70.521 13.3371 70.5534 13.1441C70.7202 12.1511 70.7262 11.9311 71.1152 10.2076C71.1565 10.0246 71.2626 9.94006 71.4061 9.93406C71.9106 9.91306 71.674 10.5951 71.3453 12.3396C71.1326 13.4666 70.9927 13.6186 71.2422 13.5786C72.9705 13.3026 72.1367 13.4631 73.1174 13.4196C73.1458 13.4186 73.1922 13.4426 73.2011 13.4666C73.2459 13.5916 72.9904 13.6476 71.5958 14.1766C71.2377 14.3126 71.7532 14.3316 72.3649 15.5116C72.4142 15.6061 72.4421 15.7091 72.3549 15.7861C72.2553 15.8746 72.1477 15.8136 72.0585 15.7511C71.2263 15.1671 70.9399 14.4726 70.8557 14.8496C70.3123 17.2806 70.398 17.3396 70.2366 17.3411C70.1021 17.3421 70.1305 17.2976 70.0523 16.6651L70.0518 16.6636Z" fill="#333333"/>
<path d="M11.3793 28.9218C11.2816 27.8778 11.2538 27.6793 11.2577 27.3288C11.2612 27.0238 11.6223 26.9888 11.7543 27.1973C12.0835 27.7163 11.9735 28.7348 12.1154 29.1908C12.4222 29.0448 13.0329 28.5323 14.1426 27.9693C14.1665 27.9573 14.2098 27.9693 14.2357 27.9833C14.3841 28.0748 13.5404 28.8303 12.5781 29.7448C13.2062 30.1063 13.4094 30.1973 13.5738 30.4068C13.6838 30.5473 13.6734 30.7478 13.4687 30.6963C13.2201 30.6343 12.5975 30.5003 12.2942 30.4283C12.1294 30.3893 12.1632 30.3673 12.227 31.1163C12.3565 32.6343 12.4003 32.6723 12.2648 32.7258C12.1822 32.7583 12.095 32.7478 12.0477 32.6703C11.9774 32.5553 11.9022 32.4363 11.8689 32.3088C11.5546 31.1148 11.6019 30.8978 11.5675 30.7483C11.5177 30.5338 11.5287 30.6323 10.5047 31.4058C10.4095 31.4778 9.99513 31.7798 9.84073 31.8108C9.63453 31.8528 9.47166 31.6888 9.54039 31.4898C9.67885 31.0858 10.1072 30.7988 10.9245 30.1133C11.0819 29.9813 10.9559 30.0158 10.1296 29.6418C9.31925 29.2753 9.66092 28.7423 9.99513 28.8413C10.4245 28.9688 10.8463 29.1193 11.2717 29.2603C11.3997 29.3028 11.3793 29.3148 11.3793 28.9208V28.9218Z" fill="#333333"/>
<path d="M33.1155 14.293C33.2002 15.472 31.5421 16.3255 30.4399 15.325C29.8138 14.757 29.8063 13.854 30.3443 13.266C31.2328 12.295 33.124 12.823 33.1155 14.293ZM32.471 14.232C32.4491 14.146 32.4312 14.06 32.4048 13.975C32.1388 13.11 30.8443 13.265 30.675 13.9935C30.6008 14.3115 30.679 14.609 30.9474 14.82C31.308 15.1035 31.6676 15.1215 32.0267 14.931C32.2892 14.7915 32.4735 14.5675 32.4715 14.232H32.471Z" fill="#333333"/>
<path d="M86.0892 29.6939C84.6607 29.6024 84.1502 28.0924 85.0174 27.3444C85.2505 27.1429 85.4502 27.1519 85.6355 26.9754C85.8621 26.7599 87.1596 26.9534 87.4509 27.9619C87.7383 28.9559 86.8368 29.7424 86.0887 29.6944L86.0892 29.6939ZM85.8312 27.6164C85.6957 27.6199 85.5722 27.5979 85.4537 27.7144C85.1294 28.0334 85.1165 28.4799 85.4601 28.7834C86.0543 29.3084 86.7616 28.9109 86.7745 28.4239C86.784 28.0689 86.5499 27.7559 86.2008 27.6749C86.0792 27.6469 85.9547 27.6344 85.8307 27.6159L85.8312 27.6164Z" fill="#333333"/>
<path d="M51.6452 20.4525C51.6482 20.8815 51.2806 21.266 50.8373 21.255C50.3463 21.243 50.0375 20.9055 50.027 20.4535C50.0176 20.03 50.423 19.626 50.8264 19.626C51.2831 19.626 51.6417 20.005 51.6452 20.4525Z" fill="#333333"/>
</svg>
