<svg width="101" height="100" viewBox="0 0 101 100" fill="none" xmlns="http://www.w3.org/2000/svg">
<path d="M86.6897 22.458C86.5788 22.1665 86.6781 22.299 87.7809 22.045C88.5092 21.8775 88.5218 21.579 88.5976 21.85C89.2159 24.0585 90.2007 28.9315 90.6103 30.979C90.6721 31.288 90.2429 31.151 88.9213 31.462C88.7205 31.479 88.7963 31.427 88.4364 29.6775C88.1503 28.289 87.0471 23.4 86.6897 22.458ZM86.7399 32.2795C87.9887 32.0395 90.3689 31.773 92.3586 31.291C92.5824 31.237 92.6095 30.933 92.3746 30.9205C92.0218 30.9185 91.6694 30.953 91.3236 31.0235C90.9808 31.0735 91.1384 31.0735 90.5596 28.15C89.1929 21.245 88.9429 21.35 88.5263 21.437C87.8828 21.5288 87.2488 21.6752 86.6305 21.8745C86.1105 22.11 86.2214 21.949 88.3165 31.2805C88.3968 31.637 88.451 31.577 87.2167 31.775C86.6616 31.8645 86.6771 31.8815 86.6475 31.768C86.246 30.218 84.82 23.1775 84.2769 23.3085C83.5902 23.4621 82.9186 23.6749 82.2691 23.9445C82.0141 24.0945 82.1652 23.9645 83.3965 29.753C83.793 31.616 83.6208 31.153 83.8322 32.0495L84.301 32.0565C84.2126 31.3675 84.0214 30.5925 83.8803 29.9125C82.7013 24.229 82.3545 24.3285 82.6305 24.2415C83.9059 23.8415 83.667 23.9175 84.1158 23.645C84.2382 23.5705 84.1705 23.476 84.7181 25.7285C85.5799 29.2815 86.1883 31.755 86.2023 31.8815C85.8213 31.9698 85.4464 32.0818 85.0795 32.217C85.0795 32.217 86.628 32.2765 86.7399 32.2795Z" fill="#333333"/>
<path d="M80.2935 31.7579C79.6866 28.4579 79.2068 27.1134 79.2359 27.0109C80.8802 26.4854 80.7623 26.3609 80.823 26.6169C81.4961 29.4579 81.1242 27.7439 81.8575 31.8429L82.2666 31.8654C82.0834 30.1121 81.7381 28.3794 81.2351 26.6894C81.0052 25.8759 80.6408 26.0439 79.1721 26.5684C78.7204 26.7334 78.8143 26.6344 79.8799 31.7349L80.2935 31.7579Z" fill="#333333"/>
<path d="M76.0527 31.6143L76.5114 31.6353C76.4376 31.3553 76.3282 30.8673 76.1917 30.0768C76.1651 29.9228 76.3357 29.8663 76.7373 29.7668C76.927 29.7198 77.2894 29.6573 77.4526 29.6358C77.6031 29.6168 77.5695 29.7858 77.7392 30.5628C77.8647 31.1378 77.9465 31.4883 77.9836 31.7023L78.4108 31.7218C78.345 31.4218 78.2843 30.7893 77.9946 29.7063C77.8722 29.2478 77.6132 29.1533 76.3834 29.4968C75.6355 29.7063 75.7655 29.7123 75.9723 31.1263C76.0035 31.3413 76.0321 31.4998 76.0527 31.6143Z" fill="#333333"/>
<path d="M78.1321 11.5645C80.7974 13.45 81.331 17.5269 78.8198 19.6119C76.7402 21.3389 73.2844 20.6485 71.7926 17.656C69.5364 13.124 74.1522 8.74995 78.1321 11.5645ZM74.4218 17.657C75.254 18.4795 76.5299 18.7715 77.4374 17.97C79.2083 16.4085 77.4138 12.747 74.999 13.1135C73.2217 13.383 72.7739 16.0275 74.4218 17.657ZM75.8814 11.1285C75.7645 11.1165 75.764 11.1165 75.7645 11.2375C75.7645 11.5425 75.8036 11.6485 75.7996 11.843C75.7835 12.5835 75.6831 12.637 75.8463 12.6805C76.669 12.9088 77.3902 13.4053 77.8962 14.0906C78.4016 14.776 78.6616 15.6104 78.635 16.4604C78.621 16.7149 79.0582 16.582 79.7298 16.954C79.8096 16.9985 79.8382 16.9755 79.8628 16.867C80.4656 14.2025 78.5161 11.392 75.8814 11.1285ZM79.6796 17.538C79.7233 17.4295 79.7177 17.4245 79.5847 17.388C78.492 17.073 78.5773 17.026 78.4764 17.333C78.2993 17.9119 77.9042 18.3999 77.3737 18.695C76.8431 18.99 76.2187 19.069 75.6309 18.9155C75.4257 18.8655 75.502 18.907 75.0823 19.7435C75.0086 19.89 75.0085 19.903 75.1762 19.9435C76.0932 20.182 77.0665 20.0667 77.9017 19.6206C78.7364 19.1746 79.3719 18.4307 79.6796 17.538ZM74.4388 19.681C74.7104 19.799 74.5764 19.781 74.9599 18.9785C75.0773 18.732 75.0833 18.731 74.8424 18.593C74.3917 18.339 73.9981 17.9945 73.688 17.5814C73.3773 17.1683 73.1559 16.6955 73.0384 16.1929C72.9631 15.9064 73.0811 15.996 71.7916 15.9235C71.4307 15.905 72.2439 18.728 74.4388 19.681Z" fill="#333333"/>
<path d="M90.1847 14.58C90.0377 14.3655 89.733 14.357 89.5538 14.688C88.7427 16.1735 88.826 16.014 88.8009 16.219C88.7934 16.2578 88.7989 16.298 88.8169 16.3334C88.8345 16.3687 88.8636 16.3971 88.8993 16.4142C88.9354 16.4314 88.9756 16.4362 89.0147 16.428C89.0534 16.4199 89.0885 16.3991 89.1141 16.369C89.2506 16.2055 89.5016 15.8505 89.6005 15.7115C89.606 15.7667 89.606 15.8223 89.6005 15.8775C89.0594 19.253 89.1693 19.6095 88.8551 19.4195C87.6961 18.6268 86.4669 17.9406 85.1829 17.3695C85.1383 17.3581 85.0986 17.3329 85.069 17.2976C85.0399 17.2624 85.0223 17.2188 85.0193 17.173C85.0042 17.0535 84.9626 16.9387 84.8983 16.8368C84.8341 16.7348 84.7477 16.6481 84.6464 16.5828C84.5445 16.5174 84.43 16.475 84.31 16.4584C84.1901 16.4419 84.0681 16.4517 83.9527 16.487C83.8036 16.5402 83.6781 16.6433 83.5973 16.7787C83.517 16.9142 83.4859 17.0734 83.5105 17.229C83.5853 17.572 73.4476 26.697 75.2496 26.125C75.3053 26.108 76.1531 25.3405 76.2449 25.2515C84.0049 17.8365 83.7117 17.677 84.0009 17.829C84.557 18.121 84.6358 17.587 85.0675 17.8205C85.0825 17.829 88.2944 19.4425 88.5469 19.5705C88.8551 19.7205 88.7271 19.8525 88.7477 19.9895C88.7562 20.0889 88.7934 20.1836 88.8546 20.2626C88.9158 20.3415 88.9986 20.4014 89.0925 20.435C89.1869 20.4686 89.2888 20.4746 89.3867 20.4523C89.484 20.43 89.5729 20.3802 89.6431 20.309C89.7014 20.2576 89.7475 20.1946 89.7797 20.1242C89.8118 20.0537 89.8289 19.9774 89.8299 19.9C89.8304 19.8227 89.8148 19.746 89.7842 19.675C89.7536 19.604 89.7084 19.5401 89.6512 19.4875C89.6236 19.4623 89.6035 19.4297 89.5934 19.3936C89.5839 19.3574 89.5844 19.3192 89.596 19.2835C89.9925 17.356 89.9764 15.187 90.0884 15.427C90.2068 15.8277 90.4518 16.1796 90.7876 16.43C90.8453 16.462 90.9612 16.3575 90.9306 16.227C90.7414 15.6533 90.4909 15.1012 90.1847 14.58Z" fill="#333333"/>
<path d="M81.0052 11.1112C80.6569 11.0657 80.6223 10.7912 80.82 10.6322C81.5825 10.23 82.3841 9.90602 83.2123 9.66522C88.2643 8.17472 87.5897 9.05272 87.41 9.11522C84.7823 9.99972 87.1731 9.04422 81.0052 11.1112Z" fill="#333333"/>
<path d="M89.0633 12.5995C88.2557 12.915 86.2982 13.3995 84.3331 13.9235C82.5035 14.4135 82.5301 14.477 82.3801 14.384C82.107 14.216 82.3695 13.93 82.6581 13.8365C83.3859 13.601 87.5952 12.273 89.0267 12.352C89.5317 12.38 89.5035 12.4285 89.0633 12.5995Z" fill="#333333"/>
<path d="M81.8781 12.6896C81.8264 12.6941 81.7747 12.6825 81.7305 12.6562C81.6859 12.6299 81.6507 12.5903 81.6301 12.5431C81.6096 12.4959 81.6045 12.4434 81.6156 12.393C81.6261 12.3427 81.6527 12.297 81.6914 12.2626C82.2681 11.7866 85.2591 11.0301 86.0427 10.8901C86.8262 10.7501 87.3522 11.0166 86.9431 11.1576C85.5854 11.6261 81.8886 12.6876 81.8781 12.6896Z" fill="#333333"/>
<path fill-rule="evenodd" clip-rule="evenodd" d="M87.8497 4.66684C92.1332 10.4769 93.8037 20.9859 94.5626 28.1544C94.7613 29.8312 94.8527 31.519 94.8356 33.2074C94.8356 33.5931 94.6484 33.6348 93.9783 33.7842C93.9025 33.8012 93.8202 33.8195 93.7314 33.8399C93.2741 33.9451 92.1784 34.1328 90.7202 34.3648C90.7187 34.2066 90.7167 34.0484 90.7132 33.8902C92.4489 33.6181 93.7715 33.3959 94.3216 33.2729C94.3899 33.2577 94.4356 33.2526 94.4642 33.228C94.5395 33.1632 94.4988 32.9635 94.4542 32.0909C94.1505 27.7227 93.5637 23.3786 92.6974 19.0859C91.6448 14.0469 90.2941 9.42636 87.5962 4.93234C87.4752 4.73112 87.0968 4.88407 85.7716 5.41901C83.5044 6.33431 78.4669 8.36796 67.2125 11.6594C67.1533 11.6764 67.224 11.7862 67.3942 12.0507C68.121 13.1793 70.6608 17.1248 72.662 28.7094C72.7634 29.2961 72.9471 30.5499 73.1444 31.9387C72.9943 31.9357 72.8447 31.9328 72.6946 31.9302C71.9719 27.0354 70.5393 19.3594 67.5051 13.0689C66.9751 11.9687 66.5846 11.6567 66.6393 11.4891C66.6744 11.3818 66.8922 11.3338 67.3731 11.1759C69.0993 10.6086 70.1639 10.2814 71.1918 9.96536C73.1268 9.37071 74.9328 8.81566 80.7723 6.77586C86.78 4.67814 87.4682 4.32995 87.7342 4.53243C87.7769 4.5648 87.8085 4.61123 87.8497 4.66684Z" fill="#333333"/>
<path fill-rule="evenodd" clip-rule="evenodd" d="M39.7912 68.5697C39.7707 68.9492 39.7517 69.3097 39.7343 69.6477L6.64706 68.0847C6.60982 68.0862 6.57267 68.0797 6.53789 68.0667C6.50316 68.0532 6.47153 68.0327 6.44508 68.0062C6.41858 67.9802 6.39775 67.9492 6.38395 67.9147C6.37009 67.8802 6.36352 67.8432 6.36462 67.8057C6.36573 67.7687 6.37446 67.7322 6.39032 67.6987C6.40618 67.6652 6.42882 67.6352 6.45683 67.6107C6.48484 67.5857 6.51756 67.5672 6.5531 67.5562C6.58859 67.5447 6.62603 67.5407 6.66312 67.5442C18.0888 67.8317 29.0074 68.1552 39.7912 68.5697Z" fill="#333333"/>
<path d="M28.5326 53.5086C28.4142 53.7436 28.2304 53.9391 28.0031 54.0726C26.8481 54.8631 25.6522 55.5921 24.4202 56.2571C22.1078 57.4171 22.3081 57.3876 22.0842 57.3716C22.1068 57.1946 21.9838 57.2481 23.3536 56.3376C24.237 55.7496 23.9183 55.9606 28.1286 53.3706C28.36 53.2286 28.4433 53.3261 28.5326 53.5086Z" fill="#333333"/>
<path d="M51.43 6.85352C51.802 6.86652 51.9541 10.4195 52.3596 13.865C52.3867 14.0985 52.4214 14.2765 52.2713 14.315C52.2301 14.3337 52.1844 14.3386 52.1403 14.329C52.0961 14.3195 52.0564 14.296 52.0268 14.262C51.4822 13.5145 51.2458 6.84702 51.43 6.85352Z" fill="#333333"/>
<path d="M32.644 57.8285C32.0462 59.5515 29.3106 64.8665 29.281 64.2625C29.2629 63.8995 31.9749 58.099 32.2565 57.7C32.4106 57.4815 32.6214 57.559 32.644 57.8285Z" fill="#333333"/>
<path d="M46.6891 15.9251C46.6806 16.2011 46.4181 16.1681 46.2876 16.0251C44.1945 13.7466 41.8981 10.3511 41.9905 10.2751C42.2103 10.0891 46.5486 15.5811 46.6891 15.9251Z" fill="#333333"/>
<path d="M25.9908 47.6897C26.0387 47.6951 26.083 47.7175 26.1156 47.7528C26.1483 47.7881 26.1671 47.8339 26.1687 47.8818C26.1703 47.9298 26.1545 47.9767 26.1242 48.0141C26.094 48.0514 26.0513 48.0766 26.0039 48.0852C25.8141 48.1407 25.3775 48.1092 23.8159 48.1737C22.7237 48.2187 18.5285 48.5037 19.7 48.1627C21.7589 47.6763 23.882 47.5167 25.9908 47.6897Z" fill="#333333"/>
<path d="M58.4838 14.5708C58.3528 14.7853 58.0627 14.7208 58.0822 14.5323C58.1018 14.3438 60.5468 8.6998 60.7601 8.5498C60.9403 8.9998 59.7271 12.5328 58.4838 14.5708Z" fill="#333333"/>
<path d="M97.807 38.7773C96.3218 37.4018 95.9243 37.5773 93.6409 37.3948C90.7086 37.1573 90.6027 37.3323 90.6188 37.1253C90.7232 35.8614 90.7473 34.5922 90.691 33.3253C90.668 33.1338 90.6042 33.0583 90.3793 33.0428C83.4762 32.2952 76.5379 31.9137 69.5941 31.8998C68.6906 31.8958 68.9727 32.2523 69.0379 33.5313C69.1042 34.8313 69.0972 35.7138 69.0967 36.1813C69.0967 36.4458 69.1092 36.3213 67.8539 36.2928C65.2338 36.2333 65.4401 36.4138 65.5108 36.0178C66.2135 32.0538 65.9837 33.0233 66.1448 31.9403C66.1789 31.7103 66.1297 31.4903 65.6855 31.3568C64.2063 30.9143 64.2846 31.0478 64.3127 30.6933C64.4668 28.7408 64.5717 28.5783 64.266 28.4638C62.6523 27.8638 62.585 28.0348 62.6001 27.8258C62.7863 25.3013 62.9148 25.2138 62.4997 25.1943C61.0275 25.1258 60.7986 25.0358 59.99 25.0343C59.8495 25.0343 59.7852 25.0583 59.7772 24.9193C59.6221 22.2828 59.9037 22.7093 58.3672 22.4503C56.4599 22.1288 51.8978 21.7418 48.1357 21.4813C44.5911 21.2718 41.0376 21.2551 37.4911 21.4313C37.0715 21.4473 37.2402 21.8263 37.2522 22.1478C37.5203 28.6893 37.1373 32.1978 37.1016 35.8353C37.0981 36.1803 37.1177 36.1143 36.8206 36.1273C35.7439 36.1738 35.6817 36.0063 35.502 37.1068C35.0567 39.8383 34.1342 49.4673 34.4248 52.3538C34.5433 53.5298 35.3976 53.3068 36.8843 53.4833C40.9475 53.9643 40.9806 53.6978 40.9234 54.1333C40.1429 60.0738 39.5897 72.4703 39.5988 72.5658C39.6199 72.8008 23.1126 75.9658 13.1055 79.9608C12.465 80.2163 12.4284 80.1283 12.5534 83.2018C12.5428 83.4408 12.6047 83.6773 12.7309 83.8803C12.8572 84.0838 13.0419 84.2443 13.2611 84.3418C13.8172 84.6298 30.3872 89.0463 37.1955 90.5508C45.2295 92.3253 62.1278 95.4938 65.5675 95.4963C65.8321 95.4963 65.8818 95.3723 65.9054 95.1083C65.9179 94.9673 66.1106 93.4688 66.1889 92.8678C66.2698 92.2458 67.1983 92.3933 67.1928 92.9248C67.1893 93.6748 66.8189 95.5543 67.1045 95.4723C70.6682 94.4483 83.8456 87.8723 92.8634 82.6428C96.1762 80.7223 95.6397 78.0428 95.7385 77.6683C96.123 76.2028 99.2471 40.1108 97.807 38.7773ZM69.4229 32.3293C70.09 32.3933 77.082 32.2413 87.6619 33.1053C87.6724 33.1053 90.0957 33.3018 90.166 33.3143C90.425 33.3613 90.2473 35.8703 89.9848 39.6878C89.9733 39.8578 84.2984 39.2408 74.5969 38.8193C69.5384 38.5998 69.4852 38.8373 69.4847 38.5963C69.4847 38.5858 69.6523 33.4558 69.3271 32.4193C69.3015 32.3418 69.3321 32.3208 69.4229 32.3293ZM67.0262 54.4853C67.2415 48.6408 67.4739 46.1718 67.9909 40.3458C68.0913 39.2048 68.0557 39.1958 68.2062 39.1958C73.9042 39.2128 85.364 39.9593 90.9641 40.3068C93.2138 40.4468 92.8007 40.0323 92.7565 41.2813C92.5467 47.2398 92.3615 48.9588 91.8957 54.3183C91.587 57.8683 91.6322 57.7953 91.4073 57.7628C89.9928 57.5628 90.8582 57.9128 76.0365 56.4498C73.7175 56.2208 67.6039 55.4748 67.1371 55.4338C66.8982 55.4113 66.992 55.3763 67.0247 54.4853H67.0262ZM67.1371 57.9303C91.9474 60.6003 91.074 59.9303 91.0048 60.4608C90.9325 61.0108 90.4421 68.0263 90.039 71.7028C89.6289 75.4423 89.5451 75.2908 89.504 76.5888C89.4999 76.7213 88.223 76.1778 67.2852 73.2133C65.8692 73.0133 65.8798 73.0953 65.8958 72.8948C66.0966 70.3813 65.9701 69.6028 66.5925 62.7063C67.0237 57.9183 66.978 57.9133 67.1356 57.9303H67.1371ZM65.4923 39.1998C66.0273 39.2998 66.1889 39.2998 66.1764 39.5278C66.1664 39.74 66.1679 39.9527 66.1809 40.1648C65.8798 47.2943 65.0511 53.7378 65.0501 53.7483C65.0029 54.2628 65.0184 54.4353 64.7378 54.4268C63.7756 54.3973 57.5631 53.8998 57.5521 53.8993C57.2926 53.8788 58.4104 49.5753 58.5474 39.0333C58.553 38.6278 58.4089 38.4888 58.6478 38.4973C60.9442 38.5536 63.2325 38.7885 65.4923 39.1998ZM63.7008 72.8033C63.7425 73.1633 63.7937 72.9133 58.941 72.5753C56.2586 72.3883 42.0899 71.0338 42.1331 70.7578C42.247 70.0373 42.8985 56.6338 43.0049 56.2413C43.0697 56.0023 42.9994 56.0913 44.2924 56.1668C48.8455 56.4403 64.8433 57.6383 64.8433 57.8398C64.8372 57.8903 63.6933 72.7533 63.7008 72.8033ZM64.4894 31.4533C64.6294 31.5033 65.425 31.7593 65.4933 31.7718C65.7799 31.8268 65.7146 31.7633 65.5379 32.8768C65.3266 34.2093 65.0917 35.6483 64.5737 38.5373C64.5331 38.7633 64.5416 38.6708 63.2973 38.5158C63.0754 38.4883 63.2877 38.5033 63.996 33.4833C64.3172 31.1868 64.1486 31.3388 64.4874 31.4543L64.4894 31.4533ZM62.5464 28.4883C62.5584 28.3578 62.5273 28.3993 63.5247 28.6798C64.2203 28.8748 64.0949 28.7208 64.0417 29.1128C64.0989 29.1203 63.0925 35.8413 62.718 38.3383C62.6935 38.5008 62.6935 38.4568 61.8261 38.3513C61.3653 38.2953 61.3171 38.3228 61.3327 38.1888C61.3312 38.1773 61.9943 34.5073 62.5464 28.4883ZM59.7832 25.6723C59.7867 25.4323 59.7651 25.4428 60.0844 25.4663C62.4058 25.6378 62.4269 25.5033 62.3898 25.7808C61.9641 28.9378 62.4294 25.8483 61.9827 29.1668C60.759 38.2528 61.0682 38.2638 60.6822 38.2418C59.076 38.1498 59.1488 38.1823 59.1734 38.0328C59.478 36.1423 59.7275 29.4218 59.7807 25.6723H59.7832ZM37.8686 21.6998C44.1381 21.6968 50.4032 22.0285 56.6371 22.6933C59.3119 22.8908 59.3159 22.8193 59.3044 22.9723C59.2727 23.3968 59.3787 24.5723 59.1889 29.6223C58.8747 37.9893 58.9495 34.5688 58.8727 37.9988C58.8682 38.1888 58.8727 38.1928 58.6594 38.1928C58.6398 38.1957 58.6192 38.1942 58.6001 38.1884C58.5811 38.1826 58.5635 38.1726 58.5489 38.1593C58.5339 38.1459 58.5223 38.1294 58.5148 38.1109C58.5073 38.0925 58.5038 38.0727 58.5048 38.0528C58.4596 37.1463 58.5615 37.4443 57.0421 37.2473C53.391 36.7733 39.7529 36.1643 39.7423 36.1633C37.5268 35.9678 37.5162 36.2973 37.5298 35.9383C37.8234 28.1068 37.96 24.4883 37.4796 21.9163C37.4495 21.7688 37.4369 21.7023 37.8686 21.6998ZM35.0522 52.7798C34.7892 52.7478 34.7742 52.2573 34.8013 51.3753C34.9543 46.5048 35.8885 36.9138 35.9201 36.7633C35.9437 36.6518 35.9246 36.6463 44.8601 37.0868C58.9415 37.7813 58.0355 37.7598 58.0249 37.9258C57.9792 38.6388 57.261 54.6303 56.8775 54.5833C53.9532 54.2253 35.1737 52.7943 35.0522 52.7798ZM66.8053 91.8633C61.4431 90.4133 60.5447 92.2223 13.2556 80.3468C14.6555 79.3943 34.8048 73.9328 39.6972 73.0468C42.3519 73.3698 39.9672 73.2593 47.2262 73.9898C47.2262 73.9898 51.9224 74.3803 54.4215 74.6288C72.8828 76.4633 92.0046 79.5998 92.1005 79.6433C90.8657 80.7148 67.6536 92.0923 66.8053 91.8633ZM91.2035 75.7553C91.1413 76.1188 91.0424 76.0868 90.9144 76.0738C90.1705 75.9993 90.1469 76.0463 90.1389 75.8413C90.1299 75.6273 91.2507 62.1083 91.3621 60.9728C91.3792 60.8008 91.3305 60.7228 92.2656 60.8548C92.3048 60.8588 92.3434 60.8703 92.3781 60.8888C92.4132 60.9073 92.4438 60.9323 92.4689 60.9628C92.4945 60.9933 92.5131 61.0283 92.5246 61.0663C92.5362 61.1038 92.5402 61.1438 92.5362 61.1828C92.5352 61.2328 91.838 72.0338 91.2035 75.7553ZM92.0899 56.6913C92.5357 52.5588 93.0672 45.4413 93.0672 45.3258C93.0672 44.6228 93.0431 41.5893 93.2429 41.4808C93.3307 41.4333 94.1896 41.4158 94.184 41.6808C94.1248 44.5693 94.0023 47.3308 93.7674 49.6048C93.0145 56.8678 93.272 57.0078 92.9553 57.0218C92.5271 57.0393 92.0483 57.0788 92.0899 56.6913ZM94.1906 81.0248C93.8387 81.4753 93.3935 81.8453 92.8855 82.1098C92.8228 81.8203 93.1259 80.1013 93.1144 79.8508C93.0993 79.5248 93.9401 79.2008 95.1222 78.4158C95.1593 78.3963 95.199 78.3808 95.2396 78.3703C95.2396 79.3553 94.8647 80.3038 94.1906 81.0248ZM97.7543 40.6113C97.7543 49.6798 95.5097 77.6923 95.074 77.9348C92.9784 79.1003 93.2846 79.1848 93.4326 77.8083C93.795 74.4488 94.2965 70.5583 94.4972 67.9013C95.0996 59.9333 94.9992 60.4038 95.0418 59.9238C95.0418 59.9133 95.3546 56.8963 95.3556 56.8433C95.3887 54.6373 95.9604 45.8268 96.2089 38.5933C96.2154 38.4043 96.2942 38.3578 96.4598 38.4508C96.5918 38.5206 96.7168 38.6032 96.8328 38.6973C97.923 39.6333 97.7563 39.3703 97.7563 40.6113H97.7543Z" fill="#333333"/>
<path d="M76.6599 85.5655C76.1454 85.3245 47.7804 79.986 41.9469 78.9995C30.6237 77.082 30.6307 77.26 30.5469 76.883C30.4631 76.506 30.975 76.4235 31.87 76.0665C32.9913 75.62 35.5914 74.9255 36.7584 74.62C39.515 73.898 38.9533 74.07 39.8498 74.0785C55.4259 75.421 70.9223 77.557 86.2791 80.4785C86.5526 80.5325 86.7559 80.65 86.5742 80.8595C86.4111 81.0415 77.1373 85.7885 76.6599 85.5655ZM78.1452 79.305C77.9715 79.3665 74.0388 81.152 73.8651 81.305C74.1809 81.408 74.736 81.428 78.6607 82.275C81.7586 82.9435 81.5252 82.9605 81.7797 82.8335C86.1716 80.6415 86.0191 80.771 86.1802 80.654C85.6928 80.5225 78.3218 79.3315 78.1452 79.305ZM73.3165 81.5745C71.9472 82.1565 70.6171 82.8265 69.3351 83.581C71.0849 83.8475 76.0034 84.881 76.9932 85.0675C78.7053 84.2135 80.7869 83.3325 81.2215 83.103C80.4019 82.8495 73.9038 81.665 73.3165 81.5745ZM68.8538 77.8655C68.522 77.98 65.1982 79.6615 65.1259 79.755C65.1866 79.7935 65.1259 79.7645 68.646 80.3655C72.8582 81.085 72.8959 81.252 73.3441 81.0205C74.6446 80.349 77.209 79.3105 77.338 79.223C77.2487 79.1265 68.8643 77.8665 68.8538 77.8655ZM68.6821 83.447C69.0807 83.24 69.4074 82.954 70.5674 82.3705C72.3869 81.455 72.2785 81.531 72.3829 81.4375C72.2243 81.3375 65.8954 80.3095 65.7483 80.2875C64.6184 80.105 64.512 80.0305 64.249 80.18C63.9328 80.3595 61.3066 81.7215 61.02 81.935C61.1265 81.994 68.6701 83.445 68.6821 83.4495V83.447ZM37.5705 77.791C37.6875 77.854 37.8611 77.6785 38.1151 77.5535C40.2549 76.497 40.4943 76.442 40.2273 76.3975C36.1575 75.717 36.0843 75.3025 37.5168 75.5385C41.2311 76.15 40.9746 76.1705 41.2467 76.046C42.0172 75.696 43.7187 74.954 43.8457 74.8785C43.5641 74.769 39.8804 74.456 39.3976 74.353C39.3122 74.3345 32.4738 76.1895 31.2431 76.733C31.345 76.8495 35.9538 77.5195 37.5705 77.791ZM64.3298 79.636C64.6752 79.513 68.1706 77.7965 68.1812 77.79C67.873 77.69 61.2755 76.815 61.265 76.8135C60.3259 76.704 60.2732 76.556 59.6643 76.8755C59.2597 77.0875 57.123 78.3855 57.0367 78.442C57.1099 78.5565 62.2126 79.2955 64.3298 79.636ZM56.4027 78.8275C56.1181 78.962 53.6922 80.413 53.5753 80.5425C53.6712 80.5865 58.5861 81.489 58.5997 81.4925C60.4609 81.878 60.3419 81.8795 60.5457 81.761C63.6888 79.929 63.5945 80.111 63.7079 79.9645L56.4027 78.8275ZM52.6216 75.7405C52.3541 75.7045 52.2703 75.786 51.1158 76.3405C49.1422 77.286 49.2586 77.2185 49.1582 77.313C49.1688 77.316 56.0443 78.338 56.0559 78.3395C56.4429 78.3825 56.1372 78.4745 58.7222 77.022C59.468 76.603 59.2372 76.776 59.4565 76.5825C59.1508 76.5165 52.9424 75.783 52.6216 75.7405ZM52.9007 80.4365C53.0829 80.4685 53.1321 80.3215 54.2253 79.632C54.803 79.2675 55.4802 78.8785 55.6684 78.7485C55.3517 78.631 51.2734 78.0985 48.5318 77.666C48.2834 77.627 45.6276 79.032 45.5789 79.082C45.6738 79.1615 45.5754 79.1635 52.9007 80.4365ZM44.7869 74.944C44.4993 74.9125 44.5063 74.9645 42.2646 75.997C41.9002 76.165 41.846 76.1925 41.85 76.2075C41.8741 76.2945 48.0776 77.174 48.0896 77.1755C48.4731 77.219 48.199 77.293 51.5977 75.7085C51.8863 75.574 47.9275 75.2915 44.7869 74.944ZM44.9063 78.994C44.9169 78.989 47.5666 77.5845 47.5766 77.578C47.4446 77.4685 47.5812 77.5455 44.4726 77.078C41.2246 76.5895 41.1458 76.489 40.8406 76.643C40.1023 77.0155 39.3469 77.356 38.601 77.714C38.1693 77.921 37.8044 77.799 41.3616 78.3995C41.4229 78.412 44.8436 78.9865 44.9063 78.996V78.994Z" fill="#333333"/>
<path d="M52.5543 88.2841C52.2857 88.2481 44.9364 86.5476 33.1659 83.4466C32.9486 83.3896 32.6886 82.9816 33.0475 82.8076C33.4907 82.5931 39.4171 79.8881 39.8061 79.7866C41.1262 79.4411 57.8497 83.2896 59.1809 83.5996C59.2496 83.6056 59.3149 83.6336 59.3661 83.6801C59.4178 83.7261 59.4519 83.7881 59.465 83.8556C59.4775 83.9236 59.4675 83.9936 59.4358 84.0551C59.4047 84.1166 59.354 84.1661 59.2918 84.1961C57.148 85.5566 52.9849 88.1141 52.5543 88.2841ZM40.1564 79.9841C39.5365 80.2341 38.1803 80.9841 33.4761 83.1241C33.2894 83.2091 33.7913 83.2896 34.8369 83.5466C35.3599 83.6751 47.7869 86.7346 52.3264 87.9336C52.6 88.0061 52.484 87.9486 54.3447 86.8066C56.8659 85.2596 58.957 84.0326 59.0795 83.8736C58.9163 83.7651 43.2268 80.6186 40.1564 79.9851V79.9841Z" fill="#333333"/>
<path d="M84.1724 47.4719C84.069 48.5794 84.1548 49.1719 83.5565 49.0529C83.5455 49.0529 74.1467 48.1589 74.1351 48.1589C73.9153 48.1419 73.8962 48.1909 74.0006 47.1909C74.0368 46.8409 74.101 46.5909 74.1105 46.3299C74.1171 46.1249 74.0849 46.0519 75.1144 46.0569C78.2801 46.0724 83.8557 46.7724 83.8667 46.7704C84.1915 46.6864 84.1563 47.1379 84.1724 47.4719Z" fill="#333333"/>
<path d="M82.3799 69.061C80.0108 68.7815 73.988 68.0875 72.6368 67.608C72.566 67.449 72.5234 67.2785 72.5118 67.105C72.543 66.5405 72.6283 65.98 72.7668 65.432C73.1182 65.35 73.4831 65.346 73.8365 65.419C73.847 65.419 77.4364 65.8235 77.8264 65.8735C83.184 66.5575 83.1499 66.4595 83.1589 66.9425C83.1991 69.1565 82.9988 69.1345 82.3799 69.061Z" fill="#333333"/>
<path d="M49.5282 44.3347C50.6159 44.4237 50.3629 44.6807 50.2514 45.7197C50.1877 46.3152 50.2093 46.6197 50.0472 46.7557C49.8278 46.9437 42.2882 46.2557 41.8375 46.1952C40.1886 45.9827 40.1269 45.9542 40.1971 45.4832C40.3015 44.7877 40.1761 43.7447 40.5651 43.7112C43.152 43.4887 48.568 44.2557 49.5282 44.3347Z" fill="#333333"/>
<path d="M57.0633 64.1844C57.2796 64.2139 57.3263 64.2524 57.264 65.1874C57.2465 65.3789 57.2174 65.5694 57.1767 65.7574C57.1752 65.8189 57.1611 65.8799 57.1355 65.9359C57.1099 65.9919 57.0728 66.0419 57.0266 66.0829C56.9804 66.1239 56.9262 66.1554 56.8675 66.1749C56.8088 66.1944 56.747 66.2014 56.6853 66.1959C56.6853 66.1959 54.1651 66.0334 53.7008 65.9814C53.1371 65.9189 52.5403 65.7739 52.0052 65.7314C51.7954 65.7149 48.4772 65.4659 48.4385 65.2599C48.4209 64.7309 48.4377 64.2019 48.4887 63.6749C48.5023 63.3884 48.6393 63.4414 49.352 63.4414C49.3545 63.4329 51.695 63.4494 57.0633 64.1844Z" fill="#333333"/>
<path d="M54.9406 32.1734C54.8904 32.6634 54.9862 32.5404 55.174 32.5734C55.8265 32.6919 55.6644 32.7329 55.7452 30.8234C55.817 29.1184 55.7131 28.9084 56.3917 29.0189C57.2113 29.1524 57.2952 29.1779 57.3393 29.3014C57.4136 30.4061 57.3664 31.5155 57.1988 32.6099C57.1626 32.7459 57.1943 32.7249 57.5255 32.7754C57.6922 32.8009 57.6832 32.9844 57.514 33.0009C57.4608 33.0059 56.6763 33.0009 56.3696 32.9839C46.0101 32.4074 46.5472 32.4419 46.7324 32.2224C46.8207 32.1164 46.8589 32.1414 47.7714 32.1399C48.0525 32.1399 48.1077 32.1629 48.1112 31.9784C48.1078 30.8071 48.1657 29.6363 48.2849 28.4709C48.5579 24.1424 48.45 24.1879 48.8646 24.1834C49.3937 24.1585 49.9239 24.1946 50.4447 24.2909C50.7654 24.3344 49.7872 32.2409 50.1285 32.2459C50.8573 32.2549 50.6661 32.4869 50.785 30.8789C50.8448 30.0679 50.9451 29.4349 51.048 27.5169C51.0716 27.0804 52.6904 27.2949 52.7692 27.5199C52.9363 27.9964 52.6502 30.3699 52.5398 32.1504C52.5242 32.4074 52.4846 32.4274 52.9554 32.4124C53.2285 32.4039 53.0237 32.4199 53.2932 29.1454C53.486 26.8064 53.4061 26.9954 53.494 26.1484C53.5191 25.9084 53.5592 25.9144 54.5802 25.9754C54.7463 25.987 54.9115 26.0101 55.0746 26.0444C55.2548 26.0804 55.2548 26.0879 55.2568 26.2694C55.2683 27.8039 55.1243 30.4204 54.9406 32.1734ZM51.4205 27.5334C51.2197 27.5334 51.3397 27.5269 51.0937 31.1139C50.9963 32.5244 50.6595 32.2899 52.078 32.3579C52.3681 32.3719 52.197 32.3049 52.3912 29.9814C52.5077 28.5914 52.4966 28.6009 52.4991 28.5904C52.5393 28.2754 52.5544 27.9578 52.5438 27.6404C52.5579 27.4539 51.5891 27.5339 51.4205 27.5334ZM56.7531 32.7084C57.0226 32.7274 56.8971 32.7304 57.0261 30.6509C57.1411 28.7954 57.2881 29.5954 56.2265 29.3409C56.1342 29.3189 56.1096 29.3474 56.1106 29.4629C56.1156 30.0969 56.0634 30.4059 55.8953 32.4354C55.8732 32.7049 55.9133 32.6499 56.7531 32.7084Z" fill="#333333"/>
<path d="M42.5075 30.6158C37.9765 30.3538 38.0282 24.4243 41.5985 23.6948C42.0206 23.6083 41.9162 23.7763 42.4327 25.4823C42.5542 25.8823 42.2901 25.7973 41.7802 26.1498C40.3747 27.1283 42.0522 29.1893 43.2795 28.1318C44.0238 27.4908 43.5304 27.1098 44.0364 26.9633C44.3792 26.8796 44.731 26.8385 45.0839 26.8408C45.9407 26.7733 45.9779 26.7113 45.9919 27.0298C46.0371 27.8501 45.7808 28.6586 45.271 29.3044C44.7611 29.9501 44.0327 30.3887 43.2217 30.5383C42.9856 30.5794 42.747 30.6052 42.5075 30.6158ZM39.3327 27.0228C39.3548 27.4215 39.4453 27.8135 39.6003 28.1818C39.6419 28.3093 39.6118 28.2928 40.9505 27.6168C41.1297 27.5268 40.6759 26.6893 41.5568 25.9803C42.2294 25.4388 42.3007 26.0873 41.8414 24.5803C41.6537 23.9648 41.6803 23.9643 41.5699 24.0028C40.9292 24.2139 40.3701 24.6177 39.9694 25.1586C39.5688 25.6995 39.3463 26.3508 39.3327 27.0228ZM45.6215 27.4378C45.6215 26.9778 45.6908 27.0718 44.591 27.2158C44.2582 27.2593 44.2116 27.2563 44.1654 27.3473C44.1246 27.6849 43.979 28.0013 43.7487 28.2523C43.5185 28.5034 43.2153 28.6764 42.8814 28.7473C42.6013 28.7973 42.781 29.1718 42.4839 30.0373C42.4628 30.0998 42.501 30.1413 42.5672 30.1373C42.8051 30.1281 43.0424 30.1062 43.278 30.0718C43.9072 29.9552 44.4793 29.6328 44.9039 29.1557C45.3284 28.6786 45.5809 28.074 45.6215 27.4378ZM42.3017 28.9313C42.3629 28.5813 41.7089 28.8353 41.221 28.0543C41.1086 27.8738 41.1708 27.9188 39.8723 28.5393C39.7855 28.5808 39.8131 28.6308 39.918 28.7763C40.1567 29.1267 40.4644 29.425 40.8226 29.6531C41.1807 29.8813 41.5816 30.0344 42.001 30.1033C42.1953 30.1358 42.0934 30.1288 42.3017 28.9313Z" fill="#333333"/>
<path d="M44.855 23.237C44.983 23.3225 44.9258 23.4045 44.6738 23.893C44.5017 24.2275 43.7668 25.655 43.6479 25.8555C43.5635 25.998 43.4657 25.932 43.1339 25.8725C42.7655 25.8065 42.907 25.8655 42.5843 23.3505C42.5572 23.1415 42.5491 23.0285 42.7208 22.9745C43.0754 22.8686 43.4482 22.8372 43.8156 22.8824C44.183 22.9276 44.5369 23.0483 44.855 23.237Z" fill="#333333"/>
<path d="M47.0471 33.7948C46.8117 33.7563 46.9352 33.4788 47.2689 33.4738C47.7357 33.4673 55.7968 33.6788 55.7747 34.0738C55.7637 34.2738 55.5423 34.2168 54.4697 34.2193C51.9896 34.2178 49.5113 34.0761 47.0471 33.7948Z" fill="#333333"/>
<path d="M47.2062 34.8916C47.2168 34.5826 48.3557 34.8101 49.7837 34.8416C49.7942 34.8416 52.8193 34.9651 53.1065 35.0806C53.1285 35.093 53.1461 35.1115 53.1571 35.1339C53.1687 35.1562 53.1732 35.1815 53.1697 35.2063C53.1667 35.2312 53.1561 35.2545 53.1396 35.2733C53.123 35.2922 53.1009 35.3057 53.0768 35.3121C53.0658 35.3151 47.1871 35.4296 47.2062 34.8916Z" fill="#333333"/>
<path d="M44.2542 31.8757C44.2922 31.8861 44.3253 31.9093 44.3479 31.9415C44.3705 31.9736 44.3812 32.0125 44.378 32.0516C44.3749 32.0907 44.3581 32.1275 44.3307 32.1556C44.3032 32.1838 44.2668 32.2015 44.2276 32.2057C43.8256 32.2611 43.4177 32.2601 43.0159 32.2027C41.1809 32.1142 39.807 32.0647 39.7634 31.7867C39.7428 31.6562 40.1213 31.5867 40.2528 31.5657C40.5805 31.5132 43.928 31.8157 44.2542 31.8757Z" fill="#333333"/>
<path d="M46.1671 25.2913C46.0196 25.5282 45.8027 25.7142 45.5457 25.8243C44.08 26.6638 44.1111 26.6678 44.0293 26.5743C43.9526 26.4701 43.8703 26.3699 43.7829 26.2743C43.7631 26.2605 43.7468 26.2423 43.735 26.2213C43.7233 26.2003 43.7165 26.1769 43.7151 26.1528C43.7137 26.1288 43.7178 26.1048 43.727 26.0825C43.7362 26.0603 43.7503 26.0404 43.7683 26.0243C45.249 24.0853 45.2656 24.1958 45.5437 24.4013C45.8242 24.6403 46.0387 24.9466 46.1671 25.2913ZM44.1538 26.3963C46.0336 25.1598 45.9342 25.2763 45.8448 25.1703C45.2982 24.5203 45.3329 24.5003 45.2345 24.6288C43.9676 26.2833 43.8205 25.9998 44.1538 26.3963Z" fill="#333333"/>
<path d="M42.3851 33.3693C41.7325 33.3428 39.5782 33.3378 39.7248 32.9883C39.8473 32.6973 40.4938 32.8068 40.8863 32.8268C43.1987 32.9453 43.2122 32.9713 43.2122 33.1508C43.2128 33.5288 42.3881 33.3098 42.3851 33.3693Z" fill="#333333"/>
<path d="M39.8296 34.2424C39.8542 33.8124 42.4222 34.1424 42.8493 34.2104C43.0124 34.2369 43.0576 34.2699 43.0646 34.3604C43.0777 34.5164 42.8368 34.5279 42.6791 34.5284C41.723 34.5294 39.8086 34.5969 39.8296 34.2424Z" fill="#333333"/>
<path d="M57.7815 24.0325C57.8222 24.0342 57.8598 24.0518 57.8874 24.0815C57.9145 24.1112 57.9291 24.1505 57.9276 24.1907C57.9256 24.231 57.908 24.2689 57.8779 24.2961C57.8483 24.3234 57.8091 24.3377 57.7685 24.336C56.9157 24.3622 56.0629 24.3042 55.2216 24.163C55.196 24.1511 55.175 24.1319 55.1604 24.1078C55.1463 24.0838 55.1393 24.056 55.1413 24.028C55.1428 24.0001 55.1529 23.9733 55.1704 23.9512C55.1875 23.9291 55.2111 23.9126 55.2377 23.904C55.5384 23.7605 57.4267 23.9685 57.7815 24.0325Z" fill="#333333"/>
<path d="M55.7928 24.9299C55.4746 24.8534 55.5639 24.6239 55.7928 24.6009C55.9645 24.5834 55.8059 24.5249 56.6552 24.6219C56.8128 24.6399 57.5376 24.7409 57.6932 24.7719C57.9306 24.8219 57.9306 25.1319 57.643 25.1359C57.0221 25.1111 56.4037 25.0423 55.7928 24.9299Z" fill="#333333"/>
<path d="M57.7514 25.7231C57.7012 25.8641 57.0487 25.7761 56.9011 25.7281C56.7199 25.6701 56.7299 25.5046 56.8394 25.4706C57.2018 25.3576 57.8784 25.3826 57.7514 25.7231Z" fill="#333333"/>
<path d="M84.848 35.7889C85.0247 34.6584 85.1838 35.0719 82.7399 37.2864C82.6194 37.3959 82.8262 37.7239 82.4543 37.9014C82.3675 37.9473 82.2696 37.9668 82.1717 37.9576C82.0743 37.9485 81.9815 37.911 81.9047 37.8499C81.8284 37.7888 81.7717 37.7067 81.7415 37.6138C81.7109 37.5208 81.7089 37.4211 81.735 37.3269C81.7737 37.1964 81.8946 37.2124 81.7415 36.9734C81.3405 36.3618 80.9721 35.7298 80.6373 35.0799C80.4977 34.8219 80.4114 34.9259 80.3818 34.9004C80.1414 34.6939 80.1524 34.8309 78.5422 36.0839C77.0544 37.2419 77.0514 37.1369 77.0364 37.3839C77.0278 37.4607 77.0017 37.5346 76.9601 37.5997C76.9184 37.6648 76.8622 37.7195 76.7959 37.7595C76.7292 37.7996 76.6549 37.8239 76.5776 37.8305C76.5003 37.8372 76.4225 37.826 76.3502 37.7979C76.292 37.7759 76.2393 37.7419 76.1951 37.698C76.1515 37.6541 76.1173 37.6014 76.0952 37.5434C76.0731 37.4854 76.0636 37.4234 76.0676 37.3615C76.0716 37.2996 76.0887 37.2393 76.1178 37.1844C76.2026 37.0084 76.172 37.1344 74.7249 35.5344C73.4932 34.1694 74.2386 33.9604 71.8202 36.4209C71.7535 36.4889 70.8791 37.3784 70.7767 37.4434C70.6557 37.5199 70.1513 37.4984 71.251 36.3604C71.8795 35.6632 72.5641 35.0186 73.2984 34.4329C73.4571 34.3029 73.2161 34.2129 73.2769 34.0069C73.2949 33.9061 73.3471 33.8145 73.4249 33.7473C73.5022 33.68 73.6006 33.6411 73.7035 33.6371C73.8064 33.633 73.9073 33.6639 73.9901 33.7248C74.0724 33.7857 74.1322 33.8729 74.1583 33.9719C74.2085 34.2629 74.3671 34.3219 75.5767 35.7669C77.1463 37.6389 75.8844 37.0949 79.4984 34.8639C79.93 34.5974 80.042 34.6089 80.0194 34.4114C80.0088 34.3327 80.0184 34.2526 80.047 34.1786C80.0761 34.1047 80.1238 34.0393 80.185 33.9887C80.2468 33.9381 80.32 33.9039 80.3983 33.8894C80.4767 33.875 80.5575 33.8806 80.6333 33.9059C80.7472 33.9459 80.8426 34.0252 80.9028 34.1294C80.963 34.2336 80.9841 34.3558 80.9615 34.4739C80.9445 34.536 80.942 34.6012 80.955 34.6643C80.9681 34.7274 80.9957 34.7866 81.0358 34.8369C82.6014 37.5369 81.8916 37.4899 83.425 36.0474C85.0864 34.4844 84.5353 35.1929 83.8442 35.1174C83.5806 35.0889 83.5535 34.9384 83.6715 34.8479C83.9651 34.6224 84.058 34.6359 85.1121 34.3849C85.3128 34.3349 85.628 34.4559 85.5768 34.7149C85.4684 35.1305 85.3911 35.5535 85.3455 35.9804C85.2998 36.3414 84.9042 36.2944 84.8681 36.0304C84.8445 35.8714 84.8872 35.7929 84.848 35.7889Z" fill="#333333"/>
<path d="M86.1309 37.5577C85.7971 37.4537 85.88 37.1247 86.6831 37.1967C91.6628 37.6432 87.7196 38.0522 86.1309 37.5577Z" fill="#333333"/>
<path d="M86.262 35.1744C86.267 34.8124 87.3341 34.9934 87.7111 35.0459C88.1954 35.0727 88.6693 35.1985 89.1029 35.4154C88.7917 35.6319 86.256 35.6069 86.262 35.1744Z" fill="#333333"/>
<path d="M86.2504 36.1673C86.2559 35.8648 86.8969 35.9733 87.2041 36.0173C88.476 36.1928 88.3856 36.2528 88.492 36.3443C88.085 36.6003 86.2429 36.5568 86.2504 36.1673Z" fill="#333333"/>
<path d="M87.5825 38.7225C85.4905 38.7275 85.8007 38.131 86.5476 38.2045C87.1203 38.2599 87.687 38.3634 88.2416 38.514C88.6888 38.618 87.9133 38.7215 87.5825 38.7225Z" fill="#333333"/>
<path d="M36.0275 15.5342C35.7013 18.0872 33.6062 25.0517 27.8274 32.4377C24.5497 36.6277 19.5052 41.4937 18.6529 42.0002C18.2619 42.2337 18.5375 42.1427 10.8523 35.7947C2.76308 29.1142 2.61752 29.3097 2.88254 28.9752C5.83997 25.2402 12.1453 19.6567 16.0168 6.20919C16.2487 5.40269 16.4183 5.78019 19.0876 6.99269C19.6342 7.24269 24.0423 9.15919 28.3735 11.2982C36.2268 15.1747 36.02 14.9627 36.0275 15.5342ZM35.5201 15.5262C35.5316 15.2152 16.4916 6.31719 16.4906 6.32619C16.0248 10.8582 10.4543 22.2882 3.52803 28.8872C3.25397 29.1482 2.98895 28.7372 5.92781 31.0422C12.3325 36.0662 18.5014 41.5422 18.5124 41.5502C18.6806 41.6967 18.6083 41.6732 19.2849 40.9557C23.5785 36.4002 33.0274 27.6392 35.5201 15.5262Z" fill="#333333"/>
<path d="M16.3425 26.1663C16.0674 26.9188 13.1411 30.2913 12.5062 31.0293C11.6529 32.0228 11.6745 31.7178 12.2155 32.2078C12.3194 32.3023 12.0549 32.5753 15.6659 28.1728C17.8157 25.5518 18.1168 25.1683 18.3703 25.3468C18.9103 25.6872 19.3984 26.1029 19.8199 26.5813C20.0272 26.7918 19.9348 26.8148 18.6273 28.4478C14.3924 33.7353 13.8157 33.5728 14.1525 33.8793C14.8924 34.5533 14.8603 34.5558 14.9847 34.4123C16.3861 32.8003 20.9708 27.1328 22.0535 26.0973C22.2729 25.8873 23.1904 26.7043 23.4354 26.9403C23.849 27.3403 24.0783 27.3948 23.865 27.6803C20.7204 31.8873 16.5367 35.9948 16.6953 36.1353C17.3057 36.6798 17.2977 36.7318 17.373 36.6553C17.5501 36.4708 21.9607 31.1553 21.9702 31.1428C23.4324 29.4658 23.3144 29.5068 23.588 29.6353C24.2352 29.9846 24.8179 30.4412 25.3111 30.9853C25.6936 31.3598 20.244 37.2708 19.8761 37.6603C19.1824 38.3948 19.1348 38.3733 19.2563 38.4883C19.8867 39.0843 19.7452 39.2308 19.2598 38.8608C17.1712 37.2683 6.95523 28.4808 6.94971 28.4718C6.88044 28.3548 7.01898 28.2153 7.11736 28.2323C7.36331 28.2743 7.3859 28.5018 7.58717 28.2493C8.3573 27.2144 9.21887 26.2502 10.1616 25.3683C10.2029 25.3286 10.2565 25.3039 10.3137 25.2985C10.3709 25.293 10.4282 25.3071 10.4763 25.3383C10.9987 25.5984 11.4875 25.9206 11.9319 26.2978C12.1056 26.4443 12.2175 26.4723 12.1362 26.5783C9.46643 30.0748 9.37558 29.8783 9.53419 29.9868C9.98593 30.3028 9.98593 30.4613 10.1104 30.2998C11.1183 28.9853 12.2431 27.5498 13.3278 26.2998C14.6735 24.7468 14.4953 24.6133 15.7979 25.5998C15.9515 25.7192 16.0978 25.8476 16.2361 25.9843C16.2797 26.0399 16.3156 26.1011 16.3425 26.1663Z" fill="#333333"/>
<path d="M16.4686 12.1256C17.0945 11.3088 17.973 10.72 18.9684 10.4502C19.9639 10.1804 21.0207 10.2447 21.9758 10.6331C26.2388 12.4621 25.4467 18.8216 20.8379 19.7201C16.6016 20.5456 13.734 15.5631 16.4686 12.1256ZM22.1671 15.1256C22.1724 14.7149 22.0763 14.3093 21.8872 13.9443C21.6982 13.5793 21.4219 13.2662 21.0829 13.0326C18.9105 11.6066 16.711 15.0916 18.9115 17.0261C20.209 18.1691 22.1952 17.0131 22.1646 15.1256H22.1671ZM16.4289 17.0801C16.5122 17.2381 16.4856 17.1426 16.8541 16.9696C17.8379 16.5081 17.8494 16.5756 17.7676 16.3951C16.9981 14.7071 18.0948 13.6036 17.868 13.4731C17.4698 13.2271 17.1061 12.9297 16.7863 12.5886C16.5017 12.5586 15.28 14.8926 16.4289 17.0801ZM21.1692 19.1436C21.5517 19.0376 21.4292 19.0906 20.9358 17.9771C20.8354 17.7486 20.5232 18.1471 19.7603 17.9906C19.117 17.8882 18.5387 17.5412 18.1471 17.0226C17.9603 16.7616 17.8399 17.1106 16.7416 17.4366C16.4184 17.5311 18.3674 19.9221 21.1692 19.1436ZM24.3119 14.8686C24.3508 13.957 24.0687 13.0604 23.5143 12.3341C23.4139 12.1991 23.4616 12.2646 22.2198 13.2871C22.0546 13.4231 22.1836 13.3601 22.4532 14.0441C22.8432 15.0341 22.4873 15.4196 22.8045 15.4291C24.4885 15.4796 24.3119 16.0046 24.3119 14.8686ZM22.5947 15.8846C22.4707 15.9711 22.408 16.9071 21.4493 17.5846C21.3354 17.6651 21.3354 17.6686 21.3991 17.7941C21.9422 18.8441 21.766 18.9361 21.9748 18.8256C22.5064 18.5445 22.9747 18.1584 23.3513 17.6908C23.7278 17.2232 24.0047 16.684 24.1648 16.1061C24.222 15.9631 24.2712 16.0756 22.5947 15.8846Z" fill="#333333"/>
<path d="M11.7081 22.3696C10.641 22.0066 17.5457 21.6871 18.6027 21.6341C24.1743 21.3536 24.0282 21.6531 24.1743 21.2901C24.2364 21.1509 24.3451 21.0375 24.4818 20.9692C24.6185 20.9009 24.7748 20.882 24.924 20.9157C25.0731 20.9494 25.2059 21.0336 25.2996 21.1539C25.3934 21.2743 25.4424 21.4233 25.4381 21.5756C25.4432 22.1076 25.132 22.0916 25.1731 22.3176C25.6971 25.2226 25.6459 26.9321 25.8487 26.9566C26.0957 26.9861 26.0565 27.1996 26.4049 27.0221C27.2682 26.5821 27.87 26.2856 28.5988 25.9721C28.512 25.9161 28.1722 25.9031 28.0005 25.8161C27.8289 25.7291 27.8645 25.4636 28.2615 25.4571C28.6834 25.4479 29.1041 25.5038 29.5089 25.6226C29.7598 25.7046 29.7453 25.7106 29.687 25.8931C29.5107 26.3565 29.2187 26.7676 28.8388 27.0876C28.6882 27.2521 28.6219 27.0591 28.647 26.9716C29.0255 25.6426 29.4501 26.0281 26.4686 27.4646C26.2929 27.5491 26.3682 27.5896 26.2949 27.8411C26.0038 28.8076 24.5382 27.8741 25.3784 27.0621C25.5064 26.9391 25.4286 26.9676 25.2313 25.7851C25.1811 25.4921 25.1244 24.6581 24.7891 22.4476C24.756 22.2291 24.4142 22.4656 24.1828 21.9676C24.0036 21.5861 12.1589 22.5231 11.7081 22.3696Z" fill="#333333"/>
<path d="M27.1307 15.524C28.2264 15.912 31.8208 17.691 32.4552 18.258C32.5556 18.349 32.5903 18.724 32.2786 18.626C31.9272 18.5145 30.9695 18.0445 28.2907 16.7605C26.7904 16.041 26.7346 16.0225 26.6036 15.889C26.3517 15.633 26.7914 15.404 27.1307 15.524Z" fill="#333333"/>
<path d="M26.4952 17.0743C26.9916 17.2273 30.2216 18.6848 30.1714 19.1993C30.1353 19.5743 27.8725 18.3283 26.4621 17.5923C26.2648 17.4893 26.1258 17.3843 26.1915 17.2008C26.2297 17.0933 26.2678 17.0733 26.4952 17.0743Z" fill="#333333"/>
</svg>
