<svg width="101" height="100" viewBox="0 0 101 100" fill="none" xmlns="http://www.w3.org/2000/svg">
<path fill-rule="evenodd" clip-rule="evenodd" d="M59.9395 34.3486C65.0401 23.6591 74.4324 16.0598 83.1255 9.97402C83.2018 9.92052 83.3022 9.91402 83.3845 9.95652C87.9727 12.308 98.1585 19.3185 98.2474 19.3825C98.3914 19.4855 98.3854 19.701 98.2363 19.796C89.1869 25.5655 81.6061 34.7451 75.7038 47.0805C75.6627 47.1665 75.5753 47.223 75.4774 47.223L75.4764 47.2225C75.4293 47.2225 74.8294 46.9428 73.8155 46.431C73.8115 46.2368 73.8075 46.0444 73.803 45.8537C74.3215 46.1175 74.8405 46.3782 75.36 46.6355C81.2181 34.4736 88.7146 25.373 97.648 19.578C95.9334 18.403 87.4527 12.6345 83.2891 10.47C74.7376 16.4658 65.533 23.935 60.4841 34.3714C60.3054 34.3635 60.1237 34.3559 59.9395 34.3486ZM73.7061 43.1075C73.6971 42.9203 73.6875 42.7359 73.6775 42.5544C74.4625 42.1649 75.3911 42.083 76.1505 42.0741C76.7122 40.8096 77.2689 39.8416 77.8963 39.0376L77.8968 39.0381C78.0524 38.8401 78.3099 39.0656 78.2185 39.2251C78.0895 39.451 77.957 39.6738 77.825 39.8971L77.8245 39.8974V39.898L77.824 39.8985C77.3592 40.6827 76.8914 41.472 76.5345 42.4181C76.52 42.5156 76.3819 42.5771 76.3082 42.5771C75.4513 42.5771 74.452 42.6499 73.7061 43.1075ZM62.4517 34.4747C62.2875 34.4646 62.1204 34.4547 61.9512 34.4451C61.9081 34.2439 61.9296 34.0262 62.0195 33.8365C62.4235 32.983 62.9536 32.1015 63.6518 31.246C63.8797 31.017 64.2812 31.2655 64.0749 31.54C63.581 32.1665 63.0851 32.924 62.5586 33.856C62.4015 34.1166 62.3101 34.2922 62.4517 34.4747ZM93.1602 21.1015C93.1582 21.097 93.1426 21.0821 93.1176 21.0569C92.8601 20.8016 91.546 19.4974 91.8492 17.4465C91.8492 17.4041 91.8311 17.3676 91.8165 17.3383L91.816 17.337C91.8115 17.3279 91.8075 17.3197 91.804 17.3122C91.7944 17.2925 91.7874 17.2775 91.7784 17.2638C91.7508 17.2216 91.7056 17.1908 91.5224 17.0648C91.3733 16.9629 91.1339 16.7986 90.7394 16.5155C90.3418 16.2305 89.9664 15.9615 89.5829 15.7155C89.469 15.6415 89.2541 15.8465 89.3861 15.982C89.9157 16.553 90.5687 17.098 91.3813 17.6455C91.2293 18.9875 91.6996 20.3515 92.6553 21.36C91.9992 21.9907 91.551 22.3235 91.1545 22.6176C90.8132 22.8709 90.511 23.0953 90.1481 23.4565C90.0352 23.5685 90.1596 23.8155 90.3363 23.728C90.8147 23.4895 91.282 23.145 91.7191 22.709C92.2407 22.293 92.6939 21.89 93.1457 21.44C93.2205 21.3655 93.226 21.2325 93.1597 21.1005L93.1602 21.1015ZM85.3676 12.9455C85.7496 13.1465 86.7525 13.793 87.6444 14.509H87.6449L87.6454 14.5093C87.6981 14.5516 87.8567 14.6793 87.7809 14.7905C87.7132 14.8905 87.5109 14.8495 87.4216 14.799C86.8744 14.4911 86.111 13.9445 85.6723 13.6305C85.5067 13.5117 85.3872 13.4261 85.3435 13.3995C85.2452 13.3395 85.212 13.345 85.0675 13.4405C84.6895 13.676 84.2799 13.801 83.6967 13.859C82.9493 13.9585 82.238 13.8625 81.5845 13.575C81.2904 13.767 80.1078 14.6645 78.7486 15.746C78.4469 15.986 78.203 15.6755 78.4057 15.451C78.9428 14.857 80.6258 13.5225 81.1142 13.2145C81.2648 13.1195 81.3938 13.044 81.5825 13.1065C83.1917 13.8079 84.4687 13.1788 84.8933 12.9694L84.8973 12.9675C85.0976 12.869 85.2472 12.8825 85.3676 12.9455ZM82.5854 19.1366C82.1387 18.8356 81.585 18.9531 81.3024 19.2846C80.7182 19.9701 81.193 20.9236 82.0704 20.9236C82.9347 20.9236 83.4291 19.7056 82.5854 19.1366ZM81.8912 20.4241C81.6181 20.3331 81.4475 20.0176 81.5348 19.7551C81.6513 19.2911 82.2792 19.3606 82.5221 19.6746C82.7751 20.0011 82.3319 20.5711 81.8912 20.4241ZM72.5682 30.6346C72.1862 29.7471 73.0827 28.8486 73.9782 29.3816C74.8932 29.9286 74.3591 31.1816 73.4978 31.1816C73.1118 31.1816 72.7298 30.9566 72.5682 30.6346ZM72.9994 30.5236C73.2052 30.8031 73.7704 30.8651 73.934 30.3751C74.0931 29.8996 73.673 29.6076 73.2895 29.7191C72.9542 29.8171 72.7911 30.2386 72.9994 30.5236ZM83.7825 29.6265C83.5903 29.369 83.0617 28.8801 82.7756 28.6176C83.2545 27.4866 83.1852 26.1735 82.5422 25.206C81.5248 23.6755 79.3373 23.267 77.964 24.285C77.8175 24.3939 77.6794 24.5165 77.5419 24.6388C77.3376 24.8203 77.1343 25.0011 76.904 25.1355C75.4027 25.984 73.4622 24.6386 74.0655 22.7745C74.3175 21.9956 75.0553 21.191 76.1355 21.15C76.3543 21.1425 76.407 20.714 76.1566 20.6775C75.3585 20.542 74.575 20.8595 73.9962 21.549C73.6153 21.2275 72.8779 20.7456 72.8222 20.7176C72.6214 20.6171 72.5175 20.7041 72.4824 20.7461C72.4021 20.8411 72.4071 21.0066 72.4939 21.122C72.7253 21.432 73.3066 21.8106 73.6855 21.9961C72.2921 24.4305 74.9333 26.8515 77.1479 25.6455L77.1534 25.6415C77.5123 25.3748 77.8837 25.099 78.2155 24.7901C78.7345 24.4046 79.4864 24.221 80.2172 24.345C82.7646 24.7775 83.2484 28.352 81.0013 29.594C80.2142 30.0291 79.2942 30.226 78.3059 30.2346C78.089 30.2036 77.9023 30.5301 78.0966 30.671C78.6321 31.0606 79.3188 30.8713 79.9753 30.6902C80.0877 30.6591 80.2002 30.6282 80.3101 30.6005C81.1905 30.3971 81.9178 29.9235 82.475 29.188C82.7495 29.4476 83.1526 29.7765 83.4482 30.011C83.7569 30.165 83.9707 29.8776 83.7825 29.626V29.6265Z" fill="#333333"/>
<path fill-rule="evenodd" clip-rule="evenodd" d="M20.9332 37.6797C19.3754 39.0246 17.7745 40.2781 16.1714 41.5332C14.52 42.8262 12.8663 44.121 11.2554 45.5192C11.1224 45.6347 11.1475 45.8487 11.3056 45.9297C15.1731 47.9149 18.8877 50.3941 22.4383 53.3566C22.872 53.5036 23.3049 53.6526 23.737 53.8036C19.9643 50.5346 16.0024 47.8141 11.8643 45.6557C13.3793 44.3556 14.9304 43.1412 16.482 41.9264C18.0428 40.7044 19.6039 39.4821 21.1293 38.1719C21.0645 38.0076 20.9992 37.8435 20.9332 37.6797ZM18.0462 42.2867C17.9623 42.3257 17.9222 42.4377 17.9563 42.5057C18.3192 44.0867 17.878 45.7752 16.7758 47.0222C16.7296 47.0757 16.7105 47.2867 16.837 47.3427C17.1921 47.5861 17.5392 47.8505 17.8857 48.1144C18.6822 48.721 19.4755 49.3252 20.3556 49.6667C20.4966 49.7212 20.6813 49.5062 20.5222 49.3812C19.8693 48.8691 19.5063 48.6497 19.1358 48.4257C18.6935 48.1583 18.2406 47.8846 17.2712 47.0987C18.2971 45.8617 18.7193 44.1737 18.3945 42.5907C19.2373 41.9117 19.9957 41.1852 20.5915 40.4857L20.5917 40.4854C20.6475 40.4199 20.7515 40.2976 20.6733 40.2192C20.5411 40.086 20.228 40.3715 19.6326 40.9143C19.2378 41.2743 18.7188 41.7474 18.0462 42.2867Z" fill="#333333"/>
<path fill-rule="evenodd" clip-rule="evenodd" d="M32.9166 18.0374C33.0054 18.0284 33.0933 18.0684 33.1455 18.1414V18.1409C36.897 23.3886 40.4126 28.8907 43.2162 34.6496C43.0214 34.6747 42.8483 34.6998 42.6946 34.7244C39.9317 29.0767 36.4854 23.6845 32.8217 18.5504C30.9585 18.7609 25.9376 19.8139 24.9152 20.0799C22.8638 20.6601 20.8182 21.1286 18.7732 21.5969C16.8498 22.0374 14.9269 22.4777 13.0002 23.0109C19.373 31.3923 23.7054 41.988 25.9248 54.5939C25.743 54.5259 25.5611 54.4589 25.3789 54.3919C23.1322 41.8464 18.7734 31.3204 12.3768 23.0219C12.2684 22.8809 12.3376 22.6769 12.5073 22.6289C14.562 22.048 16.611 21.5788 18.6572 21.1102C20.7009 20.6422 22.7418 20.1748 24.7832 19.5974C25.8789 19.3124 31.1232 18.2114 32.9166 18.0374ZM27.3265 53.2189C27.5294 53.8909 27.6624 54.5849 27.7574 55.2944C27.6067 55.2354 27.4559 55.1764 27.305 55.1179C27.2192 54.5219 27.1095 53.9164 26.9812 53.3049C26.9003 52.9174 27.2351 52.9169 27.3265 53.2189ZM19.8582 22.7469C19.8567 22.6709 19.941 22.5869 20.0333 22.5869H20.0328C20.8723 22.3844 21.5443 22.1765 22.0555 22.0184C22.8259 21.78 23.2311 21.6546 23.2939 21.8314C23.3311 21.9359 23.1845 22.0024 23.1057 22.0379C22.2675 22.4174 21.2711 22.7529 20.218 23.0094C19.8346 24.5794 18.7303 25.9274 17.2732 26.6109C17.8142 27.7336 18.1066 28.1735 18.3924 28.6033C18.6316 28.963 18.8661 29.3157 19.2378 30.0559C19.3286 30.2364 19.0691 30.3524 18.9652 30.2434C18.3146 29.5608 17.8554 28.6773 17.3941 27.79C17.1938 27.4047 16.9931 27.0185 16.7763 26.6479C16.6859 26.5434 16.7933 26.3604 16.8581 26.3319C18.3885 25.6714 19.5103 24.3309 19.8582 22.7469ZM26.7372 21.5423C27.0797 21.4692 27.4473 21.3442 27.8251 21.2157C28.4649 20.998 29.1341 20.7704 29.7609 20.7678C29.781 20.7918 29.8071 20.8178 29.8362 20.8468C29.9165 20.9269 29.9855 20.9963 30.0462 21.0576L30.0467 21.058L30.0471 21.0585C30.4237 21.4378 30.4869 21.5016 31.0177 21.8178C31.8725 22.3288 32.8689 22.5363 33.8657 22.5363C34.1965 22.8628 35.1085 24.3158 35.4042 24.8738C35.6451 25.3283 35.9137 25.7873 36.2279 26.2028C36.3855 26.3613 36.6861 26.2508 36.6048 26.0228C36.4169 25.4936 36.0751 24.9321 35.7117 24.335L35.7115 24.3347L35.7113 24.3344L35.7112 24.3342C35.5339 24.043 35.3515 23.7433 35.1793 23.4348C34.9841 23.0943 34.7361 22.7413 34.4666 22.4198C34.3612 22.2623 34.2412 22.0833 33.9978 22.0833C33.1269 22.0833 32.2957 21.9108 31.6015 21.5888C31.5552 21.5613 31.5071 21.5332 31.4575 21.5042C31.02 21.2483 30.4749 20.9294 30.1544 20.4493C30.1469 20.4388 30.1368 20.4298 30.1253 20.4238C29.9297 20.3264 29.709 20.3878 29.5148 20.4417L29.5144 20.4418C29.5144 20.4418 29.0346 20.5508 28.6536 20.6453C28.3639 20.7176 28.1723 20.7601 28.0109 20.7959C27.6463 20.8768 27.4357 20.9236 26.5962 21.2018C26.294 21.3018 26.414 21.6113 26.7367 21.5423H26.7372ZM29.2931 29.5234C29.5114 28.6504 30.4009 28.4299 30.8712 28.6639C31.0308 28.7164 31.1402 28.8254 31.2456 28.9309C31.6813 29.3649 31.6813 30.0679 31.2456 30.5024C30.426 31.3199 29.0617 30.5614 29.2931 29.5234ZM30.9309 29.2834C31.3535 29.8099 30.7151 30.4974 30.2016 30.3274C29.0933 29.9584 30.0169 28.3774 30.9309 29.2834ZM36.3498 43.6714C35.6833 43.3394 34.9499 43.8204 34.7712 44.5309C34.5303 45.6099 35.9864 46.3094 36.6736 45.5099C37.1946 44.9909 37.1047 44.0484 36.3498 43.6714ZM36.3528 44.2824C36.4914 44.5124 36.4914 44.8344 36.3584 45.0559C36.1987 45.2544 35.9242 45.4324 35.6296 45.3349C35.3846 45.2534 35.1231 45.0439 35.1231 44.6989C35.1231 43.9924 35.8424 43.7924 36.3528 44.2824ZM37.8577 34.7359C38.197 34.4859 38.8008 34.1454 39.1838 34.0824L39.1833 34.0819C39.4824 34.0324 39.6922 34.3424 39.3931 34.5584C39.3574 34.5844 38.5845 35.0224 38.1126 35.2159C38.462 36.0444 38.3857 36.8834 37.8983 37.5279C37.7502 37.7339 37.3954 37.4894 37.4867 37.2924C37.9455 36.3184 37.567 35.2964 36.9878 34.7154C35.603 33.3249 33.5119 34.4244 33.5791 36.1434C33.5932 36.4081 33.6612 36.671 33.7292 36.9345C33.7754 37.1131 33.8216 37.292 33.8512 37.4719C34.1298 39.1539 32.7595 40.9029 30.9284 41.1009C29.8839 41.2139 28.619 40.7459 27.7792 39.7419C27.4133 39.8739 26.7347 40.1174 26.417 40.1694C26.1068 40.2214 25.9477 39.8984 26.2272 39.6969C26.5721 39.5424 27.0509 39.3369 27.4083 39.2129C27.0078 38.3824 26.9194 37.5214 27.1423 36.6489C27.1655 36.551 27.1874 36.4472 27.2099 36.3402C27.3443 35.7036 27.5025 34.9541 28.0955 34.6574C28.3108 34.5499 28.5166 34.8659 28.3886 35.0434C27.4956 36.8019 27.3195 38.9439 28.9919 39.9544C30.1976 40.8149 31.8796 40.6079 32.764 39.4384C33.2097 38.8494 33.3909 38.0994 33.286 37.4629C33.1622 37.0274 33.0864 36.5694 33.0132 36.1268L33.013 36.1254C33.0044 35.7484 33.0571 35.4199 33.1691 35.1384C33.1932 35.1015 33.2127 35.059 33.2317 35.0177C33.2518 34.974 33.2713 34.9316 33.295 34.8984C34.1328 33.2309 36.6329 32.8604 37.8577 34.7359Z" fill="#333333"/>
<path fill-rule="evenodd" clip-rule="evenodd" d="M38.4988 60.0583C31.5469 56.1473 23.8255 53.3533 16.062 51.0998C15.9757 51.0748 15.8818 51.0978 15.8181 51.1593C14.5186 52.4033 11.0878 56.5048 10.4052 57.4048C9.16229 59.1183 7.85118 60.7453 6.53836 62.3743L6.53831 62.3748C5.22416 64.0053 3.90822 65.6383 2.65727 67.3623C2.55387 67.5048 2.62665 67.7073 2.79932 67.7513C15.159 70.8628 27.2041 78.4038 38.5996 90.1633C38.6889 90.2558 38.8345 90.2653 38.9353 90.1858C39.1893 89.9858 41.4289 87.7823 44.6576 84.2873C44.4573 84.2558 44.2571 84.2238 44.0571 84.1903C42.3093 86.0648 40.5495 87.8813 38.7835 89.6338C27.4839 78.0228 15.5439 70.5313 3.28118 67.3583C4.46221 65.7493 5.69802 64.2158 6.93414 62.6823C8.24701 61.0528 9.56033 59.4233 10.8087 57.7023C11.4457 56.8623 14.7309 52.9363 16.062 51.6208C23.8103 53.8773 31.5424 56.6823 38.4939 60.6308C38.4954 60.4403 38.4971 60.2493 38.4988 60.0583ZM42.1066 83.8368C41.6445 84.2683 41.1836 84.6848 40.7082 85.0913C39.3264 84.2328 37.6017 84.6303 36.3564 85.0508C35.3952 83.9998 34.4345 82.9983 33.3187 82.2208C33.0592 82.0403 32.7966 82.2473 33.1013 82.5013C34.2362 83.4468 35.2692 84.4288 36.117 85.4608C36.1636 85.5173 36.2962 85.5878 36.382 85.5393C37.688 85.1358 39.3384 84.7883 40.5431 85.6628C40.6264 85.7573 40.7739 85.7588 40.8974 85.6583C41.542 85.1328 42.1572 84.5668 42.7844 83.9663C42.5581 83.9243 42.3322 83.8808 42.1066 83.8368ZM8.53748 62.6833C8.4652 62.7403 8.45115 62.8583 8.49983 62.9168C9.21208 64.3748 9.16591 66.1193 8.37586 67.5823C8.34273 67.6448 8.37234 67.8548 8.50837 67.8808C8.90977 68.0378 9.30805 68.2173 9.70564 68.3963C10.6191 68.8078 11.5288 69.2173 12.4636 69.3513C12.6132 69.3728 12.7447 69.1218 12.561 69.0358C11.8091 68.6848 11.4056 68.5528 10.9942 68.4183C10.5023 68.2573 9.99917 68.0928 8.87579 67.5453C9.59406 66.1093 9.62167 64.3698 8.94606 62.9008C9.61313 62.0493 10.1863 61.1713 10.608 60.3553C10.6476 60.2788 10.7214 60.1363 10.627 60.0768C10.4681 59.9773 10.2284 60.3253 9.77255 60.9868C9.46958 61.4268 9.07114 62.0053 8.53748 62.6828V62.6833ZM13.7995 56.7973C13.5831 57.1313 13.3724 57.4563 13.1493 57.7248C12.9395 57.9783 12.6529 57.8093 12.8275 57.5443C13.3133 56.8073 13.4495 56.6408 13.6854 56.3523C13.7898 56.2243 13.9136 56.0728 14.0959 55.8373C14.3359 55.5278 14.6446 55.1463 14.6446 55.1463C14.7635 54.9833 14.8985 54.7993 15.1129 54.7548C15.1259 54.7523 15.139 54.7528 15.1515 54.7568C15.7024 54.9363 16.3288 54.8498 16.8316 54.7803H16.8319C16.8883 54.7723 16.9431 54.7648 16.9961 54.7578C17.7415 54.5823 18.5009 54.2043 19.1846 53.6668C19.3751 53.5163 19.5802 53.5828 19.7613 53.6413H19.7618C20.1734 53.7273 20.588 53.8513 20.9529 53.9978C21.2805 54.1338 21.6107 54.2568 21.9315 54.3758C22.5878 54.6203 23.2051 54.8498 23.6815 55.1488C23.8872 55.2778 23.7201 55.5503 23.4977 55.5233C22.9928 55.3908 22.4964 55.1968 22.0246 54.9888C21.4453 54.7333 19.8256 54.1563 19.3628 54.1043C18.5803 54.7198 17.6692 55.1723 16.6804 55.2988C16.0666 55.3783 15.9781 55.3673 15.4452 55.3018C15.3593 55.2913 15.2619 55.2793 15.149 55.2658L15.1338 55.2638C15.0988 55.2598 15.0674 55.2558 15.0406 55.2503C14.55 55.6393 14.1664 56.2313 13.7995 56.7973ZM20.8239 60.7618C20.3094 60.8683 19.7488 61.5908 20.1202 62.4103C20.584 63.3678 22.1269 63.1208 22.2615 61.9733C22.3332 61.3638 21.8956 60.8118 21.2837 60.7398L21.2813 60.7393C21.1335 60.7223 20.9807 60.7043 20.8239 60.7618ZM21.2561 61.2108C21.9151 61.3633 21.8418 62.2968 21.3334 62.4803C20.2336 62.8748 19.9751 61.0638 21.2561 61.2108ZM33.7558 70.8063C33.4542 70.1383 33.7302 69.3083 34.4601 69.1573C35.2873 68.9873 35.9438 69.6708 35.858 70.4003C35.8158 71.4518 34.2382 71.8018 33.7558 70.8063ZM35.3284 70.2383C35.2943 69.9823 35.0945 69.7298 34.8425 69.6348C34.1368 69.5648 33.6966 70.1663 34.1363 70.7208C34.3511 70.9918 34.6869 70.9948 34.9299 70.9073C35.222 70.8023 35.3269 70.4928 35.3284 70.2383ZM30.7186 59.8828C30.4576 60.1688 30.1951 60.8088 30.0847 61.2143C27.957 60.4983 26.2253 62.3328 26.6052 64.1588C26.6073 64.1993 26.6184 64.2448 26.6299 64.2918C26.6407 64.3358 26.6518 64.3813 26.6559 64.4253C26.7433 64.7153 26.9059 65.0058 27.1473 65.2958L27.1477 65.2963C27.4809 65.5988 27.8256 65.9113 28.1939 66.1768C28.6722 66.6113 28.9965 67.3118 29.013 68.0493C29.0467 69.5128 27.8551 70.7138 26.3738 70.7833C24.4329 71.0228 23.2382 69.2333 22.8452 67.3018C22.8352 67.0838 22.4768 66.9623 22.3749 67.1798C22.0938 67.7788 22.4363 68.4653 22.7271 69.0478C22.7759 69.1458 22.8231 69.2403 22.8658 69.3313C23.2337 70.1538 23.8391 70.7748 24.6698 71.1793C24.4665 71.4973 24.2185 71.9538 24.0438 72.2883C23.9495 72.6188 24.2757 72.7743 24.4871 72.5418C24.7039 72.3048 25.0854 71.6948 25.2902 71.3653C26.5741 71.6348 27.8581 71.2213 28.6075 70.4878C29.921 69.2018 29.9085 66.9833 28.6436 65.8353C28.5082 65.7123 28.3605 65.6003 28.213 65.4883C27.9959 65.3238 27.7794 65.1593 27.6036 64.9608C26.4818 63.6533 27.4385 61.4993 29.39 61.7358C30.2056 61.8343 31.1387 62.4028 31.3847 63.4503C31.4359 63.6613 31.8661 63.6343 31.854 63.3808C31.8354 62.5743 31.3736 61.8688 30.5841 61.4343C30.8341 60.9908 31.1679 60.1703 31.1799 60.1278C31.2803 59.7738 30.9229 59.6603 30.7186 59.8833V59.8828Z" fill="#333333"/>
<path d="M73.292 37.1884C73.2759 36.1984 72.523 35.4249 71.5578 35.4049C71.0849 35.2664 66.56 34.0379 54.6796 33.9894C44.2122 33.9474 41.9203 34.5454 41.4229 34.7989C40.4416 34.8319 39.6802 35.5814 39.6666 36.5374C37.5921 46.7189 38.2105 80.9219 38.7536 84.4664C38.7536 85.4754 39.5171 86.2674 40.4978 86.2824C46.0513 87.5159 50.8167 87.9044 56.1001 87.9044C64.8162 87.9044 70.3145 86.8234 70.4947 86.9134C70.5293 86.9309 70.5679 86.9394 70.6066 86.9394C71.5839 86.9394 72.3794 86.1474 72.3754 85.2169C73.6252 78.0344 75.0678 44.3804 73.292 37.1884ZM40.1625 36.6164C40.1661 36.5989 40.1681 36.5814 40.1681 36.5639C40.1681 35.8539 40.7488 35.2979 41.4897 35.2979C41.5118 35.2979 42.2451 34.4379 54.6771 34.4894C66.9038 34.5389 71.4007 35.8794 71.4448 35.8929C71.4689 35.9004 71.494 35.9039 71.5191 35.9039C72.2314 35.9039 72.79 36.4819 72.79 37.2204C72.79 37.2714 74.0524 42.1919 73.4496 59.5964C72.8487 76.9484 71.8905 82.5489 71.877 82.6469C71.877 83.3259 71.3374 83.8819 70.6633 83.9114C70.5966 83.8779 70.5529 83.8539 70.4701 83.8644C51.5485 86.5034 41.2016 83.2559 40.5259 83.2559C39.8137 83.2559 39.255 82.6774 39.2535 81.9124C38.5092 75.0619 38.342 44.9444 40.1625 36.6159V36.6164Z" fill="#333333"/>
<path d="M69.8235 55.2766C69.9013 55.1041 69.5766 55.1341 69.4391 55.1341C64.4548 55.2061 46.4026 54.8816 42.3525 54.9826C42.3013 54.9841 42.2235 55.0486 42.2917 55.1376C42.095 56.7191 42.2139 56.2516 41.973 59.8531C41.5137 67.1806 41.7371 78.2796 41.8716 79.4131C41.8716 79.5426 41.9856 79.6366 42.1432 79.6396C43.3774 79.7841 44.6514 79.7996 45.8826 79.8151C47.8356 79.8396 56.4434 80.2771 69.4913 79.9426C69.7161 79.9426 69.812 79.7026 69.7252 79.5456C70.6869 69.2476 70.322 58.2756 69.8235 55.2766ZM63.7305 55.6381L69.4616 55.6371C69.5886 57.1631 69.7528 59.2591 69.7894 60.7901C68.004 60.7481 66.9585 60.8446 63.5307 60.8446C63.5824 59.0751 63.6798 57.3761 63.7305 55.6386V55.6381ZM56.5413 67.3061C58.6233 67.3571 60.7254 67.3976 62.8135 67.4086C62.7824 69.2416 62.7793 71.1621 62.8044 73.2711C60.7099 73.3036 58.5962 73.3131 56.468 73.3001L56.5413 67.3066V67.3061ZM48.3306 79.4476C45.7049 79.3611 44.0561 79.2501 42.3816 79.2381C42.4162 77.7321 42.2752 76.2651 42.2752 74.7646C42.2752 74.2226 42.3063 73.8661 42.2988 73.3351C44.3331 73.5561 46.37 73.4816 48.4269 73.5536C48.3898 75.8481 48.2482 78.9796 48.3301 79.4481L48.3306 79.4476ZM48.434 73.1396C48.2678 73.1341 44.1529 72.9296 42.2566 72.8771C42.2541 72.7261 42.231 67.8791 42.2441 66.7311C44.3838 66.9571 46.5251 66.9706 48.5544 67.0466C48.5022 69.0796 48.4666 71.1276 48.434 73.1396ZM48.5655 66.6206C46.8549 66.5621 44.816 66.4136 42.2481 66.4031C42.2722 64.5136 42.3359 62.8406 42.3951 60.9641C43.3619 61.0761 46.5271 61.0151 48.6874 61.0756C48.6307 62.9506 48.6719 62.6646 48.566 66.6206H48.5655ZM48.7 60.6526C44.6097 60.5431 43.7835 60.4186 42.3831 60.4881C42.4037 60.0726 42.4524 58.2941 42.4775 57.8406C42.5236 57.0061 42.6908 56.1621 42.6792 55.3121C43.4743 55.3316 44.3181 55.2386 45.086 55.2836C46.3037 55.3551 47.3192 55.3226 48.9304 55.3426C48.843 56.0451 48.7015 60.6011 48.7 60.6531V60.6526ZM55.8205 79.6146C53.488 79.5916 51.1489 79.5411 48.7898 79.4626C48.8857 78.7771 48.8526 79.1736 49.0001 73.5721C49.7912 73.5976 54.8046 73.7251 55.8822 73.7391C55.8752 74.1641 55.8205 79.2706 55.82 79.6146H55.8205ZM55.8897 73.2946C53.6099 73.2756 51.3146 73.2301 49.0092 73.1576C49.0092 73.1576 49.1116 68.1276 49.1362 67.0686C49.4127 67.0796 54.9501 67.2656 55.9861 67.2916L55.8892 73.2946H55.8897ZM55.9936 66.8326C53.7906 66.7826 51.5113 66.7181 49.1467 66.6401C49.1557 66.2641 49.2446 62.5776 49.2697 61.0916C49.2697 61.0916 55.0585 61.2451 56.079 61.2596L55.9941 66.8326H55.9936ZM56.088 60.7996C53.8489 60.7661 51.5721 60.7261 49.2767 60.6676L49.3254 58.1436C49.4248 56.3556 49.3133 55.7621 49.3299 55.3476C50.4799 55.3651 55.2207 55.4726 56.345 55.4956C56.2306 55.6776 56.096 60.3946 56.088 60.7991V60.7996ZM56.3791 79.6201C56.4103 77.6726 56.4374 75.7011 56.462 73.7461C57.372 73.7556 61.5867 73.7536 62.81 73.7406C62.8426 75.9061 62.7974 75.4226 62.9174 79.6016C60.7344 79.6321 58.559 79.6381 56.3791 79.6206V79.6201ZM62.8215 66.9456C60.7962 66.9256 58.7081 66.8926 56.5468 66.8456C56.5704 64.9886 56.5955 63.1176 56.6251 61.2676C58.7342 61.2936 60.8378 61.2971 63.0027 61.2976C62.945 62.6666 62.8541 65.3071 62.8215 66.9461V66.9456ZM56.6336 60.8081C56.6351 60.7571 56.7902 55.6811 56.6381 55.5026C57.1993 55.5141 61.6836 55.6111 63.3711 55.6361C63.2045 57.3686 63.0991 59.1126 63.0218 60.8446C58.3668 60.8446 59.8962 60.8546 56.6331 60.8086L56.6336 60.8081ZM69.2217 79.4486C67.2777 79.5156 65.3473 79.5641 63.4238 79.5946C63.3761 77.5841 63.3455 75.6341 63.3325 73.7351C63.5082 73.7331 69.5856 73.5816 69.5856 73.5816C69.5199 74.9111 69.2855 78.3036 69.2217 79.4486ZM69.6092 73.0801C67.5392 73.1641 65.4446 73.2251 63.329 73.2621C63.3179 71.2586 63.326 69.3116 63.3531 67.4106C63.5217 67.4106 69.7964 67.4116 69.7964 67.4116C69.7653 69.1886 69.7031 71.0656 69.6087 73.0801H69.6092ZM69.804 66.9596C67.7229 66.9731 65.5792 66.9701 63.3601 66.9506C63.3912 65.0231 63.4419 63.1421 63.5127 61.2971C66.0665 61.3081 68.0693 61.3336 69.7989 61.2536C69.8205 62.4171 69.815 66.2101 69.804 66.9596Z" fill="#333333"/>
<path fill-rule="evenodd" clip-rule="evenodd" d="M69.4446 38.2841C70.082 38.2841 70.6041 38.8041 70.6041 39.4436L70.9594 50.906C70.9594 51.581 70.4143 52.124 69.7447 52.124L43.1591 51.568C42.5332 51.568 42.0001 51.014 42.0001 50.358L42.5076 38.9776C42.5071 38.3601 43.0632 37.8291 43.7218 37.8291L69.4446 38.2841ZM54.5109 43.9789C54.9722 44.1947 55.4179 44.4033 55.8993 44.8996L55.8988 44.9001C57.1893 46.2306 56.5518 48.5821 54.7323 48.9531C54.7659 49.2573 54.7654 49.7173 54.7649 50.0445V50.133C54.7649 50.435 54.3102 50.4255 54.3102 50.133C54.2655 49.8266 54.2504 49.3061 54.2479 48.9961C52.9991 49.0211 52.0404 48.1476 51.8647 47.0356C51.8627 46.6876 52.2738 46.6651 52.4123 46.9396C52.8159 48.1411 54.015 48.8186 55.0962 48.1721C55.2468 48.1206 55.3391 48.0286 55.437 47.9311C56.1728 47.1976 56.1608 46.1036 55.437 45.3591C55.0585 44.9696 54.5686 44.7356 54.0888 44.5151C53.1145 44.0671 52.1488 43.5216 52.3044 42.4476C52.4319 41.5661 53.3474 40.8761 54.0195 40.7926C54.005 40.4701 54.025 39.9626 54.0431 39.6986C54.0647 39.3896 54.5159 39.4516 54.4969 39.7291C54.519 40.0146 54.5325 40.4906 54.5185 40.7976C55.2347 40.9081 55.577 41.4206 55.5143 41.9786C55.5158 42.2481 55.175 42.0966 55.1619 41.9321C54.7248 40.4636 52.1649 42.0356 53.2124 43.1831C53.6812 43.5908 54.1018 43.7877 54.5109 43.9789ZM60.4248 43.9789C60.886 44.1947 61.3318 44.4033 61.8131 44.8996L61.8126 44.9001C63.1031 46.2306 62.4656 48.5821 60.6461 48.9531C60.6797 49.2573 60.6792 49.7173 60.6787 50.0445V50.133C60.6787 50.435 60.224 50.4255 60.224 50.133C60.1793 49.8266 60.1643 49.3061 60.1617 48.9961C58.9129 49.0211 57.9542 48.1476 57.7785 47.0356C57.7765 46.6876 58.1876 46.6651 58.3262 46.9396C58.7297 48.1411 59.9288 48.8186 61.01 48.1721C61.1606 48.1206 61.253 48.0286 61.3508 47.9311C62.0867 47.1976 62.0746 46.1036 61.3508 45.3591C60.9724 44.9696 60.4825 44.7356 60.0026 44.5151C59.0284 44.0671 58.0626 43.5216 58.2182 42.4476C58.3457 41.5661 59.2613 40.8761 59.9334 40.7926C59.9188 40.4701 59.9389 39.9626 59.957 39.6986C59.9785 39.3896 60.4298 39.4516 60.4107 39.7291C60.4328 40.0146 60.4463 40.4906 60.4323 40.7976C61.1486 40.9081 61.4909 41.4206 61.4281 41.9786C61.4296 42.2481 61.0888 42.0966 61.0758 41.9321C60.6386 40.4636 58.0787 42.0356 59.1262 43.1831C59.5951 43.5908 60.0157 43.7877 60.4248 43.9789ZM67.7275 44.8996C67.2461 44.4033 66.8004 44.1947 66.3391 43.9789C65.93 43.7877 65.5094 43.5908 65.0406 43.1831C63.993 42.0356 66.5529 40.4636 66.9901 41.9321C67.0032 42.0966 67.344 42.2481 67.3425 41.9786C67.4052 41.4206 67.0629 40.9081 66.3466 40.7976C66.3607 40.4906 66.3471 40.0146 66.325 39.7291C66.3441 39.4516 65.8929 39.3896 65.8713 39.6986C65.8532 39.9626 65.8331 40.4701 65.8477 40.7926C65.1756 40.8761 64.2601 41.5661 64.1326 42.4476C63.977 43.5216 64.9427 44.0671 65.917 44.5151C66.3968 44.7356 66.8867 44.9696 67.2652 45.3591C67.989 46.1036 68.001 47.1976 67.2652 47.9311C67.1673 48.0286 67.0749 48.1206 66.9244 48.1721C65.8432 48.8186 64.644 48.1411 64.2405 46.9396C64.102 46.6651 63.6909 46.6876 63.6929 47.0356C63.8686 48.1476 64.8273 49.0211 66.0761 48.9961C66.0786 49.3061 66.0936 49.8266 66.1383 50.133C66.1383 50.4255 66.5931 50.435 66.5931 50.133V50.0445C66.5936 49.7173 66.5941 49.2573 66.5604 48.9531C68.38 48.5821 69.0174 46.2306 67.727 44.9001L67.7275 44.8996Z" fill="#333333"/>
<path d="M94.7173 66.6456C94.2294 66.2086 93.6126 65.9086 92.8265 65.7281C90.6391 65.2616 88.3773 65.6306 86.4574 66.7686C84.0316 68.2051 81.3969 70.8621 80.7123 73.5896C80.0387 76.1246 82.8882 79.4701 85.5851 79.8636C89.3692 80.4171 93.7396 77.2801 95.7749 73.9916C96.3702 73.0751 96.7246 72.0856 96.8285 71.0511C97.0001 69.3431 95.9998 68.0276 94.7173 66.6461V66.6456ZM96.3285 71.0006C96.2327 71.9556 95.9044 72.8701 95.3503 73.7236C93.3802 76.9066 89.2166 79.8856 85.6579 79.3681C83.6285 79.0721 81.7598 77.2316 82.2637 75.1781C83.4443 70.4781 90.7791 65.4276 94.8624 68.0411C95.9155 68.7156 96.45 69.7941 96.3291 71.0006H96.3285Z" fill="#333333"/>
<path d="M94.5391 70.2888C94.4041 70.1973 94.3584 70.2578 93.337 70.7738C92.2181 69.4833 90.1436 70.2458 89.843 71.6473C89.6532 72.5318 90.0708 73.9163 89.5584 75.3443C89.3079 75.9923 88.808 76.4738 88.1916 76.6628C87.5536 76.8093 86.9222 76.6063 86.5372 76.1273C85.4721 75.0663 86.1863 73.4293 87.6294 72.8133C87.7413 72.7638 87.7584 72.5203 87.5356 72.5188C86.0594 72.7863 85.049 74.4233 85.8064 75.8953C85.4721 76.0493 84.9375 76.3508 84.8181 76.4083C84.6745 76.4783 84.6404 76.6988 84.7664 76.7818C84.9034 76.8723 84.9772 76.7868 86.0353 76.2588C86.486 76.8503 87.1641 77.1708 87.8071 77.1708C89.0374 77.1708 89.9564 76.0443 90.2109 74.9273C90.3349 74.0628 90.3504 73.4018 90.2616 72.7838C90.1632 72.0978 90.4076 71.3668 90.8945 70.8813C91.4607 70.4118 92.2764 70.4328 92.8777 70.9318C93.5829 71.5258 93.2456 72.4378 93.0679 72.8023C92.6749 73.6093 93.985 72.9453 93.7621 71.7258C93.741 71.5148 93.6778 71.3108 93.5744 71.1173C93.7405 71.0398 93.9804 70.9093 94.1953 70.7918C94.5642 70.5908 94.6209 70.5943 94.6304 70.4778C94.6365 70.4048 94.6003 70.3308 94.5391 70.2893V70.2888Z" fill="#333333"/>
<path d="M97.2335 48.637C96.6563 46.3555 95.2579 44.552 93.2963 43.5585C88.6503 41.204 82.6592 42.278 79.9703 47.516C76.5883 54.105 80.9185 61.009 88.1263 61.007C94.0773 61.007 98.7338 54.5635 97.234 48.637H97.2335ZM95.9194 55.371C93.7003 59.7185 88.811 61.694 85.0198 59.774C81.2287 57.854 79.9498 52.7545 82.1688 48.407C84.3528 44.1275 89.2226 42.056 93.0684 44.0045C96.7426 45.8645 98.2113 50.8805 95.9194 55.371Z" fill="#333333"/>
<path d="M91.4858 50.9466C90.6662 50.5406 89.7878 50.8676 89.08 50.7891C87.3544 50.5741 86.6391 48.3276 88.2202 47.2066C88.8898 46.7316 89.964 46.5261 90.8544 47.1356C91.0326 47.2616 91.3337 46.9471 91.1545 46.7696C90.5954 46.1861 89.7772 45.9741 88.8993 46.1826C88.7869 45.6991 88.4847 44.8731 88.4566 44.8176C88.291 44.4881 87.9507 44.6451 87.9507 44.9461C87.9507 45.3326 88.1896 45.9821 88.3818 46.3556C86.9508 46.9766 86.487 48.3986 86.8725 49.5821C87.1596 50.4646 87.9155 51.1946 88.9696 51.3426C89.4204 51.3426 89.8872 51.3426 90.3394 51.2921C91.0115 51.2921 91.7117 51.6046 92.2126 52.1281C93.2085 53.1686 93.1633 54.8671 92.1082 55.9181C90.7756 57.4666 88.5977 56.7711 87.1456 55.7121C86.988 55.5551 86.6451 55.7111 86.7164 55.9386C86.9438 56.6716 87.8864 56.9301 88.5334 57.1981C89.4781 57.6101 90.4905 57.5746 91.1164 57.3536C91.1817 57.7276 91.3061 58.2266 91.4035 58.5936C91.5571 58.8996 91.9024 58.8001 91.9024 58.4841C91.9024 58.1956 91.802 57.6166 91.7007 57.0756C92.7853 56.4416 93.4956 55.3456 93.5598 54.2026C93.6376 52.8041 92.7853 51.4656 91.4863 50.9466H91.4858Z" fill="#333333"/>
</svg>
